<?xml version="1.0" encoding="utf-8"?>
<!-- Generator: Adobe Illustrator 22.1.0, SVG Export Plug-In . SVG Version: 6.00 Build 0)  -->
<svg version="1.1" id="Layer_1" xmlns="http://www.w3.org/2000/svg" xmlns:xlink="http://www.w3.org/1999/xlink" x="0px" y="0px"
	 viewBox="0 0 500 216" style="enable-background:new 0 0 500 216;" xml:space="preserve">
<style type="text/css">
	.st0{fill:#FEFEFE;}
	.st1{fill:#414141;}
	.st2{fill:#7E7E7E;}
	.st3{fill:#696969;}
	.st4{fill:#777777;}
	.st5{fill:#A4A4A4;}
	.st6{fill:#A5A5A5;}
	.st7{fill:#434343;}
	.st8{fill:#444444;}
	.st9{fill:#424242;}
	.st10{fill:#454545;}
	.st11{fill:#F9F9F9;}
	.st12{fill:#474747;}
	.st13{fill:#464646;}
	.st14{fill:#494949;}
	.st15{fill:#484848;}
	.st16{fill:#575757;}
	.st17{fill:#DEDEDE;}
	.st18{fill:#5F5F5F;}
	.st19{fill:#606060;}
	.st20{fill:#6B6B6B;}
	.st21{fill:#5B5B5B;}
	.st22{fill:#656565;}
	.st23{fill:#5A5A5A;}
	.st24{fill:#4C4C4C;}
	.st25{fill:#4B4B4B;}
	.st26{fill:#4D4D4D;}
	.st27{fill:#767676;}
	.st28{fill:#535353;}
	.st29{fill:#F7F7F7;}
	.st30{fill:#E5E5E5;}
	.st31{fill:#EDEDED;}
	.st32{fill:#E7E7E7;}
	.st33{fill:#DADADA;}
	.st34{fill:#EEEEEE;}
	.st35{fill:#EFEFEF;}
	.st36{fill:#E4E4E4;}
	.st37{fill:#E2E2E2;}
</style>
<g>
	<g>
		<path class="st0" d="M277.6,62c68.7,0,137.5,0,206.2,0c0.6,2.9,2.2,4.7,5.4,4.3c1.2-0.1,1.9,0.8,2.1,2c0.1,1.1,0.1,2.1,0.1,3.2
			c0,27.9,0,55.8,0,83.7c0,0.1,0,0.3,0,0.5c0,4.3-0.3,4.6-4.6,4.8c-0.5,0-1,0-1.5,0.1c-0.9,0.2-1,0.9-1,1.7c0,0.8,0,1.6-0.6,2.3
			c-68.7,0-137.5,0-206.2,0c-0.6-0.6-0.7-1.5-0.6-2.3c0-0.8-0.1-1.5-1-1.7c-0.3,0,0,0-0.2,0c-5.7-0.4-5.7-0.4-5.7-6.1
			c0-27.4,0-54.8,0-82.2c0-0.9,0-1.8,0-2.7c0.1-2.7,0.6-3.3,3.4-3.4c2.3,0,3.6-0.7,3.7-3.1C277,62.6,277.3,62.3,277.6,62z"/>
		<path class="st1" d="M4.6,164.1c0-33.9,0-67.8,0-101.6c0.8-0.4,1.8-0.2,2.7-0.2c82.5,0,164.9,0,247.4,0c3.4,0,3.5,0,3.5,3.6
			c0,31.7,0,63.3,0,95c0,1.1,0.2,2.3-0.6,3.3c-0.8,0.4-1.8,0.2-2.7,0.2c-82.5,0-165.1,0-247.7,0C6.3,164.4,5.4,164.6,4.6,164.1z"/>
		<path class="st0" d="M265.8,164.6c-2.6,0-5.3,0-7.9,0c-0.2-0.3-0.2-0.6-0.2-0.9c0-33.1,0-66.2,0-99.3c0-0.8-0.2-1.6,0.2-2.4
			c2.6,0,5.3,0,7.9,0c0.8,0.9,0.8,2.1,0.8,3.2c0,32,0,64.1,0,96.1c0,0.8,0,1.6-0.3,2.4C266.2,164.1,266,164.4,265.8,164.6z"/>
		<path class="st2" d="M265.9,164.1c0-0.7-0.1-1.5-0.1-2.2c0-33.3,0-66.6,0-99.9c3.9,0,7.9,0,11.8,0c-0.5,1.5,0.7,3.7-0.7,4.6
			c-1.1,0.7-3,0.3-4.6,0.2c-1.6-0.1-1.7,0.7-1.7,2c0,5.4,0,10.8,0,16.2c0,23.8,0,47.6,0,71.3c0,3.8-0.5,3.3,3.4,3.3c1,0,2,0,2.9,0.1
			c0.1,0.1,0.2,0.2,0.2,0.4c0.4,4.1,0.4,4.2-3.7,4.1C271,164.3,268.4,164.7,265.9,164.1z"/>
		<path class="st2" d="M484.3,159.8c0.1,0,0.3-0.1,0.5-0.1c1.9-0.1,4.3,0.8,5.4-0.4c1.3-1.4,0.4-3.9,0.4-5.9c0-27.9,0-55.9,0-83.9
			c0-2.2-0.5-2.8-2.7-2.7c-4,0.2-4,0-4.1-3.9c0-0.3-0.1-0.6-0.1-1c3.3,0,6.7,0.1,10.1,0c1.5,0,1.8,0.3,1.8,1.8
			c0,33.5,0,66.9,0,100.4c-3.5,0.5-6.9,0.1-10.4,0.2c-0.8,0-1.2-0.4-1.1-1.2C484.1,162.1,483.7,160.9,484.3,159.8z"/>
		<path class="st3" d="M257.9,62c0,33.8,0,67.6,0,101.4c0,0.2,0,0.5-0.1,0.7c-0.1,0.2-0.3,0.2-0.4,0c0-31.6,0-63.1,0-94.7
			c0-2.2,0.9-5-0.4-6.4c-1.4-1.5-4.2-0.5-6.4-0.5c-82,0-164,0-246.1,0c0.3-1.2,6.2-0.4,6.7-0.4c9.3,0,13.7,0,23,0
			C108.8,62,183.4,62,257.9,62z"/>
		<path class="st4" d="M257.4,164.1c0.1,0,0.3,0,0.4,0c0,0.1,0,0.3,0,0.5c-83.7,0-167.4,0-251.1,0c-0.7,0-1.7,0.6-2.2-0.4
			c83.3,0,166.6,0,249.9,0C255.4,164.1,256.4,164.1,257.4,164.1z"/>
		<path class="st5" d="M484.3,159.8c-0.1,4.3-0.1,4.3,4.2,4.3c2.4,0,4.7,0,7.1,0c0.1,1-0.7,0.4-1,0.4c-3.6,0-7.2,0-10.8,0
			C484.1,163.1,483.3,161.3,484.3,159.8z"/>
		<path class="st6" d="M265.9,164.1c2.7,0,5.5-0.1,8.2,0.1c2.3,0.2,3.3-0.5,2.9-2.9c-0.1-0.5,0-1,0-1.5c1.1,1.5,0.2,3.2,0.5,4.8
			c-3.9,0-7.9,0-11.8,0C265.8,164.4,265.8,164.3,265.9,164.1z"/>
		<path class="st7" d="M310.4,140.7c0,1.8,0,2.9,0,4c0.1,1.3-0.2,1.9-1.7,1.9c-1.7,0-1.6-0.9-1.6-2.1c0-2.2,0-4.4,0-6.6
			c0-0.7-0.4-1.8,0.7-2c0.9-0.1,2-0.3,2.7,0.6c1.4,1.6,2.9,3.1,4.5,4.8c0.7-1.2,0.3-2.4,0.4-3.4c0-1.1,0-2.1,1.6-2.1
			c1.5,0,1.7,0.7,1.7,1.9c-0.1,2.2,0,4.4,0,6.6c0,0.7,0.5,1.8-0.6,2.1c-1.1,0.2-2.2,0.3-3.1-0.7
			C313.7,144.1,312.3,142.7,310.4,140.7z"/>
		<path class="st7" d="M366,122.8c0-1.8,0-2.9,0-4c-0.1-1.3,0.3-1.9,1.8-1.9c1.4,0,1.6,0.6,1.6,1.8c0,2.2,0,4.4,0,6.6
			c0,0.8,0.6,2-0.7,2.3c-1.1,0.3-2.2,0.1-3.1-0.9c-1.3-1.5-2.7-2.9-4.6-5c0,1.8,0,2.9,0,4.1c0,1.1-0.1,1.8-1.6,1.8
			c-1.5,0-1.8-0.6-1.8-1.9c0.1-2.2,0-4.4,0-6.6c0-0.7-0.5-1.9,0.5-2.1c1.1-0.3,2.2-0.4,3.1,0.7C362.7,119.3,364.2,120.7,366,122.8z"
			/>
		<path class="st7" d="M302.7,121.8c-3,3-3,3-6,0c0,1.6,0,2.8,0,4.1c0,1.2-0.1,1.8-1.6,1.8c-1.4,0-1.6-0.6-1.6-1.8
			c0-2.3,0-4.6,0-6.9c0-0.7-0.5-1.8,0.7-2c0.9-0.1,1.9-0.3,2.7,0.5c0.9,1,1.5,2.9,2.8,2.8c0.9,0,1.8-1.7,2.6-2.7
			c0.8-1,2-0.8,2.9-0.6c1.1,0.2,0.6,1.4,0.6,2.1c0,2.3,0,4.6,0,6.9c0,1.3-0.4,1.7-1.7,1.7c-1.4,0-1.7-0.5-1.6-1.8
			C302.7,124.7,302.7,123.5,302.7,121.8z"/>
		<path class="st8" d="M341.9,122.3c0,1.2,0,2.5,0,3.7c0.1,1.2-0.2,1.8-1.6,1.8c-1.3,0-1.7-0.5-1.7-1.7c0-2.2-2.3-3.4-4.2-2.5
			c-0.9,0.5-0.5,1.5-0.5,2.2c0,1.2-0.1,2-1.7,2c-1.6,0-1.7-0.7-1.7-2c0-2.4,0-4.7,0-7.1c0-1.2,0.2-1.8,1.6-1.7
			c1.2,0,1.9,0.3,1.7,1.7c-0.3,2.1,0.7,2.4,2.5,2.4c1.8,0,2.6-0.4,2.3-2.3c-0.2-1.2,0.3-1.7,1.6-1.7s1.7,0.4,1.6,1.7
			C341.8,119.8,341.9,121,341.9,122.3z"/>
		<path class="st9" d="M317.8,78.8c3.7,0,6.1,2.3,6,5.6c0,3.2-2.5,5.4-6,5.4c-3.6,0-6.1-2.3-6-5.6C311.8,81,314.3,78.8,317.8,78.8z"
			/>
		<path class="st7" d="M406,108.5c-2.2,0.7-3.6,0.2-4.3-2.1c-0.2-0.8-0.8-1.9-1.8-1.7c-1.3,0.2-0.7,1.5-0.6,2.3
			c0,1.4-0.4,1.8-1.8,1.8c-1.5,0-1.5-0.7-1.5-1.8c0-2.5,0-4.9,0-7.3c0-1.3,0.4-1.8,1.7-1.7c1.5,0.1,2.9-0.1,4.4,0.1
			c2.8,0.3,4.1,2.8,2.5,5.1c-0.5,0.8-0.5,1.1,0,1.8C405.1,106,405.8,107.1,406,108.5z"/>
		<path class="st8" d="M382.1,101.8c0-0.8,0-1.6,0-2.5c-0.1-1.2,0.5-1.5,1.6-1.5c1,0,1.7,0.1,1.7,1.4c0,1.4,0,2.7,0,4.2
			c0,1.5,0.7,2.6,2.3,2.6c1.6,0,2.3-1.1,2.4-2.6c0-1.4,0.1-2.7,0-4.2c0-1.3,0.6-1.5,1.7-1.5c1,0,1.8,0.1,1.7,1.4c-0.1,1,0,2.1,0,3.2
			c0,4.4-1.7,6.2-5.6,6.2c-3.9,0-5.6-1.9-5.7-6.2C382.1,102.3,382.1,102.1,382.1,101.8z"/>
		<path class="st7" d="M336.1,89.4c-2.3,0.7-3.7,0.3-4.3-1.9c-0.1-0.4-0.4-0.9-0.7-1.2c-0.4-0.4-0.9-0.8-1.5-0.5
			c-0.6,0.2-0.3,0.8-0.3,1.3c-0.1,0.8,0.4,2-0.4,2.5c-0.5,0.3-1.4,0.2-2.2,0.1c-0.9-0.1-0.7-0.9-0.7-1.6c0-2.5,0-4.9,0-7.3
			c0-1.2,0.3-1.8,1.6-1.7c1.6,0.1,3.3,0,4.9,0.1c2.2,0.3,3.6,2.7,2.5,4.4c-0.9,1.3-0.8,2.2,0,3.3C335.3,87.5,335.6,88.4,336.1,89.4z
			"/>
		<path class="st9" d="M343.6,84.2c0-5.6,0-5.6,5.6-5.2c3.4,0.3,5.4,2.5,5.3,5.7c-0.1,3-2.1,4.8-5.5,4.9
			C343.6,89.8,343.6,89.8,343.6,84.2z"/>
		<path class="st7" d="M304.7,139.9c0,4.8-1.3,6.5-5.1,6.8c-4,0.3-6.2-1.7-6.2-5.7c0-1.1,0-2.3,0-3.4c-0.1-1.2,0.3-1.8,1.6-1.8
			c1.2,0,1.8,0.4,1.7,1.7c-0.1,1.2,0,2.5,0,3.7c0,1.6,0.6,2.8,2.4,2.8c1.8,0,2.3-1.3,2.4-2.8c0.1-1.3,0.1-2.6,0-3.9
			c0-1.3,0.7-1.4,1.7-1.4c1,0,1.6,0.2,1.5,1.3C304.6,138.1,304.7,138.9,304.7,139.9z"/>
		<path class="st7" d="M359.7,102c0,5-1.7,6.9-5.9,6.7c-3.6-0.1-5.4-1.9-5.4-5.5c0-1.1,0-2.1,0-3.2c0-1.2,0-2.2,1.7-2.2
			c1.7,0,1.6,0.9,1.6,2.1c0,1.1,0,2.3,0,3.4c0,1.5,0.6,2.7,2.2,2.7c1.8,0.1,2.4-1.1,2.6-2.7c0.1-1.2,0.1-2.5,0-3.7
			c0-1.1,0.1-1.8,1.5-1.9c1.6,0,1.8,0.7,1.7,2C359.6,100.5,359.7,101.3,359.7,102z"/>
		<path class="st9" d="M359.7,146.3c-2.3,0.7-3.8,0.3-4.3-2c-0.1-0.4-0.4-0.7-0.6-1c-0.3-0.5-0.8-0.8-1.5-0.7
			c-0.8,0.2-0.4,0.9-0.6,1.4c-0.3,0.9,0.9,2.5-1.1,2.6c-1.3,0.1-2.2,0-2.1-1.8c0.1-2.5,0.1-4.9,0-7.4c0-1.1,0.3-1.7,1.5-1.6
			c1.6,0.1,3.3,0,4.9,0.2c2.2,0.3,3.6,2.7,2.5,4.4c-0.9,1.3-0.7,2.2,0,3.3C359,144.4,359.3,145.3,359.7,146.3z"/>
		<path class="st9" d="M329.3,108.4c-2.5,0.7-3.8,0-4.4-2.1c-0.2-0.8-0.8-1.9-1.9-1.7c-1.3,0.2-0.6,1.5-0.7,2.2c0,1.1,0,1.8-1.5,1.8
			c-1.5,0-1.8-0.6-1.7-1.9c0.1-2.5,0-4.9,0-7.3c0-1.1,0.3-1.7,1.5-1.6c1.5,0.1,3.1-0.1,4.6,0.1c2.4,0.3,3.9,2.7,2.7,4.4
			c-1.1,1.5-0.5,2.4,0.1,3.5C328.6,106.7,328.9,107.5,329.3,108.4z"/>
		<path class="st7" d="M316.1,100.8c-1.5-0.5-3-0.9-4.5-0.5c-1.9,0.5-2.7,1.8-2.4,3.7c0.4,1.8,1.8,2.4,3.5,2.3
			c0.3,0,0.7-0.1,0.8-0.3c0.2-0.4,0-0.8-0.4-0.9c-1.1-0.2-1.1-1.2-0.7-1.7c0.7-1,1.9-0.3,2.9-0.5c0.9-0.1,1,0.4,1.1,1.2
			c0.4,3.3,0,4.2-2.3,4.6c-4.3,0.8-7.5-0.6-8.2-3.7c-1.2-4.9,2.8-8.2,8.5-6.8C316.1,98.4,316.8,99,316.1,100.8z"/>
		<path class="st7" d="M343.3,127.7c1.6-3.5,2.9-6.5,4.2-9.6c0.5-1.3,1.4-1.1,2.4-1.1c1,0,1.9,0,2.3,1.2c1,2.5,2.2,4.9,3.2,7.4
			c0.2,0.6,1.4,1.5,0.1,2c-0.8,0.3-2,0.5-2.8-0.6c-1.4-2.1-4.4-2.2-5.7,0C346,128.2,344.8,127.4,343.3,127.7z"/>
		<path class="st7" d="M394.9,117c1.4-0.3,2.1,0.3,2.6,1.6c1,2.4,2.1,4.8,3.1,7.2c0.2,0.5,1.3,1.4,0.1,1.8c-0.8,0.3-2.1,0.6-2.9-0.5
			c-1.7-2.3-4.1-2.2-5.8,0c-0.8,1.1-2,0.8-2.9,0.5c-1.1-0.4,0-1.3,0.1-1.8c1-2.4,2.2-4.8,3.1-7.2C392.8,117.3,393.5,116.7,394.9,117
			z"/>
		<path class="st7" d="M292.3,108.5c1.5-3.3,2.7-6.4,4.2-9.4c0.7-1.5,3.7-1.7,4.4-0.2c1.5,3.1,2.8,6.4,4.3,9.7
			c-1.7,0.1-3.1,0.7-3.9-1.3c-0.4-1.1-4.3-1-5.1,0C294.9,108.7,294.9,108.7,292.3,108.5z"/>
		<path class="st7" d="M419.4,108.6c-1.7,0-3.1,0.7-3.9-1.3c-0.4-1.1-4.6-1.1-5,0c-0.8,2-2.2,1.5-4,1.4c1.5-3.4,2.9-6.7,4.4-9.9
			c0.6-1.2,3.6-1.1,4.1,0.1C416.6,102,417.9,105.2,419.4,108.6z"/>
		<path class="st7" d="M367.6,89.6c-1.7,0.1-3.1,0.7-3.9-1.3c-0.4-1-4.6-1-5,0c-0.8,2-2.2,1.5-3.9,1.3c1.5-3.4,2.8-6.6,4.3-9.7
			c0.6-1.2,3.6-1.2,4.2,0C364.8,82.9,366.1,86.2,367.6,89.6z"/>
		<path class="st10" d="M308.6,122.2c0-5.3,0-5.3,5.4-5.3c0.6,0,1.1,0,1.7,0c0.6,0,0.8,0.3,0.9,0.9c0,0.6-0.1,1.1-0.9,1.2
			c-0.9,0-1.8,0-2.7,0c-0.7,0-1.1,0.2-1.1,1s0.4,0.9,1.1,0.9c0.7,0,1.5,0,2.2,0c0.8,0,1.2,0.3,1.2,1.1c0,0.9-0.4,1.1-1.2,1.1
			c-0.6,0-1.3,0-2,0c-0.7,0-1.3,0.1-1.3,1c0,1.1,0.6,1.2,1.4,1.2c0.7,0,1.5,0,2.2,0c0.7,0,1.3,0.1,1.3,1.1c0,0.8-0.3,1.2-1.2,1.2
			c-1.9,0-3.8,0-5.6,0c-1.1,0-1.4-0.6-1.3-1.5C308.6,124.8,308.6,123.5,308.6,122.2z"/>
		<path class="st8" d="M387.3,124.4c0.7,2.2-0.2,2.9-2,3.2c-3.8,0.7-7-0.7-7.9-3.7c-1.4-4.6,2.3-7.9,7.7-6.9
			c2.4,0.4,2.4,0.5,2.1,3.1c-2.2-0.7-4.4-1.6-6.2,0.6c-0.8,1-0.7,2.2,0.1,3.2C383,126.1,385.1,125.1,387.3,124.4z"/>
		<path class="st7" d="M339.3,141.1c0-5.3,0-5.3,5.4-5.3c0.6,0,1.1,0,1.7,0c0.8,0,0.8,0.6,0.8,1.2s-0.2,0.9-0.8,0.9
			c-0.8,0-1.6,0-2.5,0c-0.6,0-1.4-0.1-1.4,0.9c0,1.1,0.7,1.1,1.5,1.1c0.6,0,1.1,0,1.7,0c0.7,0,1.3,0.1,1.3,1c0,0.9-0.4,1.1-1.2,1.1
			c-0.1,0-0.3,0-0.5,0c-0.9,0.3-2.8-0.9-2.7,1.2c0.1,2.1,1.9,0.7,2.9,1c0.8,0.2,1.9-0.3,1.8,1.2c-0.1,1.4-1.1,0.8-1.8,0.9
			c-0.2,0-0.5,0-0.7,0C339.3,146.6,339.3,146.6,339.3,141.1z"/>
		<path class="st8" d="M324.3,127.8c-3.7,0-6.1-2.1-6.1-5.5c0-3.4,2.4-5.5,6.2-5.4c1,0,2,0.2,2.9,0.4c1.2,0.2,1.3,1.2,1.1,2.1
			c-0.3,1.4-1.1,0.3-1.7,0.2c-0.5,0-1-0.2-1.4-0.2c-2.2-0.1-3.8,1.2-3.8,2.9c0,1.9,1.8,3,4,3c0.9,0,2.4-1.9,2.8,0
			c0.6,2.4-1.7,2-3.1,2.4C325,127.8,324.6,127.8,324.3,127.8z"/>
		<path class="st7" d="M346.1,105.4c0.8,2.3-0.3,2.9-2.2,3.2c-5.4,0.8-9-2.5-7.6-7c1-3.3,6.7-5.3,9.5-3.1c0.5,0.4,0.5,0.4,0.3,2.7
			c-2.3-0.8-4.6-1.7-6.3,0.8c-0.7,1.1-0.6,2.3,0.3,3.1C341.9,107,344,106.2,346.1,105.4z"/>
		<path class="st11" d="M466.1,106.7c-0.1,0.1-0.3,0.3-0.5,0.4c-0.7,0.4-1.5,0.6-2.2,1c-1.5,0.4-3,1-4.5-0.2
			c-0.7-2.6-0.3-5.2-0.3-7.8c0-1.2,0.7-1.9,2-2c0.8,0,1.6-0.1,2.4,0c1.1,0.3,2.2,0.8,3,1.5c0.3,0.3,0.7,0.7,1,1
			C467,102.8,467.5,104.9,466.1,106.7z"/>
		<path class="st8" d="M332,141.9c0.8-2,1.5-3.4,2-4.9c0.3-0.7,0.7-1.2,1.6-1.2c1.4,0,2.5-0.1,1.5,1.9c-1.3,2.5-2.3,5.1-3.4,7.6
			c-0.3,0.8-0.7,1.4-1.7,1.4c-1.1,0-1.3-0.7-1.7-1.5c-1.1-2.5-2.2-4.9-3.2-7.4c-0.2-0.6-1.4-1.5,0-1.9c0.9-0.2,2.3-0.6,2.9,0.9
			C330.5,138.4,331.2,139.9,332,141.9z"/>
		<path class="st8" d="M361.2,143.6c1.1,0.3,2.1,0.6,3,0.8c0.5,0.1,1,0,1.2-0.6c0.2-0.6-0.2-0.9-0.7-1.1c-0.6-0.3-1.3-0.6-2-1
			c-1.3-0.7-2-1.9-1.7-3.4c0.3-1.6,1.6-2.2,3-2.5c2.8-0.4,4.3,0.6,4.2,2.9c-0.1,0-0.2,0.1-0.4,0.1c-1.2-0.3-2.8-1.6-3.5-0.2
			c-0.6,1.3,1.5,1.5,2.4,2.1c1.3,0.9,2.4,1.9,1.9,3.6c-0.4,1.7-1.7,2.3-3.2,2.5C362.3,147,361,146.2,361.2,143.6z"/>
		<path class="st8" d="M381.6,146.5c-1.2,0.2-1.6-0.3-1.6-1.5c0-1.5,0-3.1,0-4.6c0.1-1.5-0.4-2.1-1.9-1.9c-0.9,0-2,0.4-2.1-1.2
			c0-1.8,1.2-1.4,2.2-1.4c2.4,0,4.7,0,7.1,0c0.9,0,1.8-0.2,1.8,1.3c0,1.3-0.6,1.6-1.7,1.4c-2.1-0.4-2.5,0.7-2.3,2.5
			c0.1,1.3,0,2.6,0,3.9C383.3,146.2,382.9,146.8,381.6,146.5z"/>
		<path class="st8" d="M374.8,97.9c1.3,0,2.6,0,3.9,0c1,0,1.7,0.1,1.7,1.4c0,1.2-0.7,1.4-1.6,1.2c-2.1-0.3-2.6,0.7-2.4,2.5
			c0.1,1.3,0,2.6,0,3.9c0,1.2-0.2,1.8-1.6,1.8c-1.3,0-1.7-0.5-1.6-1.7c0.1-1,0-2.1,0-3.2c0.1-2,0.1-3.8-2.8-3.2
			c-1,0.2-1.1-0.5-1.2-1.4c0-1,0.4-1.3,1.3-1.3C372,97.9,373.4,97.9,374.8,97.9z"/>
		<path class="st10" d="M399.3,136.2c-0.7,1-1.3,2-2.1,2.8c-1.4,1.6-2.2,3.4-1.9,5.6c0.1,1.1,0,2-1.6,2c-1.5,0-2-0.6-1.7-1.9
			c0.5-2.7-1-4.5-2.5-6.4c-0.5-0.7-1.2-1.3-1.4-2.3c2.3-0.3,2.3-0.3,5.5,2.8C395.1,137.3,396,134.9,399.3,136.2z"/>
		<path class="st12" d="M402.8,122.1c0-1.1,0-2.3,0-3.4c0-1.1,0.1-1.8,1.6-1.8s1.9,0.5,1.8,1.9c-0.1,1.5,0.1,2.9,0,4.4
			c-0.1,1.6,0.5,2.1,2,1.9c0.6-0.1,1.3,0,2,0c0.9,0,1,0.6,1,1.4c0,0.7-0.2,1.3-1.1,1.3c-0.5,0-1,0-1.5,0
			C402.8,127.7,402.8,127.7,402.8,122.1z"/>
		<path class="st7" d="M293.6,84.2c0-5.2,0-5.2,5.3-5.1c0.6,0,1.1,0,1.7,0c0.5,0,0.6,0.4,0.6,0.9c0,0.5,0,1-0.6,1.1
			c-0.5,0.1-1,0-1.5,0.1c-0.8,0.2-2.3-0.7-2.3,0.9c0,1.9,1.5,0.8,2.4,1.1c0.7,0.2,1.9-0.4,2,1.1s-1.1,1.2-1.9,1.1
			c-2-0.2-2.9,0.4-2.6,2.5c0.2,1.1,0,1.8-1.5,1.8c-1.5,0-1.8-0.6-1.7-1.9C293.6,86.6,293.6,85.4,293.6,84.2z"/>
		<path class="st13" d="M362.2,103.1c0-1.1,0-2.3,0-3.4c0-1.2,0.2-1.8,1.6-1.8c1.5,0,1.8,0.6,1.7,1.9c0,0.8,0,1.6,0,2.5
			c0,3.5,0,3.6,3.5,3.9c0.8,0,1.3,0.2,1.4,1.2c0,1.1-0.4,1.5-1.5,1.4c-0.4,0-0.8,0-1.2,0C362.2,108.7,362.2,108.7,362.2,103.1z"/>
		<path class="st7" d="M424.7,108.7c-3.8,0-3.8,0-3.8-3.9c0-1.7,0-3.4,0-5.2c0-1.2,0.2-1.8,1.6-1.7c1.4,0,1.7,0.6,1.6,1.8
			c0,0.7,0,1.5,0,2.2c0,1.3-0.3,2.8,0.3,3.8c0.6,1.1,2.3,0.3,3.4,0.4c0.8,0,1.2,0.3,1.2,1.1c0,0.8,0,1.5-1.1,1.4
			C426.8,108.7,425.7,108.7,424.7,108.7z"/>
		<path class="st9" d="M303.4,84.2c0-1.1,0-2.3,0-3.4c0-1.1,0.1-1.8,1.6-1.8c1.3,0,1.8,0.4,1.7,1.7c-0.1,0.9,0,1.8,0,2.7
			c0,3.4,0,3.5,3.5,3.7c1.1,0,1.4,0.4,1.4,1.4c0,1.1-0.6,1.2-1.4,1.2c-0.4,0-0.8,0-1.2,0C303.4,89.7,303.4,89.7,303.4,84.2z"/>
		<path class="st14" d="M375.3,122.4c0,1.1,0,2.3,0,3.4c0.1,1.3-0.3,1.9-1.8,1.9c-1.4,0-1.6-0.6-1.6-1.8c0-2.5,0-4.9,0-7.3
			c0-1.3,0.3-1.7,1.7-1.7c1.2,0,1.8,0.3,1.7,1.7C375.2,119.8,375.3,121.1,375.3,122.4z"/>
		<path class="st14" d="M324.7,141.5c0,1,0,2.1,0,3.1c0.1,1.2-0.1,1.9-1.7,1.9c-1.6,0-1.7-0.7-1.7-2c0-2.5,0-4.9,0-7.3
			c0-1.4,0.7-1.6,1.8-1.6c1.2,0,1.6,0.5,1.5,1.6C324.7,138.7,324.7,140.2,324.7,141.5z"/>
		<path class="st14" d="M374.3,141.2c0,1.1,0,2.3,0,3.4c0,1.1,0,2-1.6,2c-1.7,0-1.8-0.8-1.8-2.1c0-2.4,0.1-4.7,0-7.1
			c0-1.3,0.5-1.6,1.7-1.7c1.3,0,1.7,0.5,1.6,1.8C374.2,138.7,374.3,140,374.3,141.2z"/>
		<path class="st15" d="M340.9,84.3c0,1.1,0,2.3,0,3.4c0,1.2-0.1,2-1.6,2c-1.6,0-1.7-0.8-1.6-2c0-2.4,0-4.7,0-7.1
			c0-1.3,0.4-1.7,1.7-1.7c1.3,0,1.7,0.5,1.6,1.7C340.8,81.9,340.9,83.2,340.9,84.3z"/>
		<path class="st9" d="M334.1,103.3c0,1.2,0,2.5,0,3.7c0.1,1.2-0.3,1.7-1.6,1.7c-1.4,0-1.6-0.6-1.6-1.8c0-2.5,0-5.1,0-7.6
			c0-1.2,0.5-1.5,1.6-1.5c1.1,0,1.6,0.3,1.6,1.5C334,100.7,334.1,102,334.1,103.3z"/>
		<path class="st16" d="M447.5,99.8c-1.1,0.9-0.4,2.3-0.6,3.4c-0.2,1.8,0.2,3.6-0.2,5.4c-0.2,0-0.5,0-0.7,0c0-3.3,0-6.6,0-9.9
			c0-0.3,0.2-0.7,0.6-0.6c0.7,0.2,1.2,0.8,1.2,1.6C447.8,99.8,447.7,99.9,447.5,99.8z"/>
		<path class="st17" d="M440.6,99.8c0,0.1,0,0.2,0,0.3c-0.1,0.9,0.5,1.6,0.9,2.4c0.2,0.7,0.7,1.4-0.1,2c-1.5,0-3.1,0.8-4.4-0.7
			c0-0.8,0.6-1.4,0.9-2.1c0.5-0.6,0.7-1.6,1.4-2.2C439.7,99.4,440.1,99.4,440.6,99.8z"/>
		<path class="st11" d="M463.6,108.7c-1.6,0.9-3.3,0.3-5,0.4c-0.9,0-0.9-0.8-0.9-1.4c0-2.9,0-5.8,0-8.8c0-0.7,0-1.5,0.9-1.4
			c1.7,0,3.4-0.5,5,0.4c-0.8,0.8-1.8,0.4-2.7,0.5c-0.7,0.1-1.6-0.2-2.1,0.7c-0.2,2.9-0.1,5.8,0,8.7c0.4,1.2,1.5,0.5,2.3,0.7
			C461.9,108.6,462.9,107.8,463.6,108.7z"/>
		<path class="st18" d="M454.4,106.9c0.8-2,0.2-4,0.4-6c0.1-1-0.2-2,0.2-2.9c0.8,0,0.7,0.5,0.7,1c0,2.8,0,5.5,0,8.3
			c0,0.6,0.2,1.7-1,0.9C454.9,107.7,454.2,107.4,454.4,106.9z"/>
		<path class="st19" d="M458.3,98.3c1.7-1.1,3.6-0.2,5.4-0.5c0.1,0.1,0.3,0.3,0.5,0.5c-0.1,0.2-0.2,0.3-0.5,0.4
			c-4.6-0.2-4.6-0.2-4.6,4.5c0,1.6-0.3,3.2,0.3,4.8c-0.2,0.3-0.5,0.3-0.8,0.1C458.1,104.9,458.9,101.6,458.3,98.3z"/>
		<path class="st16" d="M437.2,103.4c1.2,1.8,2.9,0.4,4.4,0.8c0.3,0,0.6-0.3,1,0c0.3,0.2,0.5,0.5,0.5,1c-0.2,0.3-0.4,0.3-0.7,0
			c-1.9-0.7-3.9,0-5.8-0.4c-0.1,0-0.2-0.1-0.3-0.1c-0.4-0.8,0.5-1.3,0.5-2C437.1,102.8,437.5,102.9,437.2,103.4z"/>
		<path class="st20" d="M466.1,106.7c0.3-2,0.6-3.9,1-5.9c0.4,0.2,0.5,0.5,0.4,1c-0.3,1-0.3,2,0,2.9
			C467.6,105.8,467,106.3,466.1,106.7z"/>
		<path class="st21" d="M458.7,108.2c0.2,0,0.5,0,0.7-0.1c1.4-0.1,2.8-0.2,4.2-0.3c0.2,0.1,0.5,0.1,0.6,0.4
			c-0.2,0.1-0.4,0.3-0.6,0.4c-1.8-0.3-3.7,0.6-5.4-0.5C458.4,107.9,458.5,107.9,458.7,108.2z"/>
		<path class="st22" d="M440.6,99.8c-0.5,0-1,0-1.5,0c-0.3,0-0.4-0.3-0.5-0.4c-0.3-0.8,0.6-1.4,0.9-1.4
			C440.3,98.1,440.4,99.1,440.6,99.8z"/>
		<path class="st20" d="M451,103.4c1.1,0.4,1.8,1.2,2.5,2.6C451.8,105.7,451.3,104.6,451,103.4z"/>
		<path class="st3" d="M447.5,99.8c0.1,0,0.2-0.1,0.3-0.2c1.2,0.3,1.6,1.2,2.3,2.6C448.5,101.6,447.9,100.8,447.5,99.8z"/>
		<path class="st23" d="M442.3,105.3c0.2,0,0.4,0,0.7,0c0.6,1,1.5,2,0.9,3.4C443,107.6,442.7,106.4,442.3,105.3z"/>
		<path class="st3" d="M436.2,104.7c0.1,0,0.2,0,0.3,0.1c0.2,1-0.2,1.7-0.8,2.3c-0.2,0.2-0.4,0.1-0.6,0
			C435.3,106.2,435.5,105.4,436.2,104.7z"/>
		<path class="st24" d="M442.5,104.2c-0.3,0-0.6,0.5-1,0c-0.2-0.6-0.3-1.3-0.5-2c-0.2-0.5,0-0.5,0.4-0.5
			C441.8,102.6,442.2,103.4,442.5,104.2z"/>
		<path class="st25" d="M463.6,98.8c0.1-0.1,0.3-0.3,0.5-0.4c0.8,0.2,1.8,0.3,2,1.4C465.1,99.9,464.5,99,463.6,98.8z"/>
		<path class="st20" d="M438.6,99.3c0.2,0.1,0.3,0.3,0.5,0.4c-0.1,0.7-0.4,1.4-0.9,2c-0.3,0-0.4-0.2-0.5-0.5
			C437.9,100.6,438.2,100,438.6,99.3z"/>
		<path class="st26" d="M437.6,101.3c0.1,0.2,0.3,0.3,0.5,0.5c-0.1,0.6-0.3,1.2-0.9,1.6c-0.1-0.2-0.3-0.4-0.4-0.6
			C437,102.3,437.3,101.8,437.6,101.3z"/>
		<path class="st3" d="M441.5,101.8c-0.1,0.1-0.3,0.3-0.4,0.5c-0.3-0.7-1.3-1.2-0.4-2.1C441.2,100.5,441.5,101.1,441.5,101.8z"/>
		<path class="st25" d="M464.2,108.2c-0.2-0.1-0.4-0.3-0.6-0.4c0.6-0.3,1.2-0.8,2-0.6C465.4,107.8,465,108.2,464.2,108.2z"/>
		<path class="st27" d="M435,107.1c0.2,0,0.4,0,0.6,0c0,0.6-0.2,1.6-0.9,1.4C434,108.3,434.7,107.6,435,107.1z"/>
		<path class="st28" d="M454.4,106.9c0.2,0.4,1.5,0.5,0.3,1.3C454.5,107.8,453.3,107.6,454.4,106.9z"/>
		<path class="st9" d="M467.6,104.7c-0.6-1-0.6-2,0-2.9C467.8,102.8,467.8,103.7,467.6,104.7z"/>
		<path class="st0" d="M117.5,144.3c1.4-8.4,2.7-16.8,4.2-25.1c2.1-12.1,4.2-24.2,6.2-36.2c0.3-2.1,1-2.9,3.2-2.7
			c2.5,0.2,4.9,0.2,7.4,0c1.8-0.1,2.4,0.6,2.8,2.2c4.5,13.6,9,27.2,13.5,40.8c0.2,0.8,0.5,1.5,0.9,2.5c0.8-0.7,0.9-1.6,1.2-2.4
			c4.6-13.6,9.1-27.1,13.6-40.7c0.5-1.7,1.2-2.4,3-2.3c2.7,0.2,5.4,0.1,8.1,0c1.5-0.1,2,0.5,2.2,1.9c2.9,17.7,5.9,35.5,8.9,53.2
			c0.4,2.7,0.8,5.5,1.4,8.2c0.4,1.9,0.2,2.8-2.1,2.7c-2.5-0.2-4.9-0.2-7.4,0c-1.8,0.1-2.4-0.4-2.7-2.2c-1.6-10-3.3-20-5-30
			c-0.5-2.8-1-5.6-1.5-8.7c-0.9,0.9-1,2-1.3,2.9c-4,11.8-8,23.7-11.9,35.5c-0.6,1.7-1.3,2.6-3.2,2.4c-2.2-0.2-4.4-0.1-6.6,0
			c-1.6,0.1-2.3-0.5-2.7-2c-3.9-12-8-24.1-12-36.1c-0.3-0.9-0.4-1.9-1.3-2.8c-1.9,10.7-3.7,21.2-5.5,31.6c-0.4,2.6-1,5.1-1.5,7.7
			c-0.7,0.8-1.6,1.3-2.8,1.2c-2.6,0-5.1,0-7.6,0C118,145.7,116.9,145.8,117.5,144.3z"/>
		<path class="st0" d="M117.5,144.3c0.1,1.1,0.9,1.2,1.7,1.2c3.4-0.1,6.9,0.6,10.1-1c0.2,1.1-0.2,1.6-1.5,1.6c-7.5,0-14.9,0-22.3,0
			c-1.2,0-1.5-0.7-1.8-1.6c-1.3-3.4-2.6-6.7-3.8-10.1c-0.5-1.3-1.1-1.9-2.6-1.9c-7.7,0.1-15.4,0-23.1,0c-1.4,0-2.2,0.3-2.7,1.8
			c-1.2,3.4-2.7,6.7-3.9,10.1c-0.4,1.3-1.1,1.8-2.5,1.7c-2.9-0.1-5.9-0.1-8.8,0c-2.1,0.1-2.3-0.4-1.6-2.3
			c5.4-13.7,10.6-27.4,15.9-41.1C73.3,95.8,76,89,78.5,82c0.5-1.5,1.3-2,2.8-1.9c2.8,0.1,5.5,0.1,8.3,0c1.8-0.1,2.6,0.5,3.1,2.2
			c7.7,20.2,15.4,40.3,23.2,60.4C116.3,143.3,115.8,144.9,117.5,144.3z"/>
		<path class="st0" d="M208.3,103.4c0,7.3-0.1,14.6,0,21.8c0.1,5.4,3.2,8.6,8.2,9c6.5,0.5,10.8-3,10.9-9.7
			c0.2-13.1,0.1-26.2,0.2-39.3c0-5,0-5,5.2-5c2,0,3.9,0,5.9,0c1.1,0,1.6,0.3,1.6,1.5c-0.2,14.9,0.1,29.8-0.2,44.6
			c-0.2,10.3-9,21.5-24.5,19.9c-11.7-1.2-18.7-8.3-19.5-20.1c-1-14.8-0.2-29.6-0.4-44.4c0-1.2,0.4-1.6,1.6-1.5c3,0,6,0.1,9.1,0
			c1.7-0.1,2,0.5,2,2.1C208.2,89.4,208.2,96.5,208.3,103.4C208.3,103.4,208.3,103.4,208.3,103.4z"/>
		<path class="st0" d="M22.3,113.1c0-10.2,0-20.5,0-30.7c0-1.7,0.4-2.2,2.2-2.2c9.5,0.1,19,0.1,28.5,0c1.6,0,2.2,0.3,2.1,2
			c-0.1,2.8-0.1,5.5,0,8.3c0,1.5-0.4,2-1.9,2c-5.4-0.1-10.8,0-16.2,0c-1.7,0-2.3,0.4-2.2,2.2c0.1,2.5,0.1,5.1,0,7.6
			c-0.1,2,0.7,2.3,2.4,2.3c5.3-0.1,10.5,0,15.7,0c1.6,0,2.4,0.3,2.3,2.2c-0.1,2.6-0.1,5.3,0,7.9c0.1,1.8-0.6,2.2-2.3,2.2
			c-5.3-0.1-10.7,0-16-0.1c-1.8,0-2.2,0.5-2.2,2.2c0.1,8.4,0,16.8,0.1,25.3c0,1.7-0.4,2.3-2.2,2.2c-2.6-0.1-5.3-0.2-7.9,0
			c-2.2,0.1-2.5-0.7-2.5-2.7C22.3,133.3,22.3,123.2,22.3,113.1z"/>
		<path class="st29" d="M320.6,84.2c-0.1,1.6-0.9,2.7-2.7,2.8c-1.8,0-2.8-0.9-2.8-2.6c0-1.7,0.8-2.7,2.7-2.8
			C319.4,81.5,320.4,82.5,320.6,84.2z"/>
		<path class="st30" d="M401.9,101.3c0,1.1-0.8,1.2-1.7,1.3c-0.9,0.1-1-0.5-1-1.2c0-0.7,0-1.5,1-1.4
			C401,100.1,401.8,100.3,401.9,101.3z"/>
		<path class="st31" d="M331.8,82.4c-0.1,0.9-0.7,1.2-1.5,1.2c-1,0.1-1.3-0.4-1.2-1.3c0-0.7,0-1.3,1-1.3
			C331,81.1,331.7,81.4,331.8,82.4z"/>
		<path class="st11" d="M346.7,84.2c0.7-1-1-3.1,1.6-3c2,0,3,1.2,3,3.3s-1.2,3-3,2.9C345.5,87.4,347.5,85.2,346.7,84.2z"/>
		<path class="st32" d="M355.5,139.2c-0.1,1-0.8,1.2-1.7,1.3c-1.1,0-1.1-0.6-1.1-1.4c0-0.8,0.2-1.2,1.1-1.2
			C354.7,138,355.4,138.2,355.5,139.2z"/>
		<path class="st33" d="M323.8,102.6c-1.5,0.1-1.6-0.5-1.6-1.3s0.1-1.5,1.2-1.3c0.8,0.1,1.7,0.3,1.7,1.4
			C325,102.4,324.2,102.6,323.8,102.6z"/>
		<path class="st34" d="M351.2,123.2c-0.9,0.5-1.8,0.3-2.8,0.1c0.4-1.1,0.8-2.1,1.3-3.3C350.6,121.1,350.8,122.2,351.2,123.2z"/>
		<path class="st35" d="M395,119.8c0.6,1.5,0.9,2.4,1.3,3.4c-0.9,0.5-1.7,0.4-2.7,0.1C393.7,122.3,394.2,121.3,395,119.8z"/>
		<path class="st36" d="M298.9,101.3c0.4,1.1,1.8,2.1,0.8,3.2c-0.2,0.3-1.9,0.2-2,0C297.2,103.3,298.2,102.4,298.9,101.3z"/>
		<path class="st37" d="M412.9,101.1c0.9,1,1.1,2.2,1.6,3.3c-1,0.3-2.4,0.6-2.7-0.1C411.4,103.4,412.3,102.3,412.9,101.1z"/>
		<path class="st34" d="M362.4,85.5c-0.9,0.1-2.2,0.6-2.4-0.2c-0.3-1,0.5-2.1,1.2-3.2C361.8,83.3,362.4,84.2,362.4,85.5z"/>
		<path class="st13" d="M458.7,108.2c-0.1,0-0.3,0-0.4,0c0-3.3,0-6.5,0-9.8C459.2,101.6,458.4,104.9,458.7,108.2z"/>
		<path class="st1" d="M85.7,97.7c3,7.9,5.8,15,8.8,22.7c-4.6,0-9,0-13.3,0c-4.3,0-4.3,0-2.7-4.1C80.8,110.3,83.1,104.3,85.7,97.7z"
			/>
	</g>
</g>
</svg>
