<?xml version="1.0" encoding="utf-8"?>
<!-- Generator: Adobe Illustrator 22.1.0, SVG Export Plug-In . SVG Version: 6.00 Build 0)  -->
<svg version="1.1" id="Layer_1" xmlns="http://www.w3.org/2000/svg" xmlns:xlink="http://www.w3.org/1999/xlink" x="0px" y="0px"
	 viewBox="0 0 988.1 396" style="enable-background:new 0 0 988.1 396;" xml:space="preserve">
<style type="text/css">
	.st0{fill:#FEFEFE;}
	.st1{fill:#C7CACC;}
	.st2{fill:#464747;}
</style>
<path class="st0" d="M964.3,18.4c4,0,8,0,12,0c1.1,0,1.4,0.2,1.2,1.3c-0.1,0.3,0,0.6,0,1c0,120.2,0,240.5,0,360.7
	c0,1.8-0.4,2.2-2.2,2.2c-324.3,0-648.7,0-973,0c-1.8,0-2.2-0.4-2.2-2.2C0.1,266.5,0,151.7,0,36.9c1.2,0,1.1,1.1,1.2,1.8
	c2.7,12,8,22.7,15.3,32.4c0.8,1.1,1.6,2.1,0.6,3.5c-3.7,5.1-2.8,10.4-0.3,15.5c6.1,12.4,15.3,21.9,26.9,29.3
	c2.1,1.3,4.2,2.5,6.4,3.5c1.5,0.6,2.2,1.5,1.6,3.2c-1.9,5.2-0.3,9.7,2.9,13.9c8.7,11.7,19.3,21.1,32.5,27.5c2.9,1.4,5.8,2.6,8.8,3.6
	c1.9,0.6,2.8,1.6,2.9,3.6c0.5,6.8,2.7,13.1,7.4,18.2c2.9,3.2,6.6,5.6,10.1,8.1c2,1.4,2.3,2.8,1.5,4.9c-1.4,3.7-2.8,7.5-4.1,11.2
	c-0.6,1.8-1.8,3-3.6,3.7c-5.2,2.3-10.3,4.8-15.6,7.1c-2.5,1.1-4.2,2.8-5.5,5.2c-6.9,12.5-13.9,24.9-20.9,37.3
	c-8.1,14.5-16.2,29-24.4,43.4c-1.3,2.4-1.4,4.3-0.2,6.8c9.5,19.4,19.2,38.7,28.8,58c1.3,2.6,1.3,2.7,4,1.3
	c24.7-12.4,50.1-23.1,76.2-32.4c30.8-11,62.3-19.4,94.2-26.6c19.6-4.4,39.4-8.1,59.3-11.3c17.1-2.7,34.3-4.9,51.6-6.8
	c11.6-1.3,23.3-2.3,35-3.2c9-0.7,18-1.3,27-1.6c9-0.4,18-0.7,27.1-1c26.1-0.9,52.1-0.3,78.2-0.3c9.3,0,18.5,0.4,27.8,0.9
	c11.4,0.7,22.7,1.3,34.1,2.2c12.9,1,25.8,2.2,38.6,3.6c15.6,1.8,31.2,3.9,46.7,6.4c30.3,4.8,60.2,11.1,89.9,18.7
	c33.6,8.7,66.6,19.5,98.6,33.1c11.8,5,23.5,10.5,35.1,16c1.5,0.7,2.9,1.7,4.5,2.5c2.4,1.1,2.6,1.1,3.8-1.2
	c2.7-5.2,5.4-10.4,7.9-15.7c6.7-14.2,13.9-28.2,21-42.2c1.3-2.5,1.4-4.4,0-7c-8.8-15.5-17.5-31.1-26.2-46.6
	c-6.6-11.7-13.1-23.4-19.7-35.2c-1-1.9-2.4-3.2-4.4-4.1c-5.2-2.2-10.2-4.8-15.4-6.9c-2.4-1-4-2.5-4.8-5.1c-1.1-3.7-2.6-7.2-3.9-10.8
	c-0.7-1.8-0.2-3,1.3-4.2c3.8-2.9,7.9-5.5,11-9.2c3.7-4.4,5.8-9.4,6.5-15c0.1-1.1,0.4-2.1,0.5-3.1c0.2-1.5,1-2.3,2.4-2.8
	c13.7-4.4,25-12.5,34.7-22.8c2.9-3.1,5.5-6.4,7.9-9.9c2-2.9,3-6.2,2.3-9.7c-0.4-2.4,0.4-3.7,2.5-4.9c13.3-7.9,23.8-18.6,31.4-32.1
	c1.6-2.9,2.4-6,2.8-9.3c0.2-2.4-0.4-4.7-1.8-6.7c-1.3-1.8-1-3.3,0.3-5c7.1-9.3,12.1-19.7,14.9-31.1c1-4,1-7.9-0.6-11.7
	c-1.6-4-4.5-6.7-8.6-8.2C965.6,19.4,964.4,19.7,964.3,18.4z"/>
<path class="st1" d="M964.3,18.4c2.6,1,5.4,1.7,7.5,3.8c4.7,4.8,5.9,10.4,4.5,16.8c-2.8,12.2-8.1,23.1-15.8,32.9
	c-0.5,0.7-1.2,1.3-0.4,2.3c4.7,6.2,2.6,12.4-0.4,18.3c-3.4,6.7-8.1,12.6-13.4,17.9c-5.4,5.4-11.2,10.5-18,14.1
	c-1.6,0.8-2.6,1.6-2.1,3.9c1,4.6-0.8,8.5-3.5,12.2c-8.1,10.9-18,19.8-30,26.3c-3.6,2-7.4,3.7-11.4,4.8c-1.5,0.4-2.4,1-2.6,2.9
	c-0.6,7-2.7,13.5-7.6,18.8c-3.2,3.5-7.2,6-11,8.8c-1,0.8-1.3,1.3-0.9,2.5c1.7,4.4,3.3,8.8,4.8,13.3c0.4,1.1,1.1,1.5,2,1.9
	c5.8,2.7,11.6,5.6,17.5,8c3.3,1.3,4.2,4.2,5.6,6.7c11.9,21.2,23.7,42.4,35.6,63.6c3.3,6,6.7,11.9,10.1,17.8c0.7,1.2,0.4,2.1-0.2,3.1
	c-6.3,12.7-12.7,25.3-19,38c-3.8,7.7-7.7,15.5-11.4,23.2c-0.8,1.7-1.5,1.9-3.1,1c-31-16-63.4-29-96.6-39.7
	c-24-7.7-48.3-14.1-72.8-19.5c-15.7-3.5-31.5-6.7-47.4-9.5c-12.4-2.1-24.8-4-37.2-5.6c-11.6-1.5-23.1-2.9-34.7-4.2
	c-8.4-0.9-16.8-1.4-25.2-2.1c-10.3-0.9-20.7-1.5-31.1-2c-8.2-0.4-16.4-0.7-24.6-1c-26.3-0.9-52.6-0.3-78.9-0.3c-9.7,0-19.3,0.5-29,1
	c-8.1,0.4-16.2,0.8-24.3,1.5c-10.6,1-21.2,1.7-31.7,2.7c-10.7,1.1-21.4,2.2-32.1,3.6c-13.6,1.8-27.1,3.8-40.6,6.1
	c-27.8,4.7-55.4,10.7-82.7,17.8c-30.2,7.9-59.8,17.5-88.7,29.4c-16.4,6.7-32.6,14-48.3,22.1c-1.3,0.7-1.7,0.3-2.2-0.7
	c-7.7-15.5-15.4-31.1-23.1-46.6c-2.5-5.1-5-10.3-7.5-15.3c-0.6-1.2-0.6-2,0.1-3.2c6.6-11.7,13.1-23.4,19.6-35.1
	c5.8-10.3,11.5-20.6,17.3-30.8c3.7-6.5,7.3-13,11-19.6c0.4-0.8,1-1.3,1.7-1.6c6.1-2.8,12.2-5.7,18.4-8.5c1.4-0.6,2.4-1.5,2.9-3
	c1.4-4.2,2.9-8.3,4.4-12.4c0.4-1.1,0.4-1.7-0.8-2.6c-5.1-4-10.8-7.3-14.2-13.1c-2.7-4.5-4-9.4-4.4-14.5c-0.1-1.4-0.5-2.2-1.9-2.6
	c-12.1-3.9-22.6-10.6-31.7-19.5c-4.1-4-7.9-8.4-11.3-13c-2.9-4-4.1-8.5-2.2-13.3c0.6-1.6,0-2-1.3-2.6c-14.7-7.1-25.9-17.9-33.3-32.4
	C13.8,85.5,12.4,79.5,17,74c0.8-0.9-0.1-1.3-0.5-1.8c-4.9-6.6-9.1-13.7-12.2-21.3C2.5,46.3,1.4,41.6,0,36.9c0-1.8,0-3.6,0-5.4
	c0.3-5.2,2.8-9,7.1-11.7c1.6-1,3.4-0.9,5.1-1.5c2,0,3.9,0,5.9,0c3.4,0.3,6.6,1.7,9.7,3c10.6,4.3,21.6,7.2,32.7,10.1
	c15.6,4.1,31.3,7.8,47.1,10.8c7.8,1.5,15.8,1.8,23.8,2.3c9.7,0.7,19.4,0.6,29,1.4c0.7,0.1,1.5,0.1,2.2,0.1
	c18.4,0.2,36.8,0.2,55.2,0.6c20.4,0.5,40.7,0.5,61.1,0.2c21.2-0.3,42.3,0.1,63.5-0.5c12.7-0.4,25.4-0.1,38.1-0.4
	c3.7-0.1,7.3-0.6,11-0.5c1.5,0,2.6-0.8,3.5-1.8c2.6-2.9,5.3-5.8,7.9-8.6c1.4-1.5,3.1-2.3,5.2-2.2c14.4,0.4,28.8-0.7,43.2-0.5
	c10.8,0.1,21.7,0.4,32.5-0.1c14.9-0.6,29.8-0.2,44.7-0.5c3.2-0.1,5.4,0.9,7.3,3.4c2.7,3.7,5.9,7,8.7,10.6c1.5,1.9,3.2,2.7,5.7,2.7
	c11.9-0.2,23.8,0.4,35.6,0.6c8.9,0.2,17.8-0.1,26.6,0.4c16.8,0.9,33.6-0.1,50.3,0.5c15.2,0.6,30.5,0.5,45.7,0.3
	c15.1-0.2,30.1-0.1,45.2-0.5c12.4-0.3,24.7-0.4,37.1-1c13.9-0.7,27.8-1.2,41.7-2.3c14.2-1.1,28.4-2.4,42.4-5.3
	c23.1-4.9,46.2-9.9,68.6-17.5c1.9-0.6,3.7-1.3,5.5-2.1c3.3-1.5,6.5-2.9,10.2-3.2C960.7,18.4,962.5,18.4,964.3,18.4z"/>
<path class="st0" d="M958.9,18.4c-19.7,8.4-40.3,13.8-61.1,18.6c-11.5,2.6-23.1,5.3-34.7,7.2c-8,1.3-16.1,2-24.2,2.6
	c-11,0.8-22,1.5-33,2c-8.4,0.4-16.9,0.6-25.3,1c-7.4,0.4-14.8,0-22.2,0.5c-12.4,0.8-24.9,0-37.3,0.5c-17.3,0.7-34.7,0.6-52,0.2
	c-16.9-0.3-33.9,0.1-50.8-0.5c-9.2-0.3-18.4,0.1-27.6-0.5c-8.3-0.5-16.6,0-24.9-0.5c-5.8-0.4-11.5-0.3-17.3-0.4
	c-1.4,0-2.5-0.4-3.4-1.5c-3.6-4.4-7.3-8.7-10.9-13.1c-1.1-1.4-2.3-2-4.1-2c-12.6,0.1-25.3-0.2-37.9,0.2c-19.9,0.6-39.7-0.1-59.6,0.5
	c-8.5,0.2-17.1,0.2-25.6,0.3c-1.2,0-2.2,0.4-3,1.3c-3,3.3-6,6.6-9,9.9c-0.9,1.1-1.9,1.5-3.3,1.6c-14.6,0.6-29.1,0.1-43.7,0.6
	c-19.7,0.6-39.4-0.1-59.1,0.5c-20.3,0.6-40.7,0.4-61,0.2c-15.4-0.1-30.8,0-46.1-0.5c-7-0.2-14-0.1-21-0.4c-8.4-0.3-16.7-0.6-25.1-1
	c-17.2-0.7-34.1-3.4-50.9-7.5c-16.5-4-33-8-49.1-13.1c-4.8-1.5-9.4-3.6-14.1-5.4c-1.2-0.5-2.4-0.9-3.6-1.3
	C331.7,18.4,645.3,18.4,958.9,18.4z"/>
<path class="st0" d="M12.3,18.4c-4.9,1.5-8.9,4.1-10.9,9.1c-0.5,1.3-0.9,2.7-1.3,4.1c0-4,0-8,0-12c0-1.1,0.2-1.3,1.3-1.3
	C4.9,18.4,8.6,18.4,12.3,18.4z"/>
<path class="st2" d="M114,161.7c-6.8-0.8-13.3-2.5-19.5-5.3c-11.9-5.4-21.4-13.8-29.1-24.2c-1.5-2-1.2-2.5,1.2-2.9
	c5.8-0.9,11.2-2.7,15.6-7.2c-3-0.7-5.8-1.2-8.5-1.9c-19.4-5.2-33.8-16.8-44.2-33.8c-0.3-0.5-1-1.1-0.6-1.8c0.5-0.8,1.3-0.3,2-0.2
	c7.1,1,14.3,0.8,21.9,0c-2.7-1.6-5-2.8-7.2-4.3C29.3,69.4,18.6,54.6,14.1,35.5c-0.2-1-0.6-2.1,0.4-2.9c0.9-0.7,1.9-0.2,2.8,0.2
	C34.6,40.3,53,44.6,71.3,49.1c11.3,2.8,22.6,5.4,34,7.5c7.5,1.4,15,1.8,22.6,2.2c60.7,3.1,121.5,2.6,182.2,2.3
	c25.7-0.1,51.3-0.6,77-0.9c3.7,0,7.3-0.2,11-0.2c1.3,0,2.1-0.4,2.9-1.3c3-3.4,6.2-6.7,9.2-10.1c0.9-1,1.8-1.4,3.1-1.4
	c32.4-0.2,64.8-0.4,97.2-0.6c4.5,0,9-0.1,13.4-0.2c1.5,0,2.4,0.4,3.3,1.6c3.5,4.4,7.2,8.6,10.7,13c1.1,1.3,2.2,1.9,3.9,1.9
	c20.4,0.4,40.9,0.8,61.3,1.2c42.9,0.8,85.8,1.1,128.8,0.6c20.3-0.2,40.6-0.7,60.8-1.4c20.1-0.7,40.2-1.8,60.2-3.9
	c17.7-1.8,34.9-5.9,52.2-10c16.3-3.8,32.5-8,48.2-13.9c1.9-0.7,3.7-1.6,5.6-2.4c1.1-0.5,2.2-1.4,3.4-0.4c1.1,0.9,0.5,2.3,0.3,3.5
	c-1.2,5.6-3.3,10.9-5.9,16c-7.1,13.6-17.5,23.9-31.1,31.1c-0.5,0.2-1.1,0.3-1.4,1.2c7.2,0.9,14.3,1,21.4,0c0.7-0.1,1.5-0.7,2,0.1
	c0.4,0.7-0.3,1.4-0.6,2c-11.8,19.1-28.4,31.2-50.7,35.1c-0.5,0.1-0.9,0.2-1.7,0.4c1.7,2.4,4,3.7,6.4,4.8c2.9,1.4,6,2.1,9.1,2.6
	c2.5,0.4,2.7,0.8,1.2,2.8c-12,16-27.3,26.8-47.6,29.4c-0.3,0-0.6,0.1-1.1,0.2c1.5,4.3,2.2,8.7,1.8,13.2c-0.4,3.7-1.8,6.9-4.3,9.6
	c-1,1.1-1.9,1.5-3.3,0.6c-1.9-1.1-4-1.5-6.1-1.4c-5.7,0.2-9.2,3.8-9.2,9.5c0,2.7,0.6,5.3,1.5,7.9c3.1,8.7,6.3,17.4,9.4,26.2
	c0.5,1.4,1.3,2.2,2.7,2.8c6.5,2.9,12.8,5.9,19.3,8.8c1.1,0.5,1.8,1.2,2.4,2.2c14,25,27.9,50,42,74.9c0.6,1.1,0.6,2,0.1,3.1
	c-7,14.1-14,28.3-21,42.4c-0.6,1.3-1,1.6-2.5,0.9c-30.7-15.3-62.9-26.9-95.7-36.9c-28.8-8.8-58-15.9-87.5-21.9
	c-24.1-4.8-48.3-8.7-72.7-11.8c-26.8-3.3-53.7-5.7-80.7-7.1c-37.8-2-75.5-2-113.3-1.1c-22.3,0.5-44.6,1.8-66.8,3.8
	c-23.7,2.1-47.2,4.9-70.7,8.5c-31.8,4.9-63.2,11.2-94.4,19.2c-42.9,11.1-84.9,24.7-125.1,43.5c-2.5,1.2-5,2.4-7.4,3.7
	c-1.1,0.6-1.6,0.5-2.2-0.7c-7.1-14.4-14.2-28.7-21.3-43.1c-0.5-0.9-0.4-1.6,0.1-2.5c14.1-25.2,28.2-50.4,42.3-75.6
	c0.6-1,1.4-1.5,2.4-1.9c6.5-3,13-6,19.5-8.9c1.1-0.5,1.8-1.2,2.2-2.4c3.2-8.9,6.4-17.7,9.6-26.6c0.8-2.2,1.2-4.6,1.4-6.9
	c0.6-7.3-5.3-11.9-12.7-9.9c-0.5,0.1-1.2,0.2-1.6,0.5c-2.6,1.9-4.1,0.3-5.5-1.7c-4.1-5.7-3.8-12-2.2-18.5
	C113.4,163.7,113.7,162.8,114,161.7z"/>
<path class="st0" d="M684.7,119.5c-4.9,0-9.4,0-14.2,0c1.9,6.5,3.7,12.9,5.6,19.3c6.6,22.7,13.3,45.4,19.8,68.1
	c0.5,1.6,1.2,2.3,2.9,2.7c17.9,3.9,35.7,8,53.5,12c0.3,0.1,0.6,0.1,1.2,0.1c-2.3-6.5-4.5-12.9-6.7-19.2
	c-9.5-26.9-18.9-53.8-28.4-80.7c-0.6-1.7-1.3-2.4-3.3-2.3c-3.2,0.2-6.4,0-9.5,0.1c-1.4,0-2.1-0.3-2.6-1.8
	c-3.3-10.4-6.7-20.7-10.1-31c-0.5-1.6-0.2-1.9,1.4-1.9c10.4,0.1,20.8,0,31.3,0c26.6,0,53.3,0.3,79.9-0.1
	c28.3-0.5,56.3-3.7,83.8-10.8c6.7-1.7,13.3-3.8,19.7-6.3c0.7-0.3,1.7-1,2.2-0.2c0.5,0.8-0.5,1.4-1,2c-6.8,7-14.8,12.5-23.2,17.3
	c-14.8,8.5-30.6,14.2-47.4,17.2c-0.2,0-0.4,0.2-1,0.4c9,0.4,17.6,0.3,26.2-0.2c6.7-0.4,13.3-1,19.9-2.1c0.6-0.1,1.5-0.5,1.8,0.1
	c0.5,0.8-0.3,1.3-0.8,1.8c-4.2,4.2-9.1,7.4-14.2,10.2c-14,7.7-29,12.2-44.7,15.3c0.9,1.2,2.2,1.3,3.3,1.7c8.1,2.6,16.4,3.1,24.8,3.4
	c0.9,0,2.3-0.5,2.6,0.5c0.3,1.2-1.2,1.5-2.1,2c-7.2,3.9-15,6.1-23.1,7.3c-5.6,0.8-11.2,1.1-17.5,0.7c3.8,2.8,7.2,5.2,9.3,8.8
	c2.5,4.2,2.4,8.2-0.2,11.3c-0.7-0.4-0.8-1.2-1.2-1.8c-3.1-5.2-9.1-7.4-14.8-5.2c-3,1.2-4.5,4.2-3.6,7.6c0.7,2.8,2.3,5.2,3.4,7.8
	c9.9,23.1,20.9,45.8,30.4,69.2c2.3,5.7,4.2,11.6,4.8,17.8c1,9.9-3.8,15.6-13.9,16.3c-8.9,0.6-17.6-0.6-26.1-2.7
	c-20.4-4.9-40.7-10.2-61.1-14.7c-16.1-3.5-32-7.9-48.4-10.3c-9.8-1.4-19.7-2.7-29.3-5.1c-12.7-3.2-24.3-8.7-34.8-16.5
	c-6-4.4-9.4-10.2-11.1-17.5c-4.1-17.7-8.5-35.2-12.7-52.8c-2.9-11.8-5.8-23.7-8.6-35.5c-0.4-1.8-1-2.5-3-2.4
	c-4.3,0.2-8.6-0.1-12.9,0.1c-1.9,0.1-2.5-0.6-2.9-2.3c-2.4-10-4.9-20-7.5-30c-0.5-2-0.3-2.4,1.8-2.4c13.4,0.1,26.7,0,40.1,0
	c19.8,0,39.6,0,59.4,0c1.8,0,2.7,0.4,3.3,2.2C678,97.8,681.3,108.5,684.7,119.5z"/>
<path class="st0" d="M266.1,214.4c-1.5,4.1-2.9,8.1-4.4,12c-2.5,6.9-5.2,13.8-7.5,20.8c-0.8,2.4-2,3.3-4.5,3.8
	c-27.4,4.8-54.5,11.1-81.2,18.7c-25.2,7.2-50.1,15.5-74,26.5c-0.1,0.1-0.3,0-0.7,0.1c0.4-0.7,0.7-1.3,1-1.9
	c8-14.3,15.9-28.5,23.8-42.8c0.7-1.3,1.7-2.1,3-2.5c6.9-2.4,13.8-4.9,20.7-7.2c1.2-0.4,1.7-1,2.1-2.1c5.6-15.8,11.3-31.5,17-47.2
	c0.5-1.3,0.2-2.3-0.3-3.5c-4.3-9.9-8.6-19.8-12.9-29.7c-0.4-0.9-0.7-1.8-1.3-3.1c4.7,0,9.1-0.1,13.5,0c1.6,0.1,2.2-0.5,2.5-2
	c0.4-2.3,1.1-4.6,1.8-6.8c0.6-1.8,0.4-2.3-1.7-2.2c-12,0.5-23.7-1.4-34.8-6.1c-1.6-0.7-3.2-1.6-4.8-2.4c-0.6-0.3-1.6-0.7-1.4-1.5
	c0.2-1,1.2-0.5,1.9-0.5c7.4-0.2,14.8-0.7,22-2.5c2.3-0.6,4.7-1,7.1-2.6c-7.2-1.5-13.8-3.1-20.4-5.1c-12.8-4.1-25-9.2-35.6-17.6
	c-1.2-1-2.3-2.1-3.4-3.1c-0.4-0.4-0.9-0.9-0.6-1.5c0.3-0.7,1-0.3,1.5-0.3c4.3,0.5,8.5,1.2,12.8,1.6c10.8,1,21.6,1.2,32.4,0.5
	c-4.3-1-8.6-1.9-12.9-3.1c-20.6-5.8-39.4-15-55.5-29.5c-0.8-0.8-1.6-1.6-2.4-2.4c-0.4-0.5-1.2-1-0.7-1.6c0.5-0.6,1.2-0.2,1.8,0.1
	c4.8,1.8,9.6,3.5,14.5,4.9c15.2,4.5,30.7,7.3,46.3,9.5c25.1,3.5,50.4,4.6,75.7,4.5c58.2-0.2,116.5,0,174.7-0.1
	c2.5,0,2.9,0.6,2.5,2.9c-2.4,14.4-4.6,28.7-6.8,43.1c-0.2,1.6-1,1.7-2.3,1.7c-8.6,0-17.3,0-25.9,0c-11.4,0-22.8,0-34.2,0
	c-2,0-2.5-0.4-1.9-2.4c1.1-3.6,1.9-7.4,2.9-11.1c0.3-1.2,0.1-1.5-1.2-1.5c-16.4,0-32.7,0-49.1,0c-1.1,0-1.5,0.4-1.8,1.4
	c-3.1,10.5-6.2,21-9.4,31.5c-0.7,2.4,0.9,1.5,1.8,1.5c23.3-0.5,46.6-1.1,69.8-1.7c3.6-0.1,7.1,0,10.7,0c0.1,0.9-0.6,1.3-1,1.9
	c-8.3,11.4-16.6,22.8-24.8,34.2c-0.9,1.2-1.8,1.6-3.2,1.7c-21.9,0.6-43.8,1.3-65.7,1.8c-1.5,0-2.3,0.4-2.8,1.9
	c-2.7,7.9-5.7,15.7-8.5,23.6c-0.9,2.6-0.9,2.6,2,2.1c10.6-1.6,21.2-3.1,31.9-4.7C265.1,214.3,265.5,214.4,266.1,214.4z"/>
<path class="st0" d="M305.8,242.1c2.2-6.8,4.3-13.3,6.5-19.8c1.2-3.8,2.6-7.5,3.7-11.4c0.5-1.6,1.3-2.1,2.9-2.3
	c5.2-0.6,10.5-1.4,15.7-2c1.6-0.2,2.4-0.9,3.1-2.2c21.7-34.4,43.5-68.7,65.2-103.1c6.4-10.2,12.9-20.3,19.3-30.5
	c0.8-1.3,1.7-1.8,3.3-1.8c27.2,0.1,54.4,0.1,81.6,0c1.9,0,2.8,0.5,3.8,2.2c25,43.9,50,87.7,75,131.5c0.9,1.6,1.9,2.2,3.8,2.3
	c5.8,0.3,11.5,0.8,17.3,1.2c0.9,0.1,1.7,0.2,2,1.3c4.1,11.1,8.2,22.2,12.4,33.7c-5.4-0.4-10.4-0.9-15.5-1.3
	c-12.8-0.9-25.7-1.9-38.5-2.7c-11.5-0.7-23.1-1.4-34.6-2c-1.5-0.1-1.9-1-2.4-2c-6.3-11.5-12.6-22.9-18.9-34.4
	c-0.8-1.5-1.7-2.2-3.5-2.2c-29.7,0.1-59.4,0.1-89.2,0c-1.7,0-2.6,0.5-3.4,2c-6.1,11-12.4,21.9-18.5,33c-0.8,1.5-1.8,2-3.4,2
	c-27.8,1.1-55.5,3.6-83.1,7.8C309,241.8,307.6,241.9,305.8,242.1z"/>
<path class="st2" d="M496.2,154.3c-20.6,0-40.8,0-61.5,0C445.4,136,456,118,466.8,99.6C476.7,118,486.3,136,496.2,154.3z"/>
</svg>
