<?xml version="1.0" encoding="utf-8"?>
<!-- Generator: Adobe Illustrator 22.1.0, SVG Export Plug-In . SVG Version: 6.00 Build 0)  -->
<svg version="1.1" id="Layer_1" xmlns="http://www.w3.org/2000/svg" xmlns:xlink="http://www.w3.org/1999/xlink" x="0px" y="0px"
	 viewBox="0 0 500 216" style="enable-background:new 0 0 500 216;" xml:space="preserve">
<style type="text/css">
	.st0{fill:#E8E8E8;}
	.st1{fill:#484848;}
	.st2{fill:#4F4F4F;}
	.st3{fill:#BBBBBB;}
	.st4{fill:#FEFEFE;}
</style>
<path class="st0" d="M83.1,191c0-0.1,0-0.2,0-0.4c2-1.1,3.9-1.1,5.9,0c0,0.1,0,0.2,0,0.4C87,191,85,191,83.1,191z"/>
<path class="st1" d="M89,190.7c-2,0-3.9,0-5.9,0c-13.3-0.6-25.9-3.8-37.9-9.9c-14-7.2-23.7-18.6-31.4-31.9
	c-8.5-14.4-12.4-30-11.7-46.7c0.4-10.6,2.8-20.7,7-30.4c0.1-0.1,0.2-0.2,0.6-0.5c0.3,2.2,0.5,4.2,0.7,6.3c2.6-9,5.7-17.7,11-26.1
	c0.3,3.3,0.6,6.1,0.8,9.4C26,52.4,29.7,44.4,36,37.6c0,3.5,0,6.7,0,10.3c4.1-7.3,8.2-14.1,14.8-19.5c0,3.1-0.8,5.9-1.1,8.7
	c-0.2,0.5-0.3,0.9,0.1,1.4c4.1-4.8,8.7-9.1,14.1-12.4c2.8-1.7,5.7-3.1,9.3-3.9c-4.7,5-8.8,10.1-12.4,15.5
	c-9.8,15-15.9,31.4-18.2,49.1c-3.6,26.9,3.9,50.4,21.9,70.6c3.6,4,7.6,7.6,12.1,10.9c-1.5,1.1-2.8,2-4.4,3.2
	c4.5,1.5,8.7,2.4,12.9,3.4c3.2,0.8,3.3,0.7,2,3.9c-0.5,1.2-0.4,1.6,0.9,1.7c4.2,0.4,8.3,1.1,12.5,1.5c3.1,0.3,2.7,0.2,1.9,2.6
	c-0.1,0.2-0.2,0.5-0.2,0.9c1.9,0,3.6-0.6,5.4-0.9c8.1-1.7,15.9-4.3,24.1-5.5c6.4-0.9,12.7-0.9,18.6,2.3c2.1-5.1-2.8-10.3-11.5-12.4
	c0.3-1.1,0.7-2.3,0-3.5c-0.9-1.3-2.2-2.1-3.6-2.7c-5.5-2.2-11.3-3-17-3.6c-4.7-0.5-9.5-0.8-14.7-0.9c0.9-1,1.5-1.8,2.2-2.6
	c10.2-12.6,16.3-27,18.8-42.8c2.3-14.4,2.2-28.7-2.3-42.8c-5.7-17.7-15.4-33.2-27.2-47.4c-0.1-0.2-0.2-0.3-0.3-0.5
	c0.9-0.2,1.7,0.2,2.4,0.6c7,3.4,12.9,8.4,18.7,13.6c0.5,0.5,0.9,1.1,1.7,1.3c-0.5-3.3-1-6.5-1.6-9.7c6.1,5.1,10.3,11.6,15,18.1
	c0-3.1,0-5.9,0-9.4c6.2,6.8,9.9,14.7,14.4,22.5c0.2-3.3,0.4-6.2,0.7-9.1c0.2,0,0.3-0.1,0.5-0.2c5,7.9,7.5,17,10.8,26.2
	c0.4-2.5,0.6-4.5,0.9-6.6c0.8,0.3,0.8,1.1,1.1,1.7c8.7,19.8,8.8,39.9,2.1,60.2c-4.1,12.6-10.4,24-18.8,34.5
	c5.1,1.3,9.2,3.7,10.9,8.8c1.7,5,0.9,9.8-0.6,15c-1.8-5.4-5.9-6.8-10.5-7.4c-6-0.8-11.8,0.3-17.7,1.8c-8.9,2.2-17.7,4.6-26.8,5.8
	C94.8,190.4,91.8,190.4,89,190.7z"/>
<path class="st1" d="M212.8,111.9c2.3,0,4.6,0,6.9,0c0.5,0,1.3-0.4,1.4,0.5c0.1,0.9-0.7,0.8-1.2,0.8c-2-0.1-2.6,1-2.5,2.8
	c0,3.1,0,6.2,0,9.2c0,0.6,0.1,1.3-0.7,1.7c-9.8,5.3-19.8,6.7-30,1.2c-6.4-3.4-9.6-8.8-10.6-15.8c-1.2-9,0.4-17.2,6.9-23.8
	c6.9-7,15.5-8.3,24.7-5.9c2,0.5,3.8,1.3,5.7,2.1c1.2,0.5,1.8,0.4,1.9-1.1c0-0.6-0.2-1.3,0.8-1.3c1.1,0,0.7,0.9,0.7,1.4
	c0,4.3-0.1,8.7-0.2,13c0,0.5,0.3,1.3-0.7,1.3c-1.1,0-0.8-0.7-0.9-1.4c-0.1-1.2-0.2-2.4-0.4-3.5c-0.9-5.8-4.7-9.4-10.6-10.1
	c-9.9-1.1-18.4,4.9-20.9,15.1c-2.2,8.8-1.7,17.4,4.1,24.9c4.6,5.9,13.5,8.5,20.6,6.1c3.4-1.1,4-1.9,4-5.5c0-2.6,0-5.2,0-7.9
	c0-1.3-0.5-2.1-1.9-2.2c-1.5,0-2.9-0.2-4.3-0.4c-0.5,0-1.1,0-1.1-0.8c0-0.9,0.7-0.6,1.1-0.6C208,111.9,210.4,111.9,212.8,111.9
	L212.8,111.9z"/>
<path class="st1" d="M182.5,160c0-5.1,0-10.2,0-15.3c0-3,0-3-3-3.5c-0.5-0.1-1.3,0.2-1.2-0.8c0.1-0.8,0.8-0.5,1.3-0.5
	c4.4,0,8.9,0,13.4,0c0.5,0,1.3-0.4,1.3,0.6c0,0.8-0.7,0.6-1.2,0.6c-5,0.5-5,0.5-5,5.5c0,8.1,0.2,16.3,0,24.4
	c-0.2,9.4,4.1,12.9,13,14c2,0.2,4.1,0.2,6.1-0.2c5.4-1.1,8.7-4.4,8.9-10c0.2-8.3,0.1-16.5,0.1-24.8c0-2.2-0.1-4.4,0-6.7
	c0-1.3-0.6-1.9-1.8-2c-1.1,0-2.1-0.2-3.1-0.3c-0.5,0-1.1,0.1-1.1-0.7c0-0.7,0.6-0.5,1.1-0.5c3.5,0,7.1,0,10.6,0c0.4,0,1-0.1,0.9,0.6
	c0,0.5-0.4,0.6-0.8,0.7c-1.1,0.3-2.5-0.2-3.1,0.8c-0.7,1.1-0.3,2.6-0.3,3.9c-0.1,8.7-0.2,17.3-0.3,26c0,2-0.1,3.9-0.6,5.9
	c-1.2,4.9-4.4,8.2-9.1,9.8c-5.9,2-12,2-17.9-0.4c-5.2-2.1-7.9-6.1-8-11.7c-0.1-5.1,0-10.2,0-15.3C182.6,160,182.6,160,182.5,160z"/>
<path class="st1" d="M372.2,90.3c0,2.2,0,4.4,0,6.7c0,0.6,0,1.2-0.9,1.2c-0.8,0-0.6-0.6-0.7-1.1c-0.2-1.9-0.6-3.8-0.7-5.7
	c-0.1-1.8-1-3.2-2.4-4.3c-10.7-8.7-26.1-3.1-29.3,10.8c-1.6,7-1.3,13.9,2,20.5c4.3,8.8,14.4,12.9,23.8,9.8c4-1.4,6.3-4.1,6.7-8.3
	c0.2-1.4,0.3-2.9,0.5-4.3c0.1-0.6,0.1-1.2,1-1.2s0.7,0.7,0.7,1.3c-0.2,2.7-0.3,5.4-0.4,8c0,0.8-0.2,1.5-0.9,2
	c-9,6.7-20.9,7.8-29.7,2.2c-7.6-4.9-10.5-12.2-10.7-20.9c-0.1-8.9,2.7-16.6,10.3-21.7c6.8-4.6,14.4-4.7,22.1-2.5
	c1.8,0.5,3.4,1.3,5.2,1.9c1.1,0.4,1.9,0.6,2-1c0-0.5-0.1-1.3,0.8-1.3c1.1,0,0.7,0.9,0.7,1.5C372.3,86.1,372.3,88.3,372.2,90.3
	C372.3,90.3,372.3,90.3,372.2,90.3z"/>
<path class="st1" d="M310.5,156.7c-2.1-0.1-3.1,0.9-3.9,2.8c-3.2,7.9-6.6,15.8-9.8,23.8c-0.7,1.6-1.8,2.9-2.6,4.4
	c-0.2,0.5-0.5,1.1-1,1.1c-0.7,0-0.7-0.8-0.9-1.3c-3-7.5-5.9-15-8.9-22.4c-0.8-2-1.7-4-2.4-6c-0.6-1.7-1.7-2.4-3.4-2.2
	c-0.7,0.1-1.3,0.1-2,0.2c-1.5,0-2.1,0.7-2.1,2.3c0.1,8.1,0.1,16.3,0,24.4c0,1.9,0.5,3,2.6,2.9c0.5,0,1.4-0.3,1.3,0.7
	c0,0.9-0.9,0.6-1.4,0.6c-3.3,0-6.7,0-10,0c-0.5,0-1.1,0.3-1.2-0.6c0-0.7,0.6-0.6,1-0.6c2.9-0.6,2.9-0.6,2.9-3.5
	c0-7.8-0.1-15.5,0-23.2c0-2.1-0.6-3-2.7-3c-0.5,0-1.4,0.3-1.3-0.7c0.1-0.9,0.9-0.5,1.4-0.5c7.4,0,14.8,0,22.2,0
	c0.5,0,1.3-0.4,1.3,0.6c0,0.8-0.8,0.5-1.2,0.6c-0.6,0.1-1.2,0.2-1.8,0.2c-1.1,0.1-1.4,0.7-1,1.6c3.1,7.9,6.3,15.7,9.6,24.1
	c0.8-2,1.4-3.5,2-5.1c2.4-6,4.7-12,7-18.1c0.9-2.3,0.7-2.6-1.7-2.7c-0.3,0-0.7,0-1,0c-0.4,0-0.8,0-0.9-0.5c-0.1-0.7,0.5-0.7,0.9-0.7
	c2.9,0,5.8,0,8.7,0.1C310.8,156,310.8,156.4,310.5,156.7z"/>
<path class="st1" d="M193.8,25.9c4.8,0,9.6,0,14.4,0c0.9,0,1.9,0,2.1-1.3c0.1-0.6,0.6-0.5,0.9-0.4c0.4,0,0.5,0.4,0.5,0.7
	c0,3.4,0,6.8,0,10.2c0,0.4-0.1,0.8-0.6,0.8c-0.6,0-0.8-0.3-0.8-0.8c-0.1-1.5-0.2-3-0.4-4.5s-1.1-2.4-2.6-2.5
	c-5.7-0.7-11.4-0.5-17.1-0.4c-0.9,0-1.3,0.6-1.3,1.4c0,6.3,0,12.6,0,18.9c0,0.9,0.5,1.1,1.2,1c4.5-0.1,9.1,0,13.6-0.4
	c1.2-0.1,1.8-0.7,2-1.7c0.1-0.8,0.1-1.7,0.2-2.6c0.1-0.6-0.4-1.5,0.7-1.5c0.9,0,0.6,0.9,0.6,1.4c0,4,0,8,0,12c0,0.5,0.3,1.3-0.7,1.3
	c-0.9,0-0.6-0.9-0.6-1.4c0.1-6.4-0.8-5.2-5.3-5.4c-3.3-0.2-6.7-0.1-10-0.2c-1.1,0-1.7,0.2-1.6,1.5c0.1,6,0.1,11.9,0,17.9
	c0,1.8,0.6,2.7,2.5,2.6c0.7,0,1.3,0,2,0.1c0.6,0.1,1.7-0.4,1.7,0.7c0,1.2-1.1,0.7-1.7,0.7c-3.5,0-7.1-0.1-10.6-0.1
	c-1.1,0-2.2,0.1-3.3,0.1c-0.4,0-0.8,0-0.9-0.5c-0.1-0.6,0.3-0.8,0.8-0.9c0.1,0,0.1,0,0.2,0c3.6-0.6,3.7-0.6,3.7-4.2
	c0-12.3,0.1-24.6,0-37c0-4.5,0.1-3.6-3.6-4.1c-0.5-0.1-1.2,0.1-1.1-0.7c0.1-0.8,0.8-0.6,1.2-0.6C184.5,26,189.2,26,193.8,25.9
	C193.8,26,193.8,26,193.8,25.9z"/>
<path class="st1" d="M341.4,41.9c3.9,0.1,7.7-0.3,11.5,0.7c8.1,2.2,12.3,8.4,11.5,17.2c-0.6,7.3-6.7,13.2-14.2,14
	c-4.7,0.6-9.4-0.1-14.1,0.1c-0.9,0-1.8,0.1-2.8,0.1c-0.4,0-0.8,0-0.9-0.5s0.3-0.7,0.7-0.7c0.3,0,0.7-0.2,1-0.2
	c1.7,0.1,1.9-0.8,1.9-2.2c0-4.1,0-8.3,0-12.4s-0.1-8.3,0-12.4c0-1.8-0.6-2.5-2.3-2.6c-0.5,0-1.4,0.3-1.3-0.7
	c0.1-0.9,0.9-0.5,1.4-0.5C336.4,41.9,338.9,41.9,341.4,41.9z"/>
<path class="st1" d="M360.1,172c0.4,0.2,0.6,0.4,0.9,0.4c5.4,1.3,7.7,5,7.9,10.3c0,0.4,0.2,0.8,0.1,1.2c-0.2,2,0.8,2.7,2.6,2.7
	c0.5,0,1.2-0.2,1.1,0.7c-0.1,0.7-0.7,0.5-1.1,0.5c-2.1,0-4.2-0.1-6.3-0.1c-1.1,0-1.3-0.5-1.3-1.5c0-2.5,0.1-5-0.4-7.4
	c-0.6-3.3-2.6-5.3-5.8-5.8c-1.7-0.3-3.5-0.2-5.3-0.4c-1.1-0.1-1.3,0.4-1.3,1.4c0.1,3.3,0.1,6.7,0,10c0,1.6,0.4,2.4,2.1,2.4
	c0.6,0,1.9-0.4,1.8,0.7c-0.1,1.1-1.3,0.5-1.9,0.5c-3.1,0.1-6.1,0-9.2,0c-0.5,0-1.2,0.3-1.3-0.5c-0.1-0.8,0.6-0.7,1.1-0.7
	c2,0,2.6-1,2.5-2.9c-0.1-8.1-0.1-16.1,0-24.2c0-1.8-0.6-2.6-2.4-2.7c-0.5,0-1.4,0.2-1.2-0.7c0.1-0.8,0.8-0.5,1.3-0.4
	c5.7,0.4,11.4-0.6,17.1,0.4c4.1,0.7,6.9,3.5,7.2,7c0.3,3.3-1,5.7-4.2,7.3C363,171,361.6,171.4,360.1,172z"/>
<path class="st1" d="M378.6,114.5c0-9.7,6.8-16.8,16.1-16.8c9.7,0,16.4,6.8,16.5,16.8c0.1,9.7-7,17-16.5,16.9
	C385.4,131.4,378.6,124.2,378.6,114.5z"/>
<path class="st1" d="M246.2,57.9c0-9.7,6.8-16.8,16.2-16.8c9.6,0,16.3,6.8,16.4,16.8c0.1,9.8-6.8,17-16.3,17
	C253.1,74.9,246.2,67.7,246.2,57.9z"/>
<path class="st1" d="M300.4,58.1c0.4,0.5,0.9,0.6,1.5,0.7c4.7,1.3,6.8,4.5,7.2,9.2c0,0.7,0.3,1.5,0.2,2.2c-0.2,1.9,0.8,2.6,2.5,2.6
	c0.4,0,1.2-0.2,1.2,0.6c0,0.9-0.8,0.6-1.4,0.6c-2,0-3.9-0.2-5.9-0.1c-1.2,0-1.4-0.5-1.4-1.5c0-2.6,0.2-5.1-0.4-7.6
	c-0.7-3.1-2.7-5.1-5.9-5.5c-1.6-0.2-3.3-0.2-4.9-0.4c-1.1-0.1-1.7,0.2-1.6,1.5c0.1,3.5,0.1,7,0.1,10.4c0,1.4,0.5,1.9,1.8,1.8
	c0.5,0,1,0.1,1.6,0.2c0.4,0,0.6,0.1,0.7,0.6c0,0.5-0.3,0.7-0.7,0.7c-3.7-0.1-7.3-0.4-11,0c-0.4,0-0.8-0.1-0.8-0.6
	c0-0.4,0.4-0.6,0.6-0.6c3.1,0.2,3-1.8,3-4.1c-0.1-7.7-0.1-15.5,0-23.2c0-1.7-0.5-2.6-2.3-2.5c-0.5,0-1.4,0.2-1.3-0.7
	c0-0.9,0.9-0.5,1.4-0.5c4.6,0,9.3,0,14,0c1.9,0,3.8,0.4,5.5,1.2c2.8,1.3,4.5,3.5,4.7,6.7s-1.5,5.3-4.1,6.8
	C303.2,57.2,301.8,57.6,300.4,58.1z"/>
<path class="st1" d="M255,179.9c0.6-0.5,0.4-1.2,0.4-1.8c0-6,0-11.9,0-17.9c0-3,0-2.9-3-3.3c-0.6-0.1-1.6,0.4-1.5-0.7
	c0.1-0.9,0.9-0.4,1.5-0.5c2.4,0,4.8,0,7.3,0c0.4,0,1.2-0.3,1.2,0.6c0,0.7-0.6,0.6-1,0.6c-2.4-0.2-2.7,1.3-2.8,3.2
	c-0.1,8.7-0.3,17.3-0.5,26c0,0.9,0.4,2.1-0.7,2.4c-0.8,0.2-1.3-0.9-1.8-1.5c-7-8.7-13.9-17.4-20.9-26.1c-0.4-0.5-0.8-1-1.3-1.6
	c-0.2,0.2-0.4,0.4-0.4,0.5c-0.1,7.9-0.1,15.9-0.3,23.8c0,2.2,0.7,3.1,2.8,3c0.3,0,0.7,0.1,1,0.1c0.4,0,0.6,0.1,0.7,0.6
	c0,0.6-0.4,0.6-0.8,0.6c-2.8,0-5.6,0-8.5,0c-0.4,0-0.7,0-0.7-0.5c-0.1-0.6,0.3-0.6,0.7-0.7c3-0.8,3-0.8,3.1-3.8
	c0.2-7.4,0.4-14.8,0.6-22.2c0.1-3,0-3-2.9-3.5c-0.5-0.1-1.2,0.1-1.1-0.7c0-0.8,0.7-0.5,1.2-0.6c2.4-0.1,4.7-0.1,7.1-0.4
	c1.1-0.1,1.5,0.6,2,1.2c5.9,7.4,11.7,14.8,17.6,22.2C254.2,179.2,254.4,179.7,255,179.9z"/>
<path class="st1" d="M310.5,156.7c0-0.4,0-0.7,0-1.1c7,0,14,0,21-0.1c1,0,2.2,0.3,2.4-1.3c0-0.3,0.3-0.4,0.6-0.4
	c0.4,0,0.6,0.3,0.6,0.7c0,2.5,0,5,0,7.5c0,0.4-0.2,0.6-0.6,0.6s-0.6-0.3-0.6-0.6s-0.1-0.7-0.1-1c-0.3-3.3-0.7-3.8-4-3.9
	c-3.1-0.1-6.3,0-9.4-0.1c-1.2,0-1.6,0.4-1.6,1.6c0,3.4,0,6.8,0,10.2c0,0.9,0.3,1.2,1.2,1.2c2.3-0.1,4.6,0,6.9-0.1
	c2.6,0,2.7-0.2,2.9-2.8c0-0.5-0.3-1.4,0.7-1.3c0.8,0,0.5,0.8,0.5,1.3c0,2.6,0,5.2,0,7.9c0,0.4,0.2,1-0.6,1c-0.7,0-0.6-0.6-0.6-0.9
	c-0.4-3.4-0.4-3.4-3.9-3.5c-2,0-3.9,0-5.9-0.1c-0.9,0-1.3,0.3-1.2,1.2c0,3.9,0,7.9,0,11.8c0,1,0.3,1.4,1.3,1.4
	c4.4,0.1,8.8,0,13.2-0.2c1.3-0.1,1.9-0.5,2-1.8c0.1-1.2,0.4-2.3,0.7-3.5c0.1-0.5,0.1-1.1,0.9-1c0.7,0.1,0.5,0.7,0.5,1.1
	c-0.1,2.2-0.3,4.3-0.4,6.5c0,0.9-0.5,0.9-1.2,0.9c-8.1-0.2-16.3-0.4-24.4-0.2c-0.5,0-1,0.1-1-0.6c0-0.6,0.4-0.6,0.8-0.6
	c2.7,0.2,2.9-1.5,2.9-3.6c-0.1-7.4,0-14.8,0-22.2C314,156.9,314.7,157.4,310.5,156.7z"/>
<path class="st1" d="M227.5,111.7c0-3.3,0-6.6,0-9.8c0-1.5-0.4-2.2-2-2.2c-0.5,0-1.2,0.2-1.1-0.7c0-0.8,0.8-0.5,1.2-0.5
	c3.4,0,6.8,0,10.2,0c0.4,0,1-0.3,1.1,0.4c0.1,0.8-0.6,0.7-1.1,0.7c-3.5,0.4-3.5,0.5-3.6,4.1c0,5,0,10,0,15c0,5.2,2.2,7.9,7.4,8.8
	c2.6,0.4,5.2,0.4,7.8-0.2c2.6-0.7,4.3-2.2,4.6-5c0.5-5.4,0.1-10.7,0.1-16.1c0-1.5-0.2-2.9-0.1-4.3c0.1-1.7-0.6-2.2-2.2-2.2
	c-0.8,0-2.4,0.6-2.4-0.7c0-1,1.5-0.4,2.4-0.4c2-0.1,4.1,0,6.1,0c0.4,0,1-0.2,1.1,0.4s-0.4,0.8-0.9,0.7c-2-0.2-2.3,0.9-2.3,2.6
	c0,5.5-0.3,11-0.2,16.5c0.2,9.8-6.3,12.6-13.5,12.6c-1.6,0-3.3-0.2-4.9-0.6c-4.9-1.3-7.6-4.5-7.7-9.5c0-1.7,0-3.3,0-4.9
	C227.5,114.9,227.5,113.3,227.5,111.7L227.5,111.7z"/>
<path class="st1" d="M396.3,159.8c0,1.1,0,2.2,0,3.3c0,0.4,0.2,1-0.6,1.1c-0.7,0.1-0.7-0.5-0.7-0.9c0-2.3-0.4-4.3-2.6-5.5
	c-2.5-1.5-5.2-1.8-8-1.2c-2.4,0.5-4,2.4-4.4,4.8c-0.4,2.5,0.5,4.3,2.7,5.5c2.8,1.5,5.8,2.4,8.7,3.7c3,1.4,5.5,3.3,6.3,6.7
	c1.1,5-2.6,9.9-8.2,11c-4.4,0.9-8.5-0.2-12.6-1.5c-0.7-0.2-0.9-0.6-0.9-1.3c0-1.8-0.1-3.7-0.2-5.5c0-0.4-0.2-1,0.4-1.1
	c0.7-0.1,0.7,0.6,0.9,1.1c0.1,0.5,0.3,1,0.3,1.5c0,3.1,1.8,4.3,4.4,5c2.4,0.7,4.9,1,7.3,0.2c2.2-0.7,3.7-2.3,4.1-4.6
	s-0.7-4.1-2.6-5.4c-1.6-1.1-3.4-1.9-5.2-2.6c-1.6-0.7-3.3-1.3-4.9-2.1c-3.9-2-5.5-4.9-5-8.7c0.6-4.2,3.5-7.2,7.5-8.1
	c3.6-0.8,7-0.2,10.3,1.4c0.7,0.3,1.5,0.9,1.6-0.5c0-0.4,0.4-0.5,0.7-0.5c0.6,0.1,0.5,0.5,0.5,0.9
	C396.4,157.6,396.3,158.7,396.3,159.8L396.3,159.8z"/>
<path class="st1" d="M466.3,102.7c0,1.2,0,2.4,0,3.5c0,0.4-0.2,0.8-0.7,0.8c-0.6,0-0.6-0.4-0.6-0.8c0-2.3-0.3-4.4-2.7-5.7
	c-2.5-1.3-5.2-1.8-7.9-1.1c-2.2,0.6-3.9,2.4-4.2,4.7c-0.4,2.7,0.3,4.1,2.6,5.6c1.7,1,3.4,1.7,5.2,2.4c1.6,0.6,3.2,1.2,4.7,2
	c3.4,1.8,5.7,4.5,5.4,8.6c-0.4,4.2-3.1,6.8-6.8,8.1c-4.8,1.7-9.6,0.4-14.2-1.1c-0.6-0.2-0.7-0.7-0.7-1.2c-0.1-1.8-0.2-3.7-0.2-5.5
	c0-0.4-0.2-1,0.4-1.1c0.7-0.1,0.8,0.5,0.9,1c0.1,0.6,0.4,1.1,0.4,1.7c0,2.9,1.7,4,4.2,4.8c2.4,0.7,4.9,1.1,7.3,0.3
	c2.3-0.7,3.9-2.3,4.2-4.7c0.4-2.4-0.7-4.2-2.7-5.5c-2.1-1.4-4.4-2.3-6.7-3.2c-0.9-0.4-1.7-0.7-2.5-1.1c-4.6-2.2-6.4-5.3-5.6-9.4
	c0.9-4.6,4.4-7.6,9.2-8c2.9-0.2,5.6,0.3,8.2,1.5c0.7,0.3,1.7,1.3,2-0.5c0-0.1,0.4-0.3,0.6-0.3c0.5,0,0.5,0.5,0.5,0.9
	c0,1.1,0,2.2,0,3.3C466.4,102.7,466.4,102.7,466.3,102.7z"/>
<path class="st1" d="M390.6,74c-1.7,0-3.4,0-5.1,0c-0.5,0-1,0.1-0.9-0.6c0-0.6,0.5-0.5,0.9-0.6c3.6-0.9,3.6-0.9,2.1-4.4
	c-0.8-1.9-1.6-3.9-2.3-5.8c-0.3-0.9-0.8-1.2-1.7-1.2c-3.3,0-6.6,0-9.8,0c-0.9,0-1.3,0.4-1.6,1.1c-1.1,2.7-2.1,5.4-3.2,8
	c-0.6,1.3-0.4,2.2,1.3,2.2c0.6,0,1.2,0.1,1.8,0.2c0.4,0,1-0.1,0.9,0.7c-0.1,0.7-0.7,0.5-1.1,0.5c-2.4-0.1-4.7-0.2-7.1,0
	c-0.4,0-1,0.1-1-0.6c0-0.6,0.4-0.6,0.8-0.7c1.7-0.2,2.3-1.5,2.9-2.9c3.3-7.6,6.7-15.2,9.9-22.9c0.9-2,2.3-3.7,3.3-5.5
	c0.5-0.9,0.9-1,1.4,0.1c1.1,2.9,2.3,5.7,3.5,8.5c2.6,6.6,5.2,13.1,7.9,19.7c0.6,1.4,1.1,2.8,3,3c0.4,0,0.7,0.2,0.7,0.7
	c-0.1,0.6-0.6,0.5-0.9,0.5C394.1,74,392.3,74,390.6,74z"/>
<path class="st1" d="M429.5,96.7c1.9,4.8,3.7,9.1,5.4,13.3c2.2,5.6,4.4,11.2,6.7,16.8c0.5,1.3,1.1,2.6,2.8,2.6
	c0.4,0,0.8,0.2,0.7,0.7c0,0.6-0.4,0.6-0.8,0.6c-3.6-0.2-7.2-0.2-10.8,0c-0.4,0-0.7-0.1-0.7-0.5s0.2-0.6,0.6-0.7
	c0.2,0,0.4-0.1,0.6-0.1c3.4-0.6,3.4-0.6,2.1-3.8c-0.9-2.1-1.8-4.2-2.6-6.4c-0.3-0.9-0.8-1.2-1.8-1.2c-3.2,0-6.4,0-9.6,0
	c-0.9,0-1.4,0.3-1.7,1.2c-1,2.6-2,5.2-3.2,7.8c-0.7,1.7-0.2,2.2,1.5,2.3c0.8,0,2.4-0.4,2.3,0.7c-0.1,1.3-1.6,0.4-2.4,0.5
	c-1.9,0.2-3.8,0.1-5.7,0.1c-0.4,0-0.9,0.1-1-0.4c-0.2-0.7,0.4-0.8,0.8-0.8c1.7-0.2,2.2-1.3,2.8-2.6c3.4-7.9,6.9-15.8,10.3-23.8
	C426.6,100.8,428.3,99.2,429.5,96.7z"/>
<path class="st1" d="M296,114.5c0-4.1-0.1-8.3,0-12.4c0-1.7-0.6-2.4-2.2-2.4c-0.5,0-1.4,0.2-1.4-0.6c0-1.1,1-0.6,1.5-0.6
	c6.6,0,13.1,0,19.7,0c1.1,0,2.3,0.3,2.6-1.3c0-0.2,0.4-0.4,0.6-0.4c0.4,0,0.6,0.3,0.6,0.7c0,2.5,0,5,0,7.5c0,0.4-0.2,0.6-0.6,0.6
	s-0.6-0.2-0.7-0.6c0-0.2,0-0.4-0.1-0.6c-0.6-4.3-0.7-4.3-5-4.4c-2.9,0-5.8,0-8.7,0c-1.1,0-1.7,0.2-1.7,1.5c0,3.7,0,7.3-0.1,11
	c0,0.9,0.3,1.3,1.2,1.3c2.8-0.1,5.6-0.2,8.5-0.2c1.6,0,2-0.7,2.1-2.2c0-0.6-0.4-1.8,0.6-1.8c1.2,0,0.6,1.3,0.6,1.9
	c0.1,2.4,0,4.7,0,7.1c0,0.5,0.2,1.2-0.6,1.1c-0.7,0-0.5-0.7-0.5-1.1c-0.4-3.5-0.4-3.5-3.9-3.5c-2.2,0-4.3,0-6.5,0
	c-1,0-1.4,0.3-1.4,1.3c0.1,3.7,0.1,7.5,0.1,11.2c0,1.4,0.7,1.5,1.8,1.7c1,0.2,2.8-0.5,2.7,0.9c0,1-1.8,0.3-2.8,0.4c-3,0.1-6,0-9.1,0
	c-0.4,0-1.1,0.4-1.2-0.5c0-0.8,0.7-0.7,1.1-0.7c2.2,0.2,2.5-1.1,2.5-2.9C296,122.4,296,118.5,296,114.5L296,114.5z"/>
<path class="st1" d="M464.5,171.1c2.4-4.5,4.6-8.6,6.9-12.7c0.6-1.1,0.4-1.7-1-1.7c-0.3,0-0.7,0-1,0c-0.5-0.1-1.4,0.4-1.3-0.6
	c0-0.8,0.8-0.5,1.3-0.5c2.4,0,4.7,0,7.1,0c0.4,0,1-0.2,1.1,0.5s-0.4,0.7-0.9,0.7c-1.7,0.1-2.7,1.2-3.5,2.5c-2.5,4.1-5,8.1-7.6,12.2
	c-0.4,0.6-0.4,1.2-0.4,1.9c0,3.5,0.1,7.1,0,10.6c0,1.7,0.4,2.5,2.2,2.5c0.9,0,2.8-0.3,2.7,0.7c-0.1,1.5-1.8,0.6-2.8,0.6
	c-3.4,0.1-6.8,0.1-10.2,0c-0.5,0-1.3,0.4-1.3-0.6c0-0.8,0.7-0.6,1.2-0.6c3.2-0.4,3.3-0.4,3.3-3.7c0.1-2.7,0-5.4,0-8.1
	c0-0.7-0.2-1.4-0.6-2c-2.4-4.3-4.8-8.7-7.3-13c-0.9-1.6-1.8-3.1-3.9-3c-0.4,0-0.6-0.1-0.7-0.6c0-0.6,0.4-0.6,0.7-0.6
	c3.7,0,7.5,0,11.2,0c0.4,0,0.8,0.1,0.7,0.6c0,0.6-0.5,0.5-0.9,0.6c-3,0.4-3,0.4-1.5,3.1C460.1,163.5,462.2,167.2,464.5,171.1z"/>
<path class="st1" d="M434.2,171.7c0,4.1,0.1,8.1,0,12.2c0,1.8,0.6,2.7,2.4,2.6c0.4,0,0.9,0.1,1.4,0.1s1,0,0.9,0.7
	c-0.1,0.6-0.5,0.5-0.9,0.5c-4.1,0-8.3,0-12.4,0c-0.4,0-0.8,0-0.9-0.5c-0.1-0.7,0.5-0.6,0.9-0.7c3.8-0.7,3.8-0.7,3.8-4.6
	c0-7.7,0-15.3,0-23c0-1.4-0.3-2-1.8-1.9c-1.8,0.1-3.7,0-5.5,0.1c-2,0.1-3.4,0.9-3.7,3.1c-0.1,0.6-0.3,1.1-0.4,1.7
	c-0.1,0.4-0.2,0.7-0.7,0.7c-0.6,0-0.6-0.5-0.5-0.8c0.2-2.4,0.3-4.7,0.5-7c0-0.4,0.1-0.8,0.6-0.9c0.5,0,0.7,0.2,0.8,0.7
	c0.1,0.9,0.7,0.9,1.4,0.9c7.9,0,15.7,0,23.6,0c0.6,0,1.4,0.1,1.5-0.9c0.1-0.6,0.4-0.8,0.9-0.7s0.5,0.6,0.5,0.9
	c0,2.3,0.1,4.6,0.1,6.9c0,0.4,0.1,0.8-0.5,0.9c-0.7,0.1-0.7-0.4-0.7-0.9c-0.2-4-0.9-4.7-5.7-4.8c-1.3,0-2.5,0.1-3.7,0
	c-1.4-0.1-1.8,0.5-1.8,1.8C434.3,163,434.3,167.3,434.2,171.7C434.2,171.7,434.2,171.7,434.2,171.7z"/>
<path class="st1" d="M487.4,114.5c0,4.1,0,8.3,0,12.4c0,1.7,0.5,2.6,2.4,2.4c0.3,0,0.7,0,1,0.1c0.5,0.1,1.4-0.2,1.3,0.7
	s-0.9,0.6-1.4,0.5c-3.8-0.1-7.6-0.2-11.4,0c-0.5,0-1.2,0.3-1.3-0.5c-0.1-0.7,0.6-0.7,1.1-0.7c3.5-0.6,3.5-0.6,3.6-4.2
	c0-7.8,0-15.6,0-23.4c0-1.3-0.4-1.9-1.7-1.8c-1.2,0.1-2.4-0.1-3.5,0c-5.6,0.4-5.2,0.6-6.1,4.8c-0.1,0.4-0.1,0.9-0.7,0.9
	c-0.7,0-0.5-0.6-0.5-1c0.2-2.3,0.3-4.6,0.5-6.8c0-0.4,0.1-0.8,0.6-0.9s0.7,0.3,0.8,0.7c0.2,1,0.9,1,1.7,1c7.6,0,15.2,0,22.8,0
	c0.9,0,2,0.2,2.2-1.3c0-0.4,0.4-0.5,0.8-0.4s0.5,0.4,0.5,0.8c0,2.4,0,4.8,0.1,7.3c0,0.4,0,0.8-0.6,0.7c-0.6,0-0.6-0.4-0.6-0.8
	c-0.2-5-1.9-4.8-6.2-4.9c-6.2-0.1-4.9-0.6-5,4.9C487.2,108.1,487.3,111.3,487.4,114.5C487.3,114.5,487.3,114.5,487.4,114.5z"/>
<path class="st1" d="M228.4,74c-3.9,0-7.7,0-11.6,0c-0.5,0-1.3,0.4-1.4-0.5c0-0.9,0.9-0.7,1.3-0.7c2,0.1,2.3-1,2.3-2.7
	c0-8.1-0.1-16.1,0-24.2c0-1.9-0.6-2.8-2.5-2.8c-0.5,0-1.2,0.2-1.2-0.6c0-0.9,0.8-0.6,1.3-0.6c3.5,0,7.1,0,10.6,0
	c0.4,0,1.2-0.4,1.2,0.5c0.1,0.8-0.6,0.6-1.1,0.7c-3.5,0.4-3.6,0.4-3.6,4c0,7.8,0,15.6,0,23.4c0,1.5,0.4,1.8,1.9,1.8
	c4.2,0,8.4,0.1,12.6-0.3c1.1-0.1,1.6-0.4,1.8-1.6c0.2-1.3,0.7-2.6,1.1-4c0.1-0.5,0.4-0.9,0.9-0.7c0.6,0.1,0.5,0.6,0.4,0.9
	c-0.3,2.3-0.6,4.6-0.8,6.8c-0.1,1.1-0.9,0.7-1.5,0.7c-3.9,0-7.9,0-11.8,0C228.4,74.1,228.4,74,228.4,74z"/>
<path class="st1" d="M274.2,130.6c-3.9,0-7.7,0-11.6,0c-0.5,0-1.3,0.4-1.3-0.6c0-0.8,0.7-0.7,1.2-0.7c2.1,0.1,2.4-1,2.4-2.8
	c-0.1-8.1-0.1-16.1,0-24.2c0-1.8-0.5-2.7-2.4-2.6c-0.5,0-1.2,0.1-1.2-0.6c0-0.9,0.9-0.6,1.4-0.6c3.5,0,7,0,10.4,0
	c0.4,0,1.2-0.4,1.3,0.5c0.1,0.8-0.6,0.7-1.1,0.7c-4.2,0.2-3.5,0.3-3.5,3.9c0,7.8,0,15.5,0,23.2c0,1.6,0.4,2.2,2,2.2
	c4.2-0.1,8.4,0.1,12.6-0.4c1-0.1,1.5-0.5,1.7-1.5c0.3-1.3,0.7-2.6,1-4c0.2-0.6,0.4-1,1.1-0.9c0.7,0.2,0.4,0.7,0.4,1.1
	c-0.2,2-0.5,3.9-0.7,5.9c-0.1,1.2-0.5,1.6-1.8,1.6c-3.9-0.1-7.7,0-11.6,0C274.2,130.7,274.2,130.6,274.2,130.6z"/>
<path class="st1" d="M408.9,187.8c-1.8,0-3.5,0-5.3,0c-0.4,0-1,0.1-0.9-0.6c0-0.6,0.4-0.5,0.8-0.6c3.1-0.7,3.1-0.7,3.1-3.9
	c0-7.7-0.1-15.3,0-23c0-2-0.7-2.8-2.6-2.9c-0.5,0-1.4,0.3-1.3-0.6s0.9-0.6,1.3-0.6c3.3,0,6.7,0,10,0c0.4,0,1.2-0.4,1.3,0.5
	c0.1,0.8-0.7,0.6-1.1,0.7c-2.8,0.4-2.8,0.4-2.8,3.3c0,7.8,0,15.6,0,23.4c0,2,0.5,3.1,2.6,3.1c0.5,0,1.4-0.2,1.3,0.7
	s-0.9,0.5-1.5,0.5C412.2,187.9,410.6,187.8,408.9,187.8L408.9,187.8z"/>
<path class="st1" d="M322,74c-1.8,0-3.5,0-5.3,0c-0.4,0-1,0.2-1.1-0.5s0.5-0.6,0.9-0.7c3-0.7,3-0.7,3-3.7c0-7.8-0.1-15.5,0-23.2
	c0-2-0.7-2.9-2.7-2.8c-0.5,0-1.4,0.3-1.2-0.7c0.1-0.8,0.8-0.5,1.3-0.5c3.4,0,6.8,0,10.2,0c0.4,0,1-0.2,1.1,0.5
	c0.1,0.9-0.6,0.7-1.1,0.7c-3.5,0.4-2.8,0.5-2.8,3.2c0,7.9,0,15.9,0,23.8c0,1.7,0.4,2.8,2.3,2.7c0.2,0,0.5,0.1,0.8,0.1
	c0.5,0,0.9,0.1,0.9,0.7c-0.1,0.6-0.6,0.5-0.9,0.5C325.5,74,323.7,74,322,74L322,74z"/>
<path class="st2" d="M134.3,170.2c-1.5-2-3.4-2.8-5.2-4.1c1.9-0.3,4-0.5,5.7,0.5C136.7,167.8,134.7,168.8,134.3,170.2z"/>
<path class="st3" d="M49.7,38.5c0,0.3-0.2,0.5-0.4,0.2c-0.2-0.5,0-1.1,0.3-1.5C49.6,37.6,49.6,38,49.7,38.5z"/>
<path class="st4" d="M340.9,58c0-4.2,0-8.5,0-12.7c0-1.3,0.4-1.8,1.8-1.9c13.3-1.6,16.9,8.3,16.2,16.9c-0.1,1-0.3,2-0.6,3.1
	c-1.5,5.7-5.4,8.9-11.2,9.3c-1.4,0.1-2.9,0-4.3,0.1s-1.8-0.6-1.8-1.9C340.9,66.5,340.9,62.2,340.9,58z"/>
<path class="st4" d="M355.3,171.3c-4.1-0.1-4.1-0.1-4.1-4.2c0-2.8,0-5.6,0-8.5c0-1.1,0.3-1.7,1.5-1.7c1.5-0.1,2.9-0.1,4.3,0.1
	c4.5,0.6,6.8,3.5,6.6,7.9c-0.2,4-3,6.3-7.5,6.3C355.9,171.3,355.6,171.3,355.3,171.3z"/>
<path class="st4" d="M405.5,115.4c0,3.2-0.7,7-2.8,10.3c-3.5,5.7-11.8,5.9-15.3,0.2c-4.4-7.4-4.5-15.2-0.2-22.6
	c3.5-6,12.1-5.7,15.7,0.2C404.6,106.5,405.5,110.3,405.5,115.4z"/>
<path class="st4" d="M273.8,58.9c0,3.3-0.8,7.2-3.1,10.6c-3.9,5.9-13.1,6.1-16.9,0.2c-4.9-7.6-5-15.7-0.2-23.3
	c3.9-6.2,13.4-5.9,17.4,0.2C272.8,49.8,273.8,53.7,273.8,58.9z"/>
<path class="st4" d="M295.5,57.5c-4,0-4,0-4-4c0-2.9,0-5.7,0-8.7c0-1.2,0.4-1.6,1.5-1.7c1.8-0.2,3.7,0,5.5,0.4
	c3.8,0.9,5.6,3.7,5.4,7.8c-0.2,3.5-2.4,5.7-6.2,6.1C296.9,57.6,296.2,57.5,295.5,57.5z"/>
<path class="st4" d="M384.1,59.9c-3.7,0-7.2,0-10.9,0c1.8-4.3,3.6-8.5,5.5-13C380.6,51.5,382.4,55.6,384.1,59.9z"/>
<path class="st4" d="M432.5,116.6c-3.8,0-7.3,0-11.1,0c1.8-4.3,3.6-8.4,5.6-13.1C429,108.2,430.7,112.3,432.5,116.6z"/>
</svg>
