<?xml version="1.0" encoding="utf-8"?>
<!-- Generator: Adobe Illustrator 22.1.0, SVG Export Plug-In . SVG Version: 6.00 Build 0)  -->
<svg version="1.1" id="Layer_1" xmlns="http://www.w3.org/2000/svg" xmlns:xlink="http://www.w3.org/1999/xlink" x="0px" y="0px"
	 viewBox="0 0 500 216" style="enable-background:new 0 0 500 216;" xml:space="preserve">
<style type="text/css">
	.st0{fill:#FEFEFE;}
	.st1{fill:#FDFDFD;}
	.st2{fill:#B3B3B3;}
	.st3{fill:#B4B4B4;}
	.st4{fill:#CACACA;}
	.st5{fill:#686868;}
	.st6{fill:#717171;}
	.st7{fill:#353535;}
	.st8{fill:#363636;}
	.st9{fill:#343434;}
	.st10{fill:#333333;}
	.st11{fill:#3A3A3A;}
	.st12{fill:#373737;}
	.st13{fill:#3C3C3C;}
	.st14{fill:#3B3B3B;}
	.st15{fill:#383838;}
	.st16{fill:#393939;}
	.st17{fill:#323232;}
	.st18{fill:#434343;}
	.st19{fill:#636363;}
	.st20{fill:#313131;}
	.st21{fill:#F6F6F6;}
	.st22{fill:#F5F5F5;}
	.st23{fill:#F1F1F1;}
	.st24{fill:#E4E4E4;}
	.st25{fill:#E2E2E2;}
	.st26{fill:#DFDFDF;}
</style>
<g>
	<path class="st0" d="M3,68.3c0.9-1.8,2.5-0.8,3.8-0.8c69-0.1,137.9-0.1,206.9-0.1c19.9,0,39.8,0,59.7,0c0.3,0.3,0.3,0.8,0,1.1
		c-3.8,2-7.7,3.8-8.9,8.7c-1.4,5.6,1.2,11.1,6.3,12.8c5.8,2,11.9-0.3,14.4-5.7c2.3-5,0.3-11.4-4.4-14.1c-1.1-0.6-2.3-0.9-3.3-1.8
		c-0.3-0.3-0.3-0.8,0-1.1c72,0,144.1,0,216.1-0.1c2.8,0,3.4,0.6,3.4,3.4c-0.2,27.9-0.1,55.9,0,83.8c0,2.5-0.5,3-3,3
		c-162.7-0.1-325.4-0.1-488.1-0.2c-0.8,0-2.4,1.3-2.9-0.8c0.4-0.3,0.8-0.6,1.3-0.8c8.8-1,17.8-0.3,26.6-0.4c11.1-0.1,9,0.2,9.3-9.2
		c0.1-2.3-0.1-4.8,0-7.1c0.1-2.7-0.2-4.8-3-6.1c-2.3-1-2.1-3.4-1.7-5.5c0.4-2.2,2.1-2.8,4-2.9c3.6-0.3,7.3-0.2,10.8-0.1
		c2.8,0,4.1-1.1,4-4c-0.1-4.2-0.1-8.3,0-12.5c0.1-3.1-1-4.6-4.4-4.4c-3.3,0.3-6.7,0.2-10,0c-3.8-0.3-4.8-1.5-4.8-6.2
		c0-4.7,0.9-5.9,4.8-6.2c3.4-0.3,6.8-0.3,8.1,3.9c0.3,1.3,1.5,1.6,2.7,1.7c6.1,0.3,12.2,0.2,18.4,0c1.6-0.1,2.8-0.7,2.8-2.4
		c0-7.8,0.4-15.5-0.3-23.3c0-0.3-0.3-0.5-0.5-0.7c-1.5-1.3-3.4-1-5.2-1c-18.9,0-38,0-56.9,0C6.9,69.5,4.7,69.9,3,68.3z"/>
	<path class="st1" d="M3,133.4c0-13.6,0-27.3,0-40.9c0.4-0.3,0.9-0.7,1.4-0.8c5.3-0.5,6.4,0.3,6.5,5.3c0.1,10.5,0.1,21.1,0,31.6
		c-0.1,4.8-1.5,5.9-6.5,5.7C3.9,134,3.4,133.7,3,133.4z"/>
	<path class="st2" d="M3.8,92.5c-0.3,0-0.6,0-0.8,0c0-8.1,0-16.1,0-24.2c22.5,0,45.1-0.1,67.6-0.1c0.9,0,2-0.3,2.5,0.8
		c-1.8,1.6-3.8,1.3-5.9,1.3c-19.1,0-38.2,0-57.3,0c-4.8,0-4.8,0-4.8,4.9c0,4.2,0,8.3,0,12.4C5,89.4,5,91.1,3.8,92.5z"/>
	<path class="st3" d="M3,133.4c0.3-0.2,0.5-0.2,0.8-0.1c0.8,0.8,1.3,1.8,1.3,3C5,142.1,5,148,5,153.8c0,1-0.3,1.9-1,2.7
		c-0.3,0.1-0.7,0.2-1,0.3C3,149,3,141.1,3,133.4z"/>
	<path class="st4" d="M273.2,68.1c0-0.3,0-0.4,0.1-0.7c1.4,0,2.8,0,4.2,0c0,0.3,0,0.5,0.1,0.7C276,69.5,274.6,69.5,273.2,68.1z"/>
	<path class="st5" d="M123.1,116.2c0-6.9-0.1-13.9,0.1-20.9c0-2.1-0.5-3.3-2.8-2.8c-2.7,0.5-3.3-0.8-3.2-3.3
		c0.2-5.8,0.2-11.7,0-17.5c-0.1-2.4,0.5-3.4,3.2-3.3c9.8,0.2,19.8,0.2,29.6,0c2.6,0,3.3,0.8,3.3,3.3c-0.2,6,0,11.9-0.1,17.9
		c0,0.9,0.3,2.6-0.6,2.7c-4.4,0.1-2.8,3.3-2.8,5.4c-0.2,10.3,0.1,20.6-0.2,30.9c-0.1,3.3,0.6,4.7,4.3,4.5c7.8-0.4,6.5,0.8,6.5-6.8
		c0.1-10.2,0-20.3,0-30.5c0-1.7,0.4-3.5-2.3-3.3c-2,0.2-1.7-1.3-1.7-2.5c0-6.3,0.1-12.5-0.1-18.8c-0.1-2.3,0.8-2.8,2.9-2.8
		c10.3,0.1,20.6,0.1,30.9,0c2.6,0,2.9,1.2,2.9,3.3c-0.1,5.8-0.2,11.7,0,17.5c0.1,2.4-0.5,3.8-3.2,3.3c-3-0.5-2.9,1.4-2.9,3.5
		c0.1,13.3,0,26.7,0.1,40c0,2.6-0.8,4.5-2.5,6.3c-3.9,3.9-7.7,8-11.4,12.1c-1.4,1.6-2.9,2.3-5.1,2.2c-8.6-0.1-17.3-0.1-25.9,0
		c-2.2,0-3.7-0.7-5.1-2.3c-4.2-4.5-8.3-8.9-12.6-13.3c-1.3-1.3-1.4-2.6-1.4-4.1C123.1,130,123.1,123.1,123.1,116.2z"/>
	<path class="st5" d="M4,156.5c-0.1-7.7-0.2-15.4-0.3-23.2c5.8-0.7,5.8-0.7,5.8-6.8c0-9.3,0-18.5,0-27.8c0-5.9,0-5.9-5.7-6.3
		c0-6.8,0.1-13.5,0-20.4C3.7,69.7,4.6,69,7,69C29,69,51.1,69,73.1,69.1c0,8.6,0,17.2,0.2,25.9c0.1,2.5-0.7,3.4-3.3,3.3
		c-6.5-0.2-13.1-0.2-19.6,0c-2.5,0.1-4.1-0.4-3.7-3.3c0.3-2.2-0.9-2.6-2.8-2.4c-0.6,0.1-1.1,0-1.7,0c-6.4,0-7.6,1.7-6.3,8.1
		c0.4,2.1,1.8,1.8,3.1,1.8c4.4,0,8.9,0.1,13.3,0c2.3-0.1,3.3,0.4,3.2,2.9c-0.2,5.8-0.2,11.7,0,17.5c0.1,2.3-0.8,2.8-2.9,2.8
		c-4.4-0.1-8.9,0-13.3-0.1c-2.1,0-3.7,0.3-3.3,2.8c0.3,2-1,4.8,2.8,4.5c2-0.2,2.7,0.7,2.7,2.7c-0.1,6.1-0.1,12.3,0,18.4
		c0.1,2.3-0.9,2.8-2.9,2.8C27,156.6,15.5,156.6,4,156.5z"/>
	<path class="st5" d="M95.1,156.6c-5.2,0-10.3-0.2-15.4,0.1c-2.8,0.1-3.6-0.8-3.5-3.6c0.2-5.7,0.2-11.4,0-17.1
		c-0.1-2.3,0.5-3.5,3-3.2c2.8,0.4,3.1-1.1,3.1-3.4c-0.1-11.3-0.1-22.5,0-33.8c0-2.5-0.6-3.7-3.2-3.3c-2.1,0.3-2.9-0.5-2.8-2.8
		c0.2-6.1,0.2-12.3,0-18.4c-0.1-2.4,0.8-3.1,3.1-3c10.7,0.1,21.4,0.1,32.1,0c2.6,0,3.3,0.8,3.3,3.3c-0.2,6-0.2,11.9,0,17.9
		c0,2.1-0.5,3.3-2.8,2.8c-2.8-0.4-3.2,0.9-3.2,3.3c0.1,11.3,0.1,22.5,0,33.8c0,2.4,0.5,3.8,3.2,3.3c2.3-0.3,2.8,1,2.8,3
		c-0.1,6-0.1,11.9,0,17.9c0.1,2.3-0.8,2.8-2.9,2.8C106.2,156.6,100.6,156.6,95.1,156.6z"/>
	<path class="st6" d="M210.9,112.9c0,13.5,0,26.9-0.1,40.5c0,1.2,0.9,3.1-1.3,3.3c-2.6,0.3-1.8-1.9-1.8-3.3c0-27.3,0-54.5,0-81.8
		c0-1.3-0.8-3.5,1.8-3.3c2.3,0.2,1.3,2.1,1.3,3.3C210.9,85.4,210.9,99.2,210.9,112.9z"/>
	<path class="st7" d="M322.6,69c5.6-0.8,10.3-1,15.2,0.1c5.8,1.3,9,5.1,9.1,10.7c0.1,5.7-3.3,9.8-9.2,11.2
		c-4.9,1.2-9.8,0.3-15.2,0.5C326.4,88.1,326.6,72,322.6,69z"/>
	<path class="st7" d="M356,156.1c-3.8,0.9-6.5,0.1-8.6-2.5c-0.7-0.8-1.2-1.8-1.9-2.8c-1.3-1.5-1.3-4.2-3.8-4.4
		c-1-0.1-1.3,0.9-1.2,1.8c0.3,2.7-1.1,5.9,2.7,7.3c-2.8,0.9-4.4,1-9.1,0.4c3.2-3.1,3.2-19.4-0.8-22.4c5-0.2,9.3-0.9,13.6,0.4
		c5.1,1.6,6.3,6.4,2.2,9.8c-1.9,1.6-1.3,2.5-0.4,4C350.6,151,352.3,154.1,356,156.1z"/>
	<path class="st8" d="M326.7,122.7c3,0.4,4.4-0.8,4.3-3.9c-0.2-3.8-0.1-7.5,0.1-11.3c0.1-2.7-0.2-5-3.4-6c3.4-0.5,6.3-1.4,8.8,2.3
		c3,4.3,7,8.1,11,11.8c-0.4-4.9,2.8-10.2-2.5-14.5c2.7,0,5,0,8.8,0c-4.2,1.7-3.8,4.2-3.8,6.6c0,4.8,0,9.4,0,14.2
		c0,0.8,0.4,1.8-0.7,2.2c-1,0.3-1.4-0.7-1.9-1.3c-3.6-4.1-7.1-8.2-10.7-12.3c-1-1.1-2-2.2-3.3-3c0.3,5.3-2.3,11,2.3,16.3
		c-4.2-0.8-8.3,1.1-12.6-0.4C324,122.1,325.4,122.9,326.7,122.7z"/>
	<path class="st9" d="M326.7,122.7c-1,1-2.3,0.5-3.5,0.8c-3.4-0.8-4.4-3.8-6.1-6.3c-0.8-1.3-1.3-3.8-3.3-3.1c-2,0.7-0.8,2.9-0.9,4.4
		c-0.1,2,0,4.2,2.6,5.2c-3,0-6.1,0-9.1,0c3.3-3.2,3.3-19.7-0.5-22.1c4.9-0.8,9.5-1.2,13.9,0.2c4.7,1.4,5.7,6.5,1.8,9.8
		c-1.6,1.3-1.7,2.2-0.6,3.7C322.6,117.9,323.9,120.9,326.7,122.7z"/>
	<path class="st10" d="M309.1,91.5c-3.6,0.7-6.2-1-8-3.8c-1.1-1.6-2-3.3-3-5c-0.4-0.8-1.1-1.3-2.1-1.1c-1.2,0.3-1,1.3-0.9,2
		c0.3,2.5-1.3,5.7,2.6,7.3c-1.6,1.1-3.1,0.6-4.5,0.7c-1.5,0.1-3,0-4.7,0c3.5-4.4,3.4-19.6-0.3-22.4c4.6-1,8.9-1.2,13.3,0
		c4.9,1.3,6.3,6.6,2.3,9.8c-1.8,1.5-1.6,2.4-0.5,3.9c1.7,2.3,3.4,4.7,5.1,7.1C308.7,90.4,309.6,90.7,309.1,91.5z"/>
	<path class="st7" d="M257.9,115.5c-1.2-4.6,2.2-10-3.2-14.3c2.7,0,5,0,8.4,0c-3.6,1.5-3.3,4-3.3,6.4c0,4,0.1,8.1,0,12.1
		c0,1.4,0.9,3.6-0.6,4.2c-1.8,0.7-2.5-1.7-3.5-2.8c-4.1-4.5-8-9.1-12.4-13.5c0.3,5.4-2.8,11.2,2.4,16.1c-2.6,0-4.9,0-7.4,0
		c4.1-4.3,3.5-19.4-0.7-22c4.4-1.6,5.8-1.2,8.5,2.2c3.4,4.1,7.1,8,10.7,12C257.3,115.9,257.6,115.7,257.9,115.5z"/>
	<path class="st7" d="M268.4,133.6c2.2,0,4.3,0,6.8,0c-3.2,4.3-1.3,9-1.8,13.4c-0.3,3.2,1.6,7.7-1,9.2c-1.6,0.9-4.2-4-6.3-6.3
		c-3-3.3-5.9-6.6-8.8-9.9c-2.2,5.3-1.2,13.7,1.9,15.7c-1,1.1-2.3,0.5-3.5,0.6c-1.3,0.1-2.4,0-3.9,0c4-4.5,3.3-19.6-0.7-22.1
		c4.4-1.6,5.8-1.2,8.5,2.1c3.4,4.1,7.1,8.1,11.2,11.9C270.5,143.3,273.1,138,268.4,133.6z"/>
	<path class="st10" d="M273.2,68.1c1.4,0,2.8,0,4.3,0c7,1.8,10.6,6.8,9.8,13.3c-0.8,6.3-5.7,10.4-12.4,10.3
		c-6.7-0.1-11.2-3.9-11.9-10.3C262.2,74.9,265.9,70,273.2,68.1z"/>
	<path class="st10" d="M418.9,100.6c7.3,0.2,11.9,5.1,11.7,12.3c-0.2,6.9-5.3,11.7-12.6,11.5c-6.9-0.2-12-5.3-11.8-11.8
		C406.3,105.4,411.5,100.4,418.9,100.6z"/>
	<path class="st7" d="M451,115.8c-1.4-4.7,2.4-10.3-3.4-14.5c2.8,0,5.3,0,9.2,0c-4.1,1.5-3.9,4-3.9,6.5c0,4.4,0.1,8.8,0,13.3
		c0,1,0.7,2.5-0.6,3c-1.3,0.6-1.8-1-2.4-1.8c-4.4-4.9-8.8-9.9-13.5-14.7c0.6,5.3-2.8,11.2,2.5,16c-2.4,0-4.9,0-7.3,0
		c4-4.8,3.4-19.2-0.9-21.9c4.8-1.6,5.8-1.2,8.8,2.5c3,3.6,6.3,7,9.3,10.6c0.4,0.5,0.7,1.3,1,1.8C450.1,116.4,450.6,116,451,115.8z"
		/>
	<path class="st11" d="M304.7,118.6c0.5,3.6,0,5.8-4.6,5.3c-4.4-0.5-9-0.1-14-0.1c4.3-2.9,4.7-19.1,0.4-22.9c5.3,0,9.8-0.2,14.4,0.1
		c3.3,0.2,1.8,2.9,1.9,4.9c-2.3-3.5-5.3-4.2-8.8-2.7c-0.9,0.4-0.5,7.3,0.3,7.5c2.4,0.5,4.9,0.7,6.5-2.3c0,2.3,0,4.7,0,7.2
		c-1.7-0.3-1-2.4-2.4-2.5c-1.7-0.1-4.3-1.4-4.5,1.1c-0.3,2.5-2.1,6.2,1.7,7.6C299.3,123.2,302.6,122.2,304.7,118.6z"/>
	<path class="st12" d="M226.3,134c0.8-0.3,1-0.4,1.1-0.4c5.6-0.2,5.5-0.2,5.5,4.9c-0.1,3.6-0.1,7.3,0.3,10.8
		c0.3,3.3,1.9,5.5,5.5,5.7c3.8,0.2,5.8-2.2,6.1-5.5c0.4-4,0.1-8,0.2-12c0-1.7-1.4-2.2-2.6-3.6c2.8,0,5.1,0,7.9,0
		c-2.9,1.3-3.1,3.7-3.2,6.1c-0.1,3.4,0.3,6.9-0.4,10.3c-1,4.7-3.8,6.6-9.6,6.5c-5.1-0.1-7.8-2.1-8.3-6.8c-0.3-3.6-0.2-7.2-0.3-10.8
		C228.5,137.1,228.5,135.3,226.3,134z"/>
	<path class="st8" d="M313,133.5c4.6,0,8.7,0.3,12.6-0.1c4.4-0.5,4.1,2,3.8,5.6c-1.5-1.4-1.8-3.3-3.3-3.6c-1.9-0.3-4.4-1.3-5.5,0.2
		c-1.5,1.9-0.8,4.8-0.3,7.2c0.3,1.8,4.9,0.6,6.9-2.1c0,2.7,0,5,0,7.3c-1.2,0.1-0.9-1.1-1.4-1.7c-1.2-1.6-3-1.3-4.6-1.2
		c-1.9,0.3-1.3,1.9-1.2,3c0.3,2.2-1.4,5.3,1.9,6c3,0.7,6.5,1.2,8.3-2.7c0.2-0.3,0.7-0.4,1.3-0.8c0.1,3.4-0.2,5.8-4.4,5.6
		c-4.8-0.3-9.5-0.1-15.5-0.1C316.8,153.8,317.3,137.1,313,133.5z"/>
	<path class="st8" d="M374.6,123.9c-2.8,0-5.6,0-8.9,0c3.3-3,1.3-5.8-0.5-7.8c-1.2-1.3-4.6-1.6-5.9,0.3c-1.3,1.9-3.3,4.6-0.1,7.3
		c-2.5,0-4.8,0-7.4,0c4.9-3.3,4.9-8.9,7.2-13.4c1-2,1.8-4.1,2.3-6.2c0.4-1.7,1.3-3.1,2.8-3.2c1.7-0.1,1.4,2,1.8,3.2
		c1.7,4.8,3.3,9.7,5,14.5c0.7,1.9,0.9,4.3,4.3,4.1C375.1,123.1,374.9,123.5,374.6,123.9z"/>
	<path class="st13" d="M407.6,134.3c-1.6,0.9-0.2,2.9-1.5,3.9c-1.3-0.2-0.9-1.6-1.7-2.2c-1.6-1.3-3.4-1.3-5.2-0.9
		c-2,0.4-1.1,2.3-1.2,3.5c-0.1,4.2-0.1,8.3,0,12.5c0,2.1-0.3,4.3,3.2,4.4c-3.8,1-7.2,1-11,0c3.7-0.2,3.6-2.5,3.6-4.8
		c0-3.9,0.1-7.8-0.1-11.7c-0.1-1.3,0.9-3.4-1.1-3.9c-1.8-0.5-3.9-0.3-5.5,1.1c-0.7,0.6-0.8,1.8-2.3,1.9c0.1-3.3,0-5.5,4.9-4.9
		c5.5,0.7,11.3,1,16.9-0.4c0.3-0.1,0.7,0.5,1,0.8c0.2,0.2,0.3,0.3,0.2,0.5C407.7,134.2,407.7,134.3,407.6,134.3z"/>
	<path class="st8" d="M368,91.4c-2.8,0-5.5,0-8.6,0c2.9-2.9,1.3-5.8-0.5-7.7c-1.3-1.5-4.8-1.7-6,0.1c-1.2,1.8-3.7,4.5,0.1,7.4
		c-2.7,0-4.8,0-6.8,0c4.4-5.5,5.8-12.8,8.6-19.3c0.8-1.7,1.4-3.4,3.1-3.4c1.8-0.1,1.3,2.2,1.8,3.3c1.7,4.4,3,8.9,4.6,13.3
		C365.1,87.3,365.3,90.1,368,91.4z"/>
	<path class="st14" d="M393.7,100.9c-0.2,1.4-0.3,3.1-0.5,4.8c-1.7-0.1-1.3-1.5-2-2.1c-1.6-1.3-3.4-1.2-5.2-0.8
		c-2,0.3-1.3,2.2-1.3,3.4c-0.1,4.2-0.1,8.3,0,12.4c0,2.1,0.1,4.2,2.8,5c-3.3,0-6.6,0-11.3,0c4.9-1.3,4.1-4.3,4.1-6.9
		c0-3.3,0.1-6.7,0-10c-0.1-1.3,0.9-3.4-1.1-3.9c-1.8-0.5-3.9-0.6-5.4,1.1c-0.5,0.6-1,1.3-1.9,1.5c0.3-2.3-1.2-5.4,4-4.7
		C381.6,101.5,387.5,100.9,393.7,100.9z"/>
	<path class="st8" d="M240.7,76.6c0,2.2,0,4.3,0,6.7c-1.8,0-1.3-3-3.2-2.5c-1.4,0.3-3.4-1-4.3,1c-1.3,3,0.3,7.7,3.5,9.2
		c-3.8,0.9-7,0.5-10.5,0.3c3.6-3.4,3.9-18.3,0.4-22.9c4.7,0,9-0.2,13.4,0.1c4.3,0.3,1.5,3.3,2.3,5.9c-2.9-3.8-7.3-5.4-8.8-3.8
		c-0.6,0.7-0.8,7.8,0,8C236.1,79.5,238.6,79.6,240.7,76.6z"/>
	<path class="st7" d="M469.3,122.7c1.3-2.9,0-5.5-2.2-6.9c-1.3-0.8-4.1-1.3-5.7,0.8c-1.7,2.2-1.5,5.1,0.4,7c-2.6,0-4.9,0-8.1,0
		c4.7-2.2,4.8-6.4,6.3-9.8c1.3-3.2,2.7-6.4,3.8-9.7c0.6-1.8,1.5-2.9,3.6-3.4c2.1,6,4.1,12,6.2,18c0.6,1.7,0.9,3.6,3.1,4.1
		C474.3,124.3,471.8,124.4,469.3,122.7z"/>
	<path class="st13" d="M262.2,86.1c0,3.3-0.4,5.8-4.9,5.5c-4.3-0.3-8.6-0.1-13.1-0.1c3.9-4.4,3.8-19.6-0.1-22.9c3.3,0,6.5,0,10.6,0
		c-4.3,1.8-3.4,4.9-3.4,7.8c-0.1,2.9-0.1,5.8,0,8.8c0,1.8-0.5,4,1.9,4.4c2.4,0.5,5,1,6.8-1.5C260.6,87.4,260.7,86.1,262.2,86.1z"/>
	<path class="st7" d="M369.7,139.3c-0.8-1.2-1.1-1.6-1.3-2.1c-1-1.9-2.6-2.8-4.8-2.5c-1.6,0.3-2.5,1.1-2.8,2.7
		c-0.3,2.3,1.2,3.5,2.9,4.6c1.7,1,3.5,1.8,4.8,3.2c2.4,2.3,2.9,5.3,1.3,8.3c-1.6,2.9-6.4,4.1-10.5,2.9c-3.3-1-3.5-3.4-3.3-6.4
		c2,0.3,2,2.2,2.9,3.1c1.5,1.5,3.1,2.4,5.2,1.8c1.5-0.4,2.3-1.4,2.5-3c0.3-2-0.8-3.4-2.3-4.5c-1.8-1.2-3.6-2.1-5.1-3.5
		c-2.8-2.5-2.8-6.4-0.5-8.9c2.2-2.3,8.6-3.2,10.4-1.3C370.6,135.1,370.3,136.9,369.7,139.3z"/>
	<path class="st12" d="M285.8,100.4c-0.1,1.2-0.2,2.3-0.3,3.3c-0.1,0.7,0.2,1.4-0.6,1.9c-1.2,0-0.9-1.2-1.4-1.7
		c-1.5-1.8-3.6-1.5-5.4-1.3c-2.3,0.3-1.2,2.5-1.3,3.8c-0.2,3.6-0.1,7.3-0.1,10.8c0,2.5-0.8,5.3,2.9,6.4c-3.4,0-6.8,0-10.3,0
		c3.5-0.9,3.1-3.7,3.2-6.2c0-3.6,0.1-7.3,0-10.8c-0.1-1.3,0.9-3.4-1.1-3.9c-1.8-0.5-3.8-0.5-5.5,0.9c-0.8,0.6-0.8,1.8-1.9,2
		c-0.2-4.8,0-4.8,4.4-4.8C274,100.8,279.7,101.4,285.8,100.4z"/>
	<path class="st7" d="M305.7,133.7c2.2,0,4,0,6.2,0c-4.8,6.3-7,13.5-10.1,20.2c-0.4,1-0.3,2.5-1.7,2.6c-1.5,0.1-1.3-1.7-1.6-2.5
		c-2-4.7-3.9-9.4-5.8-14.2c-0.9-2.3-1.7-4.8-4.3-6.3c2.8,0,5.7,0,8.3,0c-2.1,6,3.1,10.2,4,15.7C304.7,144.7,307.5,136.3,305.7,133.7
		z"/>
	<path class="st15" d="M469.3,122.7c2.5,1.1,4.9,0.9,7.4,0.1c3.3,0.2,4.3-1.3,4.2-4.6c-0.3-3.8-0.2-7.8,0-11.7
		c0.1-2.2-0.1-4.2-2.6-5.3c3,0,6.1,0,9.9,0c-3,1.3-3.3,3.5-3.2,5.8c0.1,3.3-0.1,6.7,0.1,10c0.1,1.8-0.8,4.2,1.9,4.8
		c2.8,0.7,5.6,0.9,7.3-2.1c0.3-0.4,0.6-0.8,1.1-1.4c0.7,4.7,0.1,5.4-4.3,5.3c-6.8,0-13.6,0-20.4,0c-0.8,0-2,1.1-2.1-0.8
		c0-0.1,0.2-0.2,0.3-0.3C469.1,122.8,469.3,122.7,469.3,122.7z"/>
	<path class="st8" d="M407.6,134.3c0-0.3,0-0.5,0-0.8c4.2-0.4,8.3-1,8.7,5.3c0.1,1.8,1.4,3.5,2.3,5.3c0.6,0.8,2.4,0.5,1.8,2.3
		c-0.1,1.7-0.1,3.3-0.2,5c-0.1,2.3-0.1,4.5,3.6,4.3c-3.8,0.8-7.1,0.9-10.9,0.1c3.7-0.4,3.4-2.9,3.2-5.2
		C415.2,144.1,412.8,138.5,407.6,134.3z"/>
	<path class="st7" d="M309.1,91.5c-0.3-0.5-0.6-1-0.8-1.5c3.4,0.9,5.3,0,5-4c-0.3-3.8-0.1-7.8,0-11.6c0.1-2.2,0.2-4.3-2.3-5.7
		c2.9,0,5.8,0,8.9,0c-3.5,3.3-3.5,19.2,0.1,22.9C316.2,91.5,312.6,91.5,309.1,91.5z"/>
	<path class="st16" d="M236,123.9c-3.7,0-6.7,0-9.8,0c3.8-3.9,3.8-19.2-0.1-22.7c3.2,0,6.2,0,9.1,0
		C232.1,104.8,232.1,120.9,236,123.9z"/>
	<path class="st15" d="M404.1,123.8c-3.1,0-6,0-9.1,0c3.4-3.3,3.4-19.3-0.2-22.4c3.3,0,6.2,0,9,0
		C400.6,104.8,400.6,120.3,404.1,123.8z"/>
	<path class="st17" d="M287.7,156.1c-3.3,0-6.3,0-9.3,0c3.4-2.9,3.3-19.4-0.3-22.4c3.2,0,6.1,0,9,0
		C283.9,137.6,283.9,153.1,287.7,156.1z"/>
	<path class="st17" d="M380.9,135c-1.1,7-1.9,14,0.8,21.2c-2,0.5-4.9-0.1-8.3-0.2c2.8-1.2,2.5-3.5,2.5-5.7c-0.1-3.6,0.1-7.3,0-10.8
		c-0.1-1.9,0.8-4-2.1-5.2c-1-0.4,0.5-0.8,1.3-0.8C376.8,134.9,379.6,132.1,380.9,135z"/>
	<path class="st18" d="M420.3,146.2c-0.6-0.8-1.2-1.5-1.8-2.3c2.7-2.6,5.1-5.3,4.3-9.3c-0.2-1,0.4-1.2,1.2-1.2
		c1.6,0.2,3.3-0.5,5,0.7C424.3,137.1,423.4,142.4,420.3,146.2z"/>
	<path class="st19" d="M380.9,135c-1.6-1.9-4.3,0.2-5.8-1.5c2-0.1,4.1-0.2,6.1-0.2c0.7,0,1.6-0.3,1.6,0.7
		C382.7,135,381.7,135,380.9,135z"/>
	<path class="st20" d="M126.3,114.6c0-7.1,0-14.2,0-21.3c0-2-0.2-3.7-2.8-3.4c-2.4,0.3-3.1-0.9-3.1-3.2c0.1-4,0.2-8.1,0-12.1
		c-0.1-2.3,0.8-3.2,3.2-3.1c7.8,0.1,15.6,0.1,23.4,0c2.2,0,3,0.8,2.9,2.9c-0.1,4.2,0,8.3-0.1,12.5c0,0.8-0.2,2.2-0.5,2.3
		c-4.3,1.2-2.8,4.6-2.8,7.2c-0.1,11.4,0,22.8-0.1,34.2c0,3.7,1.3,5.3,5.1,5.3c13.7-0.3,11.4,1.9,11.6-11.3c0.1-10.2,0-20.3,0-30.5
		c0-1.8,0.7-4-2.3-4.4c-1.3-0.2-1.1-1.5-1.1-2.4c0-4.3,0.1-8.6-0.1-12.9c-0.1-2.3,0.9-2.8,3-2.8c8.1,0.1,16.1,0.1,24.2,0
		c2.1,0,3.1,0.6,3,2.8c-0.1,4.3-0.1,8.6,0,12.9c0,1.7-0.5,2.8-2.3,2.6c-3.7-0.5-3.6,1.8-3.6,4.3c0.1,13.3-0.1,26.7,0.1,40
		c0,3-1.3,5.1-3,7.4c-7,9.6-15.9,12.8-27.9,12.1c-8.8-0.5-15.6-1.8-21.4-9.2c-3.6-4.5-6.2-8.3-5.6-14.3
		C126.8,125.2,126.3,119.9,126.3,114.6z"/>
	<path class="st20" d="M22.5,153.4c-4.4,0-8.9-0.1-13.3,0c-2.2,0.1-3-0.8-2.9-2.9c0.1-3.9,0.1-7.8,0-11.7c-0.1-2,0.4-3.3,2.8-3
		c2.7,0.3,3.3-1.1,3.3-3.4c-0.1-12.9-0.1-25.9,0-38.8c0-2.5-0.5-4.1-3.4-3.7c-2,0.3-2.6-0.9-2.6-2.8c0.1-4.3,0.1-8.6,0-12.9
		c0-2,0.8-2.7,2.8-2.7c19.6,0,39.2,0,58.8,0c1.9,0,2.8,0.7,2.8,2.7c-0.1,6-0.1,11.9,0,17.9c0,2.2-0.8,2.9-2.9,2.9
		c-5-0.1-10-0.1-15,0c-1.8,0-3-0.4-2.8-2.5c0.2-2.4-1.3-2.7-3.2-2.6c-0.8,0.1-1.7,0-2.5,0c-12.3,0-12.5,0.3-11,12.8
		c0.3,2.2,1.3,2.3,3.1,2.3c4.3,0,8.6,0.1,12.9-0.1c2.6-0.1,3.4,0.8,3.3,3.4c-0.2,3.6-0.2,7.3,0,10.8c0.1,2.6-0.9,3.4-3.4,3.3
		c-4.3-0.2-8.6,0-12.9-0.1c-2.1-0.1-3.1,0.7-2.9,2.9c0.1,2.1,0.2,4.2,0,6.3c-0.2,2.7,0.1,4.8,3.7,4.3c1.9-0.3,2.2,1.2,2.2,2.7
		c0,4-0.1,8.1,0,12.1c0.1,2.3-1,2.8-3,2.8C31.4,153.4,26.9,153.4,22.5,153.4z"/>
	<path class="st20" d="M94.8,153.4c-3.9,0-7.8-0.3-11.7,0.1c-3.6,0.3-4.6-1.2-4.3-4.5c0.3-2.5,0-5,0.1-7.5c0-2.9-0.9-6.5,4.3-5.8
		c1.5,0.2,1.6-1.3,1.6-2.4c0-13.6,0-27.2,0-40.8c0-2.1-1-2.7-2.8-2.5c-2.4,0.3-3.1-0.9-3.1-3.2c0.1-4.2,0.1-8.3,0-12.5
		c0-1.9,0.8-2.8,2.7-2.7c9,0.1,18,0.1,27.1,0c2.3,0,2.8,1,2.8,3c-0.1,4.2-0.1,8.3,0,12.5c0.1,2.2-0.8,3.1-2.9,2.8
		c-2.5-0.3-3,1.1-3,3.3c0.1,13,0.1,26.1,0,39.1c0,2.3,0.4,3.8,3.2,3.5c2.3-0.3,2.8,1,2.8,3c-0.1,3.9-0.1,7.8,0,11.7
		c0.1,2.2-0.8,3-2.9,2.9C104,153.4,99.4,153.4,94.8,153.4z"/>
	<path class="st1" d="M342,80.1c-0.1,6-3.3,9.8-8.3,9.9c-2.6,0.1-4-1-4-3.6c-0.1-4.6,0-9.2-0.1-13.7c0-2,1-2.6,2.8-2.6
		C338.2,69.9,342.1,73.9,342,80.1z"/>
	<path class="st21" d="M346.8,139.8c-0.1,2.4-0.8,4.1-3,4.7c-2.1,0.5-3.7,0.3-3.3-2.4c0.1-0.8-0.2-1.7,0-2.5c0.3-1.6-1.3-4.4,2-4.4
		C345.4,135.1,346.6,137.3,346.8,139.8z"/>
	<path class="st22" d="M319.2,107.3c-0.1,2.5-1,4.2-3.3,4.8c-2,0.6-3.3,0.2-3.2-2.3c0-1-0.2-1.9,0-2.9c0.3-1.6-1.3-4.4,2-4.4
		C317.6,102.6,318.8,104.8,319.2,107.3z"/>
	<path class="st23" d="M294.7,74.9c1.1-1.8-1.2-4.7,2.3-4.8c3.1,0,4.3,2.3,4.4,5.1c0.1,2.7-1.5,4.7-4.3,4.5
		C293,79.6,296.5,76.1,294.7,74.9z"/>
	<path class="st1" d="M282.4,82.1c-0.2,0.7-0.3,2.3-0.9,3.8c-2,5.1-7.8,5.9-11.3,1.8c-2.7-3.3-3.3-10.5-1.2-14.3
		c2.6-4.8,8.6-4.9,11.4-0.3C281.9,75.5,282.5,78.2,282.4,82.1z"/>
	<path class="st1" d="M411.1,111.6c0-2.1,0.3-4.2,1.4-6c2.3-4.3,7.7-4.7,10.8-0.9c2.8,3.4,3.4,10.7,1.2,14.6
		c-2.4,4.3-8.1,4.7-11,0.5C411.7,117.4,411,114.6,411.1,111.6z"/>
	<path class="st24" d="M363.2,106.8c-0.2,2.9,2.8,4.6,0.8,6.8c-0.6,0.7-3.3,0.6-3.3-0.2C360.2,111.3,361.1,109.2,363.2,106.8z"/>
	<path class="st25" d="M356.3,74.7c0.3,2.3,2.9,4.1,1.4,6.3c-0.5,0.8-3,0.8-3.3-0.1C353.4,78.7,355.2,76.8,356.3,74.7z"/>
	<path class="st26" d="M465.7,106.6c-0.3,3.1,2.8,4.8,0.6,7.1c-0.7,0.6-3.2,0.7-3.3-0.3C462.7,111.3,463.7,109.1,465.7,106.6z"/>
</g>
</svg>
