<?xml version="1.0" encoding="utf-8"?>
<!-- Generator: Adobe Illustrator 22.1.0, SVG Export Plug-In . SVG Version: 6.00 Build 0)  -->
<svg version="1.1" id="Layer_1" xmlns="http://www.w3.org/2000/svg" xmlns:xlink="http://www.w3.org/1999/xlink" x="0px" y="0px"
	 viewBox="0 0 500 216" style="enable-background:new 0 0 500 216;" xml:space="preserve">
<style type="text/css">
	.st0{fill:#FEFEFE;}
	.st1{fill:#212121;}
	.st2{fill:#373737;}
	.st3{fill:#646464;}
	.st4{fill:#4A4A4A;}
	.st5{fill:#444444;}
	.st6{fill:#565656;}
	.st7{fill:#555555;}
	.st8{fill:#575757;}
	.st9{fill:#FDFDFD;}
	.st10{fill:#FCFCFC;}
	.st11{fill:#FAFAFA;}
	.st12{fill:#F8F8F8;}
	.st13{fill:#BCBCBC;}
	.st14{fill:#BBBBBB;}
	.st15{fill:#3E3E3E;}
	.st16{fill:#2F2F2F;}
	.st17{fill:#2B2B2B;}
	.st18{fill:#323232;}
	.st19{fill:#292929;}
	.st20{fill:#2C2C2C;}
	.st21{fill:#404040;}
	.st22{fill:#626262;}
	.st23{fill:#313131;}
	.st24{fill:#545454;}
	.st25{fill:#474747;}
	.st26{fill:#414141;}
	.st27{fill:#7B7B7B;}
	.st28{fill:#3B3B3B;}
	.st29{fill:#282828;}
	.st30{fill:#2D2D2D;}
	.st31{fill:#2E2E2E;}
	.st32{fill:#2A2A2A;}
	.st33{fill:#494949;}
	.st34{fill:#515151;}
	.st35{fill:#4C4C4C;}
	.st36{fill:#363636;}
	.st37{fill:#5C5C5C;}
	.st38{fill:#777777;}
	.st39{fill:#333333;}
	.st40{fill:#343434;}
	.st41{fill:#454545;}
	.st42{fill:#8A8A8A;}
	.st43{fill:#464646;}
	.st44{fill:#606060;}
	.st45{fill:#ECECEC;}
	.st46{fill:#F7F7F7;}
	.st47{fill:#E7E7E7;}
</style>
<g>
	<path class="st0" d="M494.7,99.7c0,29.6,0,59.2,0,88.8c0,1-0.1,1.3-1.2,1.3c-133.4,0-266.8,0-400.2,0c0.1-0.7,0.6-0.5,1-0.5
		c5-0.5,9.9-1.3,14.8-2.5c11.6-3.1,21.9-8.5,31.1-16.1c7.3-6,13.4-13.2,18.2-21.4c5.7-9.6,9.2-19.9,10.7-31
		c0.6-4.5,0.9-8.9,0.7-13.5c-0.3-7-1.5-13.8-3.4-20.5c-2.7-9-6.8-17.3-12.3-24.8c-4.5-6.1-9.7-11.5-15.6-16.1
		c-7.2-5.6-15.2-10-23.8-12.9c-5.9-2.2-12-3.6-18.4-4.2c-0.8-0.1-1.6-0.2-2.3-0.3c-0.3,0-0.8,0-0.8-0.5c133.5,0,266.9,0,400.4,0
		c1.1,0,1.2,0.3,1.2,1.2c0,24.1,0,48.2,0,72.3c-0.7,0.2-1.2,0.7-1.6,1.4c-1.3,2.1-3,3.2-5.5,3c-1.5-0.1-2.9,0-4.5,0
		c-2.6-0.1-3.6-1.1-3.7-3.7c-0.1-2.1,0-4.2,0-6.3c0-1.2,0.4-1.6,1.6-1.8c1.9-0.3,3.8,0.1,5.6,0.3c0.8,0.1,1.3,0.8,1.6,1.5
		c0.2,0.4,0.1,0.9,0.8,1.3c0.1-2.2,0-4.3,0.1-6.6c-0.6,0.3-0.6,0.8-0.7,1.2c-0.3,0.9-0.9,1.4-1.8,1.6c-1.7,0.3-3.6,0.3-5.3,0.2
		c-1.2-0.1-1.6-0.5-1.7-1.7c0-2.5,0-5.1,0-7.7c0-0.9,0.4-1.6,1.4-1.6c2.1,0,4.3-0.1,6.4,0.1c1.8,0.2,3.1,1.1,3.8,2.8
		c0.1,0.2,0.1,0.5,0.5,0.6c0.2-1.2,0-2.3-0.3-3.5c-0.1-0.6-0.7-0.5-1.2-0.5c-2.5,0-5,0-7.5,0c-2.7,0-5.5,0.1-8.3,0
		c-0.1,0-0.3-0.1-0.4,0.1c2.7,1.1,2.7,1.1,2.7,4.2c0,5.2,0,10.6,0,15.8c0,0.5,0,1,0,1.6c-0.1,1.5-0.7,2-2.1,2.4
		c-0.4,0.1-0.9,0.1-1.3,0.3c0.4,0.2,0.8,0.1,1.2,0.2c5.5,0,11.1,0,16.5,0c1.7,0,1.8-0.1,2.3-1.7c0.2-0.6,0.4-1.3,0.7-1.8
		C494.1,100.1,494.1,99.7,494.7,99.7z"/>
	<path class="st0" d="M81.9,189.7c-25.2,0-50.3,0-75.5,0c-0.8,0-1-0.1-1-0.9C5.4,134.7,5.4,80.6,5.4,26.5c0-0.9,0.3-0.9,1-0.9
		c25.2,0,50.3,0,75.5,0c-0.1,0.7-0.6,0.5-1,0.6c-3.5,0.4-6.9,0.9-10.4,1.6c-11,2.3-21,6.8-30.1,13.2c-4.7,3.3-8.9,7.1-12.8,11.3
		C20.3,60,14.9,68.8,11.1,78.7c-2.7,7.1-4.4,14.4-5,22c-0.8,9.9,0.2,19.8,2.9,29.4c3.2,11.4,8.7,21.6,16.4,30.5
		c6.4,7.5,13.9,13.6,22.5,18.5c9.5,5.2,19.6,8.5,30.4,9.7c0.9,0.1,1.7,0.1,2.6,0.3C81.5,189.2,81.9,189.2,81.9,189.7z"/>
	<path class="st1" d="M81.9,189.7c-0.7-0.5-1.6-0.3-2.3-0.4C45.1,185.9,16.1,160.7,8,127C-2.4,84,22.9,40.8,65.3,28.6
		c5.1-1.5,10.4-2.3,15.7-2.8c0.3,0,0.7,0.2,0.8-0.3c0.8,0,1.6,0,2.3,0c0.5,0.2,1,0.2,1.4,0c1.2,0,2.3,0,3.5,0
		c0.5,0.3,1.1,0.1,1.7,0.1c0.5-0.1,1,0.1,1.5-0.1c0.3,0,0.6,0,1,0c1.7,0.5,3.4,0.4,5.1,0.7c15.3,1.9,28.9,7.7,40.8,17.2
		c15.4,12.3,25.4,28.1,29.2,47.4c5,25-0.4,47.7-16.1,67.8c-12.2,15.5-28.3,25.2-47.5,29.3c-3.5,0.8-7.1,1.3-10.7,1.5
		c-0.2,0-0.5-0.1-0.6,0.2c-0.5,0-1,0-1.4,0c-0.6-0.2-1.1-0.2-1.7,0c-1.7,0-3.4,0-5.1,0c-0.6-0.2-1.1-0.2-1.7,0
		C83,189.7,82.4,189.7,81.9,189.7z"/>
	<path class="st1" d="M494.7,99.7c-0.5,1.3-1,2.5-1.4,3.8c-0.2,0.7-0.6,1-1.4,1c-6.2-0.1-12.4-0.2-18.7,0c-0.4,0-1,0.2-1-0.5
		c0-0.6,0.5-0.4,0.9-0.5s0.8-0.1,1.2-0.2c1.3-0.1,1.8-0.8,1.8-1.9c0.1-1,0.1-1.9,0.1-2.9c0-5.2,0-10.4-0.1-15.6c0-2-0.4-2.3-2.4-2.6
		c-0.4-0.1-0.9,0-0.8-0.6c0.1-0.6,0.5-0.5,0.9-0.4c5.5,0.2,11.1,0.1,16.6,0c0.7,0,0.9,0.2,1,0.8c0.1,1.3,0.3,2.4,0.4,3.7
		c0,0.3,0.1,0.7-0.4,0.7c-0.3,0.1-0.6,0-0.7-0.4c-0.8-3.3-3.2-3.6-5.9-3.5c-1.4,0-2.8,0-4.2,0c-0.8,0-1.1,0.3-1.1,1.1
		c0,2.7,0,5.4,0,8.2c0,0.7,0.3,1,1,1c1.9,0,3.9,0.1,5.8-0.2c0.8-0.1,1.2-0.5,1.4-1.2c0.1-0.5,0.2-0.9,0.3-1.4
		c0.1-0.5,0.4-0.6,0.8-0.5c0.5,0,0.4,0.4,0.4,0.7c-0.1,2.1-0.2,4.4,0,6.5c0,0.4,0,0.7-0.5,0.7c-0.3,0-0.7-0.1-0.7-0.5
		c-0.1-2.9-2.2-2.8-4.3-2.8c-1.1,0-2.1,0-3.3,0c-0.7,0-1,0.3-1,1c0,2.3,0,4.7,0.1,7c0.1,2.1,0.8,2.9,3,3.1c2,0.2,4.1,0.1,6.1,0
		c2.3-0.1,3.3-1.7,4.3-3.5c0.4-0.7,0.7-1,1.5-0.5C494.7,99.2,494.7,99.4,494.7,99.7z"/>
	<path class="st2" d="M90.8,25.8c-0.6-0.1-1.2,0.2-1.7-0.2c0.6,0,1.1,0,1.7,0C90.9,25.6,90.9,25.6,90.8,25.8
		C90.8,25.7,90.8,25.8,90.8,25.8z"/>
	<path class="st3" d="M83.5,189.7c0.6-0.4,1.1-0.3,1.7,0C84.7,189.7,84.1,189.7,83.5,189.7z"/>
	<path class="st3" d="M90.3,189.7c0.6-0.3,1.1-0.4,1.7,0C91.4,189.7,90.9,189.7,90.3,189.7z"/>
	<path class="st4" d="M85.6,25.5c-0.5,0.3-1,0.4-1.4,0C84.7,25.5,85.2,25.5,85.6,25.5z"/>
	<path class="st3" d="M90.8,25.8c0-0.1,0-0.1,0-0.2c0.5,0,1,0,1.4,0C91.8,26,91.3,25.7,90.8,25.8z"/>
	<path class="st1" d="M322.1,79.3c3.4-0.3,6.8-0.4,10.1,0.4c6.1,1.5,9.8,5.6,9.9,11.2c0.1,6-3.5,11-9.4,12.7
		c-2.9,0.9-5.8,1.1-8.8,0.9c-3-0.2-6-0.3-9-0.2c-0.4,0-1,0.3-1.1-0.4c-0.1-0.7,0.5-0.5,0.9-0.6c2.3-0.5,2.5-0.7,2.6-3
		c0-5.7,0-11.4,0-17.1c0-1.7-0.2-2.7-2.3-2.8c-0.4,0-0.7-0.1-0.7-0.5c0-0.5,0.4-0.5,0.8-0.5C317.4,79.3,319.8,79.3,322.1,79.3z"/>
	<path class="st1" d="M299.7,104c0,0.5-0.3,0.6-0.7,0.6c-3,0.3-5.7-0.3-8-2.6c-2-2.1-3.6-4.6-5.1-7c-1.2-1.7-2.6-2.2-4.6-2
		c-0.6,0.1-0.9,0.3-0.9,0.9c0,2.3,0,4.8,0.1,7.1c0,1.6,0.5,1.9,2,2.2c0.3,0,0.5,0.1,0.8,0.2c0.3,0,0.6,0.1,0.5,0.5
		c0,0.4-0.3,0.5-0.6,0.5c-1.1,0-2.1-0.1-3.3-0.1c-1.8,0-3.7,0-5.6,0c-0.4,0-1,0.3-1-0.5c0-0.7,0.5-0.5,0.8-0.5
		c2.5-0.4,2.7-0.6,2.7-3.1c0-5.7,0-11.5,0-17.1c0-2.2-0.2-2.4-2.4-2.7c-0.4-0.1-0.9,0-0.9-0.6c0-0.5,0.5-0.5,0.8-0.5
		c4.4-0.2,8.6-0.6,13,0.1c0.7,0.1,1.4,0.3,2,0.6c4.5,1.8,5.2,7.2,1.6,10.3c-0.7,0.6-1.5,1.1-2.2,1.4c-0.6,0.2-0.7,0.5-0.4,1.1
		c2.2,3.2,4.3,6.5,7.1,9.2C296.7,103,298,103.8,299.7,104L299.7,104z"/>
	<path class="st1" d="M250.8,137.8c0.1-0.4,0.2-0.5,0.2-0.6c0-5.1,0.3-10.1-0.2-15.2c-0.2-2.1-0.4-2.3-2.6-2.7
		c-0.2,0-0.5-0.1-0.7-0.1c-0.4,0-0.8-0.1-0.7-0.6c0.1-0.4,0.4-0.4,0.7-0.4c2.7,0,5.4,0,8.2,0c0.3,0,0.7,0,0.7,0.4
		c0,0.4-0.2,0.5-0.6,0.6c-2.8,0.8-2.9,0.9-3,3.9c-0.2,6.6-0.1,13.1,0,19.7c0,0.4,0.3,1-0.4,1.2c-0.6,0.2-0.7-0.4-1-0.7
		c-6.1-6.5-12.2-13-18.4-19.5c-0.2-0.2-0.2-0.4-0.3-0.5c-0.6,0.2-0.5,0.5-0.5,0.8c0,5.2-0.3,10.5,0.2,15.7c0.2,2.3,0.6,2.6,2.9,2.7
		c0.2,0,0.4,0,0.6,0c0.3,0,0.5,0.2,0.5,0.5c0,0.4-0.3,0.5-0.6,0.5c-2.7-0.1-5.5-0.2-8.3,0c-0.4,0-0.6-0.1-0.7-0.5
		c0-0.4,0.3-0.5,0.6-0.6c2.5-0.1,2.7-0.4,2.8-3.5c0.3-5.3,0.1-10.7,0.1-16.1c0-2.4-0.7-3.2-3.1-3.7c-0.2,0-0.5-0.1-0.7-0.1
		c-0.3,0-0.5-0.2-0.5-0.5c0-0.4,0.3-0.5,0.6-0.5c1.9,0,3.9,0,5.8,0c0.3,0,0.5,0.2,0.6,0.4c1.4,2.2,3.2,4.1,5,6
		C242.4,129.1,246.5,133.3,250.8,137.8z"/>
	<path class="st1" d="M351,143.6c-1.8,0.7-3.7,0.5-5.5-0.1c-1.7-0.6-2.8-1.7-3.9-3c-1.7-2-3.1-4.4-4.7-6.5c-1.1-1.5-2.9-2-4.7-1.6
		c-0.5,0.1-0.6,0.5-0.6,0.9c0,2.3,0,4.8,0.1,7.1c0.1,1.7,0.5,2,2.1,2.3c0.2,0,0.4,0,0.6,0.1c0.4,0,0.6,0.1,0.6,0.6
		c0,0.4-0.3,0.5-0.7,0.5c-3.1-0.2-6.1-0.2-9.2,0c-0.4,0-0.6-0.1-0.6-0.5c0-0.3,0.2-0.5,0.5-0.5h0.1c2.6,0,3-0.9,3-3.6
		c0-5.2,0-10.6,0-15.8c0-0.6-0.1-1.1-0.1-1.7c-0.1-1.3-0.7-1.8-1.9-1.8c-0.2,0-0.3,0-0.5-0.1c-0.4-0.1-0.9,0-0.8-0.6
		c0-0.5,0.5-0.5,0.8-0.5c0.8-0.1,1.7-0.1,2.4-0.2c3.8,0,7.6-0.5,11.3,0.4c4,1,5.9,4.1,4.9,7.6c-0.6,2.1-2.1,3.5-4.1,4.4
		c-1,0.4-1,0.8-0.4,1.6c1.9,2.8,3.8,5.7,6.3,8.3c0.7,0.7,1.5,1.3,2.2,1.9C349.1,143.1,350.1,143.1,351,143.6z"/>
	<path class="st1" d="M256,104.9c-4.2,0-7.5-0.9-10.4-3.2c-7.3-5.9-5.8-17.3,2.8-21.5c4.5-2.1,9.1-2.2,13.7-0.4
		c5,1.9,7.9,6.6,7.8,12s-3.4,10.1-8.6,12C259.3,104.6,257.4,104.9,256,104.9z"/>
	<path class="st1" d="M310.6,143.6c-3.1,0-6.1,0-9.2,0c-0.4,0-1,0.2-1-0.5s0.6-0.5,1-0.6c2.6-0.2,3-0.6,3-3.2c0-5.6,0-11.4,0-17
		c0-2.3-0.3-2.6-2.5-3.1c-0.3-0.1-0.8,0-0.7-0.6c0-0.6,0.4-0.5,0.8-0.5c5.6,0,11.3,0,16.9,0c0.6,0,0.8,0.1,0.8,0.7
		c0.1,1.3,0.3,2.4,0.4,3.7c0,0.3,0.2,0.7-0.4,0.9c-0.4,0.1-0.7-0.2-0.8-0.5c-0.7-2.7-2.6-3.4-5.1-3.4c-1.7,0-3.3,0-4.9,0
		c-0.8,0-1.2,0.2-1.2,1.1c0,2.7,0,5.3,0,8.1c0,0.8,0.3,1.1,1.1,1.1c1.6-0.1,3.2,0,4.8-0.1c1.7-0.1,2-0.3,2.4-2
		c0.1-0.3,0.1-0.5,0.2-0.8c0.1-0.4,0.4-0.5,0.7-0.4c0.3,0.1,0.4,0.3,0.4,0.6c-0.2,2.2-0.2,4.4,0,6.6c0,0.4-0.1,0.6-0.5,0.7
		c-0.4,0-0.6-0.1-0.7-0.5v-0.1c-1-2.6-1-2.6-3.9-2.7c-1.2,0-2.4,0-3.6,0c-0.7,0-1,0.3-1,0.9c0,2.5,0,5.1,0.1,7.7
		c0.1,1.6,0.8,2.1,2.2,2.4c2.2,0.4,4.4,0.2,6.6,0.1c1.7-0.1,2.9-0.9,3.8-2.3c0.3-0.5,0.7-1.1,1-1.6c0.2-0.3,0.4-0.5,0.8-0.3
		s0.4,0.4,0.3,0.8c-0.4,1.5-1,2.9-1.6,4.4c-0.2,0.6-0.8,0.5-1.2,0.5C316.8,143.6,313.7,143.6,310.6,143.6L310.6,143.6z"/>
	<path class="st1" d="M199.7,127.7c0-1.7,0-3.7,0-5.6c0-2.1-0.5-2.6-2.6-2.8c-0.4,0-1,0.2-1-0.5c0-0.7,0.6-0.4,1-0.4
		c2.8,0,5.6,0,8.6,0c0.4,0,1-0.3,1.1,0.4s-0.6,0.5-0.9,0.5c-2.1,0.2-2.5,0.7-2.6,2.8c0,3.9,0,7.7,0,11.6c0,1,0.1,1.8,0.3,2.7
		c1,4.2,3.5,6.1,8,6.1c4.2,0,6.9-2.2,7.8-6.4c0.6-3,0.4-6,0.4-9c0-1.7,0-3.4-0.3-5.1c-0.3-2-0.7-2.3-2.7-2.6c-0.4,0-1,0.1-0.9-0.6
		c0.1-0.6,0.6-0.4,1-0.4c2.5,0,5.1,0,7.6,0c0.4,0,0.9-0.2,0.9,0.4c0.1,0.6-0.5,0.5-0.8,0.5c-2.1,0.2-2.4,0.6-2.7,2.6
		c-0.4,3.4-0.2,6.8-0.2,10.1c0,1.8-0.2,3.7-0.7,5.5c-1.1,3.7-3.8,5.6-7.4,6.4c-2.5,0.5-5.1,0.3-7.6-0.5c-3.6-1.1-5.2-3.8-5.7-7.3
		C199.5,133.4,199.8,130.8,199.7,127.7z"/>
	<path class="st1" d="M442.5,104.4c-1.4,0-2.7,0-4.1,0c-0.4,0-0.9,0.2-0.9-0.4c-0.1-0.6,0.5-0.5,0.8-0.6c2.2-0.3,2.2-0.3,1.6-2.5
		c-0.6-1.7-1.3-3.5-1.8-5.2c-0.2-0.8-0.6-1.1-1.5-1.1c-2.2,0-4.5,0-6.8,0c-0.7,0-1.1,0.3-1.3,0.9c-0.7,2-1.5,4.1-2.1,6.1
		c-0.4,1.4-0.2,1.6,1.1,1.7c0.2,0,0.5,0.1,0.7,0.1c0.4,0,0.8,0,0.7,0.6c0,0.5-0.5,0.4-0.8,0.4c-1,0-2-0.1-3,0c-1.4,0-2.7,0-4.1,0.1
		c-0.4,0-0.8,0.1-0.8-0.5s0.4-0.5,0.7-0.5c1.9,0,2.9-1.1,3.6-2.7c2.6-6.1,5.1-12.3,7.7-18.6c0.1-0.3,0.3-0.5,0.3-0.8
		c-0.1-1.6,1.4-1.8,2.2-2.6c0.6-0.5,0.8,0.2,0.9,0.7c1,2.8,2,5.6,3,8.5c1.6,4.2,3.1,8.5,4.7,12.6c0.7,1.7,1.6,3,3.7,3
		c0.4,0,0.7,0.1,0.7,0.6c-0.1,0.5-0.5,0.4-0.8,0.4C445.4,104.4,444,104.4,442.5,104.4z"/>
	<path class="st1" d="M362.3,104.4c-1.4,0-2.8,0-4.2,0c-0.3,0-0.8,0.1-0.8-0.4c-0.1-0.6,0.4-0.5,0.8-0.6c0.1,0,0.2,0,0.4,0
		c1.8-0.3,1.8-0.4,1.3-2.1c-0.6-1.8-1.4-3.7-1.9-5.6c-0.3-0.8-0.7-1.1-1.6-1.1c-2.1,0-4.4,0-6.5,0c-0.7,0-1.2,0.1-1.4,0.8
		c-0.8,2.1-1.5,4.3-2.2,6.5c-0.4,1,0,1.4,1.1,1.6c0.5,0.1,1.6-0.4,1.5,0.6c-0.1,0.9-1.1,0.4-1.7,0.4c-2,0.1-4.1,0-6,0
		c-0.4,0-0.9,0.2-0.9-0.4c-0.1-0.8,0.5-0.6,0.9-0.6c1.7,0,2.6-0.9,3.2-2.3c2.7-6.3,5.2-12.6,7.9-19c0.1-0.2,0.2-0.4,0.2-0.6
		c-0.1-1.6,1.4-2,2.2-2.7c0.7-0.6,0.8,0.3,1,0.7c1.7,4.6,3.3,9.1,5,13.8c0.9,2.4,1.8,4.9,2.7,7.3c0.6,1.7,1.6,2.9,3.6,2.9
		c0.4,0,0.7,0,0.7,0.6s-0.5,0.4-0.8,0.4C365.2,104.4,363.7,104.4,362.3,104.4z"/>
	<path class="st1" d="M286.2,138.6c1.5-3.2,2.8-6.1,4.2-9c1.2-2.6,2.4-5.2,3.5-8c0.7-1.7,0.6-1.8-1.2-2.1c-0.1,0-0.2,0-0.4-0.1
		c-0.4-0.1-0.9,0-0.8-0.6c0.1-0.6,0.6-0.4,1-0.4c1.4,0,2.8,0,4.2,0c1,0,1.9,0,2.9-0.1c0.3,0,0.6,0,0.7,0.5c0,0.4-0.3,0.5-0.6,0.5
		c-1.7-0.1-2.7,0.9-3.4,2.3c-3.8,7-7.1,14.2-10.2,21.6c-0.2,0.5-0.2,1.1-0.9,1.1c-0.7,0-0.7-0.7-0.9-1.1c-2-5.6-4.8-11.1-7.1-16.7
		c-0.7-1.6-1.4-3-2-4.6c-0.6-1.5-1.6-2.4-3.2-2.5c-0.3,0-0.8,0-0.7-0.5c0-0.5,0.4-0.5,0.8-0.5c2.7,0,5.4,0,8.2,0
		c0.4,0,0.8-0.1,0.8,0.4c0.1,0.5-0.3,0.5-0.7,0.6c-2.4,0.4-2.2,0.3-1.4,2.6C281.1,127.4,283.6,132.9,286.2,138.6z"/>
	<path class="st1" d="M424,131.4c2.3-3.7,4.4-7.2,6.3-10.8c0.4-0.7,0-0.9-0.6-1.1c-0.4-0.1-0.9-0.2-1.3-0.2s-0.6-0.1-0.6-0.6
		c0-0.5,0.3-0.5,0.7-0.5c1,0,2,0.1,3,0.1c1.3,0,2.5,0,3.7-0.1c0.3,0,0.8-0.1,0.8,0.4c0.1,0.5-0.3,0.6-0.7,0.6
		c-1.8,0.2-3,1.4-3.9,2.8c-1.9,3-3.8,6.1-5.7,9.1c-0.6,1-0.9,2-0.9,3.2c0,1.7,0,3.6,0,5.3c0.1,2,0.6,2.6,2.6,2.7
		c0.5,0,1.5-0.3,1.5,0.5c0,1-1,0.5-1.5,0.5c-2.9-0.1-5.9-0.1-8.8,0c-0.4,0-1,0.2-1-0.5s0.6-0.5,1-0.6c2.5-0.2,2.7-0.6,2.9-3.1
		c0.3-4-0.4-7.6-2.6-11c-1.5-2.1-2.6-4.6-3.9-6.9c-0.7-1.3-1.7-2.2-3.2-2.3c-0.4,0-1,0-0.9-0.7c0.1-0.7,0.7-0.4,1-0.4
		c2.5,0,5.1,0,7.6,0c0.4,0,1-0.3,1.1,0.4c0.1,0.7-0.5,0.6-0.9,0.7c-1.7,0.4-1.7,0.4-1,1.9C420.2,124.7,422,128,424,131.4z"/>
	<path class="st1" d="M205.9,79.1c2.7,0,5.4,0,8.2,0c0.7,0,0.9,0.2,0.9,0.8c0,1.2,0.1,2.3,0.1,3.5c0,0.4,0.1,0.8-0.5,0.9
		c-0.5,0.1-0.5-0.3-0.7-0.7c-0.7-2.3-1.6-3.1-3.9-3.2c-1.8-0.1-3.7,0-5.6-0.1c-0.6,0-1,0.3-1,0.9c0,2.9,0,5.8,0,8.7
		c0,0.8,0.4,0.9,1.1,0.9c1.8,0,3.7,0,5.4-0.1c1.6,0,1.8-0.3,2.2-1.8c0.1-0.3,0.2-0.7,0.3-1s0.4-0.4,0.7-0.3c0.3,0,0.4,0.2,0.4,0.5
		c-0.1,2.3-0.1,4.6,0,6.9c0,0.3-0.1,0.5-0.4,0.5c-0.2,0-0.5,0.1-0.6-0.2c-0.1-0.1-0.2-0.3-0.2-0.4c-0.3-2.5-1.6-2.6-3.7-2.6
		c-1.4,0-2.7,0-4.1,0c-0.8,0-1.1,0.3-1.1,1.1c0,2.3,0,4.6,0,6.9c0,2.5,0.4,2.8,2.8,3.1c0.2,0,0.3,0,0.5,0c0.4,0,0.7,0,0.7,0.6
		c0,0.5-0.4,0.4-0.7,0.4c-3.2,0-6.4,0-9.7,0c-0.3,0-0.7,0-0.7-0.5c0-0.4,0.3-0.5,0.6-0.6c2.9-0.7,3-0.7,3-3.5c0-5.7,0-11.5-0.1-17.2
		c0-2-0.4-2.2-2.3-2.6c-0.4-0.1-0.9,0-0.8-0.6c0.1-0.6,0.6-0.4,0.9-0.4C200.5,79,203.2,79,205.9,79.1L205.9,79.1z"/>
	<path class="st1" d="M412.1,91.3c0,3.1,0,6.2,0,9.3c0,2,0.4,2.4,2.4,2.7c0.2,0,0.5,0.1,0.7,0.1c0.3,0,0.8-0.1,0.8,0.5
		s-0.5,0.5-0.9,0.5c-1.2,0-2.4-0.1-3.6-0.1c-2,0-4.1,0-6.2,0.1c-0.4,0-0.9,0.2-0.9-0.5c0-0.5,0.4-0.5,0.8-0.5
		c3.3-0.4,3.4-0.6,3.4-3.9c0-5.9,0-11.9,0-17.7c0-1.1-0.3-1.6-1.5-1.5c-1.6,0.1-3,0-4.6,0.1c-1.9,0.2-3.2,1.1-4.1,2.8
		c-0.2,0.4-0.3,1-1,0.7c-0.8-0.3-0.2-0.8-0.1-1.2c0.3-1.4,0.8-2.7,1.1-4.2c0.1-0.3,0.1-0.7,0.5-0.7c0.4-0.1,0.5,0.2,0.6,0.4
		c0.4,0.7,1.2,0.8,1.8,0.8c6.4,0,12.9,0,19.3,0c0.7,0,1.4-0.2,1.8-0.9c0.1-0.2,0.4-0.3,0.6-0.2c0.3,0.1,0.2,0.4,0.2,0.6
		c-0.4,1.6-0.5,3.2-0.5,4.9c0,0.4-0.1,0.6-0.5,0.7c-0.5,0.1-0.7-0.2-0.7-0.6c-0.2-2.4-1.7-3.1-3.8-3.2c-1.7-0.1-3.4-0.1-5.1-0.1
		c-0.9,0-0.9,0.6-0.9,1.2C412,84.8,412,88.1,412.1,91.3C412,91.3,412.1,91.3,412.1,91.3z"/>
	<path class="st1" d="M459.1,91.3c0,3.1,0,6.2,0,9.3c0,2,0.4,2.4,2.4,2.7c0.2,0,0.5,0.1,0.7,0.1c0.3,0,0.8-0.1,0.8,0.5
		s-0.5,0.5-0.9,0.5c-1.2,0-2.4-0.1-3.6-0.1c-2,0-4.1,0-6.2,0.1c-0.4,0-0.9,0.2-0.9-0.5c0-0.5,0.4-0.5,0.8-0.5
		c3.3-0.4,3.4-0.5,3.4-3.9c0-5.9,0-11.9,0-17.9c0-1-0.3-1.4-1.4-1.4c-1.6,0.1-3.1,0-4.7,0.1c-1.9,0.2-3.2,1.1-4.1,2.8
		c-0.2,0.4-0.3,1-1,0.7c-0.8-0.3-0.2-0.8-0.1-1.2c0.4-1.4,0.8-2.7,1.1-4.2c0.1-0.3,0.1-0.7,0.5-0.7c0.3,0,0.5,0.2,0.6,0.4
		c0.4,0.7,1.2,0.8,1.8,0.8c6.4,0,12.9,0,19.3,0c0.7,0,1.4-0.2,1.8-0.9c0.1-0.2,0.4-0.3,0.6-0.2c0.3,0.1,0.2,0.4,0.2,0.6
		c-0.4,1.6-0.5,3.2-0.5,4.9c0,0.4-0.1,0.6-0.5,0.7c-0.5,0.1-0.7-0.2-0.7-0.6c-0.2-2.3-1.7-3-3.7-3.2c-1.7-0.2-3.6-0.1-5.3-0.1
		c-0.9,0-0.8,0.7-0.8,1.2C459.1,84.8,459.1,88.1,459.1,91.3L459.1,91.3z"/>
	<path class="st1" d="M398.6,130.3c0,3.1,0,6.2,0,9.3c0,2.4,0.4,2.7,2.9,3c0.4,0,1.1-0.2,1,0.6c-0.1,0.7-0.6,0.5-1,0.4
		c-3.1-0.1-6.3-0.1-9.4,0c-0.4,0-1,0.3-1-0.4c-0.1-0.7,0.5-0.6,0.9-0.6s0.7,0,1.1-0.1c1.5-0.2,1.9-0.6,2.1-2.1
		c0.3-2.7,0.1-5.3,0.1-8.1c0-3.8,0-7.6,0-11.5c0-1-0.3-1.5-1.4-1.4c-1.5,0.1-2.9,0.1-4.5,0.1c-1.9,0-3.4,0.9-4.3,2.7
		c-0.2,0.4-0.4,1.1-1.1,0.8c-0.8-0.3-0.2-0.9-0.1-1.3c0.3-1.4,0.7-2.7,1.1-4.1c0.1-0.3,0-0.7,0.5-0.7c0.3,0,0.5,0.2,0.6,0.4
		c0.4,0.6,1,0.8,1.6,0.8c6.6,0,13.2,0,19.8,0c0.7,0,1.2-0.2,1.6-0.8c0.2-0.3,0.5-0.3,0.7-0.2c0.3,0.2,0.1,0.4,0,0.6
		c-0.3,1.6-0.5,3.1-0.5,4.8c0,0.4,0,0.7-0.5,0.7s-0.6-0.3-0.7-0.7c-0.6-2.3-1.2-2.9-3.6-3.1c-1.7-0.1-3.3-0.1-4.9-0.1
		c-1,0-1.3,0.3-1.3,1.3C398.6,124,398.6,127.2,398.6,130.3L398.6,130.3z"/>
	<path class="st1" d="M361.3,117.9c1.6-0.1,3.1,0.4,4.7,0.7c0.4,0.1,0.6,0.2,0.6,0.6c0.3,1.2,0.5,2.3,0.6,3.6c0,0.4,0,0.7-0.5,0.8
		c-0.5,0.1-0.6-0.2-0.7-0.6c-1-3.3-4-4.4-7.2-3.6c-2.9,0.7-4,3.7-2.4,6.2c0.7,1.1,1.7,1.7,2.8,2.4c1.7,1,3.4,1.8,5,3
		c2.4,1.8,3.8,4.1,3.3,7.2s-2.6,5.1-6.1,5.8c-2.7,0.5-5.4,0.2-8.1-0.8c-0.7-0.3-1.1-0.7-1.3-1.4c-0.3-1.3-0.6-2.5-0.7-3.8
		c0-0.3-0.1-0.8,0.4-0.9c0.4-0.1,0.6,0.1,0.8,0.5c0.3,0.8,0.7,1.6,1.2,2.2c1.7,2.4,4.8,3.5,7.6,2.7c3.2-1,4.4-4.7,2.2-7.5
		c-0.7-0.9-1.5-1.5-2.4-2c-1.7-1-3.4-1.9-5-3.1c-2.1-1.6-3.6-3.6-3.3-6.5c0.3-2.3,1.6-3.9,3.6-4.9
		C357.9,118.1,359.5,117.8,361.3,117.9z"/>
	<path class="st1" d="M385.9,104.8c-1.9,0.1-3.8-0.3-5.5-1c-0.4-0.2-0.8-0.4-1-0.9c-0.5-1.4-0.7-2.8-0.9-4.2c0-0.4,0-0.7,0.5-0.8
		c0.5-0.1,0.6,0.3,0.7,0.6c0.3,0.8,0.7,1.6,1.2,2.2c1.7,2.4,4.2,3.3,7.1,2.7c3.5-0.6,4.9-4.2,3-7.2c-0.6-1-1.5-1.7-2.3-2.2
		c-1.5-0.9-2.8-1.7-4.3-2.6c-1.1-0.7-2-1.5-2.8-2.4c-2.7-3.5-1.7-7.9,2.4-9.7c2.6-1.2,5.2-1.1,8-0.5c2,0.4,2,0.4,2.3,2.4
		c0.1,0.7,0.2,1.4,0.2,2c0,0.3,0,0.6-0.4,0.6c-0.3,0-0.6,0-0.8-0.4c0-0.1-0.1-0.2-0.1-0.3c-1.4-3.2-4.8-4.7-8-3.2
		c-2.2,1-3,3.8-1.6,5.9c0.8,1.2,1.8,1.8,2.9,2.6c1.7,1.1,3.7,1.9,5.3,3.3c2,1.7,3.2,3.8,2.8,6.5c-0.4,3.6-3.2,5.9-7.3,6.2
		C386.9,104.9,386.4,104.8,385.9,104.8z"/>
	<path class="st1" d="M228.2,104.4c-2.9,0-5.8,0-8.7,0c-0.4,0-1.1,0.4-1.1-0.5c0-0.7,0.6-0.5,1-0.5c2.5-0.4,2.8-0.6,2.8-3.2
		c0-5.7,0-11.5,0-17.1c0-2.4-0.4-2.8-2.8-3c-0.1,0-0.2,0-0.4,0c-0.3,0-0.6-0.1-0.6-0.5s0.3-0.5,0.7-0.5c3.2,0.1,6.4,0.2,9.5,0
		c0.4,0,0.6,0.1,0.6,0.5s-0.2,0.5-0.5,0.5h-0.1c-2.8,0.5-2.9,0.5-2.9,3.4c0,5.3,0,10.7,0,16c0,2.5,0.8,3.3,3.3,3.5
		c1.5,0.1,2.9,0,4.3,0.1c2.3,0.2,3.8-1.1,4.8-3c0.3-0.5,0.3-1.6,1.2-1.2c0.9,0.4,0.1,1.2,0,1.7c-0.3,1.3-0.4,2.9-1.4,3.6
		c-0.9,0.7-2.4,0.1-3.7,0.2C232.1,104.4,230.1,104.3,228.2,104.4C228.2,104.3,228.2,104.4,228.2,104.4z"/>
	<path class="st1" d="M374.8,130.9c0-2.9,0-5.8,0-8.7c0-2.3-0.4-2.6-2.7-2.9c-0.3,0-0.9,0.2-0.9-0.5c0-0.7,0.6-0.5,1-0.5
		c2.9,0,5.9,0,8.8,0c0.4,0,0.9-0.1,0.9,0.5c0,0.6-0.5,0.5-0.9,0.5c-2.4,0.3-2.8,0.7-2.8,3.1c0,5.7,0,11.5,0,17.2
		c0,2.3,0.4,2.7,2.7,3c0.4,0,0.9,0,0.9,0.5c0,0.7-0.5,0.6-1,0.5c-2.9-0.2-5.9-0.1-8.8,0c-0.4,0-0.9,0.2-0.9-0.5
		c-0.1-0.6,0.4-0.6,0.8-0.6c2.5-0.3,2.7-0.6,2.8-3C374.9,136.7,374.8,133.8,374.8,130.9L374.8,130.9z"/>
	<path class="st1" d="M264.4,143.6c-1.5,0-2.9,0-4.3,0c-0.4,0-1,0.2-1-0.5c0-0.6,0.5-0.5,0.9-0.6c0.4-0.1,0.7-0.1,1.1-0.1
		c1.1-0.2,1.6-0.8,1.7-1.7c0-0.8,0.1-1.6,0.1-2.3c0-5,0-9.9,0-14.8c0-0.5,0-1-0.1-1.4c-0.2-2.3-0.4-2.5-2.8-2.8
		c-0.3,0-0.9,0.2-0.8-0.5c0-0.6,0.5-0.5,0.9-0.5c3,0,6,0,8.9,0c0.4,0,0.9-0.1,0.9,0.5c0,0.6-0.5,0.4-0.8,0.5
		c-2.5,0.3-2.9,0.7-2.9,3.2c0,5.6,0,11.3,0,16.9c0,2.5,0.4,2.8,2.8,3.2c0.4,0,0.9,0,0.8,0.6c0,0.6-0.5,0.5-0.9,0.5
		C267.4,143.6,265.9,143.6,264.4,143.6L264.4,143.6z"/>
	<path class="st1" d="M299.7,104.1c0-0.5,0.3-0.7,0.8-0.7s1-0.1,1.4-0.2c0.8-0.2,1.4-0.6,1.5-1.5c0.1-0.7,0.2-1.4,0.2-2
		c0-5.2,0-10.6,0-15.8c0-0.4,0-0.8,0-1.2c-0.2-1.9-0.6-2.3-2.6-2.5c-0.4,0-1.1,0.2-1.1-0.6c0-0.7,0.6-0.5,1-0.4
		c2.9,0.1,5.8,0.1,8.7,0c0.4,0,1-0.2,1,0.5c0,0.6-0.5,0.5-0.9,0.5c-2.2,0.2-2.7,0.5-2.7,2.7c-0.1,5.9-0.1,11.9,0,17.7
		c0,2.2,0.4,2.4,2.5,2.8c0.1,0,0.2,0,0.4,0.1c0.4,0,0.8,0,0.7,0.6c0,0.6-0.5,0.5-0.8,0.5c-2.8,0-5.6,0-8.6,0
		C300.7,104.3,300.1,104.6,299.7,104.1C299.7,104,299.7,104.1,299.7,104.1z"/>
	<path class="st0" d="M87.9,188.3C43.2,188.3,7,152.2,7,107.4C7,63,43.3,27,87.9,27c44.7,0,80.8,36.1,80.8,80.9
		C168.6,152.2,132.4,188.3,87.9,188.3z"/>
	<path class="st0" d="M320.7,90.7c0-2.8,0-5.6,0-8.4c0-1.1,0.4-1.7,1.6-1.8c3.2-0.3,6.3-0.3,9.3,1c3.8,1.6,5.8,4.5,6.4,8.5
		c0.3,1.8,0.2,3.7-0.3,5.5c-1.2,5-4.7,7.7-10.2,8.1c-1,0.1-2,0-3-0.1c-2.5-0.4-3.7-1.6-3.7-4.2C320.7,96.2,320.7,93.4,320.7,90.7z"
		/>
	<path class="st0" d="M280.3,86c0-1.6,0-3.1,0-4.7c0-0.7,0.3-1.1,1-1.1c1.2-0.1,2.3-0.1,3.5,0.1c4.1,0.9,6,5.2,4,8.8
		c-1,1.7-2.5,2.3-4.4,2.4c-1.1,0.1-2.1,0-3.1,0c-0.7,0-1.1-0.3-1-1.1C280.3,89.1,280.3,87.6,280.3,86z"/>
	<path class="st0" d="M331.7,125.4c0-1.6,0-3,0-4.6c0-0.9,0.4-1.3,1.3-1.3c0.8,0,1.7-0.1,2.4,0c4.2,0.5,6.5,4,5.2,8
		c-0.6,2-2.1,3.1-4.2,3.4c-1.3,0.2-2.4,0.1-3.7,0.1c-0.8,0-1.1-0.3-1.1-1.1C331.7,128.4,331.7,126.9,331.7,125.4z"/>
	<path class="st0" d="M245.1,90.7c0-1.2,0.1-2.3,0.4-3.5c1-4,3.5-6.6,7.6-7.3c4.3-0.7,8,0.4,10.3,4.2c2.6,4.2,3.2,8.8,1.6,13.5
		c-2.4,6.8-11.8,8.3-16.5,2.7C246,97.6,245.2,94.3,245.1,90.7z"/>
	<path class="st0" d="M433.7,83.3c0.4,1.2,0.9,2.3,1.3,3.4c0.6,1.7,1.2,3.4,1.7,5.1c0.3,0.8,0.1,1.2-0.8,1.2c-1.7,0-3.6,0-5.3,0
		c-0.7,0-1-0.2-0.7-0.9c1.2-2.9,2.3-5.8,3.5-8.7C433.5,83.3,433.6,83.3,433.7,83.3z"/>
	<path class="st0" d="M353.3,83.3c1.1,2.9,2,5.8,3.1,8.7c0.2,0.6,0,0.9-0.6,0.9c-1.9,0-3.9,0-5.8,0c-0.5,0-0.8-0.2-0.5-0.7
		c1.2-3,2.3-5.9,3.5-8.9C353.1,83.3,353.2,83.3,353.3,83.3z"/>
	<path class="st1" d="M87.9,186c-43.4,0-78.6-35.2-78.5-78.5c0.1-43.3,35.1-78.3,78.5-78.3s78.6,35.2,78.5,78.5
		C166.3,151.1,131.2,186,87.9,186z"/>
	<path class="st0" d="M12.7,107.7c0-41.4,33.6-75.1,75.1-75.1s75.2,33.6,75.2,75s-33.6,75.1-75.1,75.1S12.7,149.1,12.7,107.7z"/>
	<path class="st1" d="M87.9,53.3c30,0.1,54.3,24.4,54.3,54.3s-24.5,54.3-54.4,54.2c-30.1-0.1-54.4-24.5-54.3-54.5
		C33.6,77.6,57.9,53.3,87.9,53.3z"/>
	<path class="st1" d="M29,73.8c4.6,0,7.3,3.8,6.2,8.1c-0.7,2.4-2.1,4.5-3,6.8c-0.1,0.2-0.1,0.4-0.4,0.3c-0.3-0.1-0.4-0.3-0.3-0.6
		c0.4-1.1-0.3-1.5-1.1-1.8c-2.2-1-4.4-2-6.6-3.1c-0.7-0.3-1.4-0.7-1.9,0.2c-0.1,0.1-0.3,0.2-0.4,0.1c-0.3-0.1-0.2-0.3-0.2-0.5
		c1.3-2.8,2.1-5.9,4.5-8.2C26.8,74.3,28,73.9,29,73.8z"/>
	<path class="st1" d="M23,108.3c-1.3-0.1-2.5-0.1-3.7-0.2c-0.7,0-1.4,0-1.5,0.9c0,0.2-0.1,0.4-0.3,0.4c-0.3,0-0.4-0.2-0.4-0.5
		c0-2.3-0.1-4.6,0.5-6.8c0.4-1.3,1.3-2.1,2.6-2.3c1.4-0.2,2.4,0.4,3,1.7c0.2,0.3,0.3,0.6,0.8,0.4c1.5-0.7,2.9-1.2,4.2-2.2
		c0.3-0.2,0.5-0.5,0.7-0.8c0.2-0.2,0.1-0.9,0.6-0.7c0.4,0.1,0.2,0.6,0.2,0.9c0.1,2-0.7,3.4-2.5,4.3c-0.8,0.3-1.6,0.7-2.3,1
		c-0.5,0.2-0.8,0.6-0.8,1.2c0.1,0.7,0.6,0.4,1,0.5c0.7,0.1,1.4,0.1,2.1,0.1c0.8,0.1,1.5-0.1,1.6-1c0-0.2,0.1-0.5,0.5-0.4
		c0.3,0.1,0.3,0.3,0.3,0.6c-0.1,1.5-0.2,2.8-0.2,4.3c0,0.3,0,0.6-0.3,0.6c-0.4,0-0.4-0.4-0.4-0.6c-0.1-0.8-0.6-1-1.2-1
		C25.8,108.5,24.4,108.4,23,108.3L23,108.3z"/>
	<path class="st1" d="M147,105.9c-1.1-1.8-0.8-3.9,0.7-5.1c0.8-0.8,1.7-1.4,2.6-1.8c0.6-0.3,0.8-0.8,0.6-1.4
		c-0.2-0.8-0.8-0.3-1.2-0.3c-0.7,0-1.3,0.2-1.9,0.3c-0.8,0.1-1.4,0.3-1.3,1.3c0,0.3-0.1,0.5-0.4,0.5c-0.3,0-0.3-0.3-0.3-0.5
		c-0.2-1.5-0.5-2.9-0.7-4.4c0-0.2-0.1-0.5,0.2-0.6s0.4,0.1,0.5,0.4c0.2,0.8,0.7,1,1.4,0.9c2.6-0.4,5.3-0.7,8-1.1
		c0.7-0.1,1.3-0.3,1.2-1.2c0-0.3,0.1-0.5,0.4-0.5c0.2,0,0.3,0.2,0.3,0.4c0.4,2.1,1,4.4,0.9,6.5c-0.1,1.4-0.7,2.5-2,3
		c-1.4,0.5-2.6,0.1-3.5-1.1c-0.2-0.3-0.4-0.4-0.8-0.2c-1.3,0.9-2.6,1.7-3.7,2.9C147.4,104.5,147.4,105.3,147,105.9z"/>
	<path class="st1" d="M30.5,118.5c0,3.6-2.6,6.1-6.4,6.1c-3.6,0-6.3-2.9-6.3-6.8c0-3.6,2.6-6.1,6.5-6.1
		C27.8,111.6,30.5,114.5,30.5,118.5z"/>
	<path class="st1" d="M130.6,61.6c1.5-1.7,2.7-3.1,3.8-4.8c0.4-0.6,0.4-1.1-0.1-1.6c-0.2-0.2-0.6-0.5-0.3-0.8
		c0.4-0.4,0.6,0.1,0.9,0.3c0.8,0.7,1.7,1.3,2.4,1.9c0.2,0.2,0.6,0.3,0.3,0.6c-0.2,0.3-0.4,0.2-0.6,0c-0.9-0.6-1.5,0-1.8,0.6
		c-1.8,2.2-3.7,4.4-5.5,6.6c-0.3,0.4-0.5,1-1.3,0.7c-0.7-0.3-0.4-0.9-0.4-1.3c0-3.7,0-7.3,0-11c-0.1-0.1-0.2,0-0.3,0.1
		c-1.4,1.7-2.7,3.4-4.1,5.1c-0.5,0.7-0.8,1.4,0,2c0.2,0.2,0.4,0.3,0.2,0.6c-0.3,0.3-0.5,0.1-0.7-0.1c-1-0.8-1.8-1.6-2.8-2.2
		c-0.1-0.1-0.4-0.2-0.2-0.5c0.1-0.2,0.3-0.3,0.5-0.2c1.1,0.7,1.7-0.1,2.3-0.8c1.6-1.7,3-3.6,4.5-5.3c0.6-0.7,0.9-1.4,0.1-2.1
		c-0.2-0.2-0.3-0.4-0.1-0.6c0.3-0.3,0.5,0,0.7,0.2c0.8,0.7,1.6,1.4,2.3,1.9c0.5,0.4,0.3,0.7,0.3,1.2
		C130.2,55.2,130.4,58.3,130.6,61.6z"/>
	<path class="st1" d="M84.2,171.6c1.3,0.9,2.2,1.8,2.2,3.4c0,1.6-0.8,2.7-2.2,3.1c-1.5,0.5-3,0.4-4.5-0.3c-1.1-0.5-1.9-1.2-2-2.4
		s0.5-2.2,1.6-2.9c0.4-0.2,0.7-0.4,1.1-0.7c0-0.1-0.1-0.2-0.1-0.2c-1.2-1-1.8-2.1-1.4-3.7c0.5-1.6,1.7-2.1,3.2-2.3
		c1.6-0.1,3,0.2,4,1.6c0.8,1.2,0.5,2.7-0.7,3.5C85.1,171.1,84.7,171.3,84.2,171.6z"/>
	<path class="st1" d="M144.9,92.2c-0.2,0-0.5-0.2-0.7-0.7c-1-2.6-1.9-5.3-2.9-8c-0.1-0.3-0.4-0.6,0.1-0.8c0.4-0.2,0.5,0.2,0.6,0.5
		c0.4,1,1,1,1.8,0.7c2.4-0.9,4.8-1.7,7.2-2.6c0.8-0.3,1.4-0.6,1.1-1.6c-0.1-0.2,0-0.4,0.2-0.5c0.4-0.1,0.4,0.2,0.5,0.4
		c0.9,2.5,1.8,5.1,2.7,7.7c0.1,0.3,0.1,0.5-0.3,0.6c-0.6,0.3-1.2,0.6-1.7,0.8c-0.2,0.1-0.5,0.2-0.6-0.1c-0.1-0.2,0-0.4,0.2-0.6
		c1.2-1.4,1.2-2.8,0.2-4.3c-0.2-0.4-0.5-0.3-0.8-0.2c-1,0.4-1.8,0.7-2.8,1c-0.5,0.2-0.7,0.5-0.5,1c0.4,0.9,0.4,2.2,1.9,1.8
		c0.2,0,0.4,0.1,0.5,0.3c0.1,0.3-0.1,0.4-0.4,0.5c-1,0.4-1.9,0.7-2.9,1.1c-0.2,0.1-0.4,0.1-0.5-0.1s0-0.4,0.2-0.6
		c0.9-0.8,0.9-2.1,0.2-3c-0.2-0.3-0.5-0.2-0.7-0.1c-0.6,0.2-1.1,0.4-1.7,0.6c-0.8,0.4-2,0.4-1.9,1.7c0.1,1.7,1.2,3.1,2.5,3.4
		c0.2,0,0.5,0,0.7,0.1s0.5,0.2,0.4,0.5c0,0.1-0.3,0.3-0.4,0.3C146.5,92.1,145.9,92.1,144.9,92.2z"/>
	<path class="st1" d="M100.4,39.3c0,0.2,0,0.3,0,0.4c-0.1,0.4,0.2,1.2-0.3,1.3c-0.8,0.2-0.5-0.7-0.7-1.1c-0.4-0.9-3-1.8-3.8-1.4
		c-0.4,0.2-0.8,4-0.5,4.3c0.6,0.6,2.6,0.2,2.9-0.5c0.1-0.3,0.2-0.7,0.6-0.6c0.5,0.1,0.2,0.5,0.2,0.8c-0.1,0.9-0.2,1.7-0.3,2.6
		c0,0.3,0.1,0.6-0.4,0.6c-0.3,0-0.3-0.2-0.4-0.5c-0.2-1-1.7-1.7-2.7-1.5c-0.4,0.1-0.3,0.4-0.3,0.7c-0.1,0.8-0.2,1.6-0.3,2.3
		c-0.1,1.6,0.1,1.8,1.7,2.1c1.5,0.2,2.7,0.1,3.5-1.4c0.1-0.2,0.3-0.5,0.6-0.4c0.4,0.2,0.2,0.5,0.1,0.8c-0.1,0.4-0.3,0.8-0.4,1.2
		c-0.2,0.9-0.8,1.1-1.7,0.9c-2.5-0.4-5.1-0.6-7.7-1c-0.4,0-1,0.1-1-0.4c0-0.5,0.5-0.3,0.9-0.4c0.8,0,1.1-0.4,1.2-1.2
		c0.3-2.6,0.6-5.2,1-7.9c0.1-0.7,0.1-1.5-0.9-1.7c-0.3-0.1-0.4-0.2-0.4-0.5c0.1-0.3,0.4-0.2,0.6-0.2c2.6,0.3,5.2,0.6,7.9,1
		C101,38,100.2,38.9,100.4,39.3z"/>
	<path class="st1" d="M110.1,51.5c0-1.3,0.4-2.2,0.8-3.1c0.7-1.6,1.5-3.1,2.2-4.6c0.3-0.7,0.5-1.3-0.3-1.7c-0.2-0.1-0.4-0.3-0.2-0.6
		c0.2-0.3,0.4-0.1,0.6,0c1.4,0.7,2.6,1.3,4,1.9c0.2,0.1,0.5,0.1,0.4,0.5c-0.1,0.3-0.3,0.3-0.6,0.2c-0.7-0.2-1.1,0.1-1.4,0.7
		c-1,1.9-2,3.9-2.7,5.9c-0.7,1.8-0.3,3.1,1.2,3.9c1.5,0.8,2.8,0.4,3.9-1.2c1.3-1.9,2.1-4,3-6.1c0.3-0.7-0.1-1.1-0.6-1.5
		c-0.2-0.2-0.6-0.3-0.3-0.6c0.2-0.3,0.5-0.1,0.7,0c1,0.5,2,1,3,1.5c0.2,0.1,0.5,0.2,0.4,0.5s-0.3,0.3-0.6,0.3
		c-1-0.3-1.5,0.4-1.8,1.1c-0.8,1.6-1.6,3.1-2.3,4.7c-1.9,3.6-6.7,3.7-8.9,0.2C110.3,52.6,110,52,110.1,51.5z"/>
	<path class="st1" d="M32,64.4c0.2,0.1,0.4,0.1,0.6,0.2c3.1,1,6.2,2,9.3,3c0.8,0.3,1.5,0.5,2.1-0.3c0.2-0.2,0.4-0.3,0.6-0.1
		c0.3,0.3,0,0.4-0.1,0.6c-0.9,1.2-1.7,2.3-2.7,3.5c-0.1,0.2-0.3,0.4-0.6,0.3c-0.4-0.2-0.2-0.5-0.1-0.7c0.4-0.6,0.1-0.9-0.5-1
		c-0.2-0.1-0.4-0.2-0.7-0.2c-2.2-0.8-1.6-1-2.9,0.9c-0.3,0.4-0.9,0.8-0.7,1.3c0.5,0.9,1.1,1.7,1.7,2.3c0.3,0.3,0.5-0.1,0.8-0.3
		c0.2-0.1,0.4-0.3,0.6-0.1c0.3,0.2,0.1,0.4-0.1,0.6c-0.7,0.9-1.4,1.7-1.9,2.6c-0.1,0.2-0.2,0.4-0.5,0.2c-0.3-0.1-0.3-0.3-0.1-0.6
		c0.6-0.8,0.2-1.4-0.2-2c-1.7-2.5-3.2-5.1-4.9-7.7c-0.6-0.8-0.2-1.6-0.3-2.3C31.5,64.5,31.7,64.4,32,64.4z"/>
	<path class="st1" d="M68.9,49.7c0,0.7-0.4,1.7,1.1,1.6c0.2,0,0.4,0.1,0.4,0.3c0,0.2-0.2,0.3-0.4,0.4c-1.1,0.3-2.1,0.6-3.2,0.9
		c-0.2,0.1-0.4,0.1-0.5-0.2c-0.1-0.2,0-0.4,0.2-0.5c1.2-0.4,1.1-1.5,1.2-2.3c0.3-2.9,0.5-5.8,0.8-8.8c0.1-0.9,0.9-1.3,1.3-1.8
		c0.2-0.2,0.5,0.4,0.7,0.6c1.8,2.7,3.7,5.3,5.5,8.1c0.5,0.7,0.9,1.4,1.9,1.2c0.2,0,0.4,0,0.5,0.2c0.1,0.3-0.2,0.4-0.4,0.5
		c-1.5,0.4-2.9,0.8-4.4,1.2c-0.2,0.1-0.4,0.1-0.5-0.1c-0.1-0.3,0-0.5,0.3-0.6c0.8-0.3,0.6-0.8,0.2-1.3c-0.1-0.2-0.3-0.4-0.4-0.6
		c-0.5-1.3-1.4-1.4-2.6-1.1C69.1,47.7,68.8,48.4,68.9,49.7z"/>
	<path class="st1" d="M158.6,112.1c0,0.2,0,0.6-0.1,1c-0.3,1.7-0.9,2.1-2.7,1.8c-0.2,0-0.5,0-0.5-0.3s0.1-0.4,0.4-0.5
		c0.6-0.2,1.1-0.5,1.5-0.9c0.8-0.8,0.8-2,0.1-2.7c-0.7-0.7-1.7-0.6-2.6,0.2c-0.6,0.6-1,1.4-1.4,2c-0.5,0.8-1.1,1.6-1.9,1.9
		c-1.8,1-4.1,0.2-4.9-1.7c-0.8-1.7-0.6-3.6,0.2-5.3c0.3-0.7,2.5-1.2,3.1-0.9c0.2,0.1,0.2,0.2,0.2,0.4c0,0.3-0.3,0.3-0.5,0.4
		c-1,0.4-1.8,1-2.3,1.9c-0.4,0.9-0.5,1.7,0.3,2.4c0.8,0.8,1.7,0.6,2.5,0.1c0.6-0.4,0.9-0.9,1.3-1.4c0.2-0.4,0.5-0.8,0.7-1.1
		c1.2-1.7,2.6-2.3,4.3-1.8C157.8,108.3,158.7,109.6,158.6,112.1z"/>
	<path class="st1" d="M31,148.5c-0.1,0.3,0.6,0.8-0.1,0.9c-0.5,0.1-0.6-0.5-0.8-0.8c-1.4-2-2.6-4.1-3.9-6c-0.3-0.5-0.4-0.7,0.2-1
		s1.1-0.7,1.6-1.1c0.2-0.1,0.4-0.2,0.5,0c0.2,0.2,0.1,0.4,0,0.6c-1,1.7-0.8,2.6,0.5,4.1c0.3,0.4,0.6,0.3,0.9,0.1
		c0.9-0.6,1.8-1.2,2.7-1.7c0.2-0.1,0.4-0.2,0.4-0.4c0.2-0.8-1.7-2.3-2.4-2.1c-0.3,0.1-0.6,0.4-0.8-0.1c-0.2-0.4,0.2-0.5,0.5-0.7
		c0.7-0.5,1.5-1,2.1-1.4c0.2-0.2,0.5-0.5,0.8-0.1c0.2,0.3,0,0.5-0.2,0.7c-0.5,0.7,0.1,2.7,0.9,3.1c0.3,0.1,0.5-0.1,0.6-0.2
		c0.8-0.5,1.5-1,2.2-1.5c0.8-0.5,1.4-1,0.7-1.9c-0.1-0.2-0.2-0.5,0.2-0.6c0.3-0.1,0.4,0.1,0.5,0.2c0.9,1.4,1.8,2.8,2.7,4.2
		c0.1,0.2,0.3,0.3,0,0.5c-0.2,0.2-0.5,0.1-0.6-0.1c-0.7-1-1.4-0.6-2-0.1c-2.1,1.4-4.3,2.8-6.4,4.2C31.4,147.5,30.9,147.8,31,148.5z"
		/>
	<path class="st1" d="M48.7,53.8c1-0.1,1.9-0.3,2.8-0.3c1.7,0,2.8,0.7,3.5,2.1c0.7,1.5,0.2,2.8-0.8,4c-0.6,0.7-1.3,1.3-2,1.7
		c-1.8,1-2.9,0.7-4-1.1c-0.1-0.2-0.3-0.4-0.1-0.6c0.2-0.2,0.4-0.2,0.7,0c0.7,0.4,1.4,0.7,2.1,0.8c1.3,0.2,2.5-0.7,2.6-1.7
		c0.2-1.1-0.7-2-2-2.3c-0.6-0.1-1.2-0.1-1.7,0c-0.8,0.2-1.5,0.2-2.2,0.1c-2.6-0.3-3.9-3-2.5-5.1c0.9-1.3,2.1-2,3.5-2.5
		c0.5-0.2,2.1,1.3,2.1,1.8c0,0.4-0.3,0.4-0.6,0.3c-0.3-0.1-0.6-0.3-0.9-0.4c-1-0.4-1.9-0.5-2.7,0.4c-0.5,0.5-0.7,1.1-0.4,1.8
		C47,53.8,47.8,53.9,48.7,53.8z"/>
	<path class="st1" d="M141.5,76.5c2.7-0.5,5.1-0.9,7.4-1.3c0.6-0.1,0.8-0.4,0.5-1c-0.1-0.3,0-0.5,0.2-0.6s0.3,0.1,0.4,0.3
		c0.6,1,1.1,1.8,1.7,2.8c0.1,0.2,0.2,0.4,0,0.5c-0.1,0.1-0.3,0.1-0.4,0c-1.1-1.4-2.5-0.7-3.8-0.6c-2.8,0.3-5.5,0.9-8.3,1.3
		c-0.5,0.1-1.1,0.4-1.5-0.3c-0.4-0.7,0.3-0.9,0.5-1.3c1.9-2.6,4-5.2,6-7.9c0.5-0.6,0.8-1.2,0.5-1.9c-0.1-0.2-0.2-0.5,0.1-0.6
		c0.4-0.2,0.5,0.2,0.6,0.4c0.8,1.3,1.5,2.4,2.2,3.7c0.1,0.2,0.3,0.4,0,0.6c-0.2,0.1-0.4,0.1-0.5-0.1c-0.6-0.7-0.9-0.3-1.3,0.2
		C144.5,72.5,143.2,74.4,141.5,76.5z"/>
	<path class="st1" d="M141.9,143.2c0.9,1.6,1.7,2.8,2.3,4.1c0.3,0.5,0.6,1,1.2,0.2c0.1-0.2,0.4-0.3,0.6-0.1c0.2,0.2,0.1,0.4,0,0.5
		c-0.6,0.9-1.2,1.7-1.7,2.6c-0.1,0.2-0.2,0.4-0.5,0.3c-0.3-0.1-0.3-0.3-0.2-0.6c0.4-0.8,0-1.6-0.3-2.2c-0.7-1.3-1.4-2.6-2-3.9
		c-0.8-1.6-2.3-2.1-3.7-2.9c-0.5-0.3-0.9,0-1.2,0.4c-0.2,0.2-0.3,0.7-0.7,0.3c-0.3-0.3,0-0.5,0.1-0.7c0.9-1.3,1.7-2.6,2.5-3.9
		c0.1-0.2,0.2-0.6,0.6-0.4c0.3,0.2,0.2,0.5,0.1,0.7c-0.5,0.8,0,1.2,0.6,1.7c1.4,1.1,2.8,1.7,4.6,1.7c1.2,0,2.4,0.3,3.6,0.4
		c0.7,0.1,1.4,0.2,1.9-0.5c0.2-0.2,0.4-0.3,0.6-0.1c0.3,0.2,0,0.4-0.1,0.6c-0.8,1.3-1.6,2.5-2.4,3.7c-0.1,0.2-0.3,0.4-0.6,0.3
		c-0.3-0.1-0.2-0.4-0.1-0.6c0.3-0.6,0-0.8-0.6-0.9C145.1,143.6,143.6,143.5,141.9,143.2z"/>
	<path class="st1" d="M89.7,179.8c-0.4,0.1-0.6,0-0.7-0.4c-0.1-0.5,0.3-0.5,0.6-0.6c0.7-0.2,1.5-0.3,2.1-0.5
		c0.7-0.2,1.3-0.6,1.7-1.1c1.7-1.7,1.2-4.1-1.2-4.9c-0.9-0.3-1.8-0.3-2.7-0.3c-0.7,0-1-0.2-0.8-0.9c0.3-1.2,0.5-2.3,0.6-3.5
		c0.1-1,0.6-1.4,1.6-1.6c1.4-0.2,2.7-0.5,4.1-0.8c0.7-0.1,0.8,0.1,0.6,0.7c-0.3,1-0.6,1.7-1.8,1.7c-1,0.1-1.9,0.4-2.8,0.5
		c-0.7,0.1-1,0.5-1,1.1c0,0.8,0.6,0.6,1,0.6c0.9,0.1,1.7,0.2,2.5,0.3c1.6,0.3,2.8,1.1,3.2,2.6c0.4,1.7,0,3.1-1.3,4.4
		C94.2,178.5,91.5,179.7,89.7,179.8z"/>
	<path class="st1" d="M64.2,53.3c0.3,0.1,1-0.7,1.2,0c0.1,0.6-0.8,0.6-1.3,0.8c-1.2,0.6-2.3,1.2-3.6,1.7c-0.2,0.1-0.5,0.4-0.7,0.1
		s0-0.5,0.3-0.7c1.1-0.5,0.9-1.2,0.5-2c-1.2-2.4-2.3-4.8-3.4-7.3c-0.3-0.7-0.7-0.8-1.4-0.5c-1.1,0.5-1.8,1.2-1.7,2.5
		c0,0.3,0.1,0.7-0.3,0.8c-0.6,0.1-0.5-0.4-0.6-0.7c-0.2-0.7-0.6-1.5-0.5-2.1c0.1-0.8,1.2-0.4,1.7-0.7c2-1.2,4.3-2,6.4-3.1
		c0.2-0.1,0.5-0.2,0.6-0.3c1.2-1.5,1.3-0.2,1.5,0.6c0,0.1,0.1,0.1,0.1,0.2c0.1,0.6,0.9,1.1,0.3,1.6c-0.5,0.6-0.7-0.4-1.2-0.7
		c-0.7-0.4-2.4-0.2-2.9,0.5c-0.2,0.3-0.1,0.5,0.1,0.8c1.3,2.6,2.4,5.1,3.7,7.8C63.3,52.9,63.5,53.3,64.2,53.3z"/>
	<path class="st1" d="M152.3,138.4c-1-0.5-1.8-0.8-2.6-1.2c-0.2-0.1-0.5-0.2-0.4-0.5c0-0.4,0.3-0.3,0.6-0.4c1.7-0.1,1.9-0.3,2.4-1.8
		c0.2-0.5,0.1-0.8-0.4-1c-2.6-1-5.2-2-8-3c-0.8-0.3-1.4-0.2-1.7,0.7c-0.1,0.2-0.2,0.6-0.6,0.4c-0.3-0.2-0.1-0.4-0.1-0.6
		c0.6-1.6,1.3-3.2,1.8-4.8c0.1-0.2,0.2-0.5,0.5-0.4s0.3,0.4,0.2,0.6c-0.5,1.2,0.2,1.6,1.1,1.8c2.5,1,5.1,1.8,7.5,2.9
		c0.7,0.3,1,0.1,1.2-0.6c0.5-1.2,0.5-2.1-0.5-3c-0.2-0.2-0.5-0.5-0.3-0.8c0.3-0.4,0.6,0,0.8,0.2c0.7,0.4,1.6,0.7,1.9,1.3
		c0.4,0.7-0.7,1.2-0.9,1.8c-0.7,2.1-1.6,4.2-2.3,6.3C152.3,136.8,152.1,137.5,152.3,138.4z"/>
	<path class="st1" d="M87.8,36.1c0,1.4,0,2.2,0,3.1c0,0.2,0,0.5-0.3,0.5s-0.4-0.2-0.5-0.4c-0.9-1.6-1.2-1.7-2.7-1.5
		c-0.5,0.1-0.8,0.2-0.7,0.8c0.3,2.9,0.5,5.8,0.8,8.7c0.1,0.8,0.5,1.1,1.3,1c0.3,0,0.6,0,0.6,0.4S85.9,49,85.7,49
		c-1.7,0.2-3.2,0.3-4.9,0.4c-0.3,0-0.7,0.2-0.8-0.3c0-0.3,0.3-0.4,0.6-0.4c1-0.1,1.2-0.7,1.1-1.6c-0.2-2.7-0.5-5.5-0.7-8.3
		c0-0.6-0.3-0.8-0.9-0.8c-1.4,0-2.3,0.4-2.7,1.8c-0.1,0.3-0.2,0.7-0.6,0.5c-0.4-0.1-0.2-0.5-0.2-0.7v-0.1c0.1-0.8-0.1-1.7,0.3-2.2
		c0.4-0.7,1.3,0.2,1.9,0c2.1-0.3,4.4-0.4,6.6-0.6C86.2,37,87,37,87.8,36.1z"/>
	<path class="st1" d="M30.8,125.1c0.7-0.2,1,0.2,1.3,0.9c1,2.4,1.9,4.9,2.9,7.3c0.1,0.3,0.5,0.7,0.1,0.9c-0.5,0.3-0.6-0.3-0.7-0.6
		c-0.3-0.6-0.8-0.7-1.3-0.4c-2.6,1.1-5.3,2.1-8,3.2c-0.6,0.3-0.9,0.7-0.7,1.4c0.1,0.2,0.1,0.5-0.2,0.6c-0.4,0.1-0.4-0.2-0.5-0.5
		c-0.6-1.4-1.2-2.8-1.7-4.2c-0.1-0.2-0.2-0.5,0-0.6c0.2-0.1,0.5,0,0.6,0.2c0.4,0.8,1,0.8,1.7,0.5c2.3-1,4.6-1.8,6.9-2.8
		c1.4-0.6,1.5-1,1-2.3c-0.5-1.4-1.2-2.4-2.8-2.4c-0.3,0-0.7,0-0.7-0.4c0-0.5,0.4-0.4,0.7-0.5C29.9,125.2,30.4,125.1,30.8,125.1z"/>
	<path class="st1" d="M140,59.8c0.1,0.1,0.1,0.3,0.3,0.5c1,1.2,1.9,2.2,2.8,3.4c0.2,0.2,0.5,0.4,0.3,0.7c-0.3,0.4-0.6,0-0.8-0.2
		c-0.5-0.5-1-0.3-1.5,0.1c-2.1,1.8-4.3,3.6-6.4,5.4c-0.5,0.4-0.7,0.9-0.3,1.5c0.2,0.2,0.4,0.6,0,0.8c-0.4,0.2-0.5-0.2-0.6-0.4
		c-1-1.1-1.8-2.1-2.8-3.3c-0.2-0.2-0.6-0.4-0.2-0.8c0.3-0.3,0.5,0,0.7,0.2c0.6,0.5,1.1,0.4,1.6-0.1c2.1-1.7,4.2-3.6,6.3-5.3
		c0.6-0.5,0.7-1,0.3-1.7C139.5,60.3,139.6,60.1,140,59.8z"/>
	<path class="st1" d="M157.5,119.6c-0.3,1.5-0.6,3.1-1,4.7c0,0.2-0.1,0.4-0.3,0.4c-0.3,0-0.4-0.3-0.4-0.5c0.1-1-0.5-1.3-1.3-1.4
		c-2.4-0.5-5-1.1-7.4-1.6c-0.8-0.2-1.6-0.3-1.8,0.8c-0.1,0.3-0.2,0.4-0.5,0.3c-0.2-0.1-0.2-0.3-0.2-0.5c0.3-1.6,0.6-3,1-4.6
		c0-0.2,0.1-0.5,0.4-0.5c0.3,0,0.4,0.3,0.3,0.5c-0.1,1.1,0.6,1.3,1.4,1.4c2.5,0.5,5.1,1,7.5,1.6c0.8,0.2,1.4,0.2,1.7-0.7
		c0.1-0.2,0.2-0.5,0.5-0.4C157.5,119.1,157.7,119.2,157.5,119.6z"/>
	<path class="st1" d="M99.7,166.8c-0.3,0-0.7,0.2-0.8-0.2c-0.2-0.5,0.3-0.6,0.6-0.7c1-0.5,1.8-0.9,2.7-1.6c0.7-0.5,0.8-0.2,1,0.5
		c0.7,2.9,1.4,5.9,2,8.8c0.3,1.1,0.5,2,1.9,1.6c0.2-0.1,0.5,0,0.5,0.3s-0.3,0.4-0.5,0.4c-1.7,0.4-3.5,0.9-5.2,1.3
		c-0.3,0.1-0.6,0.2-0.7-0.2s0.2-0.5,0.5-0.5c1.2-0.2,1.2-1,1-1.8c-0.6-2.2-1.1-4.6-1.7-6.8C101,167.1,100.7,166.5,99.7,166.8z"/>
	<path class="st1" d="M31.3,92c-0.3,1.3-0.7,2.9-1,4.5c0,0.2-0.2,0.4-0.4,0.4s-0.4-0.2-0.3-0.4c0.2-1.3-0.7-1.4-1.6-1.6
		c-2.3-0.6-4.7-1.1-7-1.7c-0.9-0.2-1.7-0.4-1.9,0.7c-0.1,0.2-0.2,0.3-0.5,0.3c-0.4-0.1-0.3-0.4-0.2-0.6c0.4-1.6,0.8-3,1.1-4.5
		c0.1-0.2,0-0.5,0.4-0.5c0.3,0,0.4,0.3,0.4,0.5c-0.2,1.1,0.6,1.3,1.4,1.5c2.4,0.6,4.9,1.2,7.2,1.7c0.8,0.2,1.6,0.3,1.8-0.7
		c0.1-0.3,0.3-0.4,0.6-0.3C31.5,91.4,31.5,91.5,31.3,92z"/>
	<path class="st1" d="M72.7,164.8c0.6-0.1,1.3,0,1.8-0.2c0.9-0.2,1,0.1,0.8,0.9c-0.8,2.9-1.5,5.8-2.1,8.7c-0.3,1.1-0.5,2,1,2.3
		c0.2,0,0.4,0.2,0.3,0.5s-0.3,0.2-0.6,0.2c-1.7-0.4-3.5-0.9-5.3-1.3c-0.2-0.1-0.5-0.1-0.5-0.4c0-0.3,0.3-0.4,0.5-0.3
		c1.5,0.4,1.7-0.5,1.9-1.6c0.5-2.1,1-4.3,1.6-6.4c0.2-0.9,0-1.4-0.9-1.6c-0.3-0.1-0.7-0.1-0.6-0.6c0.1-0.6,0.5-0.3,0.9-0.3
		C71.9,164.7,72.3,164.7,72.7,164.8C72.7,164.7,72.7,164.8,72.7,164.8z"/>
	<path class="st5" d="M92.3,55.1c0.4,0.1,0.8,0.2,1.2,0.2c0.4,0.2,0.8,0.2,1.2,0c2.5,0.5,5,0.9,7.5,1.6c6.8,1.9,13,5.1,18.6,9.5
		C127,71.5,132,77.7,135.5,85c2.3,4.9,3.9,10,4.6,15.4c0,0.3,0.1,0.6,0.2,0.9c-0.2,0.4-0.2,0.8,0,1.2c0.1,0.4,0.2,0.8,0.2,1.2
		c-0.2,0.8-0.2,1.6,0,2.3c0,1.1,0,2.2,0,3.3c-0.2,0.8-0.2,1.6,0,2.3c-0.5,5.4-1.7,10.8-3.7,15.8c-2.1,5.3-5.1,10.1-8.8,14.5
		c-4.9,5.7-10.7,10.2-17.5,13.3c-4.8,2.2-9.7,3.8-15,4.5c-0.2,0-0.5,0.1-0.7,0.2c-0.4-0.2-0.8-0.2-1.2,0c-0.4,0.1-0.8,0.2-1.2,0.2
		c-0.5-0.2-1.1-0.2-1.6,0c-1.9,0.3-3.9,0.3-5.8,0c-0.5-0.2-1.1-0.2-1.6,0c-0.4-0.1-0.8-0.2-1.2-0.2c-0.4-0.2-0.8-0.2-1.2,0
		c-2.2-0.4-4.5-0.8-6.7-1.4c-7.1-1.9-13.6-5.1-19.3-9.7c-6.3-5.1-11.3-11.3-14.8-18.6c-2.3-4.9-4-10-4.6-15.4c0-0.2-0.1-0.5-0.2-0.7
		c0.2-0.4,0.2-0.8,0-1.2c-0.1-0.4-0.2-0.8-0.2-1.2c0.2-0.8,0.2-1.6,0-2.3c0-1.3,0-2.5,0-3.8c0.2-0.8,0.2-1.6,0-2.3
		c0.1-0.4,0.2-0.8,0.2-1.2c0.2-0.4,0.2-0.8,0-1.2c0.5-2.5,0.9-5,1.6-7.5c1.9-6.9,5.1-13.2,9.6-18.8c5.2-6.6,11.8-11.7,19.4-15.2
		c4.6-2,9.3-3.5,14.3-4.1c0.2,0,0.5-0.1,0.7-0.2c0.4,0.2,0.8,0.2,1.2,0c0.3-0.1,0.7-0.2,1-0.2c0.6,0.2,1.2,0.2,1.8,0
		c1.9-0.3,3.9-0.3,5.8,0C91.3,55.3,91.9,55.3,92.3,55.1z"/>
	<path class="st6" d="M35.3,109.5c0.4,0.8,0.4,1.6,0,2.3C35.3,111,35.3,110.2,35.3,109.5z"/>
	<path class="st7" d="M140.4,105.9c-0.4-0.8-0.4-1.6,0-2.3C140.4,104.4,140.4,105.2,140.4,105.9z"/>
	<path class="st6" d="M35.3,103.4c0.4,0.8,0.4,1.6,0,2.3C35.3,105,35.3,104.2,35.3,103.4z"/>
	<path class="st7" d="M140.4,111.6c-0.4-0.8-0.4-1.6,0-2.3C140.4,110,140.4,110.8,140.4,111.6z"/>
	<path class="st6" d="M85,55.1c-0.6,0.4-1.2,0.3-1.8,0C83.7,55.1,84.3,55.1,85,55.1z"/>
	<path class="st8" d="M83.3,160.1c0.5-0.4,1.1-0.3,1.6,0C84.4,160.1,83.9,160.1,83.3,160.1z"/>
	<path class="st8" d="M90.8,160.1c0.5-0.3,1.1-0.3,1.6,0C91.9,160.1,91.3,160.1,90.8,160.1z"/>
	<path class="st8" d="M92.3,55.1c-0.5,0.4-1.1,0.3-1.6,0C91.3,55.1,91.9,55.1,92.3,55.1z"/>
	<path class="st6" d="M82.1,55.4c-0.4,0.3-0.8,0.3-1.2,0C81.4,55.4,81.8,55.4,82.1,55.4z"/>
	<path class="st7" d="M94.7,55.4c-0.4,0.3-0.8,0.3-1.2,0C94,55.4,94.4,55.4,94.7,55.4z"/>
	<path class="st6" d="M35.5,101.1c0.3,0.4,0.3,0.8,0,1.2C35.5,101.9,35.5,101.5,35.5,101.1z"/>
	<path class="st6" d="M35.5,113c0.3,0.4,0.3,0.8,0,1.2C35.5,113.7,35.5,113.3,35.5,113z"/>
	<path class="st6" d="M81,159.9c0.4-0.3,0.8-0.3,1.2,0C81.8,159.9,81.4,159.9,81,159.9z"/>
	<path class="st7" d="M93.6,159.9c0.4-0.3,0.8-0.3,1.2,0C94.4,159.9,94,159.9,93.6,159.9z"/>
	<path class="st6" d="M140.1,102.5c-0.3-0.4-0.3-0.8,0-1.2C140.1,101.7,140.1,102.1,140.1,102.5z"/>
	<path class="st0" d="M34.1,81.4c0,0.6-0.1,1.1-0.3,1.6c-0.6,1.4-1.3,1.7-2.5,1.1c-2.3-1.1-4.7-2.1-6.9-3.2
		c-0.7-0.3-0.8-0.8-0.5-1.4c1.1-2.5,3.4-3.6,6-2.7c1.2,0.4,2.2,1,3.1,1.9C33.7,79.4,34.1,80.3,34.1,81.4z"/>
	<path class="st9" d="M21.7,105.8c-1.1-0.1-1.9-0.1-2.9-0.2c-0.5,0-0.8-0.2-0.8-0.8c0-1.4,1.2-2.3,2.8-2.3c1.7,0.1,2.4,0.9,2.3,2.3
		C23.2,106.2,22.2,105.7,21.7,105.8z"/>
	<path class="st10" d="M156.2,96.4c0.4-0.1,0.7,0.1,0.7,0.7c0.1,0.9-0.1,1.7-0.9,2.1c-1,0.7-2,0.9-3.2,0.5c-0.8-0.3-1.1-1.1-1.1-1.8
		c0-0.5,0.1-0.8,0.6-0.9c0.1,0,0.2,0,0.4,0C153.8,96.7,154.9,96.6,156.2,96.4z"/>
	<path class="st0" d="M22.8,121.8c-0.8,0-1.5-0.1-2.1-0.4c-2-0.9-2.6-3.2-1.1-4.9c1.7-1.8,6-2.7,8.3-1.7c2,1,2.3,3.5,0.6,5.1
		C27.1,121,24.8,121.8,22.8,121.8z"/>
	<path class="st9" d="M80.1,175.2c0.1-1,0.2-2.1,1.2-2.4c0.8-0.2,1.5,0.8,1.9,1.5c0.6,0.9,0.7,1.8,0.1,2.7c-0.5,0.7-1.2,0.8-1.8,0.6
		C80.5,177.1,80.2,176.2,80.1,175.2z"/>
	<path class="st10" d="M84.3,168.6c0,1.1-0.6,2.2-1.2,2.1c-0.8,0-1.9-1.5-1.9-2.3c0-1,0.8-1.8,1.6-1.8
		C83.5,166.7,84.2,167.6,84.3,168.6z"/>
	<path class="st11" d="M33.6,67.8c1.3,0,2.2,0.6,3.2,0.9c0.4,0.1,0.4,0.3,0.2,0.6c0,0.1-0.1,0.1-0.1,0.2c-1.1,1.7-1.1,1.7-2.1,0.1
		C34.4,68.9,34,68.4,33.6,67.8z"/>
	<path class="st12" d="M69.1,46.8c-0.1-1.4,0-2.5,0.2-4c0.7,1.1,1.3,1.9,1.8,2.8c0.3,0.4,0.2,0.7-0.3,0.8
		C70.4,46.4,69.8,46.6,69.1,46.8z"/>
	<path class="st1" d="M48.6,90.5c1.7,2.1,3.2,4.1,4.5,6.2c0.4,0.7,0.7,0.8,1.3,0.2c1.3-1.3,2.2-2.7,2.8-4.4c0.2-0.5,0.4-0.9,0.8-1.4
		c2.6,6.4,1.1,12.1-3.2,17.7c1.7-0.2,3-0.3,4.3-0.6c1.9-0.3,3.9-0.8,5.8-1.2c0.5-0.1,0.8-0.2,0.7-0.7c-0.5-3.4,0-7-1.2-10.3
		c-0.2-0.6-0.3-1.2-1.2-1.2c-0.3,0-0.5-0.3-0.7-0.6c-1.3-1.9-2.6-4-3.9-5.9c-0.5-0.7-0.2-0.9,0.6-0.9c2.1,0,4.3,0,6.4,0
		c0.4,0,0.8,0.1,1.2-0.2c-0.5-0.9-0.9-1.7-1.4-2.7c-1.2-2.4-1.6-5-0.5-7.5c0.5-1.3,0.8-2.5,1.3-3.8c0.8-2,0.9-4.2,0.5-6.3
		c-0.1-0.3,0-0.6,0-1.1c1.8,1.7,3,3.7,4,5.9c2.2-3.6,3-7.1,1.1-11.1c1.4,0.8,2,1.8,2.8,2.8c2.1,2.8,3.1,5.9,2.4,9.5
		c-0.1,0.4,0.1,0.7,0.3,1c1.7,3,2,6.1,0.8,9.3c-0.5,1.2-1.4,2.1-2.1,3.2c-0.1,0.2-0.4,0.3-0.3,0.6c0.1,0.3,0.4,0.2,0.6,0.2
		c2.2,0,4.5,0,6.9,0c-0.5-1.2-1-2.2-1.5-3.2c-1.5-3-1.5-6-0.3-9.2c0.9-2.2,1.7-4.5,1.8-6.9c0.1-1,0-2-0.2-3c-0.1-0.5-0.1-1,0-1.7
		c1.8,2,3.4,4,4.2,6.7c2.6-4.1,3.1-8.1,1.5-12.3c1.3,1.3,2.5,2.5,3.4,4c1.5,2.5,2.5,5.2,2,8.2c-0.2,1.4,0.2,2.4,0.7,3.7
		c1.8,4.6,1.4,8.9-1.9,12.8c-0.2,0.2-0.6,0.4-0.5,0.8c0.2,0.4,0.6,0.2,1,0.2c1.9,0,3.9,0,5.8,0c0.7,0,0.8-0.1,0.5-0.8
		c-1-1.7-1.7-3.6-2-5.5c-0.3-1.3,0.1-2.4,0.4-3.6c0.7-2.3,1.7-4.5,2.1-6.9c0.3-1.3-0.1-2.4-0.2-3.7c0-0.3-0.2-0.5,0-0.9
		c1.7,1.7,3.2,3.5,3.9,5.9c2.3-3.5,3-7.1,1.4-11c3.1,2.6,5.2,5.9,5.1,10c0,1.9,0.4,3.5,1,5.2c1.3,3.7,0.6,7.1-1.9,10.1
		c-0.3,0.3-0.7,0.6-0.5,1c0.2,0.4,0.7,0.2,1.1,0.2c2.1,0,4.3,0,6.4,0c1,0,1,0.3,0.5,1c-1.3,1.9-2.5,3.8-3.8,5.7
		c-0.1,0.2-0.3,0.5-0.4,0.5c-2,0.4-1.8,2.3-2,3.7c-0.4,2.5-0.4,5.1-0.6,7.7c0,0.7,0.1,1,0.9,1.2c3.2,0.6,6.3,1.3,9.9,1.7
		c-4.2-5.5-5.8-11.3-3.1-17.7c1,2,1.8,3.9,3.4,5.5c0.8,0.8,1.1,0.7,1.6-0.2c1.1-1.9,2.4-3.6,3.8-5.3c0.1-0.2,0.3-0.3,0.6-0.5
		c0.5,2.2,0.4,4.5,0.8,6.6c0.7,4.1,1.6,5.1,5.6,6.1c3,0.8,4.1,1.9,4,5c-0.1,1.6-0.2,3.1-0.5,4.6c-0.2,1.3-0.7,2.5-0.8,3.9
		c-0.3,2.8-2.3,4-4.6,4.7c-3.7,1.2-7.5,1-11.4,0.6c-3.4-0.3-6.7-0.8-10.1-1.5c-0.7-0.1-0.6,0.3-0.7,0.8c-0.4,1.9-0.2,4-0.4,5.9
		c-0.3,3.7-0.3,7.4-0.6,11c-0.2,1.8,0,3.7-0.4,5.5c-0.2,1.3-0.1,2.5,0.3,3.7c0.3,0.8-0.1,1.2-0.6,1.6c-0.9,0.7-1.8,1.4-2.7,2.1
		c-0.5,0.4-0.8,0.4-1.2,0c-1-0.8-1.9-1.6-2.9-2.3c-0.4-0.3-0.6-0.6-0.5-1.2c0.8-3.3,0.1-6.5-0.1-9.8c-0.1-1.6-0.1-3.2-0.2-4.8
		c-0.3-3.7-0.4-7.4-0.5-11.2c0-1-0.3-1.1-1.2-0.8c-1.5,0.6-2.9,0.9-4.4,1.2c-0.7,0.1-1,0.5-1,1.2c-0.2,3.7-0.3,7.4-0.5,11.2
		c-0.3,4.4-0.5,8.8-0.8,13.2c-0.1,1.6-0.1,3.1,0.3,4.6c0.1,0.6,0.1,1.1-0.6,1.5c-1.2,0.8-2.1,1.7-3.2,2.4c-0.4,0.3-0.6,0.3-1,0
		c-1.2-1-2.3-1.8-3.5-2.6c-0.4-0.3-0.4-0.6-0.4-1c0.9-4.4,0-8.7-0.2-13.1c-0.1-1.5-0.1-2.9-0.2-4.4c-0.3-3.8-0.4-7.5-0.5-11.3
		c0-1-0.3-1.6-1.5-1.7c-1.4-0.2-2.6-0.6-3.9-1.1c-0.9-0.3-1.2-0.2-1.2,0.9c-0.1,3.7-0.2,7.4-0.5,11c-0.3,4.1-0.6,8.2-0.7,12.2
		c0,0.4-0.1,0.8,0.1,1.1c0.7,1.6,0.1,2.5-1.3,3.3c-0.5,0.3-1,0.6-1.3,1c-0.9,1-1.6,0.8-2.4,0c-0.7-0.6-1.5-1.2-2.2-1.7
		c-0.5-0.4-0.8-0.8-0.6-1.5c0.8-2.6,0.1-5.3,0-8c-0.1-1.7-0.1-3.3-0.3-5c-0.3-3.6-0.4-7.3-0.6-10.9c0-0.9-0.2-1.7-0.2-2.5
		c0-0.6-0.3-0.7-0.8-0.6c-3.4,0.7-6.9,1.2-10.4,1.6c-3.5,0.3-7,0.5-10.4-0.5c-2.7-0.8-4.9-2.1-5.3-5.3c-0.4-2.7-1.2-5.4-1.2-8.3
		c0-2.5,0.6-3.6,3.4-4.6c0.8-0.3,1.6-0.5,2.3-0.7c2.1-0.6,3.2-2,3.7-4.2C48.1,96,48.2,93.4,48.6,90.5z"/>
	<path class="st0" d="M39.9,109c7.2,2.3,14.4,2,21.5,0.6c1.2-0.2,2.3-0.4,3.5-0.7c0.6-0.1,0.7,0,0.7,0.5c0.2,3,0.3,5.9,0.5,8.9
		c0,0.4-0.1,0.6-0.5,0.7c-5.6,0.9-11.2,1.8-16.9,1.7c-1.7-0.1-3.5-0.4-5.1-1.2c-1.2-0.6-2-1.4-2.2-2.8
		C40.7,114.2,40.3,111.7,39.9,109z"/>
	<path class="st0" d="M135.8,109.1c-0.3,3-0.9,5.8-1.7,8.7c-0.2,0.7-0.7,1-1.3,1.4c-1.8,1.2-4,1.6-6.1,1.7
		c-5.6,0.3-11.2-0.8-16.6-1.7c-0.5-0.1-0.7-0.3-0.6-0.8c0.2-2.9,0.4-5.8,0.5-8.7c0-0.7,0.2-0.8,0.9-0.7c5.1,1.1,10.2,2,15.4,1.7
		C129.6,110.5,132.6,109.9,135.8,109.1z"/>
	<path class="st0" d="M76.9,109.1c2.2,0.8,4.6,1.4,6.8,1.8c4.9,0.9,9.5,0.1,14-1.5c1.1-0.4,1.2-0.2,1.2,0.9c0.1,2.6,0.3,5.2,0.4,7.9
		c0.1,0.8-0.1,1.2-0.9,1.5c-7.1,2.5-14.3,2.5-21.4,0c-0.4-0.2-0.9-0.2-0.9-0.9C76.5,115.6,76.7,112.4,76.9,109.1z"/>
	<path class="st0" d="M50,95.2c1.2,1.5,2,2.9,2.8,4.5c0.4,0.6,0.6,0.7,1.1,0.2c1.3-1.3,2.4-2.5,3.7-4.2c0.2,3.7-0.5,6.9-2.4,9.7
		c-3.1,4.5-2,3.9-7.2,3.5c-2.4-0.2-4.9-0.7-7.1-1.4c-1-0.3-1.1-0.8-0.3-1.5c0.3-0.2,0.6-0.4,0.9-0.5c0.9-0.3,1.7-0.6,2.6-0.9
		c3.4-0.9,5-3.2,5.4-6.6C49.6,97.2,49.6,96.1,50,95.2z"/>
	<path class="st0" d="M122.4,100.3c1.1-1.7,2-3.5,3.3-5.1c0.3,1.5,0.5,2.8,0.7,4.1c0.5,2.6,1.9,4.4,4.5,5.1c1.1,0.4,2.2,0.8,3.3,1.1
		c0.4,0.1,0.8,0.3,1.1,0.6c0.6,0.7,0.5,1.1-0.4,1.4c-3.5,1.2-7.2,1.7-10.9,1.7c-0.4,0-0.7-0.1-1-0.4c-3.3-3.1-5.3-8.3-5.1-13
		C119.5,97.4,120.8,99,122.4,100.3z"/>
	<path class="st13" d="M85.1,68.2c1.5,2,1.4,4.1,1.2,6.2c2.5-3.4,4.8-6.9,4.7-11.5c2.1,2.2,2.7,6.9,1.3,9.9c-0.9,1.7-1.9,3.2-3,4.7
		c-1.9,2.9-3.4,5.9-3.3,9.5c0,0.2,0.1,0.5-0.2,0.6c-0.3,0.1-0.4-0.2-0.5-0.4c-1.3-2.1-2.4-4.3-2.8-6.7c-0.2-1.5,0.1-2.8,0.5-4.1
		C83.5,73.6,84.7,71.1,85.1,68.2z"/>
	<path class="st13" d="M70,75.4c2.1-2.8,4.1-5.9,4-10c1.2,1.2,1.6,2.5,1.7,3.9c0.4,2.3,0,4.5-1.5,6.4c-0.9,1.2-1.7,2.3-2.5,3.5
		c-1.7,2.3-2.7,4.8-2.6,7.7c0,0.2,0.1,0.5-0.1,0.6c-0.4,0.2-0.5-0.2-0.6-0.4c-1.3-1.9-2.3-3.9-2.6-6.2c-0.2-1.2,0.2-2.2,0.5-3.3
		c0.7-2.3,1.8-4.6,2.1-7.1c1.1,1,1.4,1.9,1.3,4.5C69.6,75.4,69.6,75.4,70,75.4z"/>
	<path class="st13" d="M101.8,70.2c1.4,1.8,1.3,3.8,1,5.6c2.1-1.9,4-5.8,4.6-10.1c0.4-0.1,0.4,0.3,0.5,0.5c1.7,3,1.9,6.1-0.1,9.1
		c-0.9,1.3-1.7,2.5-2.6,3.8c-1.7,2.3-2.8,4.9-2.7,7.8c0,0.2,0.1,0.5-0.2,0.6c-0.2,0.1-0.4-0.1-0.5-0.3c-1.2-1.9-2.4-3.9-2.6-6.2
		c-0.2-1.7,0.3-3.1,0.9-4.7C100.7,74.5,101.5,72.5,101.8,70.2z"/>
	<path class="st13" d="M98.8,89.4c-0.9,1.5-1.7,2.7-2.6,4c-0.3,0.4-0.6,0.4-1,0.4c-4.9,0-9.8,0-14.7,0c-0.4,0-0.8,0-1-0.4
		c-0.8-1.3-1.7-2.6-2.6-4C84.3,89.4,91.4,89.4,98.8,89.4z"/>
	<path class="st13" d="M105,122.5c0,7.2,0,14.3,0,21.5c0,0.4,0.3,1.1-0.5,1.1c-0.9,0-0.6-0.7-0.6-1.1c-0.1-9-0.3-18.2-0.4-27.2
		c-0.1-5.2-0.1-10.6-0.3-15.8c0-1,0.5-0.9,1.1-0.9c0.6,0.1,1.5-0.4,1.4,0.9c-0.2,7.2-0.3,14.5-0.4,21.7
		C105.2,122.5,105.1,122.5,105,122.5z"/>
	<path class="st13" d="M70.4,122.4c-0.1-7.1-0.2-14.2-0.4-21.3c0-1,0.3-1.2,1.3-1.2s1.2,0.3,1.2,1.3c-0.2,13.9-0.4,27.7-0.6,41.6
		c0,0.6-0.1,1.3-0.1,1.8c0,0.4-0.3,0.4-0.6,0.4c-0.3,0-0.4-0.1-0.4-0.4c0-0.2,0-0.4,0-0.6c0-7.2,0-14.4,0-21.6
		C70.6,122.4,70.5,122.4,70.4,122.4z"/>
	<path class="st13" d="M102.4,122.5c0.2,6.9,0.4,13.7,0.6,20.6c0,0.4,0.1,0.7,0,1.1c0,0.3,0.2,0.8-0.4,0.8c-0.5,0-0.3-0.5-0.4-0.7
		c-0.2-2.2-0.3-4.5-0.4-6.7c-0.4-6.9-0.8-13.7-1.2-20.6c-0.3-5.4-0.6-10.9-0.9-16.2c0-0.6,0.2-0.8,0.7-0.7c0.6,0,1.3-0.2,1.3,0.8
		c0,3.2,0.2,6.4,0.2,9.6c0,4.1,0,8.1,0,12.1C102.3,122.5,102.3,122.5,102.4,122.5z"/>
	<path class="st13" d="M69.3,122.5c0.2,7.2,0.4,14.4,0.6,21.6c0,0.3,0.3,0.8-0.2,0.9c-0.6,0.1-0.5-0.5-0.5-0.9
		c-0.2-3.3-0.4-6.6-0.6-9.9c-0.4-6.7-0.8-13.4-1.1-20.1c-0.3-4.5-0.5-8.9-0.8-13.4c0-0.7,0.2-0.9,0.8-0.8c0.6,0.1,1.2-0.2,1.2,0.8
		c0.1,3.5,0.3,6.9,0.3,10.4c0.1,3.8,0,7.6,0,11.4C69.1,122.5,69.2,122.5,69.3,122.5z"/>
	<path class="st13" d="M106.3,122.6c0.2-7.2,0.5-14.5,0.6-21.7c0-1.2,0.7-1,1.4-1c1,0,0.6,0.6,0.6,1.1c-0.3,5.2-0.6,10.6-0.9,15.8
		c-0.4,6.4-0.7,12.8-1.1,19.1c-0.1,2.1-0.2,4.3-0.3,6.4c0,0.6-0.1,1.3-0.1,1.8c0,0.3,0.1,0.7-0.4,0.7s-0.3-0.4-0.3-0.7
		c0.1-2.7,0.1-5.4,0.2-8.2C106.1,131.5,106.2,127,106.3,122.6C106.4,122.6,106.3,122.6,106.3,122.6z"/>
	<path class="st13" d="M73.2,122.6c0.2-7.2,0.4-14.4,0.5-21.6c0-0.7,0.1-1.2,1-1.1c0.9,0,1,0.3,1,1.1c-0.6,9.9-1.1,19.9-1.7,29.8
		c-0.2,4.4-0.5,8.7-0.7,13.1c0,0.4,0.3,1-0.4,1c-0.6,0-0.3-0.7-0.3-1C72.8,136.7,73,129.7,73.2,122.6z"/>
	<path class="st13" d="M114.6,89.2c-0.9,1.4-1.7,2.5-2.4,3.7c-0.2,0.3-0.4,0.5-0.8,0.5c-4.3,0-8.6,0-13.1,0c0.9-1.4,1.7-2.6,2.5-3.9
		c0.2-0.3,0.4-0.3,0.7-0.3C105.8,89.2,110.1,89.2,114.6,89.2z"/>
	<path class="st13" d="M61.1,89.1c4.5,0,8.6,0,12.9,0c0.4,0,0.7,0,0.9,0.3c0.8,1.3,1.6,2.4,2.5,3.9c-0.8,0-1.3,0-1.7,0
		c-3.6,0-7.3,0-10.9,0c-0.7,0-1.1-0.2-1.4-0.8C62.6,91.6,61.9,90.5,61.1,89.1z"/>
	<path class="st5" d="M98.7,105.6c0,1.7,0,1.7-1.7,2.4c-0.2,0.1-0.5,0.2-0.7,0.2c-2.9,1-2.3,0.8-2.2-1.7c0.1-2.2,0.2-4.6,0.4-6.8
		c0.1-1.3,0.7-2.4,1.1-3.7c0.2-0.7,1.1-0.3,1.6-0.6c0.3-0.2,0.4,0.5,0.5,0.8c0.6,1.7,1,3.6,0.9,5.4
		C98.4,102.8,98.8,104.2,98.7,105.6z"/>
	<path class="st5" d="M77,105c0.5-2.6-0.1-5.8,1.1-8.8c0.1-0.3,0.1-1,0.5-0.8c0.5,0.3,1.4-0.1,1.6,0.7c0.4,1.5,1,2.8,1.1,4.4
		c0.1,2.4,0.3,4.9,0.5,7.3c0.1,1-0.3,1.2-1.1,0.9c-0.6-0.2-1.2-0.4-1.7-0.6C77,107.3,77,107.3,77,105z"/>
	<path class="st14" d="M93.8,95.6c-0.4,1.2-0.7,2.1-1,3.2c-0.1,0.5-0.5,0.5-0.9,0.5c-2.8,0-5.5,0-8.4,0c-0.5,0-0.8-0.1-0.9-0.7
		c-0.2-0.8-0.4-1.6-0.7-2.3c-0.2-0.6,0-0.7,0.5-0.7C86.2,95.6,90,95.6,93.8,95.6z"/>
	<path class="st13" d="M88.5,136.6c0,4.1,0,8.1,0,12.1c0,0.4,0.3,1-0.6,1c-0.8,0-0.6-0.6-0.6-1c-0.1-8.2-0.3-16.3-0.4-24.5
		c0-1,0.4-1,1.1-1c0.8,0,0.9,0.2,0.9,1c0,4.1,0,8.3,0,12.3C88.6,136.6,88.6,136.6,88.5,136.6z"/>
	<path class="st13" d="M76.7,95c0,0.2,0,0.3-0.1,0.4c-0.8,2.9-0.8,2.9-3.9,2.9c-1.7,0-3.4,0-5.1,0c-0.8,0-1.1-0.2-1.3-1
		C65.6,95,65.6,95,68.1,95C71,95,73.8,95,76.7,95z"/>
	<path class="st13" d="M98.9,95.1c3.7,0,7.3,0,11,0c-0.3,1-0.6,1.8-0.8,2.7c-0.1,0.5-0.5,0.5-0.9,0.5c-2.5,0-5.1,0-7.7,0
		c-0.5,0-0.7-0.1-0.9-0.6C99.5,96.8,99.2,95.9,98.9,95.1z"/>
	<path class="st14" d="M86.3,136.4c0,4.1,0,8.2,0,12.2c0,0.3,0.3,0.9-0.3,1c-0.7,0.1-0.4-0.6-0.4-0.9c-0.5-7.9-0.9-15.7-1.4-23.7
		c0-0.3-0.1-0.6,0-0.8c0.1-0.4-0.5-1.1,0.4-1.2c0.8-0.1,1,0.4,1,1.2c0.1,4.1,0.2,8.2,0.4,12.2C86.1,136.4,86.2,136.4,86.3,136.4z"/>
	<path class="st13" d="M89.6,136.4c0.1-4.1,0.3-8.2,0.4-12.2c0-0.4-0.2-0.8,0.3-1c0.8-0.4,1.2-0.1,1.1,0.8c-0.2,3.3-0.4,6.7-0.6,10
		c-0.2,3.7-0.4,7.4-0.6,11.1c-0.1,1.4-0.1,2.6-0.2,4c0,0.3,0.2,0.7-0.3,0.7c-0.6,0-0.4-0.5-0.4-0.8c0-4.2,0-8.3,0-12.4
		C89.4,136.4,89.5,136.4,89.6,136.4z"/>
	<path class="st13" d="M93.5,73.1c0.3,2-0.3,3.7-1.1,5.1c-1.3,2.3-2.8,4.6-4,7c-0.3,0.6-0.6,1.3-0.9,1.9c-0.1,0.2-0.1,0.4-0.4,0.4
		s-0.3-0.3-0.3-0.5c0-1.6,0.3-3.1,0.8-4.6c0.8-2.1,2.1-4,3.5-5.9C91.9,75.5,92.6,74.4,93.5,73.1z"/>
	<path class="st13" d="M88.6,87.8c1.5-4.3,4.8-7.3,5.5-11.5c0.9,1.4,0.9,3.5,0,5.4c-0.8,2-2.3,3.7-3.6,5.5
		C90.1,88,89.4,87.4,88.6,87.8z"/>
	<path class="st13" d="M86.5,105.1c0-1.2,0-2.3,0-3.5c0-0.6,0.1-0.9,0.8-0.8c0.4,0,0.8,0,1.2,0c0.5,0,0.7,0.1,0.7,0.7
		c-0.1,2.4-0.1,4.8-0.1,7.2c0,1.3-0.9,0.7-1.5,0.8c-0.7,0.1-1-0.2-1-0.9C86.6,107.4,86.6,106.2,86.5,105.1
		C86.6,105.1,86.6,105.1,86.5,105.1z"/>
	<path class="st13" d="M76.5,74.7c0.3,1.8-0.3,3.3-1.1,4.8c-1.5,2.6-3.3,5-4.5,7.7c-0.1,0.2-0.2,0.4-0.4,0.4
		c-0.4-0.1-0.3-0.4-0.3-0.7c0-2.2,0.7-4.2,1.9-6C73.5,78.8,75,76.9,76.5,74.7z"/>
	<path class="st13" d="M103.6,87.5c-0.3-1.3-0.1-2.5,0.3-3.7c0.6-1.7,1.6-3.3,2.6-4.8c1-1.4,2-2.8,3.1-4.3c0.4,1.2,0,2.2-0.4,3.2
		c-0.5,1.3-1.3,2.4-1.9,3.5c-1.2,1.7-2.3,3.6-3.2,5.5C104.1,87.3,104.1,87.5,103.6,87.5z"/>
	<path class="st13" d="M77.2,77.7c0.8,1.8,0.5,3.7-0.4,5.3c-0.8,1.6-1.9,2.8-2.9,4.2c-0.4,0.6-1.2,0.5-1.6,0.3
		c-0.5-0.2,0-0.8,0.1-1.1c0.2-0.6,0.5-1.2,0.9-1.7C74.9,82.5,76.3,80.3,77.2,77.7z"/>
	<path class="st13" d="M110.4,77.6c0.7,1.9,0.6,3.9-0.5,5.5c-0.9,1.4-1.8,2.6-2.8,4c-0.5,0.7-1.2,0.3-2,0.4
		C106.4,83.9,109.4,81.3,110.4,77.6z"/>
	<path class="st13" d="M92.6,102.6c-0.1,1.8-0.2,3.6-0.3,5.4c0,1-0.5,1.3-1.4,1.2c-0.5,0-0.6-0.2-0.6-0.7c0.1-2.2,0.2-4.5,0.1-6.7
		c0-1,0.4-1.1,1.3-1.1c1,0,1,0.5,0.9,1.2C92.6,102.2,92.6,102.5,92.6,102.6L92.6,102.6z"/>
	<path class="st13" d="M85.2,105.3c0,1.1,0,2.1,0,3.1c0,0.3,0.2,0.9-0.4,0.9c-0.5,0-1.4,0.2-1.4-0.7c-0.2-2.4-0.3-4.9-0.4-7.3
		c0-0.8,0.7-0.4,1.1-0.5c0.4-0.1,1-0.2,1,0.6C85.2,102.6,85.2,103.9,85.2,105.3C85.2,105.3,85.2,105.3,85.2,105.3z"/>
	<path class="st13" d="M87.9,151.3c0.5,0,1,0,1.5,0c0.4,0,0.8,0,0.9,0.5c0.1,0.4,0.3,0.9-0.2,1.3c-0.1,0.1-0.2,0.1-0.3,0.2
		c-2,1.7-2.2,1.7-4.1-0.2c-0.4-0.4-0.3-0.9-0.2-1.3c0.1-0.5,0.5-0.5,0.9-0.5C86.8,151.3,87.3,151.3,87.9,151.3z"/>
	<path class="st13" d="M71.4,146.6c0.4,0,0.9,0,1.3,0s0.8-0.1,0.9,0.4c0.1,0.4,0.3,0.9-0.2,1.3c-0.1,0.1-0.2,0.1-0.3,0.2
		c-1.7,1.5-1.7,1.4-3.5,0c-0.6-0.4-0.6-0.9-0.5-1.5c0.2-0.8,0.7-0.4,1.1-0.5C70.6,146.5,71,146.6,71.4,146.6z"/>
	<path class="st13" d="M104.6,146.6c0.4,0,0.9,0,1.3,0c0.3,0,0.8-0.2,0.8,0.4c0,0.4,0.4,0.9-0.2,1.3c-0.1,0.1-0.2,0.1-0.3,0.2
		c-1.8,1.5-1.8,1.5-3.7-0.1c-0.5-0.4-0.4-0.9-0.3-1.4c0.1-0.6,0.6-0.4,0.9-0.5C103.6,146.6,104.1,146.6,104.6,146.6z"/>
	<path class="st15" d="M70,75.4c-0.1,0.2-0.2,0.5-0.3,0.4c-0.3-0.3-0.1-0.6,0.1-0.9C69.8,75.1,69.9,75.2,70,75.4z"/>
	<path class="st16" d="M53,116c-1,0.6-0.4,1.3,0,1.9c-0.5,0-0.9,0-1.4,0c0.3-1.5,0.1-2.8-0.2-4.3c0.3-0.2,0.7-0.1,1.2-0.1
		c0.1,0.1,0.1,0.2,0.2,0.3c0.2,0.6,0,1.3,0.5,1.7C53.4,115.8,53.2,115.9,53,116z"/>
	<path class="st17" d="M57,113.5c0,0.2,0.1,0.5,0.1,0.7c0.2,1.1,0.4,1.2,1.3,0.4c0.4-0.3,0.2,0.1,0.3,0.2c0.1,0.3,0.2,0.6-0.3,0.5
		c-0.4,0.1-1.1-0.4-1,0.5c0,0.6-0.1,1.6,1.1,1.4c0.1,0.1,0.1,0.1,0.1,0.2s0,0.1-0.1,0.1c-0.3,0-0.6,0-0.9,0.1
		c-0.3,0-0.8,0.3-0.8-0.4c-0.3-1.3-0.1-2.6-0.8-3.9c0.4,0,0.7,0,1.1,0C57.1,113.2,57.1,113.4,57,113.5z"/>
	<path class="st17" d="M52.5,113.7c0-0.1,0-0.2,0-0.2c0.5-0.1,1-0.1,1.5,0.2c0.5,0.3,0.9,0.9,0.5,1.4c-1,1-0.1,1.6,0.4,2.1
		c0.2,0.2,0.4,0.4,0.7,0.6c-1.6,0.2-1.8-1-2.5-1.8c0.1-0.1,0.2-0.3,0.2-0.4C53.5,114.8,53.4,114.1,52.5,113.7z"/>
	<path class="st18" d="M50.1,113.5c-0.5,1.5-0.4,2.9-0.3,4.4c-0.4,0-0.8,0-1.2,0c0.4-1.5,0.6-2.9,0.2-4.4
		C49.1,113.5,49.6,113.5,50.1,113.5z"/>
	<path class="st19" d="M45.8,116.2c-0.2,0.5-0.4,0.9-0.8,1.4c-0.5-1.6-1-3.1-1.4-4.6c0.4-0.2,0.8,0,1.2,0c-0.2,1.2,0.3,2,0.7,3.1
		c0.1-0.1,0.2-0.1,0.3-0.2C45.9,116.1,45.9,116.2,45.8,116.2z"/>
	<path class="st20" d="M60.7,113c-0.2,1,0.7,1.1,1.3,1.4c1.3,0.6,1.4,1.5,0.4,2.3c-0.1,0.1-0.3,0.1-0.4-0.1c0.7-1,0-1.4-0.8-1.7
		c-1.4-0.6-1.5-1.2-0.8-2.2C60.7,112.8,60.8,112.8,60.7,113z"/>
	<path class="st21" d="M46.2,115c0-0.6,0.7-0.9,0.5-1.7c-0.1-0.4,0.7,0,1.1,0c-0.7,0.6-1,1.4-1.4,1.9
		C46.2,115.3,46.1,115.3,46.2,115z"/>
	<path class="st22" d="M58.3,117.4c0-0.1,0-0.2,0-0.2c0.5-0.2,1-0.4,1.3-1.1C59.8,117.4,59.1,117.5,58.3,117.4z"/>
	<path class="st18" d="M62,116.6c0.1,0,0.2,0,0.4,0.1c-1.4,0.6-1.8,0.5-2.1-0.8C60.8,116.4,61.3,116.9,62,116.6z"/>
	<path class="st23" d="M57,113.5c0-0.1,0-0.2,0-0.3c0.7-0.1,1.5-0.6,1.9,0.3C58.2,113.1,57.6,113.2,57,113.5z"/>
	<path class="st24" d="M60.7,113c-0.1-0.1-0.2-0.2-0.2-0.3c0.6-0.4,1.2-0.7,1.8-0.2c-0.2,0.3-0.4,0.1-0.7,0.2
		C61.3,112.8,61,112.8,60.7,113z"/>
	<path class="st25" d="M56.7,117.1c0.2,0.4,0.5,0.3,0.8,0.4c-0.4,0.2-0.9,0.2-1.5,0.2C56.4,117.4,56.5,117.2,56.7,117.1z"/>
	<path class="st26" d="M46.2,115c0.1,0.1,0.1,0.2,0.2,0.3c-0.2,0.3-0.4,0.7-0.6,1c0-0.1,0-0.3-0.1-0.4C45.8,115.6,46,115.3,46.2,115
		z"/>
	<path class="st27" d="M58.3,115.4c0.3-0.1,0.2-0.4,0.3-0.5c0.1,0.3,0.4,0.7,0,0.9C58.5,115.9,58.3,115.6,58.3,115.4z"/>
	<path class="st28" d="M61.6,112.8c0.2-0.2,0.4-0.2,0.7-0.2c0.1,0.1,0.2,0.3,0,0.4C62,113,61.8,112.8,61.6,112.8z"/>
	<path class="st29" d="M126.3,118.1c-1.7,0.3-1.7-1.5-2.8-2c-0.2,0.8-0.3,1.5,0.2,2c-0.6,0-1.1,0-1.5,0c0.5-1.5,0.4-2.9,0.4-4.4
		c0.5-0.1,1.2-0.1,1.8,0.1c0.9,0.2,1.5,1.1,0.9,1.6c-1.1,1-0.2,1.6,0.2,2.2C125.8,117.7,126,117.8,126.3,118.1z"/>
	<path class="st30" d="M128.1,117.8c-0.7,0.1-1.1,0.3-1-0.8c0.1-1.1-0.1-2.1-0.4-3.1c-0.1-0.7,0.6-0.2,0.7-0.5
		c0.4-0.1,0.9-0.1,1.3-0.2c0.7-0.2,0.9,0.1,0.8,0.9c-0.5-0.7-1.1-0.7-1.7-0.5c-0.5,0.2-0.1,0.7-0.2,1.1c0,0.4,0.3,0.7,0.2,1
		c0.1,0.5,0.2,1.1,0.2,1.6C128.2,117.5,128.2,117.7,128.1,117.8z"/>
	<path class="st19" d="M115,113.9c0.4-0.6,0.7-1.7,1.8-0.9c-0.6,0.3-0.6,0.9-0.7,1.4c-0.1,0.6-0.3,1.3-0.2,1.8c0,1-0.4,1.1-1.2,0.8
		c0.5-0.9,0.6-1.7,0.5-2.7C115.2,114.2,114.9,114.2,115,113.9z"/>
	<path class="st31" d="M131.1,112.9c-0.5,0.7-0.2,1.1,0.5,1.3c0.4,0.2,0.8,0.2,1.2,0.5c0.9,0.5,0.8,1.4,0,2.1
		c-0.1-0.1-0.1-0.3-0.1-0.4c0.1-1.1-0.7-1.2-1.4-1.4c-0.6-0.2-1.1-0.5-1.1-1.2c0-0.6,0.2-1.1,0.9-1.2
		C131.2,112.8,131.2,112.8,131.1,112.9L131.1,112.9z"/>
	<path class="st17" d="M112,113.2c0.2-0.3-0.6-0.9,0.2-1c0.7-0.1,0.7,0.4,0.8,0.9c0.1,0.7,0.3,1.3,0.5,1.9c0.1,0.2,0.1,0.4,0.3,0.8
		c0.2-0.3,0.4-0.6,0.6-0.8c0.1,0,0.2,0,0.2,0.2c-0.4,0.6-0.8,1.2-1.3,2c-0.3-1.3-0.6-2.3-0.8-3.4C112.4,113.5,112.1,113.4,112,113.2
		z"/>
	<path class="st32" d="M120.2,113.4c1.1,0.3,1.6,1,1.6,2c0.1,1.1-0.3,1.8-1.4,2.2c-0.3,0.2-0.5,0.1-0.6-0.2c0.9-1.3,1-2.6,0-3.9
		C119.9,113.4,120,113.3,120.2,113.4z"/>
	<path class="st32" d="M118.5,117.6c-1-0.3-1.5-1-1.5-1.9c0-1.1,0.4-1.8,1.5-2.2c0.3-0.2,0.5-0.1,0.6,0.2c-0.8,1.3-1,2.4-0.2,3.8
		C118.8,117.6,118.8,117.7,118.5,117.6z"/>
	<path class="st2" d="M112,114.4c-0.1,0.5-0.2,0.9-0.2,1.4c0,0.8-0.3,1-1.1,0.7c0.8-0.6,0.6-1.6,1-2.3
		C111.9,114.1,111.9,114.3,112,114.4z"/>
	<path class="st33" d="M127.9,115.8c-0.1-0.3-0.4-0.6-0.2-1c0.6,0.7,0.7,0.7,1.5,0c0.2,0.4,0.2,0.7,0.1,1.3
		C128.8,115.6,128.3,115.8,127.9,115.8z"/>
	<path class="st34" d="M132.7,116.4c0,0.1,0,0.3,0.1,0.4c-1.4,0.7-1.7,0.6-2-0.6C131.4,116.6,132,117.1,132.7,116.4z"/>
	<path class="st28" d="M128.1,117.8c0-0.2,0-0.3,0-0.5c0.8,0.2,1.6,0.1,2-0.6C130,118.3,128.9,117.6,128.1,117.8z"/>
	<path class="st35" d="M118.5,117.6c0.1-0.1,0.2-0.2,0.2-0.2c0.4-0.3,0.8-0.2,1.2,0.1c0.2,0.1,0.3,0.1,0.5,0.2
		C119.7,118,119.2,118,118.5,117.6z"/>
	<path class="st36" d="M131.1,112.9c0-0.1,0-0.2,0-0.3c0.6-0.2,1.2-0.6,1.6,0.6C132,112.8,131.6,112.7,131.1,112.9z"/>
	<path class="st20" d="M112,114.4c-0.1-0.1-0.1-0.2-0.2-0.3c0-0.3,0-0.7,0.2-0.9c0.3,0,0.5,0.2,0.5,0.5
		C111.9,113.6,112.1,114.2,112,114.4z"/>
	<path class="st24" d="M119,113.6c-0.2-0.1-0.3-0.1-0.5-0.2c0.6-0.4,1.2-0.4,1.7,0c-0.1,0.1-0.2,0.1-0.3,0.2
		C119.6,113.9,119.3,113.9,119,113.6z"/>
	<path class="st37" d="M114.5,115c-0.1,0-0.1-0.1-0.2-0.2c0.1-0.4,0.4-0.7,0.7-1c0,0.2,0.6,0.1,0.2,0.5
		C115,114.6,114.8,114.8,114.5,115z"/>
	<path class="st38" d="M127.4,113.5c-0.2,0.3-0.6,0.1-0.7,0.5c-0.3,0-0.6-0.2-0.1-0.4C126.7,113.4,127.1,113.5,127.4,113.5z"/>
	<path class="st20" d="M84,116.5c-1.1,0.4-0.6,1.1-0.5,1.8c-0.3,0.1-0.8-0.1-1.3-0.2c0.6-1.1,0.7-2.3,0.7-3.4c0-1,0.3-1,1-0.8
		c0.2,0,0.5,0,0.6,0.3c0.1,0.1,0.1,0.2,0,0.3c-0.6,0.5-0.7,1.1-0.4,1.7C84.1,116.3,84.1,116.4,84,116.5z"/>
	<path class="st32" d="M92.4,114.1c0.1,0.6-0.2,1.4,0.7,1.7c0.1,0,0.1,0.1,0.1,0.1c0,0.1,0,0.1-0.1,0.1c-0.6,0.8-0.4,1.5,0.5,1.9
		c0.1,0,0.1,0.1,0.1,0.1s0,0.1-0.1,0.1c-0.5,0.1-1.1,0.2-1.6,0.3c0.2-1.6-0.2-2.9-0.8-4.4c0.3-0.2,0.7-0.1,1.2-0.2
		C92.4,113.9,92.4,114,92.4,114.1L92.4,114.1z"/>
	<path class="st39" d="M79.6,113.9c0.2-0.4,0.4-0.9,0.9-0.8c0.4,0.1,0.2,0.7,0.3,1.1c0.1,1.2,0,2.4,0.6,3.6c-0.7,0-1.5,0.1-1.2-1.2
		c0.1-0.4,0.1-0.8-0.5-0.9c-0.1-0.1-0.1-0.1-0.1-0.2s0-0.1,0-0.1c0.2-0.3,0.2-0.6,0.2-0.9C79.9,114.3,79.4,114.2,79.6,113.9z"/>
	<path class="st30" d="M97.6,116.7c0.3-1-0.4-1.3-1.2-1.5c-0.6-0.2-1.2-0.5-1.3-1.2c0-0.6,0.1-1,0.8-1.1c0.1,0.1,0.1,0.1,0.1,0.1
		l-0.1,0.1c-0.4,1.1,0.4,1.3,1.1,1.5c1.4,0.4,1.7,1.4,0.8,2.3C97.5,117,97.5,116.9,97.6,116.7z"/>
	<path class="st19" d="M84,116.5c0-0.1,0-0.2,0-0.3c0.6-0.6,0.7-1.2,0.5-1.9c0-0.1,0-0.1,0-0.2c0.6-0.1,1.1,0.2,1.3,0.8
		c0.2,0.6,0,1-0.5,1.3c-0.8,0.6,0,1,0.1,1.5c0,0.3,0.6,0.6,0.1,0.9c-0.4,0.2-0.7-0.2-0.9-0.6C84.4,117.5,84.2,117,84,116.5z"/>
	<path class="st40" d="M88,118.4c0.3-1.3-0.1-2.4,0-3.7c0-0.5,0.3-0.4,0.6-0.3c0.3,0.1,0.3,0.3,0.3,0.6c0,0.7-0.1,1.4,0.1,2
		c0.2,0.5-0.2,1,0.3,1.4C88.7,118.9,88.4,118.9,88,118.4z"/>
	<path class="st21" d="M88.8,116.9c-0.4-0.6-0.1-1.3-0.2-1.8c0-0.5-0.1-0.9-0.7-0.4c-0.2,0-0.5,0-0.7-0.1c-0.1-0.1-0.1-0.1-0.1-0.1
		l0.1-0.1c1-0.1,1.9-0.4,3,0.1c-1.4-0.2-1.6,0.5-1.4,1.6C88.9,116.3,88.8,116.6,88.8,116.9z"/>
	<path class="st41" d="M79.6,115.5c0,0.1,0,0.2,0,0.3c-1-0.1-1.4,0.3-1.3,1.4c-0.3,0.2-0.4-0.1-0.7-0.1c-0.2,0-0.4-0.1-0.7-0.1
		c1-0.5,1.3-1.4,1.8-2c0.2-0.1,0.3,0,0.4,0.1C79.4,115.1,79.6,115.2,79.6,115.5z"/>
	<path class="st21" d="M92.4,114.1c0-0.1,0-0.2,0-0.3c1.5-0.5,1.5-0.5,1.8,0.4C93.5,113.8,92.9,113.9,92.4,114.1z"/>
	<path class="st37" d="M95.8,113.1c0-0.1,0-0.1,0-0.2c0.2-0.5,0.7-0.3,1-0.4c0.3-0.1,0.4,0.1,0.5,0.3c0,0.1,0.1,0.3,0,0.3
		c-0.2,0.3-0.4,0-0.6-0.1C96.5,112.8,96.2,113.1,95.8,113.1z"/>
	<path class="st23" d="M93.6,118.1c0-0.1,0-0.1,0-0.2c0.5-0.3,1.3-0.1,1.5-1C95.2,118.2,94.2,117.9,93.6,118.1z"/>
	<path class="st32" d="M93.1,116c0-0.1,0-0.2,0-0.2c0.3-0.2,0.7-0.3,0.9-0.7c0.1,0.4,0.2,0.8,0.3,1.5C93.9,116,93.5,116,93.1,116z"
		/>
	<path class="st42" d="M88,118.4c0.4,0.4,0.8,0.3,1.2,0h0.1c0.3,0,0.4,0.3,0.2,0.3c-0.6,0.1-1.3,0.4-1.8-0.1
		C87.5,118.6,87.8,118.4,88,118.4z"/>
	<path class="st43" d="M96.8,117.4c-1,0-1,0-1.3-1c0.5-0.1,0.7,0.5,1.1,0.6C96.8,117,96.9,117.1,96.8,117.4z"/>
	<path class="st24" d="M79.1,115.1c-0.1-0.1-0.2-0.2-0.2-0.2c0.2-0.3,0.5-0.6,0.7-1c0.3,0.2,0.7,0.3,0.4,0.8
		C79.7,114.8,79.5,115.2,79.1,115.1z"/>
	<path class="st40" d="M87.3,114.4c0,0.1,0,0.1,0,0.2c-0.4,0-0.6,0.3-0.9,0.5C86.1,114.1,86.7,114.2,87.3,114.4z"/>
	<path class="st44" d="M96.8,117.4c-0.1-0.1-0.2-0.3-0.2-0.4c0.3-0.1,0.7-0.2,1-0.3c0.1,0.1,0.1,0.1,0.2,0.2
		C97.5,117.3,97.2,117.3,96.8,117.4z"/>
	<path class="st45" d="M52.5,113.7c1.3,0.3,1.6,0.9,0.7,1.8c-0.5,0.1-0.8-0.1-0.8-0.7C52.5,114.6,52.4,114.1,52.5,113.7z"/>
	<path class="st46" d="M123.4,114.9c0.2-0.4-0.2-1.1,0.5-1c0.6,0,0.8,0.5,0.8,1c0,0.5-0.3,0.9-0.8,0.9
		C123,115.8,123.6,115.1,123.4,114.9z"/>
	<path class="st10" d="M119,113.6c0.3,0,0.7,0,1,0c1.3,1.1,1.3,2.6,0,3.9c-0.4,0.2-0.8,0-1.2-0.1C117.6,116.2,117.7,114.7,119,113.6
		z"/>
	<path class="st47" d="M84.5,114.3c0.8,1,0.7,1.5-0.5,1.9c-1-0.4-0.2-1.1-0.2-1.7C83.8,114.1,84.2,114.3,84.5,114.3z"/>
	<path class="st11" d="M79.1,115.1c0.4,0,0.2-1.1,0.9-0.4c-0.1,0.3,0.3,0.8-0.4,0.8C79.5,115.3,79.1,115.4,79.1,115.1z"/>
</g>
</svg>
