<?xml version="1.0" encoding="utf-8"?>
<!-- Generator: Adobe Illustrator 22.1.0, SVG Export Plug-In . SVG Version: 6.00 Build 0)  -->
<svg version="1.1" id="Layer_1" xmlns="http://www.w3.org/2000/svg" xmlns:xlink="http://www.w3.org/1999/xlink" x="0px" y="0px"
	 viewBox="0 0 500 216" style="enable-background:new 0 0 500 216;" xml:space="preserve">
<style type="text/css">
	.st0{fill:#FDFDFD;}
	.st1{fill:#5A5A5A;}
	.st2{fill:#818181;}
	.st3{fill:#595959;}
	.st4{fill:#5B5B5B;}
	.st5{fill:#565656;}
	.st6{fill:#585858;}
	.st7{fill:#5C5C5C;}
	.st8{fill:#5E5E5E;}
	.st9{fill:#575757;}
	.st10{fill:#535353;}
	.st11{fill:#515151;}
	.st12{fill:#5F5F5F;}
	.st13{fill:#525252;}
	.st14{fill:#545454;}
	.st15{fill:#505050;}
	.st16{fill:#4E4E4E;}
	.st17{fill:#4F4F4F;}
	.st18{fill:#555555;}
	.st19{fill:#4A4A4A;}
	.st20{fill:#4B4B4B;}
	.st21{fill:#4D4D4D;}
	.st22{fill:#484848;}
	.st23{fill:#5D5D5D;}
	.st24{fill:#FEFEFE;}
</style>
<path class="st0" d="M2.2,145.6c0-36.6,0-73.3,0-110c0-1,0.2-1.3,1.3-1.3c164.1,0,328.3,0,492.5,0c1.1,0,1.4,0.2,1.4,1.4
	c0,49.3,0,98.5,0,147.7c0,1-0.1,1.2-1.2,1.2c-164.2,0-328.5,0-492.8,0c-1,0-1.2-0.2-1.1-1.1c0-5.3,0-10.7,0-16.1
	c0.7-0.2,1.1,0.5,1.7,0.4c29.6,0,59.1,0,88.7,0c41.2,0,82.4,0,123.7,0c0.7,0,1.5,0,2.2,0c0.7-0.2,1.3-0.4,1.1-1.3
	c-0.1-0.8-0.8-1-1.5-1.1c-0.5,0-1.1,0-1.7,0c-70.2,0-140.4,0-210.5,0c-1.3,0-2.5,0.3-3.7,0.7c0-6.3,0-12.5,0-18.8
	c0.1-0.1,0.3-0.2,0.4-0.3c1.2-0.1,2.4-0.3,3.5,0.2c0.4,0.5,0.3,1.2,0.3,1.8c0,2.9,0,5.9,0,8.8c0,0.4,0,0.7,0,1.1
	c0,0.3,0,0.7,0.5,0.7c0.4,0,0.4-0.4,0.5-0.7c0.1-3.7,0-7.4,0.1-11.1c0.1-0.6,0.6-0.9,1.2-0.9c0.5,0,1,0,1.5,0c0.3,0,0.9,0,0.9-0.4
	c0-0.5-0.5-0.3-0.9-0.4c-0.9,0-1.9,0-2.8,0c-0.1,0-0.3,0-0.5,0c-1.5-0.1-3,0.1-4.5-0.1C2.5,145.8,2.4,145.7,2.2,145.6z"/>
<path class="st1" d="M2.2,166c0.6-0.8,1.5-1.1,2.5-1.1c71.1,0,142.1,0,213.2,0c1.2,0,2.2,0.2,2.3,1.6c0.1,1-0.4,1.8-1.7,1.7
	c-0.2-0.2-0.5-0.2-0.7-0.3c-0.5,0-1,0-1.5,0c-69.2,0-138.5,0-207.7,0c-0.5,0-1.1,0-1.7,0c-1.2,0.3-2.5-0.1-3.7,0.2
	c-0.5,0-0.6-0.7-1.1-0.8C2.2,167,2.2,166.5,2.2,166z"/>
<path class="st2" d="M2.2,145.6c0.1,0,0.2,0,0.3,0c0.1,0.1,0.2,0.3,0.2,0.5c0,0.2,0,0.5,0,0.8c0,0.1-0.1,0.2-0.2,0.3
	c-0.1,0-0.2,0-0.3,0C2.2,146.7,2.2,146.1,2.2,145.6z"/>
<path class="st1" d="M351.2,131.1c-12.2,0-24.4,0-36.5,0c-0.5-0.1-1.1-0.2-1.7,0c-1.6,0.3-3.1,0.3-4.7,0.2c-0.8,0-1.7,0-1.9-1.1
	c-0.2-1.2,0.8-1.5,1.6-1.7c1.3-0.4,2.5-0.8,3.8-1.1c2.5-0.7,3.5-2.5,3.7-4.9c0.1-1.7,0.1-3.4,0.1-5.1c0-21.5,0-43.1,0-64.6
	c0-4.1-1-5.2-5-6.2c-1-0.2-2.3-0.2-2.4-1.7c0-1.6,1.3-1.5,2.3-1.8c4.9-1.4,9.7-3,14-5.7c1.1-0.7,1.7-0.4,1.8,0.9c0,0.3,0,0.6,0,1
	c0,27,0,54,0,81.1c0,0.4,0,0.7,0,1.1c0.1,4.1,1.7,6,5.7,6.6c3.4,0.6,7.1-2.2,7.3-5.6c0.1-1.5,0.1-3.1,0.1-4.6c0-21.8,0-43.6,0-65.4
	c0-3.9-1-5-4.7-5.9c-1.1-0.2-2.6-0.2-2.5-1.8c0-1.5,1.5-1.4,2.5-1.7c5-1.5,9.9-3.2,14.4-5.9c0.4,0.3,0.4,0.7,0.4,1.1
	c-0.6,0.3-0.7,0.8-0.5,1.4c0,12.6,0,25.1,0,37.8c0,13.9,0,27.8,0,41.6c0,1-0.3,2,0,3c0.6,0.9,0.4,1.9,0.5,2.7c0.1-1,0.1-2.2-0.6-3.3
	c0-0.3,0-0.6,0.1-0.9c0.3-0.6,0.2-1.2,0.2-1.7c0-26,0-51.9,0-77.9c0-0.5,0-1-0.1-1.5c-0.1-0.1-0.1-0.3-0.1-0.5
	c0.1-0.4,0.3-0.6,0.8-0.7c0.4,0,0.6,0.2,0.6,0.6c0,0.4,0,0.8,0,1.3c0,26.5,0,53.1,0,79.6c0,0.5-0.1,1.1,0.1,1.7c0,2,0.3,4,2.1,5.3
	c1.3,0.9,2.8,1.2,4.2,1.7c0.6,0.2,1.3,0.3,1.9,0.4c0.8,0.1,1.4,0.5,1.3,1.5c-0.1,1-0.9,1.1-1.6,1.2c-1.9,0-3.8,0-5.6-0.3
	C352.3,131,351.8,131,351.2,131.1z"/>
<path class="st1" d="M420.7,159.9c-5.1-0.4-9.9-1.7-13.6-5.6c-4.3-4.5-6.1-13,0.6-18.7c1.7-1.5,3.7-2.8,5.4-4.2
	c1.3-1.1,1.4-1.5,0.2-2.7c-1.7-1.9-3.6-3.8-5.4-5.7c-3.1-3.3-2.9-4.8,0.7-7.4c2.4-1.8,5.1-3.1,7.6-4.7c1.4-0.9,1.4-1,0-1.9
	c-4.2-2.8-7.7-6.2-9.4-11.1c-2.8-8.3-1.8-16.2,4.2-22.8c4.6-5,10.5-6.6,17.2-5.9c3.1,0.3,5.9,1.5,8.5,3.1c1.6,1,3.3,1.4,5.1,1.3
	c2.6-0.1,5.2,0,7.9,0c1.2,0,1.7,0.3,1.7,1.6c0,0.4,0,0.8,0,1.3c0,1.2-0.4,1.7-1.7,1.6c-1.7-0.1-3.4,0-5.1,0c-1.2,0-1.3,0.2-0.9,1.3
	c1.5,3.4,2.4,7,2.4,10.7c0,10.6-6.7,20.1-19.1,21.6c-2,0.2-4,0.3-6.1,0.5c-1.7,0.2-3.2,1-4.5,2c-1,0.8-1.7,1.8-1.5,3.2
	c0.2,1.4,1.3,2.1,2.5,2.5c2.6,0.8,5.3,0.8,8.1,0.9c5.1,0.2,10.3,0.1,15.3,1.8c6.4,2.1,9.9,6.6,10.4,13.3c0.5,6.3-0.7,12-5.2,16.7
	c-3.6,3.7-8.2,5.7-13.2,6.8c-2.6,0.6-5.2,1.1-7.9,0.9C423.6,159.7,422.1,159.8,420.7,159.9z"/>
<path class="st1" d="M55.7,60.1c-0.1-1.4-0.2-2.7-0.5-4.1c-0.7-3-2.1-4.3-5.1-4.8c-0.7-0.1-1.5-0.2-2.2-0.2
	c-0.9-0.1-1.6-0.4-1.6-1.5c0-1.1,0.5-1.7,1.6-1.9c1-0.1,2-0.1,3,0c4.6,0.5,9.1,0.5,13.6,0c0.6,0,1.2,0,1.8,0c0.9,0,1.4,0.5,1.5,1.4
	c0.1,0.8-0.1,1.5-1,1.8c-0.6,0.2-1.2,0.4-1.8,0.5c-3,0.1-4.9,1.5-5.3,4.5c-0.2,0.4-0.1,0.9-0.1,1.4c0,24,0,48,0,72
	c0,0.4-0.1,0.9,0.1,1.4c0,1.2-0.3,2.3-1.7,2.6c-1.3,0.3-2.3-0.1-3.2-1.7c-2.7-4.8-5.4-9.6-8.1-14.5c-9.1-16.5-18.2-32.9-27.4-49.3
	c-0.6-1.1-1.2-2.2-1.8-3.3c-0.1-0.2-0.3-0.7-0.7-0.5c-0.2,0.1-0.2,0.5-0.3,0.7c-0.2,0.4-0.1,0.8-0.1,1.2c0,18,0,35.9,0,53.9
	c0,0.3-0.2,0.7,0.1,1c0,0.2,0.1,0.3,0.1,0.5c0.6,4.4,2.3,6.1,6.7,6.7c0.8,0.1,1.7,0.3,2.4,0.4c1,0.2,1.5,0.8,1.4,1.9
	c-0.1,1.1-0.9,1.3-1.8,1.3c-1.3,0-2.7,0-4-0.3c-0.4-0.2-0.9-0.1-1.4,0c-4.5-0.4-8.9-0.1-13.3,0.3c-0.8,0.1-1.7,0-2.5-0.1
	c-0.8-0.2-1.1-0.8-1.2-1.5c0-0.7,0.3-1.2,1-1.5c1-0.4,2.1-0.5,3.3-0.6c2.9-0.3,4.2-1.4,4.8-4.2c0.6-2.8,0.6-5.7,0.6-8.5
	c0-19.1,0-38.2,0-57.4c0-5,0-5.1-5-6.4C7,51,6.1,50.8,5.4,50.5c-0.6-0.2-1.1-0.7-1-1.5c0.1-0.7,0.6-1.1,1.3-1.3c1.3-0.2,2.6,0,3.9,0
	c3.6,0.3,7.3,0.3,10.9-0.1c1.9-0.2,3.1,0.4,4,2.1c3.1,5.9,6.3,11.7,9.4,17.6c6.6,12.3,13.3,24.7,19.9,36.9c0.3,0.6,0.7,1.2,1.1,1.7
	c0.3,0.4,0.7,0.6,1,0c0.1-0.2,0.1-0.4,0.1-0.7c0-14.8,0-29.6,0-44.3C55.8,60.7,55.8,60.4,55.7,60.1z"/>
<path class="st1" d="M154.5,70.9c1.4-0.4,2.8-0.3,4.3-0.3c0.8,0,1.4,0.3,1.6,1.2c0.1,1-0.4,1.5-1.3,1.6c-1,0.2-2.1,0.3-3.1,0.5
	c-2.3,0.4-3.1,1.4-2.9,3.7c0.2,2.5,1.2,4.8,1.9,7.2c2.5,8.7,5.1,17.4,7.7,26c0.1,0.5,0.3,1.1,0.5,1.6c0.1,0.4,0.3,0.9,0.9,1
	c0.5,0,0.7-0.5,0.9-0.9c0.5-1.5,0.9-3,1.4-4.5c2.7-8.9,5.4-17.9,8.1-26.8c0.2-0.8,0.4-1.6,0.4-2.4c0-1.8-0.8-3-2.4-3.7
	c-1.2-0.5-2.5-0.9-3.8-1.3c-1-0.3-1.8-0.7-1.6-2c0.2-1.3,1.3-1.2,2.1-1.1c3.7,0.2,7.3,0.6,11.1,0.3c1.4-0.1,2.8-0.2,4.1-0.3
	c0.9,0,1.2,0.5,1.4,1.3c0.1,0.8-0.2,1.3-1,1.4c-3.3,0.5-4.6,3-5.5,5.7c-5.4,16.9-10.7,33.9-16.1,50.9c-0.2,0.7-0.4,1.3-0.7,1.9
	c-0.3,0.7-0.8,1.3-1.7,1.3s-1.4-0.5-1.7-1.2c-0.5-1.4-1.1-2.9-1.5-4.3c-3-9.7-5.9-19.4-8.9-29.1c-0.2-0.8-0.1-2.1-1.4-2.1
	c-1.2,0-1,1.3-1.3,2c-3.6,10.9-7.1,21.7-10.7,32.6c0,0.2-0.2,0.4-0.3,0.6c-0.3,0.8-0.8,1.4-1.7,1.4c-0.9,0-1.5-0.6-1.7-1.4
	c-0.8-2.1-1.6-4.3-2.3-6.5c-5.3-15.8-10.6-31.6-15.9-47.5c-0.7-2-1.7-3.3-3.8-3.7c-0.6-0.1-1.2-0.3-1.8-0.6
	c-0.7-0.2-1.2-0.7-1.1-1.6c0.1-0.8,0.7-1.2,1.4-1.3c0.7,0,1.4-0.1,2.1,0c5.9,0.6,11.8,0.5,17.7,0c0.6,0,1.3,0,1.9,0
	c0.8,0.1,1.2,0.6,1.3,1.4c0,0.8-0.3,1.2-1,1.4c-1.1,0.3-2.2,0.5-3.3,0.8c-1.3,0.3-1.8,1.1-1.7,2.4c0.2,2.1,1,4.1,1.6,6.1
	c2.9,9.5,5.8,19,8.7,28.4c0.2,0.8,0.1,2.1,1.4,2.1c1.1,0,1.2-1.3,1.5-2.1c2.4-7.2,4.7-14.4,7-21.6c0.2-0.6,0.2-1.2,0-1.9
	c-1.2-3.2-2.4-6.4-3.5-9.6c-0.9-2.5-2.3-4.2-5.2-4.4c-0.9,0-2.1-0.3-1.9-1.7c0.1-1.3,1.1-1.6,2.3-1.6c4.1,0,8.2,0.6,12.3,0.4
	c1,0,2,0,3.1,0C153,71.1,153.7,71.1,154.5,70.9z"/>
<path class="st1" d="M241.6,46c4.5,0.3,8.7,1.2,12.6,3.5c1,0.6,1.7,1.4,1.7,2.5c0.1,5.5,0.4,11.1-0.1,16.6c-0.1,0.9-0.4,1.7-1.5,1.9
	c-1.1,0.2-1.8-0.3-2.4-1.2c-1.4-2.3-2.2-4.9-3.1-7.4c-0.8-2.3-1.7-4.6-2.9-6.7c-2.9-5.3-6.2-6.4-12-5.2c-5.3,1.1-8.4,4.8-10.6,9.4
	c-2.2,4.6-3.2,9.5-3.8,14.5c-0.7,6-1,11.9-0.8,17.9c0.3,9.3,1.4,18.4,5.7,26.9c1.8,3.6,4.2,6.8,7.9,8.8c6.1,3.4,12.3,1.6,15.6-4.6
	c1.8-3.4,2.7-7.1,3.7-10.8c0.6-2.4,1.2-4.9,2.1-7.3c0.3-1,0.8-1.8,2-1.7c1.3,0.1,1.7,1,1.8,2c0.2,1.7,0.3,3.5,0.3,5.2
	c0,4.5,0.2,9-0.1,13.5c-0.2,2.8-1.5,4.7-4,5.7c-10.8,4.4-21.4,5-31.6-1.5c-7.4-4.7-11.9-11.7-14.6-19.9c-4.5-13.3-4.5-26.8,0.4-40
	c3.3-8.9,8.9-15.9,17.8-20c3-1.4,6.2-2.2,9.6-2.5C237.4,46.2,239.5,46.2,241.6,46z"/>
<path class="st1" d="M267.4,77.2c8.1-9.9,22.1-11.4,31.9-2.4c5.5,5,8.6,11.5,9.9,18.8c1.8,9.9,0.3,19.3-5.1,27.8
	c-3.4,5.3-8,9.3-14.2,10.9c-8.6,2.2-15.9-0.4-21.9-6.8c-5.5-5.9-8.1-13.1-8.8-21c-0.8-8.9,1.1-17.1,6-24.6c0.4-0.7,0.9-1.4,1.6-1.9
	C267.2,77.9,267.5,77.7,267.4,77.2z"/>
<path class="st1" d="M92.7,97.9c-4.3,0-8.7,0-13,0c-1.7,0-2.3,0.5-2.4,2c-0.4,6.8,0.4,13.4,4,19.4c4.5,7.4,13.8,9.4,20.8,4.5
	c2-1.4,3.3-3.3,4.3-5.5c0.3-0.6,0.6-1.2,1-1.8c0.4-0.7,1-1.1,1.9-0.7c0.8,0.4,0.9,1.1,0.8,1.9c-0.2,1.8-1,3.4-2,5
	c-4.9,7.5-11.9,10.9-20.8,10.2c-10-0.8-16.5-6.6-19.7-15.7c-4.6-13.1-3.9-26,3.7-37.9c4.7-7.3,11.6-11,20.4-10.4
	c7.6,0.5,12.9,4.6,15.9,11.5c2,4.5,2.9,9.3,2.3,14.3c-0.2,2.2-1,3-3.2,3.1c-4.4,0.1-8.8,0.1-13.3,0.1C93.3,97.9,93,97.9,92.7,97.9
	L92.7,97.9z"/>
<path class="st1" d="M450.9,99.9c0.4-9,2.9-17.3,9.2-24.1c6.6-7.1,17.4-9.1,25.6-4.5c5.2,3,8,7.8,9.4,13.4c0.9,3.5,1.3,7,0.6,10.7
	c-0.3,1.4-1.1,2.2-2.6,2.3c-0.9,0-1.7,0.1-2.6,0.1c-8.2,0-16.4,0-24.6,0c-0.5,0-1,0-1.5,0c-1,0.1-1.6-0.6-1.8-1
	c0.5,0.4,0.6,1.4,0.6,2.4c-0.5,6.7,0.3,13.2,3.6,19.2c1.8,3.4,4.4,6.2,8.3,7.2c5.4,1.4,13.4,0.4,16.8-6.7c0.4-0.8,0.8-1.7,1.3-2.4
	c0.4-0.7,1-1.2,1.8-0.9c0.9,0.3,1,1,0.9,1.8c-0.2,2.5-1.5,4.6-3,6.6c-8,10.6-23.3,12-33.1,3.1c-4.4-4-6.7-9.3-8-14.9
	c-0.6-2.8-1-5.6-1-8.4C451,102.5,451,101.2,450.9,99.9z"/>
<path class="st1" d="M401.3,94.1c0,0.5,0.1,1-0.2,1.4c-1.3,0.2-2.2,0.9-2.6,2.2c-0.6,0.2-1.3,0.2-1.9,0.2c-8.2,0-16.4,0-24.6,0
	c-3,0-3.3,0.1-3.4,3.1c-0.2,6.4,0.7,12.6,4,18.2c4.7,7.9,15.4,9.7,22,3.6c1.4-1.3,2.3-2.9,3.2-4.5c0.3-0.6,0.7-1.3,1.1-1.9
	c0.4-0.6,0.9-0.9,1.7-0.6c0.7,0.2,1,0.9,0.9,1.5c0,0.8-0.2,1.6-0.5,2.3c-3.3,7.7-9.2,12.2-17.5,13.2c-13.3,1.7-22.2-6.7-25.4-18.2
	c-2.8-10.2-2.5-20.3,1.8-30.1c3-6.8,7.6-12.1,14.8-14.5c8-2.7,16.2-0.6,21.3,5.4c0.2,0.3,0.5,0.7,0.7,1c-0.9,0.6-0.8,1.3-0.3,2.1
	c0.6,1.1,1.1,2.3,1.7,3.3c0.1-0.2,0.2-0.9,0.8-0.8c0.4,0.1,0.5,0.6,0.5,1c0,1,0,1.9-0.5,2.8c0.2,0,0,0.1,0,0.1
	c0.5-0.3,0.9-0.3,1.2,0.3c0.2,0.5,0,0.9-0.3,1.5c0.4-0.3,0.6-0.9,1.2-0.5c0.2,0.1,0.2,0.4,0.1,0.6c-0.2,0.5-0.1,1.1-0.1,1.6
	c0,0.2,0.2,0,0,0c0,0,0,0,0-0.1c0-0.2,0-0.3,0.2-0.4c0.4,2,0.5,3.9,0.2,6c-0.2-0.3-1-0.3-0.7-1.1c0.4-0.4,0.4-0.7,0-1.1
	c-0.3-0.5,0.1-1.3-0.4-1.8c-0.3-0.2-0.5-0.3-0.8,0.1c0.3-0.2,0.6-0.4,0.9,0c0.4,0.5,0,1.3,0.5,1.8c0.2,0.2,0.2,0.4,0.1,0.7
	C400.1,93.4,400.6,93.8,401.3,94.1z"/>
<path class="st3" d="M378.8,182.1c-1.2,0.5-2.4,0.1-3.5,0.2c-0.4,0-0.4-0.4-0.3-0.7c0.4-0.5,0.3-1.1,0-1.7c-0.6-0.2-0.8,0.4-1,0.8
	c-2.2,3.2-9.5,2.9-11.3-1.6c-0.9-2.3-1.3-4.7-1.4-7.1c-0.1-3-0.1-6,0.6-8.9c0.7-2.7,2.1-4.7,5-5.4c3-0.7,5.6-0.3,7.6,2.2
	c0,0,0.1,0.1,0.4,0.2c0-1.4,0-2.7,0-4c0-2.6,0-5.1,0-7.7c0-0.8,0.2-1.1,1-1c1,0.1,2-0.3,2.9,0.2c-0.1,0.9,0,1.8,0,2.8
	c0,8.1,0,16.1,0,24.2c0,2.2,0.1,4.5,0,6.7c0,1.3-0.8,0.6-1.3,0.6C377.8,182.1,378.4,181.8,378.8,182.1z"/>
<path class="st1" d="M396.3,167.2c0.8-1.9,0.5-3.7-0.5-5.3c-0.9-1.5-2.4-1.5-3.9-1.3c-1.7,0.2-2.9,1.4-3,3.2c0,0.9-0.3,1.1-1.2,1
	c-0.3,0-0.7,0-1.1,0c-2.7,0-2.3,0.2-1.8-2.3c0.4-2.1,1.6-3.7,3.7-4.4c2.7-0.9,5.5-1,8.3,0c2.8,0.9,3.9,3.2,3.9,5.9
	c0.1,4.1,0.1,8.3,0,12.4c0,1.7,0.1,3.4,0.3,5.1c0.1,0.7-0.1,0.9-0.9,1c-3.3,0.1-3.3,0.1-3.4-3.1c-0.4,0.1-0.5,0.6-0.7,0.9
	c-2,3.6-8.6,3.3-10.7,0.6c-3.8-4.9-1.1-12.1,4.9-13.3c0.7-0.1,1.5-0.2,2.2-0.2C393.7,167.3,395,167.4,396.3,167.2z"/>
<path class="st3" d="M297.5,151.1l-0.1,0l-0.1,0c-1.8-0.4-3.6-0.1-5.4-0.1c-1.7,0-3.4-0.2-5.1,0.1c-1.2-0.1-1.5,0.5-1.5,1.6
	c0.1,2.8,0.1,5.6,0,8.4c0,1,0.3,1.2,1.3,1.2c3.2,0,6.5,0,9.7,0c0.9,0,1.3,0.1,1.3,1.2c0,2.8,0,2.8-2.7,2.8c-2.8,0-5.6,0-8.4,0
	c-0.9,0-1.1,0.2-1.1,1.1c0,4.6,0,9.1,0,13.7c0,0.9-0.2,1.3-1.2,1.3c-3.3,0-3.3,0-3.3-3.3c0-10.1,0-20.2,0-30.3
	c0-1.3,0.4-1.6,1.6-1.6c4.7,0,9.3,0,14,0c1.9,0,1.7-0.4,1.7,1.8c0,0.2,0,0.4,0,0.7C297.8,150.2,298.1,150.8,297.5,151.1z"/>
<path class="st3" d="M251.3,169.5c0,3.2-0.1,5.9-1.1,8.4c-1.1,3-3.2,4.6-6.4,4.8c-1.7,0.1-3.3,0.1-5-0.1c-3-0.6-4.8-2.6-5.4-5.4
	c-1.1-4.5-1.1-9-0.1-13.5c1.1-5.1,4.7-6.6,9.6-6.2c5.3,0.3,7.8,3.1,8.2,8.5C251.2,167.2,251.3,168.6,251.3,169.5z"/>
<path class="st1" d="M330.7,169.7c0,0.2,0,0.3,0,0.5c0,0.3-0.7-0.3-0.5,0.5c0.5,2.2,0.4,2.3,0,3.2c0.1-0.2,0.2-0.4,0.5-0.3
	c-0.1,1.7-0.4,3.4-1.2,5c-1.1,2.5-3.2,3.9-5.9,4.1c-1.3,0.1-2.7,0.1-4,0c-3.3-0.3-5.6-1.9-6.5-5.2c-1.3-4.9-1.4-9.9,0-14.7
	c0.8-3,2.9-4.7,6-5.2c1.7-0.3,3.5-0.3,5.2,0c3.3,0.6,5.1,2.6,5.9,5.8c0.2,1.1,0.5,2.1,0.5,3.3C330.4,167.6,330.5,168.7,330.7,169.7z
	"/>
<path class="st1" d="M261.3,171.6c0,3.2,0,6.5,0,9.7c0,0.8-0.1,1.1-1.1,1.1c-3,0-3,0-3-2.9c0-5.6,0-11.2,0-16.7
	c0-2.1,0.3-1.8-1.8-1.8c-1.9,0-2.4-0.6-1.9-2.5c0.1-0.6,0.6-0.5,0.9-0.5c0.9-0.1,2.2,0.4,2.7-0.3c0.4-0.6,0.1-1.8,0.1-2.7
	c0-0.5,0-1.1,0-1.7c0.1-3.8,2.1-5.8,6-5.9c0.8,0,1.5,0,2.3,0c0.5,0,0.7,0.2,0.8,0.7c0.2,1.9,0,2.1-1.8,2.3c-2.1,0.2-3.1,1.2-3.2,3.4
	c0,1.1,0,2.1,0,3.2c0,0.7,0.2,1,0.9,0.9c0.9,0,1.7,0,2.6,0c1.2-0.1,1.4,0.4,1.5,1.5c0.1,1.4-0.4,1.8-1.7,1.6c-0.7-0.1-1.5,0-2.2,0
	c-0.8-0.1-1.1,0.2-1.1,1.1C261.3,165.1,261.3,168.3,261.3,171.6z"/>
<path class="st1" d="M306.1,164.9c0,5.4,0,10.8,0,16.2c0,1-0.2,1.4-1.3,1.3c-2.8,0-2.8,0-2.8-2.8c0-10.3,0-20.6,0-30.9
	c0-1.2,0.3-1.6,1.6-1.5c2.5,0.1,2.5,0,2.5,2.5C306.1,154.8,306.1,159.8,306.1,164.9z"/>
<path class="st1" d="M336.3,158.3c-0.1-0.6,0.3-0.5,0.7-0.5c3.2-0.2,3.2-0.2,3.3,2.9c0,0.1,0,0.2,0,0.6c1-1.7,2-3.3,4-3.6
	c0.2,0,0.3-0.1,0.5-0.1c1,0.1,2.4-0.8,2.9,0c0.5,0.9,0.2,2.3,0.2,3.5c0,0.4-0.2,0.4-0.5,0.4c-0.3,0-0.5,0-0.8-0.1
	c-3.7-0.2-5.7,1.4-6.1,5.1c-0.3,2.4-0.1,4.8-0.1,7.2c0,2.6,0,5.1,0,7.7c0,0.4,0.2,1-0.4,1c-1.2,0-2.3,0.3-3.5-0.2
	c0.1-5.2,0-10.5,0-15.8C336.4,163.7,336.5,161,336.3,158.3z"/>
<path class="st1" d="M355.1,180.7c0,0.1,0,0.2,0,0.3c-0.1,0.3-0.4,0.7,0,1.1c-1.1,0.5-2.2,0.3-3.3,0.2c-1-0.1-0.3-1-0.4-1.6
	c0.2-0.3,0.1-0.6,0.1-0.9c0-6.7,0-13.5,0-20.2c0-0.3,0-0.6-0.1-0.9c0-0.1-0.1-0.3,0-0.4c0.4-0.7,3.3-0.6,3.8,0.1
	c-0.1,0.1-0.1,0.3-0.1,0.5c0,7.1,0,14.2,0,21.4C354.9,180.4,355,180.5,355.1,180.7z"/>
<path class="st3" d="M200.7,152.9c0,1.2,0,2.4,0,3.6c0,0.9,0.4,1.9,1.4,2.2c1.2,0.4,2.4,0.3,3.5-0.2c0.3-0.1,0.3-0.5,0.3-0.9
	c0-0.5,0-1,0-1.5c0-1.9,0-2-2-2.1c-0.6,0-0.8-0.2-0.8-0.8c0-0.5,0.1-0.9,0.8-0.8c0.1,0,0.2,0,0.3,0c3.6-0.1,3.6-0.1,3.6,3.5
	c0,0.5,0,1,0,1.5c0,2.4-0.2,2.7-2.6,3.1c-0.8,0.1-1.6,0.2-2.3,0.1c-2.7-0.1-4-1.4-4.2-4.1c-0.2-2.5-0.3-5,0-7.4c0.2-1.7,1-3,2.7-3.4
	c1.9-0.5,3.8-0.6,5.5,0.8c0.6,0.5,0.8,1.3,0.9,2c0,0.4,0.4,1.1-0.4,1.2c-0.6,0-1.5,0.5-1.7-0.7c-0.3-1.6-1.2-2-2.9-1.8
	c-1.3,0.1-2.1,1-2.2,2.4C200.6,150.6,200.7,151.8,200.7,152.9L200.7,152.9z"/>
<path class="st1" d="M85,160.2c-1.6,0.4-2.3-0.2-3-1.7c-1.4-3.4-3.1-6.7-4.9-10.1c0,0.5,0,1,0,1.5c0,3.1,0,6.3,0,9.4
	c0,0.6,0,1.1-0.8,1.1c-0.7,0-1-0.2-1-0.9c0-4.4,0-8.7,0-13.1c0-0.3-0.2-0.7,0.4-0.6c0.6,0.1,1.3,0.2,1.9,0c0.7,0,0.6,0.6,0.8,1
	c1.7,3.6,3.3,7.3,5.3,10.9c0-3.5,0-7,0-10.6c0.3-1.5,0.4-1.6,1.6-0.8c0,0.4,0,0.7,0,1.1c-0.2,2.1,0,4.3-0.1,6.4c0,1.7,0,3.3,0,4.9
	C85.4,159.1,85.6,159.8,85,160.2z"/>
<path class="st4" d="M48.7,145.6c0.7,0.8,0.2,1.8,0.3,2.7c0.1,1.2-0.5,2.7,0.3,3.4c0.7,0.6,2.2,0.1,3.3,0.2c1.1,0.1,1.6-0.2,1.5-1.4
	c-0.1-1.4,0-2.9,0-4.3c0-1.3,1.1-0.1,1.5-0.6c0.2-0.3,0.5,0.2,0.5,0.7c0,4.4,0,8.7,0,13.1c0,0.8-0.3,0.9-1,0.9c-0.6,0-1,0-1-0.9
	c0-1.6,0-3.2,0-4.9c0-0.8-0.2-1.1-1-1c-1.3,0.1-2.9-0.4-3.7,0.2c-0.9,0.7-0.2,2.4-0.3,3.7c0,0.6,0,1.2,0,1.8c0,0.6,0,1.1-0.9,1
	c-0.7,0-1.1-0.1-1.1-1c0-4.4,0-8.7,0-13.1c0-0.2,0-0.5,0.2-0.6C47.8,145.8,48.3,145.7,48.7,145.6z"/>
<path class="st1" d="M110.7,145.7c1.8,0.3,2.6,1.1,3,2.8c0.3,1.7-0.3,3.1-2.1,4.3c1.6,0.5,1.7,1.7,1.9,3c0.1,1.2,0.2,2.4,0.3,3.5
	c0,0.3,0.5,1-0.3,1c-0.6,0-1.6,0.4-1.7-0.8c-0.1-1.2-0.2-2.5-0.3-3.7c-0.2-1.9-2.3-3-4-2.2c-0.4,0.2-0.3,0.6-0.3,1
	c0,1.6,0,3.2,0,4.9c0,0.8-0.4,0.9-1,0.9c-0.7,0-1-0.2-0.9-0.9c0-4.4,0-8.8,0-13.3c1.1-0.6,2.3-0.3,3.5-0.4
	C109.4,145.7,110,145.8,110.7,145.7z"/>
<path class="st1" d="M61.3,148.9c0.6-2.7,2.2-3.8,5.2-3.6c2.3,0.2,3.9,1.8,3.9,4.4c0,2.5,0.3,5.1-0.2,7.6c-0.5,2.6-2.1,3.6-4.9,3.3
	c-2.6-0.2-3.9-1.6-4.1-4.1c0-0.8,0-1.6,0-2.3C61.4,152.4,61.4,150.7,61.3,148.9z"/>
<path class="st3" d="M122.7,160.6c-2.8,0.2-4.5-1.3-4.5-3.8c0-0.5,0-1,0.7-1c0.6,0,1.2-0.1,1.2,0.8c0,1.3,0.7,2.1,2.1,2.2
	c1.3,0,2.3-0.2,2.7-1.6c0.3-1.2-0.2-2.1-1.1-2.7c-1-0.6-2.1-1.2-3.1-1.8c-2.3-1.5-3-3.8-1.7-5.8c1.2-1.8,4.4-2.4,6.4-1.2
	c1.1,0.7,1.4,1.8,1.5,3.1c0,0.7-0.4,0.7-0.9,0.7c-0.6,0-1.2,0.1-1.2-0.8c0-1.2-0.8-1.8-2-1.8c-1.1,0-2,0.3-2.3,1.6
	c-0.3,1,0.1,1.8,1,2.4c1,0.6,2,1.2,3,1.7c2.1,1.3,3,2.9,2.5,5C126.5,159.6,125.2,160.5,122.7,160.6z"/>
<path class="st5" d="M218.4,168c0.1,0.1,0.2,0.2,0.3,0.3c-0.7,0-1.4,0.1-2,0.1c-69.6,0-139.3,0-208.9,0c-1.4,0-2.9,0.2-4.3-0.1
	c1.1-0.6,2.2,0,3.3-0.2c0.5-0.2,1-0.1,1.5-0.1c69.6,0,139.1,0,208.7,0C217.4,167.9,217.9,167.7,218.4,168z"/>
<path class="st3" d="M15.8,145.7c0.5,1.7,0.2,3.3,0.2,5c0,1.1,0.2,1.5,1.4,1.4c1.2-0.1,2.8,0.4,3.4-0.2c0.8-0.7,0.1-2.3,0.3-3.5
	c0.1-0.9-0.3-1.8,0.3-2.6c1.1,0,1.5,0.4,1.5,1.7c0,3.7,0,7.5,0,11.2c0,0.2,0,0.4,0.1,0.6c0.1,0.7,0.1,1.2-0.9,1.2
	c-0.9,0-1-0.4-1-1.2c0-1.5,0-3.1,0-4.6c0-0.7-0.1-1.1-1-1c-1,0-2,0.1-3.1,0c-0.9-0.1-1.1,0.3-1,1.1c0,1.5,0,3,0,4.4
	c0,0.7,0,1.2-1,1.2c-1,0-1-0.4-0.9-1.2c0.2-3.9,0.2-7.7,0-11.6c0-0.6-0.4-1.4,0.2-1.9C14.9,145.8,15.4,145.7,15.8,145.7z"/>
<path class="st3" d="M140.4,152.8c0,1.3,0,2.7,0.2,4c0.2,1.3,0.8,2.2,2.2,2.2c1.4,0,2.3-0.6,2.4-2.1c0.1-1.3,0.9-0.9,1.6-0.9
	c0.9,0,0.5,0.7,0.5,1.1c-0.1,2-1.4,3.3-3.4,3.4c-3.3,0.3-4.9-0.8-5.2-4.1c-0.3-2.6-0.3-5.1,0-7.7c0.2-1.5,0.9-2.7,2.3-3.1
	c1.7-0.5,3.4-0.7,5,0.5c1,0.7,1,1.9,1.1,3c0,0.7-0.5,0.7-0.9,0.6c-0.4,0-1.1,0.3-1.1-0.6c0-1.5-0.7-2.2-2.2-2.2
	c-1.5,0-2.1,0.8-2.3,2.5C140.5,150.6,140.5,151.7,140.4,152.8z"/>
<path class="st1" d="M160.8,156.6c-0.5,2.8-1.7,3.9-4.1,3.9c-0.5-0.1-1.1-0.2-1.7,0c-2.1-0.4-3.2-1.7-3.3-4.1
	c-0.1-2.2-0.1-4.4,0-6.6c0-2.3,1.1-3.7,3-4.3c2.3-0.7,4.3,0,5.6,1.7c-0.1,0.2-0.4,0.6-0.5,0.5c-0.7-0.6-0.7,0.3-1.1,0.4
	c-0.1,0-0.3,0-0.4-0.1c-1.5-1.2-2.8-0.8-4.1,0.2c-0.1,0.1-0.3,0.2-0.2,0.3c0,2.7-0.5,5.3,0.2,8c0.3,0.7,0.6,1.5,1.5,1.7
	c1.7,0.5,2.8-0.2,3-2c0.2-1.8,0-3.6,0.1-5.4c0-0.6-0.1-1.3,0.4-1.8c1.1-0.1,1.5,0.5,1.5,1.5c0,1.4,0,2.8,0,4.2
	C160.4,155.4,160.5,156,160.8,156.6z"/>
<path class="st6" d="M193.7,145.6c0.8,0.3,0.4,1,0.3,1.4c-0.1,0.4-0.6,0.2-1,0.2c-1.2,0-2.4,0-3.6,0c-0.7,0-1,0.1-1.1,1
	c-0.1,3.7-0.1,3.7,3.5,3.7c0.4,0,0.8,0,1.3,0c0.6,0,0.5,0.4,0.5,0.8s0.1,0.9-0.5,0.9c-0.4,0-0.7,0-1.1,0c-1.2,0-3-0.5-3.4,0.2
	c-0.6,1.1-0.2,2.8-0.2,4.2c0,0.6,0.4,0.6,0.8,0.6c1.4,0,2.7,0,4,0c0.5,0,1,0,1,0.8c0,0.8-0.3,0.9-1,0.9c-1.9,0-3.9,0-5.8,0
	c-0.7,0-1-0.1-1-0.9c0-4.4,0-8.7,0-13.2c0-0.2-0.1-0.6,0.3-0.6C189.2,145.8,191.4,145.8,193.7,145.6z"/>
<path class="st1" d="M35.7,146.1c0,0.1,0,0.2,0,0.3c-0.1,0.9-0.8,0.7-1.4,0.7c-1.3,0-2.5-0.1-3.8,0.1c-0.9,0.3-0.5,1.1-0.5,1.7
	c0,3.1,0,3.1,3,3.1c0.4,0,0.7,0,1.1,0c0.6,0,1.3-0.2,1.3,0.9c0,1.1-0.7,0.8-1.2,0.8c-1.1,0-2.1,0-3.2,0c-0.7,0-1.1,0.1-1.1,1
	c0,1,0.1,2,0,3c0,0.9,0.3,1.1,1.1,1.1c1.3,0,2.6,0,3.9,0c0.7,0,0.8,0.3,0.8,0.9c0,0.6-0.2,0.8-0.8,0.8c-2.1,0-4.1,0-6.2,0
	c-0.5,0-0.7-0.2-0.7-0.7c0-4.6,0-9.1,0-13.6c0-0.1,0.1-0.2,0.2-0.3c2,0.2,4,0,6.1,0.1C34.8,145.7,35.4,145.5,35.7,146.1z"/>
<path class="st7" d="M176.2,152.9c0-2.1,0-4.2,0-6.4c0-0.7,0.2-1,1-1c0.9,0,0.9,0.3,0.9,1.1c0,3.6,0,7.2,0,10.8
	c0,0.9,0.2,1.4,1.2,1.3c1.1-0.1,2.1,0,3.2,0c0.6,0,1.1-0.1,1.1,0.8c0,0.8-0.3,0.9-1,0.9c-1.8,0-3.6,0-5.4,0c-0.8,0-1-0.2-1-1
	C176.2,157.2,176.2,155,176.2,152.9z"/>
<path class="st4" d="M2.5,147c0-0.3,0-0.6,0-0.9c0.3-0.5,0.8-0.4,1.2-0.4c1.2,0,2.3,0.1,3.4-0.1c0.1,0,0.2,0,0.3,0c1,0.1,2,0.2,3,0
	c0.5,0.1,1.5-0.6,1.5,0.7c0,0.7-0.1,0.9-0.9,1c-1,0-2.1-0.3-3.1,0.2c-0.3,3.3,0,6.6-0.1,10c0,0.5-0.1,1.1,0.1,1.6
	c0.1,0.7,0.1,1.2-0.9,1.2c-1,0-1-0.5-1-1.2c0-4,0-7.9,0-11.8c0.1-0.1,0.2-0.1,0.3,0c0.1,0.1,0.2,0.1,0.3,0.1c-0.1-0.1-0.3,0-0.3-0.2
	c-1-0.4-1.9-0.3-2.9-0.2C3.2,147.1,2.8,147.2,2.5,147z"/>
<path class="st7" d="M97.2,145.6c1.8,0.6,2.5,2,2.6,3.7c0.1,2.6,0.2,5.2-0.1,7.8c0,0.2-0.1,0.4-0.2,0.6c-1.1-0.7-0.6-1.8-0.6-2.7
	c0-1.8,0-3.5,0-5.3c0,1.7,0,3.4,0,5.2c0,1.4-0.4,2.7,0.1,4c-1.3,1.8-4,2.3-6.2,1.1c0-0.3,0.2-0.7,0.4-0.6c0.8,0.2,0.7-0.6,1.1-0.8
	c0.2,0,0,0,0.1,0c2.9-0.5,3.1-0.6,3.1-3.7c0-1.6,0-3.2,0-4.8c0-0.9-0.2-1.7-0.7-2.4C96.9,147,96.7,146.2,97.2,145.6z"/>
<path class="st3" d="M97.2,145.6c0,0.2-0.1,0.6,0,0.6c1,0.9,0,0.8-0.4,1c-0.2,0.1-0.4,0.2-0.6,0.1c-1.4-0.3-2.3,0.3-3.2,1.3
	c-0.5,0.2-0.5,0.8-0.5,1.2c0,1.5-0.4,3,0.3,4.4c0.2,0.6,0.2,1.3,0,1.9c0,0.1-0.1,0.2-0.3,0.3c-0.6-0.2-0.5-1-0.9-1.5
	c-0.2,0.7,0.5,1,0.7,1.4c0,1.6,0.3,2.2,1.5,2.4c0,0,0.1,0,0.2,0.1c0,0.4,0.8,0.2,0.6,0.7c-0.1,0.3-0.6,0.4-1,0.2
	c-0.5-0.3-0.6,0.2-0.9,0.3c-1.2-0.5-1.7-1.6-1.8-2.8c0.2-0.5-0.1-0.9-0.2-1.4c0-2.1-0.1-4.2,0-6.3C90.7,146.1,93.5,144.5,97.2,145.6
	z"/>
<path class="st8" d="M349.5,38.5c-0.2-0.4-0.3-0.8-0.3-1.2c0.7-0.4,1.1,0,1.3,0.6c0.1,0.4,0.1,0.8,0.1,1.2c0,27.3,0,54.6,0,81.9
	c0,0.2,0,0.4,0,0.5c-0.4-0.5-0.2-1.2-0.2-1.7c0-26.5,0-53.1,0-79.6C350.3,39.5,350.8,38.5,349.5,38.5L349.5,38.5z"/>
<path class="st9" d="M219.7,145.6c0.9,0.2,0.3,0.9,0.3,1.4c0,0.5-0.6,0.3-0.9,0.3c-1.3,0-2.5,0-3.7,0c-0.8,0-1,0.3-1,1
	c-0.1,3.6-0.1,3.6,3.5,3.6c0.3,0,0.5,0,0.8,0c0.6,0,0.9,0,0.9,0.8c0,0.8-0.3,0.9-1,0.9c-1.4,0-2.9,0-4.3,0c-0.9,0.1-1.2-0.4-1.2-1.1
	c-0.1-1.9-0.1-3.9,0.2-5.9c0.1-0.4,0.4-0.7,0.8-0.9C216.1,145.6,217.9,145.8,219.7,145.6z"/>
<path class="st10" d="M59.5,130.4c-0.4-0.4-0.2-1-0.2-1.5c0-23.9,0-47.9,0-71.8c0-0.5-0.2-1,0.2-1.5c0,6.8,0,13.5,0,20.3
	c0,17.6,0,35.2,0,52.9C59.5,129.3,59.5,129.8,59.5,130.4z"/>
<path class="st4" d="M165.9,159.7c0-0.2,0-0.4,0-0.6c0.1-0.2,0.2-0.4,0.3-0.6c0.1-3.6,0.1-7.2,0-10.9c-0.2-1.8-0.2-1.8,1.3-2.1
	c0.6,0.3,0.3,0.8,0.3,1.2c0,3.5,0,6.9,0,10.4c0,1.2,0.3,1.5,1.5,1.4c1-0.1,2,0,3,0c0.9,0,1.2,0.3,0.8,1.2c-1-0.6-2.1-0.6-3.2-0.8
	c0.4,0.1,1,0,1.4,0.8C169.4,160,167.6,160.2,165.9,159.7z"/>
<path class="st3" d="M400.8,86.3c-0.4,0-0.6,0.2-0.6,0.6c0,0.3,0.1,0.8-0.4,0.6c-0.4-0.1-0.6-0.5-0.4-1c0-0.1,0.1-0.2,0.2-0.3
	c0.4-0.4,0.3-0.8,0-1.1c-0.6-0.5-0.4,0.4-0.9,0.5c-0.2-1.5,1-3,0.1-4.5c-0.7,0.4-0.4,1.2-1.1,1.7c-0.1-2.2-1.6-3.9-2.3-5.8
	c-0.2-0.5,0-0.6,0.2-0.6c0.3,0,0.7,0,1.1-0.2C398.9,79.4,400.2,82.7,400.8,86.3z"/>
<path class="st1" d="M350.9,150.8c-0.2-3.8,0-4,3.7-3.6c0.3,0,0.7,0,0.7,0.3c0,1.4,0.5,2.7-0.2,4c-1-0.1-2-0.3-3-0.2
	C351.5,151.5,351.2,151.3,350.9,150.8z"/>
<path class="st4" d="M214.2,145.8c-0.9,2.3-0.5,4.7-0.5,7.1c0,0.4,0.5,0.5,0.8,0.7c0,0.1,0,0.2,0,0.3c-0.8,1.4-0.5,2.9-0.3,4.3
	c0,0.8,0,1.4-0.4,2c-0.8,0.2-1.2,0-1.1-0.9c0-4.2,0-8.4,0-12.6C212.8,145.7,213.4,145.5,214.2,145.8z"/>
<path class="st11" d="M16.4,120.6c-0.1,0-0.1,0-0.2,0c0-0.2,0-0.4,0-0.7c0-18.2,0-36.3,0-54.5c0-0.3-0.1-0.7,0.2-1
	c0,17.6,0,35.2,0,52.8C16.4,118.4,16.4,119.5,16.4,120.6z"/>
<path class="st3" d="M213.7,160.2c0-1.8,0-3.6,0-5.5c0-0.5,0.4-0.6,0.8-0.9c0,1.3,0,2.6,0,3.8c0,0.7,0.2,0.9,1,0.9c1.3,0,2.7,0,4,0
	c0.6,0,0.9,0.1,0.9,0.8c0,0.7-0.2,0.9-0.9,0.8C217.5,160.3,215.6,160.3,213.7,160.2z"/>
<path class="st12" d="M55.7,60.1c0.4,0.5,0.2,1.1,0.2,1.6c0,14.2,0,28.4,0,42.6c0,0.5,0.4,1.2-0.2,1.7
	C55.7,90.7,55.7,75.4,55.7,60.1z"/>
<path class="st6" d="M378.8,182.1c-0.8,0-1.7-0.1-2.5-0.1c-0.3,0-0.5,0-0.5-0.3c0-0.2,0.1-0.3,0.3-0.4c0.2,0,0.4-0.1,0.7-0.1
	c0.6-0.1,0.8,0.8,1.3,0.6c0.9-0.4,0-0.6-0.1-0.9c0.6-0.2,0.7-0.7,0.5-1.2c-0.2-0.8,0.7-1.9-0.5-2.6c0,0,0-0.3,0-0.4
	c0.9-1.1,0.5-2.3,0.5-3.4c0-8.1,0-16.1,0-24.2c0-0.5-0.1-1,0.2-1.5c0,1.8,0,3.6,0,5.4c0,9.3,0,18.5,0,27.8
	C378.9,181.2,378.8,181.7,378.8,182.1z"/>
<path class="st5" d="M158.6,148.1c0.3-0.4,0.1-0.9-0.1-1.4c0.7,0,1,1.2,1.7,0.5c0.4,0.6,0.6,1.3,0.6,1.9c0,2.5,0,5,0,7.5
	c-0.6-0.4-0.8-1.1-0.8-1.8c0-1.3,0-2.7,0-4c0-0.9-0.2-1.5-1.1-1.7C158.5,148.9,158.3,148.6,158.6,148.1z"/>
<path class="st6" d="M165.9,159.7c1.7,0,3.3,0,5,0c-0.7-0.9-1.7,0.1-2.6-0.7c1.6-0.2,2.9-0.2,4.3-0.1c0.4,0,0.5,0.5,0.6,0.8
	c0.1,0.5-0.2,0.5-0.6,0.5c-2,0-4,0-6,0C166.1,160.3,165.7,160.2,165.9,159.7z"/>
<path class="st10" d="M336.3,158.3c0.3,0.3,0.2,0.7,0.2,1c0,7.3,0,14.6,0,21.8c0,0.3,0,0.6-0.2,0.9c0-4.1,0-8.3,0-12.4
	C336.3,165.9,336.3,162.1,336.3,158.3z"/>
<path class="st10" d="M355.1,180.7c-0.4-0.3-0.2-0.8-0.2-1.2c0-6.7,0-13.3,0-20c0-0.4-0.1-0.8,0.2-1.2
	C355.1,165.8,355.1,173.3,355.1,180.7z"/>
<path class="st13" d="M351.2,158.6c0.4,0.3,0.2,0.8,0.2,1.2c0,6.6,0,13.2,0,19.8c0,0.4,0.1,0.8-0.2,1.2
	C351.2,173.3,351.2,165.9,351.2,158.6z"/>
<path class="st14" d="M98.9,158.9c-0.6-0.4-0.7-0.7-0.5-1.6c0.4-2.5,0.3-5,0-7.4c-0.1-0.6,0-0.8,0.5-1.4c0.4,2.3,0.2,4.3,0.1,6.3
	c0,1-0.2,1.9,0.4,2.9c0,0.1,0,0.2,0,0.2C99,158.2,99,158.6,98.9,158.9L98.9,158.9z"/>
<path class="st13" d="M166.1,158.9c-0.1,0.1-0.1,0.2-0.2,0.2c0-4.2,0-8.4,0-12.7c0-1.5,1.1-0.7,1.7-0.8c-1.1,0.2-1.6,0.8-1.1,1.9
	c0,3.3,0,6.5,0,9.8C166.3,157.8,166.5,158.4,166.1,158.9z"/>
<path class="st15" d="M23,159.1c-0.2,0-0.6,0.1-0.5-0.2c0.7-4.1,0.1-8.1,0.2-12.2c0-1-1-0.6-1.4-1.1c1.3-0.3,1.7,0.1,1.7,1.5
	C22.9,151.1,23,155.1,23,159.1z"/>
<path class="st13" d="M85,160.2c0.3-3,0.2-6,0.3-9c0-1.3-0.2-2.7,0.2-3.9c0,4.1,0,8.1,0,12.2C85.5,159.8,85.7,160.4,85,160.2z"/>
<path class="st3" d="M398.5,97.7c-0.1-1.5,0.8-2.2,2.6-2.2C400.8,96.9,399.9,97.6,398.5,97.7z"/>
<path class="st13" d="M14.2,147.5c0.3,0.2,0.2,0.6,0.2,0.9c0,3.3,0,6.6,0,9.8c0,0.3,0,0.6-0.2,0.9C14.2,155.3,14.2,151.4,14.2,147.5
	z"/>
<path class="st10" d="M8.1,159.1c-0.1-0.1-0.2-0.2-0.2-0.3c0-3.6,0-7.3,0-10.9c0-0.1,0.1-0.2,0.2-0.3C8.1,151.4,8.1,155.3,8.1,159.1
	z"/>
<path class="st14" d="M286.7,151.1c0.2-0.3,0.5-0.3,0.9-0.3c3,0,5.9,0,8.8,0c0.3,0,0.6,0,0.9,0.3
	C293.8,151.3,290.2,151.3,286.7,151.1z"/>
<path class="st9" d="M463.2,99.3c-0.7-0.8-0.3-2.1-1.5-2.7c1.3-0.2,1.7,1.1,2.6,1.3C463.7,98.2,463.4,98.8,463.2,99.3z"/>
<path class="st16" d="M214.2,145.8c-0.7-0.1-1.3,0.2-1.6,0.8c-0.2-0.8,0-1.2,0.9-1.1c2,0.1,4.1,0,6.2,0
	C217.9,146.1,216,145.7,214.2,145.8z"/>
<path class="st17" d="M35.7,146.1c-1.2-0.5-2.5-0.1-3.8-0.3c-1.2-0.1-2.4,0.2-3.6-0.2c2.2,0,4.5,0,6.7,0
	C35.4,145.6,35.8,145.5,35.7,146.1z"/>
<path class="st18" d="M330.7,173.5c-0.2,0.1-0.4,0.2-0.9,0.6c0.8-1.1,0.7-1.9,0.1-2.9c-0.3-0.5-0.3-1.4,0.8-1
	C330.7,171.3,330.7,172.4,330.7,173.5z"/>
<path class="st10" d="M2.5,147c0.9-0.1,1.7-0.6,2.6-0.3c0.5,0.1,1.1-0.2,1.3,0.6l0,0c-0.1,0-0.2,0-0.3,0c-1.2,0-2.4,0-3.5,0
	C2.5,147.1,2.5,147.1,2.5,147z"/>
<path class="st13" d="M241.6,46c-2.1,0.4-4.2,0.4-6.4,0C237.4,45.9,239.5,45.9,241.6,46z"/>
<path class="st16" d="M193.7,145.6c-2.3,0.4-4.6,0.4-6.9,0C189.2,145.6,191.4,145.6,193.7,145.6z"/>
<path class="st11" d="M30.5,147.2c0.1-0.2,0.2-0.7,0.5-0.5c1.2,0.7,2.5-0.1,3.7,0.3c0.4,0.1,0.7-0.2,1-0.5c0.2,0.6,0,0.9-0.7,0.9
	C33.5,147.2,32,147.2,30.5,147.2z"/>
<path class="st13" d="M350.9,150.8c1.1,0.7,2.4,0,3.5,0.5c0.2,0.1,0.4,0.1,0.6,0.2c-1.1,0-2.2,0-3.3,0
	C351.1,151.7,350.7,151.5,350.9,150.8z"/>
<path class="st17" d="M110.7,145.7c0,0.4-0.3,0.3-0.6,0.2c-1.7-0.1-3.3-0.1-4.9,0.2c-0.1-0.6,0.3-0.5,0.6-0.5
	C107.5,145.6,109.1,145.6,110.7,145.7z"/>
<path class="st11" d="M61.3,148.9c0.3,1.7,0.4,3.5,0,5.2C61.2,152.4,61.1,150.7,61.3,148.9z"/>
<path class="st16" d="M7.2,145.6c-0.9,0.5-1.8,0.1-2.7,0.2c-0.7,0-1.4-0.1-2,0.2c0-0.1,0-0.3,0-0.5C4.1,145.6,5.7,145.6,7.2,145.6z"
	/>
<path class="st11" d="M450.9,99.9c0.1,0,0.2,0,0.2-0.1c-0.1,1.3,0.2,2.7-0.2,4C450.9,102.5,450.9,101.2,450.9,99.9z"/>
<path class="st15" d="M420.7,159.9c1.5-0.3,3-0.4,4.4,0C423.6,159.9,422.1,159.9,420.7,159.9z"/>
<path class="st3" d="M400.7,92.7c-0.2,0.6,0.6,0.7,0.6,1.2c0,0.1,0,0.1,0,0.2c-0.6,0.3-0.9,0-1-0.5
	C400.1,93.2,400.1,92.8,400.7,92.7z"/>
<path class="st11" d="M396.3,167.2c-1.3,0.4-2.6,0.4-3.8,0C393.7,167.2,395,167.2,396.3,167.2z"/>
<path class="st18" d="M330.7,169.7c-0.4-1-0.6-2-0.1-3.1C330.7,167.6,330.7,168.7,330.7,169.7z"/>
<path class="st3" d="M401,87.9c-0.1,0.5,0.2,1.1-0.7,1.6c0.5-0.9,0-1.8,0.6-2.6C401,87.3,401,87.6,401,87.9z"/>
<path class="st16" d="M10.5,145.6c-1,0.4-2,0.3-3,0C8.6,145.6,9.6,145.6,10.5,145.6z"/>
<path class="st17" d="M85.5,146.1c-1.1-0.7-1.3,0.1-1.6,0.8c0.1-0.5-0.5-1.2,0.4-1.3C84.7,145.6,85.5,145.1,85.5,146.1z"/>
<path class="st19" d="M77.8,145.6c0,0.1,0,0.1,0.1,0.2c-0.7,0-1.4,0.2-2-0.2C76.5,145.6,77.2,145.6,77.8,145.6z"/>
<path class="st7" d="M90.6,155.8c0.2,0.4,1.3,0.7,0.2,1.4C90.5,156.8,90.5,156.3,90.6,155.8z"/>
<path class="st17" d="M154.5,70.9c-0.7,0.5-1.5,0.4-2.2,0C153,70.9,153.7,70.9,154.5,70.9z"/>
<path class="st16" d="M267.4,77.2c0.1,0,0.5,0.1,0.3,0.3c-0.2,0.2-0.3,0.9-0.9,0.5C267,77.8,267.2,77.5,267.4,77.2z"/>
<path class="st16" d="M155,160.5c0.5-0.3,1.1-0.4,1.7,0C156.1,160.8,155.6,160.5,155,160.5z"/>
<path class="st7" d="M98.9,158.9c0.2-0.2-0.9-1.2,0.4-0.9C99.4,158.4,99.2,158.7,98.9,158.9z"/>
<path class="st6" d="M375,179.9c0.3,0.5,0.9,1.1,0,1.7C375,181,375,180.5,375,179.9z"/>
<path class="st20" d="M351.2,131.1c0.5-0.3,1.1-0.4,1.7,0C352.3,131.1,351.8,131.1,351.2,131.1z"/>
<path class="st21" d="M313,131.2c0.5-0.4,1.1-0.4,1.7,0C314.1,131.1,313.6,131.2,313,131.2z"/>
<path class="st14" d="M297.5,151.1c0.2-0.5,0.3-0.9,0.5-1.4C297.9,150.2,298.7,151,297.5,151.1z"/>
<path class="st22" d="M48.7,145.6c-0.4,0.1-0.9,0.7-1.4,0C47.8,145.7,48.3,145.7,48.7,145.6z"/>
<path class="st10" d="M355,182.1c-1.1-0.4,0.2-0.7,0-1.1C355.1,181.4,355.2,181.7,355,182.1z"/>
<path class="st22" d="M15.8,145.7c-0.4,0.3-0.9,0.3-1.4,0C14.9,145.7,15.4,145.7,15.8,145.7z"/>
<path class="st20" d="M20,131.1c0.4-0.3,0.9-0.3,1.4,0C20.9,131.1,20.4,131.1,20,131.1z"/>
<path class="st23" d="M218.4,168c-70.6,0-141.1,0-211.7,0c0.4-0.4,1-0.3,1.5-0.3c69.6,0,139.2,0,208.8,0
	C217.4,167.7,217.9,167.5,218.4,168z"/>
<path class="st9" d="M349.3,120.9c0,0.3,0,0.5,0,0.8c0.2,0.3,0.2,0.5,0,0.8c-0.5,0-0.6-0.4-0.5-0.8c0-0.6,0-1.3,0-1.9
	c0-26.9,0-53.9,0-80.8c0.2-0.1,0.4-0.2,0.5,0l0,0c0.4,0.5,0.3,1.1,0.3,1.6c0,26.3,0,52.5,0,78.7
	C349.5,119.9,349.6,120.5,349.3,120.9z"/>
<path class="st7" d="M349.3,120.9c0-27.3,0-54.6,0-81.9c0.8,0.2,0.5,0.9,0.5,1.4c0,4,0,7.9,0,11.9c0,22.3,0,44.7,0,67
	C349.8,119.9,350.2,120.7,349.3,120.9z"/>
<path class="st7" d="M349.3,122.6c0-0.3,0-0.5,0-0.8c0.9,0.8,0.9,2.2,0,3.9C349.3,124.4,349.3,123.5,349.3,122.6z"/>
<path class="st8" d="M349.3,39.1c-0.2,0-0.4,0-0.5,0c-0.2-0.9,0.5-0.4,0.8-0.5l0,0C349.4,38.7,349.3,38.9,349.3,39.1z"/>
<path class="st24" d="M424.1,130.3c4.4,0.1,7.9,0.3,11.2,1.4c5.7,1.8,8.1,6.1,7.7,12c-0.6,8.7-7,12.8-14.7,13
	c-4.6,0.1-8.7-0.8-12.1-4c-5.4-5-6.4-15.2,0.7-20.4C419.3,130.5,422.1,130.1,424.1,130.3z"/>
<path class="st24" d="M434.5,90.6c0,4.2-0.4,8.3-1.9,12.3c-0.5,1.4-1.2,2.6-2.1,3.7c-2.6,3.1-6.6,3.1-9.2,0c-2.1-2.5-3-5.5-3.5-8.6
	c-1-6.3-1-12.6,1-18.8c0.5-1.7,1.4-3.4,2.6-4.8c2.8-3.1,6.8-3,9.4,0.4c1.8,2.4,2.7,5.2,3.2,8.1C434.4,85.4,434.6,88,434.5,90.6z"/>
<path class="st9" d="M13.9,114.6c0.3,0.6-0.2,1-0.2,1.7c-1.2-0.5-0.1-1.3-0.4-1.9c-0.2-0.4-0.1-0.8-0.1-1.2c0-15.9,0-31.8,0-47.7
	c0-0.4-0.1-0.8,0.1-1.2c0.6,0.1,0.3,0.8,0.5,1.1c0.6,0.3,0.5,0.9,0.5,1.5c0,15.4,0,30.9,0,46.3C14.4,113.7,14.5,114.2,13.9,114.6z"
	/>
<path class="st23" d="M13.3,64.2c0,16.7,0,33.4,0,50.1c-0.4-0.3-0.3-0.8-0.3-1.2c0-18.5,0-37,0-55.5c0-0.2,0-0.3,0.3-0.5
	C13.3,59.5,13.3,61.8,13.3,64.2z"/>
<path class="st23" d="M13.9,114.6c0.3-0.5,0.3-1.1,0.3-1.6c0-15.3,0-30.7,0-46.1c0-0.5,0-1.1-0.3-1.6c0.2,0,0.4,0,0.5,0.3
	c0.2,0.4,0.1,0.8,0.1,1.2c0,15.4,0,30.9,0,46.3c0,0.4,0.1,0.8-0.1,1.2C14.3,114.5,14.1,114.6,13.9,114.6z"/>
<path class="st10" d="M14.4,114.3c0-16.2,0-32.5,0-48.7c0.4,0.4,0.3,1,0.3,1.4c0,15.3,0,30.6,0,45.8
	C14.7,113.4,14.9,113.9,14.4,114.3z"/>
<path class="st23" d="M14.2,63c0-2.2,0-4.5,0-6.7c0.1,0,0.1,0,0.2,0c0,2.2,0,4.5,0,6.7C14.4,63,14.3,63,14.2,63z"/>
<path class="st24" d="M271.3,103.2c-0.1-7.9,0.8-15.5,4-22.8c1.1-2.4,2.4-4.7,4.5-6.4c2.9-2.4,6.5-2.4,9.3,0
	c2.8,2.3,4.3,5.5,5.5,8.8c4.3,12.6,4.2,25.2-0.5,37.7c-0.9,2.5-2.2,4.8-4.1,6.7c-3.3,3.5-7.7,3.5-11,0c-3.1-3.3-4.6-7.3-5.7-11.5
	C272.2,111.6,271.5,107.4,271.3,103.2z"/>
<path class="st24" d="M85.8,94.6c-1.9,0-3.8,0-5.6-0.3c-1.7-0.2-2.4-0.9-2.4-2.4c0.3-5.9,1.5-11.6,5.4-16.3c2.4-3,5.7-4.2,9.5-3.2
	c1.9,0.5,3.3,1.8,4.3,3.5c2.2,3.7,2.7,7.7,2.1,11.8c-0.6,3.9-3,5.8-7.4,6.3C89.6,94.3,87.7,94.4,85.8,94.6z"/>
<path class="st24" d="M467.1,94.6c-3.8-1-3.9-1-3.3-5.1c0.6-4.6,1.7-9,4.5-12.9c2.6-3.6,6.6-5.2,10.3-4.1c1.8,0.5,3.1,1.7,4,3.2
	c2.4,4,3.1,8.4,2.1,13c-0.5,2.7-2.4,4.1-4.9,4.9c-2.2,0.7-4.4,0.6-6.6,1C471.2,95.1,469.1,94.9,467.1,94.6z"/>
<path class="st9" d="M467.1,94.6c2,0,4,0,6,0c0.5,0,1,0.2,1.3,0.8c-1,0.1-1.7-0.8-2.7-0.3c0,0.6,0.8,0.3,1,0.8
	c-0.7,0.1-1.3,0.3-2,0.5c-0.2-0.5,1-0.4,0.4-1c-1-0.8-2.2-0.5-3.3-0.4c-0.8,0.1-0.2,0.8-0.2,1.3c-0.7,0.3-0.6-0.5-0.9-0.6
	c0-0.2-0.7-0.4,0-0.5C466.9,95.1,467.1,95,467.1,94.6z"/>
<path class="st9" d="M464.9,97.2c-0.2,0-0.4,0.2-0.6,0c0,0,0-0.3,0-0.3c0.9,0,1.2-1.3,2.2-1.1C465.9,96.1,465.7,97,464.9,97.2z"/>
<path class="st9" d="M465.6,97.5c-0.1,0-0.1,0.2-0.2,0.2c-0.2,0-0.3,0-0.4-0.2c0,0-0.2-0.2,0-0.2C465.3,97.2,465.5,97.1,465.6,97.5z
	"/>
<path class="st24" d="M387.7,92.5c-0.3,0.2-0.5,0.3-0.8,0.5c-0.6,0.7-1.4,0.9-2.2,0.8c-1,0.4-2,0.4-3.1,0.5c0,0.1-0.1,0.1-0.2,0
	c-1,0-1.9-0.1-2.8,0.2c-1.9,0.5-3.8,0.6-5.8,0c-4.6-0.7-3.9-1.9-3.5-5c0.5-4.4,1.6-8.6,4-12.3c1.9-2.9,4.4-4.9,8.1-5.1
	c3-0.2,5.2,1.1,6.8,3.6c0.2,0.3,0.4,0.6,0.6,0.9c1.4,1.2,1.4,3,1.7,4.5c0.5,2.5,0.7,5.1,0,7.8C390.1,90.6,389.3,91.8,387.7,92.5z"/>
<path class="st3" d="M387.7,92.5c2-1.6,2.6-3.7,2.8-6.2c0.1-3.3-0.4-6.6-1.7-9.6c0.6,0,1.1,0.9,1.9,0.4c0.3-0.2,0.5,0.9,0.9,1.4
	c0.4,0.4-0.1,0.5-0.6,0.7c-0.5,0.2-1.2,0.7-0.3,1.4c0.4,0.3,0.1,0.9,0.5,1.2c-1.1,1,0.2,2,0,3c-0.3,1.3,0,2.6-0.2,3.9
	c-0.1,0.7,0.3,1.5,0.3,2.3c0,1.3-0.7,1.3-1.5,1.2c-0.4,0-0.8-0.2-1.2,0c0,0.1,0,0.2,0,0.3c0.1,0.4,0.7,0.7,0.3,1.2
	c-0.1,0.2-0.4,0.1-0.6,0.1c-0.7-0.1-0.3-0.6-0.4-1C388,92.7,387.8,92.6,387.7,92.5z"/>
<path class="st3" d="M396.2,97.4c-8.1,0-16.2,0-24.2,0c0,0,0,0,0-0.1C380.1,97.3,388.2,97.3,396.2,97.4
	C396.3,97.3,396.2,97.3,396.2,97.4z"/>
<path class="st3" d="M378.9,95.8c-0.6,0.5-1.4,1-2.2,0.8c-1.8-0.4-3.8-0.1-5.9-0.7c1.1-0.6,1.9-0.2,2.7-0.3c0.5,0,0.7-0.1,0.8-0.6
	c1-0.3,2-0.1,3.1,0c-0.3,1-1.4,0.4-2,0.9c0.8,0.1,1.6,0.4,2.3-0.1C378,95.4,378.4,95.6,378.9,95.8L378.9,95.8z"/>
<path class="st3" d="M384.7,93.8c0.7-0.3,1.5-0.5,2.2-0.8c0.2,0.1,0.5,0.2,0.3,0.5C386.4,94.7,385.9,94.7,384.7,93.8z"/>
<path class="st13" d="M377.2,94.9c-1,0-2,0-3.1,0c-0.5,0.1-1,0.3-1.4-0.3c1.9,0,3.8,0,5.8,0c0.2,0,0.4,0,0.7,0.1
	C378.5,95.4,377.9,94.9,377.2,94.9z"/>
<path class="st3" d="M393.9,75.6c0.1,0.4-0.1,0.6-0.5,0.5c-0.4,0-0.9-0.1-0.9-0.6c0-0.5,0.4-0.4,0.8-0.5C393.7,75,394,75,393.9,75.6
	z"/>
<path class="st3" d="M378.9,95.8c0.5,0,0.8-1.4,1.5-0.2c0.1,0.2,0.5,0.3,0.3,0.7c-0.2,0.4-0.6,0.1-0.9,0
	C379.4,96.2,379.3,95.7,378.9,95.8L378.9,95.8z"/>
<path class="st3" d="M399.2,91c-0.4-0.1-0.3-0.4-0.2-0.6c0.1-0.3-0.1-1.1,0.7-0.9c0.2,0,0.3,0.3,0.5,0.4
	C399.4,89.9,399.9,91,399.2,91z"/>
<path class="st3" d="M400.2,90c0.3,0,0.7-0.1,0.6,0.4c0,0.5,0,1,0,1.5C399.7,91.5,400.4,90.6,400.2,90z"/>
<path class="st3" d="M399,93.3c0.4,0,0.6,0.1,0.6,0.5c0,0.2,0,0.4-0.2,0.4c-0.4,0-0.6-0.2-0.7-0.5C398.5,93.5,398.7,93.3,399,93.3z"
	/>
<path class="st3" d="M394.7,76.2c0,0.7-0.3,1-0.8,1c-0.2,0-0.4-0.3-0.3-0.4C393.8,76.6,394.2,76.4,394.7,76.2z"/>
<path class="st3" d="M381.4,94.4c0,0,0.1-0.1,0.2,0c0.2,0.1,0.4,0.1,0.6,0.2c0.2,0.2,0.4,0.5,0.1,0.7c-0.3,0.2-0.4-0.2-0.6-0.3
	C381.6,94.8,381.5,94.6,381.4,94.4z"/>
<path class="st3" d="M385.9,96.2c0.1,0,0.3-0.1,0.4-0.1c0.1,0,0.4,0,0.3,0.3c0,0.2-0.2,0.2-0.4,0.2
	C386.1,96.5,385.9,96.5,385.9,96.2z"/>
<path class="st3" d="M396.3,96.9c0.5-0.2,0.8,0,1.2,0.3C396.9,97.5,396.6,97.4,396.3,96.9z"/>
<path class="st3" d="M399,88.3c0,0.2,0,0.4-0.2,0.4s-0.2-0.2-0.2-0.4c0-0.2,0-0.4,0.2-0.4S399,88.1,399,88.3z"/>
<path class="st3" d="M391.4,81.7c-0.1-0.5-0.1-1,0.3-1.5C391.9,80.8,391.5,81.2,391.4,81.7z"/>
<path class="st3" d="M370.3,97.1c0.5,0,0.6,0.1,0.7,0.3c0,0.2-0.1,0.3-0.3,0.3c-0.1,0-0.4-0.1-0.4-0.3
	C370.2,97.2,370.3,97,370.3,97.1z"/>
<path class="st3" d="M399.6,92.2c-0.1,0.1-0.1,0.3-0.2,0.3c-0.2,0.1-0.3-0.1-0.3-0.2c0-0.1,0.1-0.2,0.2-0.3
	C399.4,92,399.5,92.2,399.6,92.2z"/>
<path class="st3" d="M400.7,92.7c0-0.3,0-0.5,0-0.8c0.1,0,0.4-0.2,0.5,0C401.4,92.3,401.1,92.6,400.7,92.7z"/>
<path class="st3" d="M396.4,82.5c0.3,0.1,0.4,0.3,0.3,0.6c0,0-0.2,0.1-0.2,0.1C396.3,83,396.3,82.7,396.4,82.5z"/>
<path class="st3" d="M382.1,96.4c-0.1,0-0.2,0.1-0.3,0.1c-0.1,0-0.3-0.1-0.2-0.2c0,0,0.1-0.1,0.2-0.1
	C381.9,96.1,382,96.2,382.1,96.4z"/>
<path class="st24" d="M365.5,170.3c0-2.2,0-4.4,0.6-6.6c0.6-1.9,1.9-3,3.9-3.1c1.9,0,3.3,0.9,4,2.8c1,2.8,0.8,5.6,0.7,8.4
	c0,1.6-0.1,3.1-0.6,4.6c-0.7,2-1.7,2.9-3.6,3c-1.9,0.1-3.4-0.8-4.2-2.6C365.4,174.8,365.5,172.5,365.5,170.3z"/>
<path class="st24" d="M396.6,172.5c0,1.5-0.3,2.9-0.9,4.3c-0.9,2-2.5,2.9-4.7,2.6c-1.6-0.2-2.8-1.4-3.1-3.1
	c-0.4-2.4,0.2-4.3,1.9-5.2c1.9-1,4.1-1,6.2-0.9c0.4,0,0.5,0.3,0.5,0.6C396.7,171.4,396.6,172,396.6,172.5z"/>
<path class="st24" d="M247,170.6c-0.1,1.8-0.1,3.8-0.7,5.8c-0.7,2.1-1.9,3-4,3.1c-2.5,0-3.9-0.7-4.6-2.9c-1.1-4.1-1.3-8.3-0.2-12.5
	c0.6-2.4,2.1-3.4,4.5-3.4c2.5,0,3.9,1.2,4.6,3.6c0.1,0.5,0.2,1,0.3,1.5C247.1,167.2,247.1,168.8,247,170.6z"/>
<path class="st24" d="M326.6,169.6c0,2.1-0.1,4.1-0.6,6.2c-0.6,2.5-1.9,3.6-4.4,3.7s-3.9-1-4.5-3.6c-0.9-3.7-1-7.5-0.2-11.2
	c0.6-2.9,2.1-4.1,4.9-4c2.6,0.1,4.1,1.6,4.6,4.4C326.6,166.6,326.6,168.1,326.6,169.6z"/>
<path class="st0" d="M107.1,149.5c0-2.2,0-2.2,2-2.2c1.8,0,2.7,0.7,2.7,2.2c0,1.7-1,2.5-3.2,2.5
	C107.1,151.9,107.1,151.9,107.1,149.5z"/>
<path class="st24" d="M68.4,156.6c-0.4,0.9-0.5,2-1.7,2.2c-2,0.4-3.2-0.3-3.4-2.3c-0.3-2.4-0.2-4.9,0-7.3c0.1-1.3,0.8-2.1,2.1-2.3
	c1.4-0.2,2.2,0.3,3.1,1.9C68.6,151.5,68.6,154,68.4,156.6z"/>
<path class="st13" d="M68.4,156.6c0-2.6,0-5.1,0-7.7c0-0.2,0-0.4,0.1-0.5c0.1-0.1,0.2,0,0.2,0.1c0.1,0.3,0.2,0.6,0.1,0.9
	c-0.4,2.2-0.1,4.5-0.2,6.7C68.6,156.3,68.5,156.5,68.4,156.6z"/>
<path class="st24" d="M158.6,148.1c0.1,0.3,0.2,0.7,0.3,1.1c0,2.3,0,4.7,0,7c-0.1,2.3-1.4,3.2-3.5,2.7c-1.2-0.3-1.4-1.4-1.8-2.2
	c-0.3-2.5,0-5-0.1-7.5c0-0.3,0.1-0.7,0.4-1C155.5,146.4,157,146.4,158.6,148.1z"/>
<path class="st10" d="M153.9,148.1c-0.6,2.8-0.1,5.7-0.3,8.5c-0.4-0.7-0.4-1.6-0.3-2.3c0.1-1.7,0.1-3.3,0-4.9
	C153.3,148.9,153,148.2,153.9,148.1z"/>
<path class="st10" d="M6.4,147.3c0.3,0.1,0.4-0.4,0.8-0.2c0,0,0,0.2,0,0.2C6.9,147.6,6.7,147.5,6.4,147.3L6.4,147.3z"/>
<path class="st24" d="M92.5,156.4c0-0.7,0-1.5,0-2.2c-0.3-1.8-0.6-3.7,0.2-5.5c1-1.7,1.9-2,3.9-1.4c0.8,0.6,1.2,1.5,1.2,2.5
	c0,1.9,0.1,3.8,0,5.8c-0.1,3.1-0.9,3.7-3.9,3.3l0,0C92.7,158.4,92.3,157.5,92.5,156.4z"/>
<path class="st7" d="M92.7,148.6c-0.4,1.8,0,3.7-0.2,5.5c-1.1-1.4-0.3-2.9-0.5-4.4c0-0.4,0-0.9,0.2-1.3
	C92.4,148.1,92.5,148.6,92.7,148.6z"/>
<path class="st7" d="M92.5,156.4c0.3,0.9,0.5,1.9,1.4,2.5c-0.6,0.1-1.6,1.1-1.5-0.6c0-0.5-0.6-0.1-0.9-0.4c0.2-0.5,0.5-1,0.7-1.5
	C92.3,156.4,92.4,156.4,92.5,156.4z"/>
<path class="st7" d="M90.9,154.9c0-0.4,0.2-0.7,0.5-0.6c0.8,0.3,0.7,1.1,0.8,1.7c0,0,0.3,0.4-0.2,0.3
	C91,156.1,91.3,155.3,90.9,154.9z"/>
<path class="st6" d="M166.1,158.9c0-3.3,0-6.6,0-9.9c0-0.5-0.2-1,0.3-1.4c0.4,0.3,0.3,0.8,0.3,1.2c0,3.1,0,6.3,0,9.4
	C166.6,158.3,167,159.1,166.1,158.9z"/>
<path class="st1" d="M160.5,150.1c0,1.3,0,2.5,0,3.8c0,0-0.1,0-0.1,0c0-1.3,0-2.5,0-3.8C160.4,150.1,160.4,150.1,160.5,150.1z"/>
</svg>
