<?xml version="1.0" encoding="utf-8"?>
<!-- Generator: Adobe Illustrator 22.1.0, SVG Export Plug-In . SVG Version: 6.00 Build 0)  -->
<svg version="1.1" id="Layer_1" xmlns="http://www.w3.org/2000/svg" xmlns:xlink="http://www.w3.org/1999/xlink" x="0px" y="0px"
	 viewBox="0 0 500 216" style="enable-background:new 0 0 500 216;" xml:space="preserve">
<style type="text/css">
	.st0{fill:#5D5D5D;}
	.st1{fill:#696969;}
	.st2{fill:#828282;}
	.st3{fill:#999999;}
</style>
<path class="st0" d="M153.4,118.7c-4.3,20.8-13.8,38.8-29.1,53.7c-1.3,1.3-2.6,2.5-3.9,3.7c-0.5,0.1-0.7,0-0.5-0.5
	c2.7-4.5,4.9-9.3,5.7-14.6c1.6-10.3-1.9-19.1-8-27.2c-5.1-6.7-11.4-12.3-17.9-17.7c-7.3-6.1-13.9-12.9-20.5-19.7
	c-0.7-0.7-1.1-1.2-0.4-2.2c5.5-8.3,11.3-16.4,19.5-22.1c10.8-7.4,22.5-7.8,34.4-2.4c1.3,0.6,1.7,0.6,2.4-0.7c1.1-2.5,2.5-5,4-8.1
	c1,4.9,2,9.4,2.9,13.8c1.5,7.4,2.8,14.8,4.5,22.1c0.6,2.7-0.1,4.8-1.9,6.6c-2.2,2.2-4.9,3.7-7.5,5.2c-1.4,0.8-2,0.4-2.5-1.1
	c-1.2-4-2.9-7.8-5.5-11.1c-1.5-1.9-3.2-3.4-5.6-4.1c-3-0.8-5.3,0.3-6.6,3c-3.5,7.3,1.2,18.5,8.9,21.2c2.8,0.9,5.4,0.6,8-0.7
	c6.7-3.3,12.7-7.7,17.7-13.4c0.8-0.9,1.4-2.1,2.1-3.1c0.9-1.2,1.9-1.6,3.2-0.4c2.3,2.3,4.6,4.7,7,7c0.8,0.8,0.7,1.7,0.6,2.6
	c-0.7,11.9-1.4,23.8-2.1,35.7c-0.1,1.7-0.3,3.4-0.3,5.2c0,4.3-2.2,7.2-6.1,8.6c-2.5,0.9-5.1,1.4-7.7,2.2c-1.1,0.3-1.6,0-1.2-1.1
	c1.1-3.8,2.2-7.7,3.4-11.5c0.3-1.2,1.4-0.8,2.2-0.8c3,0,3,0,2.9-3.1c-0.3-8.4-0.7-16.8-1-25.2c-0.2-0.3-0.2-0.6-0.3-0.9
	C153.8,118.1,153.6,118.5,153.4,118.7z"/>
<path class="st0" d="M115.9,175.1c1.7-6.2,1.7-12.2-0.1-18.3c-1.5-4.9-4.4-8.8-8.5-11.8c-7.5-5.5-16.1-9.1-24.5-12.9
	c-11.1-5-21.7-11-30.3-19.9C42,101.3,35.7,88.5,35.6,73.1C35.5,58.7,41.3,47,52,37.6C63.3,27.7,76.7,23.1,91.5,22
	c6.1-0.5,12.2-0.3,18.3,0.9c-2.7,0.5-5.4,0.8-8,1.4c-16.5,3.7-29.6,12.1-37.7,27.3c-5.8,10.9-5.3,21.6,0.6,32.3
	c5.6,10.2,13.8,18.2,22.3,25.9c7.4,6.6,15.2,12.7,22.3,19.5c6.6,6.3,11.9,13.4,13.1,22.8C123.6,160.7,121,168.3,115.9,175.1z"/>
<path d="M443.6,82.9c13.4,0,26.9,0,40.3,0c1.7,0,2.4,0.5,2.9,2.2c1.6,5.6,3.4,11,5.1,16.6c0.4,1.3,0.8,2.7-0.6,3.6
	c-1.3,0.8-2.4,0-3.3-0.9c-9.8-10.6-22.3-14.3-36.2-14.7c-7.8-0.2-15.6,0-23.3,0c-1.5,0-2.2,0.2-2.2,2c0.1,10.2,0,20.4,0,30.6
	c0,1.4,0.3,1.9,1.8,1.9c8.5-0.1,17,0,25.4,0c4.7,0,9.2-1.1,13.3-3.4c2.7-1.5,5.2-3.3,6.1-6.5c0.3-1.2,1.2-2.1,2.6-1.9
	c1.4,0.2,1.9,1.3,1.9,2.5c0,8.5,0,17,0,25.4c0,1-0.4,1.8-1.5,2.2c-1,0.3-2,0-2.4-0.9c-3.7-8-11.1-9.3-18.6-10.3
	c-9-1.2-18.2-0.3-27.3-0.5c-0.9,0-1.5,0.2-1.4,1.3c0.3,10.7-0.9,21.3,1.2,32c0.8,4.4,2.5,8.2,7.7,9.2c1.1,0.2,2,0.9,1.8,2.3
	c-0.2,1.6-1.5,1.6-2.7,1.6c-5.5-0.1-11-0.2-16.4-0.3c-6,0-12.1-0.1-18.1,0.3c-0.6,0-1.3,0-1.9,0c-1-0.1-1.9-0.4-2.1-1.6
	c-0.2-1.1,0.4-1.7,1.3-2.3c0.3-0.1,0.6-0.3,0.8-0.4c5.4-2,7.5-6.3,7.8-11.7c0.2-4,0.1-8,0.1-12c0-16.8,0-33.6,0-50.4
	c0-1.7-0.1-3.4-0.3-5.1c-0.3-3.1-1.6-5.3-4.9-6c-1.1-0.2-2.1-0.9-2-2.3c0.1-1.5,1.3-1.8,2.5-1.9c1-0.1,2-0.2,3.1-0.2
	C417.4,82.9,430.5,82.9,443.6,82.9z"/>
<path d="M349.2,179.3c-16.4-0.4-32.6-4.1-45.2-17.2c-7.4-7.6-11-17-12-27.4c-2.4-26,14.8-44.6,36.9-51.3c22-6.6,43.1-3.1,63.2,7.2
	c1.5,0.8,1.8,1.5,1.2,3.1c-1.9,5-3.6,10.2-5.4,15.3c-0.5,1.3-0.7,3-2.5,3c-1.9,0-2.1-1.8-2.6-3.2c-0.5-1.4-0.8-2.9-1.3-4.3
	c-2.5-6.8-6.9-11.7-13.7-14.4c-8.7-3.4-17.6-4.4-26.8-2.5c-9.9,2.1-17,8.2-21.1,17.2c-6.6,14.6-7.4,29.6-1.6,44.6
	c5.4,14.2,16.4,21.3,31.1,22.9c6.4,0.7,12.7,0.4,18.7-2.1c8.9-3.7,14.3-10.6,18.1-19.2c0.1-0.4,0.3-0.8,0.4-1.1c0.4-1,1-2,2.3-2
	c1.4,0,2,1,2.4,2.2c0.9,3.1,1.8,6.1,2.8,9.2c0.2,0.6,0.3,1.2,0.5,1.8c1.3,4.6,1.3,4.6-2.7,7.3c-9,5.8-19,8.7-29.5,10.1
	C358.3,179,354.2,179.1,349.2,179.3z"/>
<path d="M193,122.2c0-9.2,0.1-18.4,0-27.6c0-3.8-1.5-6.9-5.6-8c-1.1-0.3-2.3-0.9-2-2.5s1.6-1.7,2.7-1.7c4.1,0.1,8.3,0.3,12.4,0.4
	c5.7,0.2,11.3-0.3,16.9-0.5c0.8,0,1.7,0,2.5,0.3c1.5,0.7,1.7,2.1,0.4,3.2c-0.2,0.2-0.5,0.4-0.8,0.5c-5.5,1.4-6.2,5.7-6.2,10.2
	c0,17,0,33.9,0,50.9c0,12,7.1,20.8,19.2,23.8c8.7,2.1,17.4,1.8,26.1-0.6c10.2-2.9,15.6-10.1,17.6-20.3c0.7-3.5,1-7.1,1-10.7
	c0-10.5,0-21.1,0-31.6c0-4.1-0.5-8.1-1.8-12c-1.4-4-3.7-7-7.5-8.9c-0.5-0.2-1-0.5-1.4-0.8c-0.8-0.6-1.3-1.4-1-2.4
	c0.3-1.1,1.2-1.5,2.1-1.6c1.1-0.1,2.2-0.1,3.3,0c6.6,0.7,13.3,0.6,20,0c1.2-0.1,2.4,0,3.5,0c0.8,0.1,1.6,0.5,1.9,1.5
	c0.3,1-0.1,1.7-0.8,2.3c-0.3,0.2-0.6,0.5-0.9,0.7c-7.1,4.1-9.6,10.7-10.1,18.3c-0.7,11.2-0.1,22.4-0.3,33.7c0,4.9-0.4,9.8-1.6,14.7
	c-2.8,11.2-9.4,19.2-20.5,22.5c-17,5-34.2,4.6-50.8-1.5c-12.1-4.4-18-13.9-18-26.8c0-8.6,0-17.1,0-25.7
	C193.1,122.2,193.1,122.2,193,122.2z"/>
<path class="st0" d="M108.6,178.4c1.6-8.2-0.8-14.7-7.9-19.7c-6.3-4.5-13.7-6.5-21.1-8.2c-14.5-3.3-28.6-7.8-41.2-15.9
	c-18-11.6-26.3-28.3-25.4-49.5c0.7-14.6,7.5-26.5,17.8-36.5c5.3-5.1,11.2-9.4,18.2-13.1c-0.9,2-2.3,3-3.3,4.1
	c-6.5,7.5-11.5,15.6-13.1,25.6c-2.6,16,1.7,30.1,11.6,42.6c9.6,12.1,21.9,20.7,36,26.8c7.8,3.4,15.7,6.7,22.9,11.5
	c7.4,4.9,11.6,11.5,10.6,20.8C113.3,171.3,111.6,175.2,108.6,178.4z"/>
<path class="st0" d="M9.1,89.4c0.9,13.5,4.8,25.8,13.7,36.3c6.8,8.1,15.6,13.4,25.1,17.9c11.6,5.5,24,8.6,36.3,11.8
	c5.9,1.6,11.6,3.8,16.4,8c6.1,5.3,6.1,13.6,0.7,19.5c-0.2-6.3-2.1-8.7-8.3-10.7c-3.8-1.2-7.7-1.5-11.6-1.6
	c-14.9-0.7-29.5-2.9-43.4-8.6c-9.1-3.8-17.3-9-23.1-17.1c-5.1-7.1-7.4-15.4-8.8-23.8c-2-11.8-1-23.4,1.9-35c0.1-0.3,0.2-0.6,0.3-0.9
	C9.7,86.4,8.4,88.1,9.1,89.4z"/>
<path class="st0" d="M18,155.5c1.4,0,1.9,0.8,2.6,1.2c13.3,8.7,27.9,14.1,43.6,16.2c7.8,1,15.7,0.5,23.5,1.3c2.8,0.3,5.6,0.9,7.8,3
	c3.5,3.2,3.4,7.6-0.3,10.6c-3.8,3-8.4,3.8-13.1,3.9c-20.3,0.7-37-7.4-51.4-21.1C26,166,21.8,161.1,18,155.5z"/>
<path class="st0" d="M106.9,43.9c-5.9,1.5-9.4,4.9-10.8,10.7c-1.5-5.8-4.9-9.3-10.8-10.7c5.7-1.5,9.3-4.8,10.7-10.7
	C97.7,39,101,42.5,106.9,43.9z"/>
<path class="st1" d="M9.1,89.4c-1-1.3,0.2-2.9-0.8-4.2c0.1-0.7,0.3-1.3,0.4-2c0.1,0,0.2,0,0.4,0C9.1,85.3,9.1,87.3,9.1,89.4z"/>
<path class="st2" d="M119.9,175.7c0.2,0.2,0.3,0.3,0.5,0.5c-0.4,0.7-1,1.3-1.9,1.8C118.7,176.8,119.4,176.3,119.9,175.7z"/>
<path class="st3" d="M153.4,118.7c-0.1-0.7,0-1.2,0.7-1.6c0.3,0.5,0.2,1,0.1,1.6C154,118.7,153.7,118.7,153.4,118.7z"/>
</svg>
