<?xml version="1.0" encoding="utf-8"?>
<!-- Generator: Adobe Illustrator 22.1.0, SVG Export Plug-In . SVG Version: 6.00 Build 0)  -->
<svg version="1.1" id="Layer_1" xmlns="http://www.w3.org/2000/svg" xmlns:xlink="http://www.w3.org/1999/xlink" x="0px" y="0px"
	 viewBox="0 0 500 216" style="enable-background:new 0 0 500 216;" xml:space="preserve">
<style type="text/css">
	.st0{fill:#FEFEFE;}
	.st1{fill:#4D4D4D;}
	.st2{fill:#969696;}
</style>
<g>
	<path class="st0" d="M268.9,154.6c-87.8,0-175.5,0-263.3,0c-1.7,0-2.3-0.2-2.3-2.2c0.1-29.4,0.1-58.8,0-88.3c0-1.9,0.5-2,2.2-2
		c162.8,0,325.5,0,488.3,0c1.6,0,2.2,0.1,2.2,2c-0.1,29.5-0.1,59,0,88.5c0,1.7-0.5,1.9-2,1.9c-71.3,0-142.7,0-214,0
		c0.2-1.3,1.4-1.1,2.3-1.3c7.4-1.6,13.4-5.2,17.4-11.8c2.1-3.3,3.2-7,3.6-10.9c0.6-6.7,0.7-13.3-3.1-19.3
		c-3.6-5.7-8.8-8.9-15.2-10.4c-6.6-1.5-13.2-1.3-19.7,0.6c-10.1,2.8-17.3,11.9-17.7,22.4c-0.2,5.7-0.2,11.4,2.4,16.7
		c3.2,6.4,8.3,10.4,15.2,12.3C266.4,153.2,268.2,152.8,268.9,154.6z"/>
	<path class="st1" d="M268.9,154.6c-1.7-0.5-3.5-0.9-5.2-1.4c-10-3-16.6-11.9-16.9-22.3c-0.1-4.9-0.2-9.8,1.6-14.4
		c3.8-10.1,11.5-15.2,21.9-16.6c5.2-0.7,10.4-0.5,15.5,0.8c11.4,2.9,17.8,10.9,18.4,22.7c0.5,10.4-2.1,19.7-11,26.2
		c-3.6,2.6-7.6,4-11.9,4.7c-0.4,0-1-0.1-1.2,0.5C276.3,154.6,272.6,154.6,268.9,154.6z"/>
	<path class="st1" d="M11.6,108.4c0-9,0-16.3,0-23.6c0-1.8-0.5-2.5-2.3-2.2C7,83,6,82.1,6.2,79.5c0.2-3.1,0.1-6.3,0-9.4
		c0-1.5,0.5-1.9,1.9-1.8c7.8,0,15.5,0,23.3,0c1.3,0,1.8,0.4,1.7,1.8c-0.1,3.5-0.1,6.9,0,10.3c0,1.6-0.3,2.2-2.1,2.2
		c-3.2-0.1-3.2,0-3.2,3.1c0,10.7,0,21.5,0,32.2c0,4,0.1,8,1.3,11.9c1.4,4.6,4.1,6.7,8.8,7c8.1,0.5,12.1-2.8,12.8-11
		c1.1-13.9,0.3-27.9,0.5-41.8c0-1.7-1-1.4-2-1.4c-3.2-0.1-3.2-0.1-3.2-3.4c0-3.1,0-6.3,0-9.4c0-1.2,0.3-1.5,1.5-1.5c8,0,16,0,24,0
		c1.3,0,1.4,0.6,1.4,1.6c0,3.6-0.1,7.2,0,10.8c0,1.5-0.5,2-1.9,1.8c-0.4,0-0.8,0-1.2,0c-1.8-0.3-2.3,0.4-2.3,2.2
		c0.1,12.8,0,25.6,0,38.5c0,4.2-0.5,8.5-1.5,12.6c-2.5,9.7-8.4,15.7-18.4,17.5c-7.2,1.2-14.2,1.2-21-1.6
		c-8.8-3.6-13.7-10.1-14.8-19.6C11.1,123.6,12,115.1,11.6,108.4z"/>
	<path class="st1" d="M104.2,68.3c9,0,17.9,0,26.9,0c1.6,0,2.2,0.3,2.2,2.1c-0.1,6.1-0.1,12.2,0,18.3c0,1.4-0.3,2-1.9,1.9
		c-3.7-0.1-7.4-0.1-11.1,0c-1.3,0-1.8-0.3-1.6-1.6c0-0.3,0-0.6,0-1c0-5.4,0-5.4-5.3-5.4c-4.8,0-9.6,0-14.4,0c-1.7,0-2.2,0.5-2.2,2.2
		c0.1,5.4,0.1,10.7,0,16.1c0,1.5,0.4,1.9,1.9,1.9c5.3-0.1,10.6,0,15.9-0.1c2,0,2.4,0.6,2.3,2.4c-0.1,3.5-0.1,6.9,0,10.3
		c0,1.4-0.4,1.7-1.8,1.7c-5.4,0-10.7,0-16.1-0.1c-1.9,0-2.3,0.5-2.2,2.3c0.1,5.7,0.1,11.4,0,17.1c0,1.7,0.2,2.6,2.2,2.3
		c2.5-0.5,3.3,0.5,3.1,3c-0.2,3.2-0.1,6.4,0,9.6c0,1.3-0.3,1.8-1.7,1.8c-7.8,0-15.5,0-23.3,0c-1.4,0-2-0.4-1.9-1.9
		c0.1-3.5,0.1-7.1,0-10.6c0-1.6,0.4-2.2,2-2c0.5,0,1,0,1.4,0c1.7,0.2,2.1-0.4,2.1-2.1c0-17.2,0-34.4,0-51.7c0-1.7-0.3-2.5-2.2-2.4
		c-3.4,0.1-3.4,0-3.4-3.5c0-2.7,0.2-5.5,0-8.2c-0.2-2.3,0.7-2.6,2.7-2.6C86.6,68.4,95.4,68.3,104.2,68.3z"/>
	<path class="st1" d="M404.3,100.3c7.4,0.2,15.1-0.8,22.6,0.9c9.7,2.1,15.7,8.8,16.5,18.9c0.7,7.9-0.6,15.5-5.7,21.9
		c-5.7,7.2-13.4,10.8-22.5,11.2c-8.7,0.3-17.3,0.1-26,0.2c-0.6,0-1.3,0.3-1.5-0.6c-0.1-0.8,0.1-1.4,0.9-1.7c2.8-1,2.9-3.1,3-5.7
		c0.4-12.1,0-24.2-0.1-36.3c0-4.3,0-4.2-4.1-5.1c-0.9-0.2-2.3,0.2-2.3-1.7c0-1.4,0.4-1.9,1.9-1.9C392.7,100.2,398.4,101,404.3,100.3
		z"/>
	<path class="st1" d="M321.8,126.7c0,6.4,0,12.8,0,19.2c0,3.3,0.6,3.8,4,3.9c0.8,0,2.2-0.8,2.3,1.1c0.1,1.5,0,2.4-2.1,2.4
		c-6.7-0.2-13.5-0.1-20.2,0c-1.2,0-1.9,0-1.9-1.6c0-1.4,0.4-1.9,1.9-1.9c4.2,0,4.3-0.2,4.5-4.5c0.6-12.4,0.7-24.8,0-37.2
		c-0.2-3.6-0.2-3.5-3.7-4.1c-1.1-0.2-2.9,0.5-2.7-1.9c0.1-1.2,0.3-1.7,1.6-1.6c2.7,0.2,5.4,0.4,8.2,0.3c6.6,0,13.3-0.2,19.9-0.4
		c2.1,0,4.2,0.2,6.2,0.7c6.2,1.3,9.5,7.6,7.6,14c-1.4,4.8-4.8,7.8-9.2,9.8c-1.3,0.6-1.9,1-0.9,2.5c4.7,6.8,8.9,13.9,14,20.3
		c0.9,1.2,1.8,2.2,3.5,2.2c1.7,0,0.9,1.3,1.1,2.1c0.2,1.1-0.3,1.3-1.3,1.3c-4.1,0-8.2-0.1-12.3,0c-1,0-1.2-0.6-1.5-1.2
		c-4.5-7.7-9-15.4-14.1-22.8c-0.4-0.6-0.9-1.2-1.3-1.7c-0.5-0.6-1.4-1-1.1-2c0.4-1.2,1.5-0.6,2.3-0.7c0.9-0.1,1.8,0,2.6-0.2
		c4.9-1,8-6,7.5-12c-0.4-4.6-4-7.8-8.8-8.1c-6-0.3-6-0.3-6.1,5.5C321.7,115.6,321.7,121.1,321.8,126.7
		C321.7,126.7,321.8,126.7,321.8,126.7z"/>
	<path class="st1" d="M481.6,153.2c-3.4,0-6.7,0-10.1,0c-0.9,0-2,0.4-2-1.2c0-1.3,0.1-2,1.7-2.2c4.8-0.4,4.8-0.5,3-5
		c-1-2.5-1.4-5.9-3.3-7.2c-1.8-1.3-5.1-0.3-7.7-0.4c-3.3,0-6.6,0-9.9,0c-1.2,0-1.7,0.4-2.1,1.4c-0.9,2.7-1.8,5.4-2.7,8.1
		c-0.7,1.9,0.1,2.9,2.1,3c0.8,0,1.6,0.1,2.4,0.1c1.5,0,1.3,1.1,1.3,2c0,1.1-0.4,1.3-1.4,1.3c-4.9,0-9.8,0-14.7,0
		c-0.9,0-1.6,0-1.5-1.2c0.1-0.9-0.3-2.3,1.2-2.1c3.5,0.3,4.5-2,5.5-4.5c5.9-14.3,11.8-28.6,17.4-42.9c0.5-1.3,0.7-2.6,2.7-2.4
		c1.8,0.2,3.7-0.5,4.8,2.2c6.2,14.9,12.7,29.6,19,44.4c0.9,2,1.9,3.5,4.4,3.2c1.5-0.2,1.8,0.7,1.8,2.1c0,1.6-0.9,1.3-1.9,1.3
		C488.3,153.2,484.9,153.2,481.6,153.2L481.6,153.2z"/>
	<path class="st1" d="M181.2,100.3c5.4,0,11.3-0.1,17.3,0c2.7,0,2.9,0.4,2.5,3.2c-0.3,2.5-0.6,5.1-0.8,7.6c0,1.1-0.4,1.5-1.5,1.5
		c-1.1,0-2-0.1-1.8-1.5c0-0.2,0-0.5,0-0.7c-0.1-4.6,0.9-4.5-4.9-5.3c-3.6-0.5-7.2-0.1-10.8-0.1c-1,0-1.2,0.4-1.3,1.3
		c-0.7,5.5-0.2,11.1-0.3,16.5c0,1.2,0.8,1,1.5,1c3,0,5.9,0,8.9,0c2.3,0.1,3.3-0.9,3.1-3.1c-0.1-1.4,0-2.3,1.9-2.4
		c2.2,0,1.8,1.3,1.8,2.5c0,3.9,0,7.8,0,11.8c0,1.3,0.1,2.3-1.8,2.3c-2,0-2.1-0.9-2-2.4c0-0.6,0-1.1,0-1.7c-0.2-1.3-0.7-2.2-2.4-2.5
		c-3.3-0.5-6.5-0.2-9.8-0.4c-1.2,0-1.3,0.5-1.3,1.5c0.1,5.9-0.2,11.8,0.4,17.7c0.2,1.6,0.9,2.3,2.4,2.5c1.1,0.1,2.2,0.3,3.4,0.3
		c1.4,0,1.6,0.8,1.6,2c0,1.4-0.9,1.2-1.8,1.2c-7.4,0-14.7,0-22.1,0c-0.9,0-1.6-0.1-1.5-1.3c0-1-0.1-1.9,1.3-2.1
		c1.5-0.2,3.4,0.7,4.5-0.9c0.9-1.3,0.6-3.1,0.7-4.7c0.2-8.5,0.2-17,0.2-25.5c0-4.1-0.1-8.2-0.4-12.3c-0.1-1.8-0.7-2.7-2.5-2.6
		c-0.7,0-1.4-0.3-2.1-0.3c-1.5,0.1-1.5-0.8-1.6-2c0-1.5,0.9-1.4,1.9-1.4C169.3,100.2,175,101,181.2,100.3z"/>
	<path class="st1" d="M224.9,153.2c-5.7,0-11.4,0-17.1,0c-0.6,0-1.3,0.3-1.6-0.6c-0.1-0.8,0-1.5,0.8-1.8c3.1-1,3.2-3.4,3.3-6.1
		c0.5-12.3,0.5-24.7,0-37c-0.1-3.5-0.2-3.5-3.8-3.8c-1.4-0.1-3.2,0.3-2.9-2.3c0.1-1.1,0.4-1.6,1.6-1.5c7,0.5,14.1,0.3,21.1,0
		c1,0,1.7,0,1.7,1.3c0,1.1,0.1,2.1-1.5,2.4c-4.7,0.6-4.7,0.7-4.7,5.6c0,12.2,0,24.3,0,36.5c0,1.7,0.2,2.4,2.2,2.3
		c4.9-0.1,9.8,0.2,14.6-0.5c1.7-0.2,2.5-1,2.9-2.6c0.3-1.5,0.9-2.9,1-4.4c0.1-1.9,1.3-1.7,2.5-1.6c1.5,0.1,1,1.3,0.9,2
		c-0.3,3.3-0.7,6.7-1,10c-0.2,1.9-1.5,1.8-2.8,1.8c-5.7,0-11.4,0-17.1,0C224.9,153.1,224.9,153.2,224.9,153.2z"/>
	<path class="st1" d="M371.3,100.3c3.5,0,6.9,0,10.3,0c1,0,1.7,0.1,1.6,1.4c0,1,0.2,2.2-1.4,2.2c-0.1,0-0.1,0-0.2,0
		c-5,0.7-5,0.7-5.1,5.9c0,11.9,0,23.7,0,35.6c0,3.9,0.5,4.4,4.4,4.5c1.3,0,2.3,0,2.3,1.8c0,2.1-1.2,1.6-2.4,1.6
		c-6.7,0-13.5,0-20.2,0c-1.2,0-2,0-1.9-1.5c0-1.4,0.4-2.1,1.9-1.9c0.8,0.1,1.6,0,2.4-0.1c1.3-0.2,1.9-0.8,2-2.2
		c0.7-13.5,0.7-26.9,0.1-40.4c-0.1-2.5-1.1-3.2-3.3-3.2c-1.3,0-3.3,0.6-3.1-2.1c0.1-1.3,0.4-1.6,1.7-1.6
		C364.1,100.3,367.7,100.3,371.3,100.3z"/>
	<path class="st2" d="M146.3,110.6c0-13.2,0-26.4,0-39.6c0-2.5,0.5-2.9,2.9-2.6c0.8,0.1,1.2,0.3,1.2,1.2c0,0.5,0,1,0,1.4
		c0,26.5,0,53,0,79.5c0,1.1,0.6,2.5-1.4,2.6c-1.8,0.1-2.7-0.2-2.7-2.4C146.3,137.3,146.3,123.9,146.3,110.6z"/>
	<path class="st1" d="M303.7,78.6c2.7,0,4.6-0.6,5.3-3c0.5-1.6,0.4-3-0.7-4.3c-1.1-1.3-2.6-1.3-4.2-1.2c-1,0-1.1,0.7-1.1,1.5
		c0,5.2,0,10.4,0,15.6c0,1.3,0.7,1.6,1.8,1.7c0.6,0,1.2,0.2,1,1c-0.1,0.7-0.7,0.6-1.1,0.6c-2.6,0-5.3,0-7.9,0
		c-0.5,0-1.2,0.1-1.3-0.7c0-0.6,0.4-0.8,1-0.8c1.7,0,1.8-1.2,1.8-2.5c0-4.8,0-9.6,0-14.4c0-1.3,0-2.5-1.8-2.3c-0.5,0-1-0.3-0.9-0.9
		c0-0.6,0.6-0.7,1.1-0.7c4.2,0.5,8.5-0.3,12.7,0c2.3,0.2,4.1,1.1,4.6,3.4c0.6,2.4-0.3,4.7-2.4,5.8c-2.6,1.3-1.8,2.5-0.6,4
		c2,2.5,3.1,5.8,6.1,7.6c0.4,0.2,0.4,0.6,0.3,1.1c-0.1,0.4-0.4,0.3-0.8,0.4c-3.3,0.8-5.3-0.1-7-3C307.8,84.7,306.1,81.7,303.7,78.6z
		"/>
	<path class="st1" d="M197.2,73.9c0,5,0,9.3,0,13.7c0,1.3,0.8,1.4,1.7,1.5c0.4,0.1,1.1,0,1,0.7c0,0.6-0.5,0.7-1,0.7
		c-1.9,0-3.8,0-5.8,0c-0.5,0-1,0-1.1-0.7c0-0.7,0.5-0.8,1-0.8c1.7,0,1.8-1.1,1.8-2.5c0-4.8,0-9.6,0-14.4c0-1.3,0.1-2.5-1.8-2.3
		c-0.5,0-1-0.3-1-0.8c0-0.8,0.7-0.7,1.3-0.7c1.5,0,3,0.1,4.6,0c1.3-0.1,1.8,0.9,2.4,1.7c3.7,4.7,7.4,9.2,11.6,13.8
		c0.7-2,0.2-3.9,0.3-5.7c0-1.8,0-3.5,0-5.3c0-1.4,0.5-3.3-2.1-3c-0.4,0-0.7-0.3-0.7-0.8c0-0.7,0.5-0.7,1-0.7c1.8,0,3.7,0,5.5,0
		c0.5,0,1-0.1,1.2,0.5c0.1,0.7-0.3,1.1-1,1c-1.6-0.1-1.5,0.9-1.6,2c-0.2,5.4-0.1,10.9,0,16.4c0,0.9,0.6,2.4-0.4,2.6
		c-1.2,0.3-2.5,0-3.6-1.3c-3.7-4.5-7.4-8.8-11.2-13.2C198.8,75.6,198.2,75,197.2,73.9z"/>
	<path class="st1" d="M180.9,77.6c0-1.7,0-3.4,0-5.1c0-1.4,0.1-2.8-2-2.7c-0.5,0-0.9-0.3-0.8-0.9c0-0.5,0.5-0.6,0.9-0.6
		c1.8,0,3.7,0,5.5,0c0.5,0,1,0,1.1,0.6c0,0.6-0.4,0.9-0.9,0.9c-1.4,0-1.3,1-1.4,2c-0.2,4.1,0.1,8.2-0.4,12.2c-0.5,4.2-2.9,6.6-7.2,7
		c-1.9,0.2-3.8,0.2-5.7-0.4c-3.8-1.1-5.4-3-5.4-7.1c0-3.8,0-7.7,0-11.5c0-1.3-0.1-2.3-1.7-2.2c-0.5,0-1-0.3-1-0.8
		c0-0.8,0.7-0.7,1.3-0.7c2.6,0,5.3,0,7.9,0c0.5,0,1.1,0,1.1,0.7c0,0.6-0.4,0.9-1,0.8c-1.6,0-1.8,1.1-1.8,2.3c0,3.8-0.1,7.5,0,11.3
		c0.1,3.4,1.9,4.9,5.7,4.9c3.7,0,5.6-1.6,5.8-4.9C181,81.4,180.9,79.5,180.9,77.6L180.9,77.6z"/>
	<path class="st1" d="M279.1,68.1c2.1,0,4.2,0.1,6.3,0c2.1-0.1,2.7,0.8,2.1,2.7c-0.1,0.5-0.2,1.1-0.2,1.6c0,0.4-0.2,0.8-0.7,0.8
		c-0.5,0-0.8-0.3-0.7-0.8c0.3-2.3-1.3-2.1-2.8-2.1c-4.7-0.1-4.7-0.1-4.7,4.7c0,1-0.5,2.6,0.4,2.8c1.5,0.4,3.3,0.1,5,0.1
		c0.4,0,0.5-0.5,0.6-1c0-0.6-0.1-1.4,0.9-1.3c1,0.2,0.5,1,0.5,1.6c0,1.4,0,2.9,0,4.3c0,0.4,0.1,1.1-0.6,1.1c-0.6,0-0.8-0.4-0.9-0.9
		c-0.5-3.6-3.3-1.5-5-1.7c-1.9-0.2-0.9,1.6-1.1,2.5c-0.1,0.9,0,1.7,0,2.6c0,3.3,0.1,3.4,3.3,3.3c0.9,0,1.8-0.2,2.6-0.2
		c1.5,0,2.4-0.5,2.5-2.2c0-0.7,0.1-1.4,1-1.3c0.8,0.1,0.5,0.9,0.4,1.4c-0.3,4.5,1.1,4.3-4.2,4.3c-3.6,0-7.2,0-10.8,0
		c-0.4,0-1,0.2-1.3-0.3c-0.2-0.6,0.2-0.9,0.7-1.1c0.7-0.4,0.7-1,0.7-1.6c0.4-5.1,0.4-10.1,0.2-15.1c0-1.2,0.1-2.7-1.9-2.5
		c-0.5,0-0.7-0.3-0.7-0.8c0-0.7,0.6-0.6,1-0.7c2.4,0,4.8,0,7.2,0C279.1,68.3,279.1,68.2,279.1,68.1z"/>
	<path class="st1" d="M334.1,68c0.2,0,1-0.1,1.8,0c3.1,0.4,4.4,2.6,3.1,5.5c-0.2,0.4-0.4,0.7-0.9,0.6c-1-0.1-0.7-0.9-0.8-1.4
		c-0.3-2.1-1.6-2.9-4.4-2.8c-2.4,0-4,1.2-4.3,3c-0.3,2,0.6,3.3,2.5,3.8c1.5,0.4,3.1,0.6,4.7,1c4.7,1.1,6.4,5.4,3.8,9.6
		c-2.1,3.3-6.6,4.8-11.4,3.8c-0.5-0.1-1.1-0.2-1.6-0.4c-1.7-0.5-3-1.2-2-3.3c0.5-1-0.6-2.9,0.7-3.1c1.6-0.2,0.6,1.7,1.1,2.6
		c0.9,1.7,4.1,3,6.6,2.5c2-0.5,3.4-1.6,3.4-4c0-1.7-0.9-2.7-2.4-3.1c-1.6-0.5-3.3-0.8-4.9-1.2c-2.9-0.8-4.2-2.2-4.6-5.1
		c-0.3-2.5,1-5.2,3.2-6.5C329.4,68.1,331.4,67.8,334.1,68z"/>
	<path class="st1" d="M463.9,70.5c-3.9-3.1-4.5-2.9-5.7,2c-0.7,2.7-0.7,2.6,2.1,2.7c0.6,0,1.8-0.7,1.9,0.7c0.1,1.2-0.7,1.8-1.8,1.5
		c-2.8-0.6-3.5,1-4,3.4c-0.9,4.3-2.1,8.5-3.3,12.7c-1,3.2-2.8,5.9-5.5,7.9c-0.6,0.4-1.2,0.8-1.9,1c-0.8,0.2-2.3,0.5-2.3-0.3
		c-0.1-1.3,0.3-2.6,1.2-3.8c0.3-0.4,0.6,0.2,0.9,0.4c1.6,1.3,2.6,1.1,3.2-1.1c0.8-3.2,1.4-6.3,2.1-9.6c0.6-3,1.1-6,1.7-8.9
		c0.4-1.6,0-2.1-1.5-1.9c-0.5,0-1.3,0.3-1.4-0.4c-0.2-0.9,0.8-1,1.3-1.1c1.9-0.3,2.5-1.6,3.2-3.2c1.6-3.8,5.1-5.9,8.7-7.4
		c1.6-0.7,2.4,0.1,2,2c-0.1,0.5-0.2,1.1-0.3,1.6C464.3,69.4,464.1,69.9,463.9,70.5z"/>
	<path class="st1" d="M254.3,85.1c1.9-4.9,3.6-9.3,5.3-13.8c0.4-1.1-0.1-1.4-1.2-1.4c-0.6,0-1.2,0-1.2-0.8c0-1,0.8-0.8,1.4-0.8
		c1.6,0,3.2,0,4.8,0c0.5,0,1-0.1,1.2,0.5c0.2,0.7-0.1,1-0.8,1.1c-1.3,0.1-1.5,1.3-1.9,2.2c-2.4,5.6-4.7,11.2-7,16.8
		c-0.3,0.8-0.5,1.7-1.8,1.7c-1.4,0-1.7-0.7-2.1-1.7c-2.3-5.4-4.6-10.9-6.9-16.3c-0.5-1.3-0.9-2.8-2.8-2.8c-0.5,0-0.6-0.4-0.6-0.9
		c0-0.5,0.4-0.7,0.8-0.7c3,0,5.9,0,8.9,0c0.4,0,0.7,0.2,0.8,0.7c0,0.6-0.2,0.9-0.9,0.9c-2.2,0-1.5,1.2-1.1,2.3
		C250.8,76.3,252.5,80.4,254.3,85.1z"/>
	<path class="st1" d="M403.4,78.7c1.8-3.2,3.5-6.1,5.1-9c0.4-0.7,0.7-1.7,1.9-1.6c0.5,0,1.2-0.2,1.5,0.4c0.2,0.5-0.2,0.9-0.5,1.3
		c-1.9,2.9-3.9,5.9-5.8,8.8c-1.9,2.9-1,6.1-0.9,9.1c0,0.9,0.8,1.1,1.6,1.2c0.5,0.1,1.2,0,1.2,0.9c0,0.9-0.7,0.7-1.2,0.7
		c-2.6,0-5.3,0-7.9,0c-0.5,0-1.2,0.1-1.3-0.7c0-0.8,0.6-1,1.1-0.9c1.6,0,1.5-1.1,1.6-2.2c1-6.5-3.1-10.9-6.5-15.6
		c-0.6-0.9-3.1,0.1-2-2c0.5-0.9,5.3-1,6.1-0.3c1.6,1.5,2.5,3.5,3.6,5.3C401.7,75.5,402.5,76.9,403.4,78.7z"/>
	<path class="st1" d="M375.2,68.4c2.8,0,5.6,0.1,8.4,0c1.5-0.1,1.9,0.4,1.7,1.7c0,0.4,0,0.8,0,1.2c-0.2,0.8,0.6,2.2-0.8,2.4
		c-1.3,0.1-0.9-1.3-1-2c-0.1-0.8-0.5-1.1-1.3-1.2c-1.1,0-2.1,0-3.1-0.1c-1.1-0.1-1.5,0.3-1.5,1.4c0,5.1,0,10.2,0,15.4
		c0,1.2,0.5,1.7,1.6,1.9c0.5,0,1.3-0.1,1.2,0.8s-0.8,0.7-1.3,0.7c-2.7,0-5.4,0-8.2,0c-0.4,0-1,0.1-1.1-0.6c0-0.7,0.3-0.8,0.9-0.8
		c1.8-0.1,2-1.3,2-2.7c0-4.8,0-9.6,0-14.4c0-1.3-0.3-1.8-1.6-1.6c-0.6,0.1-1.3,0-1.9,0c-1.7-0.1-2.8,0.3-2.7,2.4c0,0.5,0,1-0.7,1
		c-0.7,0-0.7-0.5-0.7-1c0-0.1,0-0.3,0-0.5c-0.2-3.8-0.2-3.8,3.6-3.8C370.9,68.5,373,68.4,375.2,68.4L375.2,68.4z"/>
	<path class="st1" d="M428.6,86.7c0.1-7.1,5.1-12.3,11.5-12c3.4,0.1,5.2,1.4,5.5,4.8c0.7,7.8-4,13.3-11.3,13.7
		C430.3,93.4,428.5,91.3,428.6,86.7z"/>
	<path class="st1" d="M353.5,90.6c-1.3,0-2.7,0-4.1,0c-0.5,0-1,0-1.1-0.6c-0.1-0.6,0.3-0.9,0.8-0.9c1.9,0,1.9-1.4,1.9-2.7
		c0-4.7,0-9.5,0-14.2c0-1.3-0.1-2.5-1.9-2.3c-0.6,0-0.9-0.3-0.8-0.9c0-0.7,0.6-0.7,1.1-0.7c2.7,0,5.4,0,8.2,0c0.5,0,1,0.1,1,0.7
		c0,0.6-0.3,1-0.9,0.9c-1.8-0.2-1.8,1-1.8,2.3c0,4.8,0,9.6,0,14.4c0,1.3,0,2.4,1.8,2.4c0.5,0,1,0.2,0.9,0.9c0,0.8-0.7,0.7-1.3,0.7
		C356.1,90.6,354.8,90.6,353.5,90.6z"/>
	<path class="st1" d="M229.1,90.6c-1.3,0-2.5,0-3.8,0c-0.5,0-1,0-1-0.7c0-0.6,0.2-0.9,0.8-0.9c1.6,0,1.6-1.1,1.7-2.3
		c0.4-5,0.3-9.9,0-14.9c0-1.1,0-2.2-1.6-2c-0.5,0-0.9-0.2-0.9-0.8c0-0.8,0.6-0.8,1.2-0.8c2.5,0,5.1,0,7.7,0c0.5,0,1.2-0.1,1.2,0.7
		c0,0.8-0.4,1-1.1,0.9c-1.3-0.1-1.4,0.6-1.4,1.6c-0.2,5.1-0.3,10.2-0.1,15.4c0,1.2,0.2,2.1,1.6,2.1c0.7,0,1.1,0.3,1,1.1
		c-0.1,0.7-0.7,0.5-1.1,0.6C231.8,90.6,230.4,90.6,229.1,90.6z"/>
	<path class="st0" d="M275.2,103.8c7.6,0.1,12.6,3.7,15.2,11.2c2.8,8.1,2.7,16.3,0.1,24.5c-2.1,6.4-6.5,10.1-13.3,10.7
		c-7.2,0.6-12.7-2.4-15.7-9c-4.1-9.2-4.4-18.8-1-28.2C262.9,106.8,268.2,103.7,275.2,103.8z"/>
	<path class="st0" d="M402.6,126.3c0.1-6.9-0.1-13.3,0.4-19.6c0.1-1.3,0.4-1.9,1.7-2c5.4-0.4,10.7-0.6,15.9,1
		c5.1,1.6,8.2,5.4,9.8,10.4c2.4,7.4,2,14.7-1,21.8c-2.7,6.6-7.8,10.1-14.9,10.8c-3.2,0.3-6.4,0.2-9.6,0c-1.5,0-2-0.7-2.1-2.2
		C402.3,139.6,402.8,132.7,402.6,126.3z"/>
	<path class="st0" d="M461.3,113.5c2.6,6.4,5,12.2,7.5,17.9c0.5,1.2,0,1.4-1,1.4c-4.2,0-8.5,0-12.7,0c-1.3,0-1.3-0.6-0.9-1.4
		C456.4,125.7,458.7,119.9,461.3,113.5z"/>
	<path class="st0" d="M441.1,81.4c0,2.6-0.6,5.1-1.7,7.4c-0.8,1.8-2.2,2.8-4.2,2.4c-2-0.4-2.3-2.1-2.3-3.7c0-2.8,0.6-5.5,1.6-8.2
		c0.8-1.9,2.1-3.1,4.3-2.5c2.1,0.5,2.3,2.2,2.3,3.9C441.1,80.9,441.1,81.1,441.1,81.4z"/>
</g>
</svg>
