<?xml version="1.0" encoding="utf-8"?>
<!-- Generator: Adobe Illustrator 22.1.0, SVG Export Plug-In . SVG Version: 6.00 Build 0)  -->
<svg version="1.1" id="Layer_1" xmlns="http://www.w3.org/2000/svg" xmlns:xlink="http://www.w3.org/1999/xlink" x="0px" y="0px"
	 viewBox="0 0 500 216" style="enable-background:new 0 0 500 216;" xml:space="preserve">
<style type="text/css">
	.st0{fill:#FEFEFE;}
	.st1{fill:#434343;}
	.st2{fill:#939393;}
	.st3{fill:#949494;}
	.st4{fill:#454545;}
	.st5{fill:#484848;}
	.st6{fill:#464646;}
	.st7{fill:#4C4C4C;}
	.st8{fill:#4B4B4B;}
	.st9{fill:#494949;}
	.st10{fill:#474747;}
	.st11{fill:#FCFCFC;}
	.st12{fill:#515151;}
	.st13{fill:#4E4E4E;}
	.st14{fill:#FBFBFB;}
	.st15{fill:#FAFAFA;}
	.st16{fill:#505050;}
	.st17{fill:#767676;}
	.st18{fill:#A9A9A9;}
	.st19{fill:#AEAEAE;}
	.st20{fill:#C6C6C6;}
	.st21{fill:#747474;}
	.st22{fill:#D4D4D4;}
	.st23{fill:#FDFDFD;}
	.st24{fill:#E9E9E9;}
</style>
<g>
	<path class="st0" d="M2,125.9C2,85.1,2,44.2,1.9,3.4c0-3,0.6-3.6,3.6-3.6c164.3,0.1,328.7,0.1,493,0c3,0,3.6,0.6,3.6,3.6
		c-0.1,62.8-0.1,125.7,0,188.5c0,3.4-0.7,4.1-4.1,4.1c-124.3-0.1-248.7-0.1-373-0.1c-1.9-2.1-1.4-4.7-1.4-7.2c0-17,0-34,0-51
		c0-0.3-0.1-0.7,0-1c0.6-4.8,3.3-8.2,6.5-8.4c3.1-0.2,6.2,3.3,7.1,7.9c0.6,3,0.3,6,0.3,9c0,11.8,0,23.7,0,35.5c0,1.5,0,3-0.3,4.5
		c-0.8,5.5-0.8,5.3,5,5.3c3.3,0,3.8-1.1,3.1-4.2c-1.6-7.2-0.7-14.6-0.6-21.9c0-3.3,2-4.8,5.1-4.8c4.7-0.1,9.3-0.3,14,0.5
		c1.9,0.3,4.3,1.1,4.5-2.1c0.2-3-1.9-3.5-4.2-3.6c-4-0.1-8,0-12,0c-6.5-0.1-7.4-1-7.5-7.7c0-2.7,0-5.3,0.1-8
		c0.1-4.1,2.2-6.1,6.3-6.2c6.7-0.1,13.3-0.5,19.9,1.4c1.9,0.6,3.7,1,3.8-2c0.1-2.5-0.7-3.7-3.4-3.6c-7.3,0.2-14.7,0.1-22,0.1
		c-11,0-21.9-0.1-33.5,0c2.7,3.6,2.8,7.5,2.8,11.5c0,9.8,0,19.7,0,29.5c0,0.3,0,0.7,0,1c-0.2,2.2,0.7,5.4-1.8,6.2
		c-2.2,0.7-3.5-2.1-4.8-3.7c-3.1-3.7-6.1-7.5-9.1-11.3c-7.6-9.9-15.6-19.5-23.3-29.4c-2-2.6-4.3-3.9-7.6-3.9c-6.3,0.1-12.7,0.2-19,0
		c-3.4-0.1-4.2,1-2.9,4.1c0.6,1.4,0.5,2.9,0.5,4.4c0.1,11.7-0.2,23.3,0.1,35c0.2,9-8.6,15.7-17.6,16.3c-8.4,0.5-16.4-5.8-17-14.3
		c-0.9-13.5-0.5-27-0.1-40.5c0-1.7,0.9-3.2,1.4-4.7c-1-2.4-3.1-1-4.7-1.3C9,126.7,5.3,128.2,2,125.9z"/>
	<path class="st0" d="M2,125.9c5.3,0,10.5-0.1,15.8,0c1,0,3.4-0.8,2.1,1.9c-3.5,0.4-6.9,0.5-10.4,0.5c-1.5,0-3.1-0.3-2.8,2.3
		C8.3,142.7,7,154.9,7.4,167c0.1,2.3,0.2,4.7,0.5,7c1.8,11.1,6.1,15.7,17.1,17.9c7.4,1.5,14.3,0,20.6-3.9c5.9-3.7,8.9-9.3,8.9-16.3
		c0-9.3,0-18.7,0-28c0-3.9,0.5-7.7,2.3-11.1c1.2-2.2,2.8-4.3,5.8-4c2.7,0.3,4.4,2.2,5.5,4.6c1.1,2.3,1.2,4.8,1.2,7.3
		c0,13.7,0,27.3,0,41c0,3-0.5,5.9-1.9,8.5c0.7,0.6,1.2,0.7,1.7,0.7c6.5,0.3,6.4,0.3,5.4-5.8c-1.9-13.1-0.6-26.1-0.8-39.1
		c0-1.6,0.1-3.6,2.1-4.1c1.9-0.5,3.1,1.1,4.1,2.4c7.9,9.9,15.8,19.8,23.6,29.8c3.2,4.1,6.4,8.1,9.6,12.1c1.2,1.4,2.4,2.8,3.9,3.8
		c1.4,0.9,2.7,2.6,4.4,1.9c1.8-0.8,1.2-2.9,1.2-4.5c0.1-14.7,0-29.3,0.1-44c0-2.3-0.9-5.2,2.2-6.5c0,19.8,0.1,39.5,0.1,59.3
		c-39.7,0-79.5,0-119.2,0.1c-3,0-3.9-0.4-3.9-3.7C2.1,170.1,2,148,2,125.9z"/>
	<path class="st1" d="M124.9,136.6c-1.2,2.2-0.7,4.6-0.7,6.9c0,15.8-0.2,31.7,0.1,47.5c0.1,4.4-1.4,4.2-4.4,2.5
		c-3.2-1.9-5.9-4.2-8.2-7.2c-11.8-14.8-23.5-29.5-35.3-44.3c-3.1,8.9-0.9,44.6,3.1,49.8c-5.1,0-10,0-15.5,0
		c5.1-4.6,4.2-10.4,4.2-16.1c0-11.5,0-23,0-34.5c0-3.2-0.1-6.4-1.9-9.1c-2.4-3.6-5.5-3.7-7.9-0.1c-2,3.1-2.1,6.6-2.1,10.1
		c-0.1,8.7,0,17.3-0.1,26C56,186,43.3,196.5,25.5,193.6c-12.6-2.1-18.8-9-19.1-22.2c-0.3-10.8-0.1-21.7-0.1-32.5
		c0-4.1,0.1-8.3-3.8-12.4c6.5,1,12.1-1.1,17.4,1.4c-2.8,1.5-3.1,4.2-3.2,6.8c0,12.5-0.2,25,0.3,37.4c0.4,9.5,7.1,15.1,16.2,14.5
		c8.7-0.6,16.5-6.2,16-16.1c-0.5-10.8-0.2-21.6-0.1-32.5c0-3.9-0.2-7.6-3.6-11.3c10.7,0,20.4,0.1,30.1-0.1c2.2,0,2.7,1.5,3.7,2.7
		c12.3,15.5,24.5,31.1,37,46.8c1.4-1.6,0.7-3.3,0.7-4.8c0.1-11,0-22,0.1-33c0-4.3-0.5-8.2-5-11.7c7.3,0,13.5,0,19.8,0
		c13.7,0,27.3,0.1,41-0.1c2.9-0.1,3.3,0.8,3.2,3.2c-0.1,2.3,0,4.6,0,7.5c-8.1-3.7-16.3-3.4-24.6-3.4c-3.6,0-5.7,0.8-5.2,5.1
		c0.5,4.4-1.8,10.3,0.8,13c2.9,3,8.8,0.6,13.4,1c0.3,0,0.7,0,1,0c9.3-0.1,9.3-0.1,8.4,9.9c-6.4-2.3-13-1.9-19.6-2.1
		c-2.9-0.1-4.2,0.6-4,3.8c0.2,5.8,0.1,11.7,0,17.5c0,3.4,0.8,6.5,3,9.7c-5.5,0-10.5,0-16.2,0c3.3-4,3.1-8.6,3.1-13.2
		c-0.1-12,0-24,0-36c0-2.2,0.1-4.4-0.4-6.5c-0.7-3.1-1.8-6.9-5.5-6.8C126.5,129.5,125,132.9,124.9,136.6z"/>
	<path class="st2" d="M43,50.8C28.5,39.2,20.3,24,16.9,6c-0.3-1,0.2-1.3,1.1-1c7,14.7,17.6,26.1,31.6,34.5
		c7.1,4.2,12.1,10.9,18.5,15.9c9.8,7.8,20.8,13.6,31.6,19.9c5.2,3,10.2,6.3,14.6,10.4c2.6,2.4,3.7,5.4,4.4,8.7
		c0.2,1,0.4,2.1-0.5,2.8c-1.2,1-1.7-0.4-2.4-0.8c-0.1-0.1-0.3-0.2-0.4-0.3c-3.4-1.7-7.5-4.9-10.6-2.6c-2.6,1.9-1.8,7.2-0.4,10.3
		c1.6,3.4,3.9,7.8,10.2,5c-6.9,6.4-11.9,4.1-20.6-8.5c-1.3,3.4-2.5,6.7-3.8,9.9c-0.8,2.1-2.2,2.7-3.7,0.8c-1.9-2.5-3.4-1.6-5.4-0.2
		c-1.5,1-3.3,1.7-4.9,2.4c-0.9,0.4-2.4,1.1-2.7,0c-1.3-6.5-5.3-2.1-8.2-2.2c-2.4-0.1-4.8,1.5-8.2-0.1c3-2.8,5.7-5.4,8.5-7.9
		c4.5-4,8.7-8.2,12.5-12.9c2.6-3.2,2.1-4.4-2-5.2c-13.2-2.4-25.7-6.7-37.4-13.5c-0.5-0.3-1-0.6-2.5-1.6c7,0.4,12.5,3,19.4,1.7
		c-6.9-3.7-13.7-6.4-19.1-11.3S26.3,49.9,23.2,43.1c5.9,3,10.8,7.6,17.4,8.9C43.1,52.6,43.1,52.6,43,50.8z"/>
	<path class="st3" d="M78.9,23c3.7,8.3,8.6,15.8,14.7,22.5c3,3.3,5,7,5.9,11.3c1.1,5.3,3.5,10.3,5,15.7c-10.3-5.4-20.5-10.9-26.1-22
		c3.1,1.5,5.5,4.4,10.1,5.5c-6-6.9-11-13.2-13.7-20.9C74.4,34,75,33.8,75.9,34c2.7,3.4,4.6,7.5,9.5,10.5c-2.8-6.8-7.1-11.9-7.5-18.4
		C77.8,24.9,76.5,23.3,78.9,23z"/>
	<path class="st4" d="M396.4,167.5c7.6,0.1,13.3,5.6,13.1,12.7c-0.2,7-6.2,12.6-13.5,12.6c-7.4,0-13.3-5.5-13.3-12.6
		C382.7,172.9,388.6,167.5,396.4,167.5z"/>
	<path class="st5" d="M254.7,152.4c-7.5-5.5-11.1-13.3-17.7-19.9c0.2,6.5-0.7,12.2,0.8,18c-1.4,0.6-2.8,0.5-4.3,0.1
		c1.4-6.7,0.4-13.5,0.8-20.2c0.1-1.2-2.3-2.8,0.3-3.6c1.9-0.6,3.4,0.2,4.7,1.9c3.4,4.5,7,8.9,10.5,13.3c0.5,0.6,1.1,1.2,2.1,2.3
		c0-5.8,0.3-10.9-0.1-15.9c-0.2-2.2,0.9-1.7,1.8-1.7c0.9,0,2.3-0.6,2,1.5C254.2,135.9,255.4,143.6,254.7,152.4z"/>
	<path class="st4" d="M233,179.5c0.3-7.2,6.5-12.3,14.4-11.9c7.3,0.4,12.8,6.1,12.5,12.9c-0.4,7.1-6.9,12.8-14.3,12.4
		C238.1,192.4,232.6,186.7,233,179.5z"/>
	<path class="st5" d="M324.5,168.3c3.1-0.7,4.9-0.8,4.5,3.7c-0.6,5.9-0.2,12,0.1,17.9c0.1,2.5-1.2,2.2-2.7,2.3
		c-2,0.1-1.7-0.9-1.6-2.4c0.7-9.3,0.6-9.2-8.7-9.3c-3.6-0.1-4.7,1.1-4.3,4.5c0.2,1.6-0.1,3.3,0.2,5c0.4,2.5-1.2,2.2-2.7,2.2
		c-2,0.1-1.6-0.9-1.6-2.5c0.2-6.5,0.3-13-0.1-19.4c-0.1-1.8-0.1-2.5,1.7-2.2c1.1,0.2,3.4-1,2.7,1.9c-0.3,1.1-0.1,2.3-0.3,3.5
		c-0.5,3.4,0.6,5.1,4.2,4.4c0.2,0,0.3,0,0.5,0C326,177.9,326,177.9,324.5,168.3z"/>
	<path class="st6" d="M449.2,179.8c0-2.2,0.4-4.4-0.1-6.5c-1.2-5.2,1.3-5.6,5.6-5.5c10.3,0.4,15.5,4.2,15.4,12.1
		c-0.1,6.6-4.5,11.3-11.5,12c-9.5,1-9.5,1-9.5-8.2C449.2,182.5,449.2,181.2,449.2,179.8z"/>
	<path class="st7" d="M419,191c-4.6,2-4.9,1.9-4.8-2.8c0-6-0.1-12-0.1-18c0-0.8-1.2-2.2,0.6-2.2c3.9,0,8.1-1,11.7,1.2
		s3.8,6.8-0.1,9.5c-2.7,1.8-2.3,2.9-0.5,4.8c2.4,2.5,4.6,5.2,7.1,8.1c-2.6,0.9-4.6,0.5-6.4-1.7c-2.2-2.7-4.3-5.4-6.5-8.1
		c-1.9-1.2-1.2-2.4,0.1-3.5c1-0.9,2.3-1.4,2.8-2.7c0.6-1.4,0.3-2.7-1.3-3.2c-1.5-0.5-2.1,0.7-2.2,1.9C419,179.9,417.6,185.4,419,191
		z"/>
	<path class="st8" d="M323.9,149c-0.1,3.4-2.7,1.7-4,1.7c-2.2,0-0.6-1.7-0.6-2.6c0-6.1,0.3-12.3-0.1-18.4c-0.2-2.7,0.6-3.1,2.8-3
		c1.8,0.1,3.7,0,5.5,0.1c3.1,0.1,5.6,1.2,6.5,4.4c0.8,2.9-0.5,5.2-3,6.8c-0.7,0.4-1.3,0.9-2.2,1.4c3,4,5.8,7.9,9.9,10.8
		c-4.6,0.8-5.1,0.7-7.4-2.1c-2.2-2.7-4.3-5.5-6.4-8.2c-1.5-1.2-1.1-2.1,0.3-3.1c1.1-0.7,2.4-1.3,2.9-2.6c0.5-1.4,0.2-2.7-1.3-3.2
		s-2.1,0.7-2.2,1.9C323.9,138.3,322.7,143.6,323.9,149z"/>
	<path class="st5" d="M269,180.9c-0.1,2.8-0.4,5.7-0.1,8.4c0.2,2.3-0.3,2.9-2.5,2.9c-2.6,0-1.6-1.5-1.6-2.9c0.1-7,0.6-13.9-0.4-21
		c3.2-0.5,6.5-0.5,9.8,0c2.6,0.4,4.7,1.7,5.3,4.6c0.5,2.6-0.4,4.8-2.6,6c-2.8,1.5-2.4,2.7-0.6,4.7c2.4,2.7,4.4,5.7,8,8
		c-3.8,1.3-6,0.1-7.8-2.3c-2.1-2.8-4.2-5.5-6.4-8.3c-0.5-2.4,1.7-2.8,2.9-4c1-1,1.6-2.1,0.8-3.5c-0.4-0.7-1.2-1.3-2-1
		c-1.3,0.5-1.3,1.7-1.4,2.9C270.1,177.2,270.3,179.2,269,180.9z"/>
	<path class="st4" d="M210,173.6c0.5,6.4-0.5,11.6,0.7,16.7c0.1,0.6,0.5,1.4-0.2,1.7c-0.9,0.3-2,0.3-2.9,0.1
		c-1.4-0.3-0.4-1.2-0.3-1.9c0.7-7.2,1-14.5-0.4-21.8c2.7-1.1,4.5,0.1,6.3,2.6c3.7,5,7.7,9.8,12.1,14.4c0.2-5.7,1.3-11.3-0.5-16.9
		c1.4-0.8,2.9-0.4,4.4-0.2c-2,8.1-0.2,16.3-1.2,25.3C220.4,188.1,216.8,180.2,210,173.6z"/>
	<path class="st9" d="M226.1,136c0,1.8,0,3.7,0,5.5c-0.2,6.7-3.5,10-9.7,9.9c-6.3-0.1-9.3-3.4-9.5-10.2c-0.1-4.1,0.1-8.3-0.4-12.4
		c-0.3-2.4,0.9-2,2.1-2c1.3,0,2.5-0.3,2.4,2c-0.3,4.6-0.3,9.3-0.2,13.9c0.1,4,2.4,6.2,6.4,6c3.8-0.2,6.3-2.1,6.2-6.3
		c0-4.5,0.1-9-0.2-13.4c-0.1-1.9,0.5-2.3,2.1-2.2c1.9,0.1,1.3,1.1,1.2,2.3c-0.2,2.3-0.1,4.6-0.1,7C226.3,136,226.2,136,226.1,136z"
		/>
	<path class="st6" d="M471.4,191.8c2.9-7.2,5.7-14.1,8.4-21c0.5-1.2-0.2-2.9,2.3-2.9c1.9,0.1,3,0.6,3.8,2.4c2.4,6,4.8,12,7.3,18
		c0.4,1.1,1.1,2,1.6,3.1c-4.3,1.1-4.3,1.1-5.6-2.8c-1.9-5.5-3.8-6.6-9.6-5.5c-3.3,0.7-3.1,3.7-3.6,5.8
		C475.3,191.8,474.3,193,471.4,191.8z"/>
	<path class="st6" d="M340.2,146.4c3.3,1.2,5.9,3,9,2.2c1.8-0.4,3.6-1,3.9-3.3c0.3-1.9-0.9-3.1-2.4-4c-1.9-1-3.9-1.9-5.8-2.9
		c-2.7-1.4-4.5-3.4-4-6.7c0.5-3.4,3-4.6,5.8-5.2c1.3-0.3,2.7-0.5,3.9-0.4c1.8,0.3,4.9-0.4,4.5,2.4c-0.5,3.4-2.7,0.1-4.1,0.3
		c-2.3,0.2-5-0.3-5.8,2.5c-0.7,2.7,1.6,3.7,3.6,4.7c1.8,0.9,3.6,1.7,5.3,2.8c4.4,2.8,4.5,7.4,0.4,10.5
		C349.5,152.9,341.9,151.6,340.2,146.4z"/>
	<path class="st10" d="M314.6,146.5c-1.4,5-2.9,5.3-15.2,4c0.9-7.1,0.6-14.2,0.3-21.3c-0.1-1.9-0.3-2.7,1.9-2.6c2.7,0.1,5.3,0.1,8,0
		c1.6,0,2.6,0.4,2.3,2.2c-0.3,2.3-1.7,0.7-2.5,0.6c-3.2-0.5-6.1-0.9-5.7,4c0.2,2.2,0.9,2.9,3,2.8c1.3,0,3.4-0.7,3.1,1.8
		s-2.1,0.8-3,0.8c-2.6-0.2-3.4,1.1-2.9,3.2c0.5,2-2.1,5.4,2.3,5.8C309,148.1,311.8,148.3,314.6,146.5z"/>
	<path class="st10" d="M295.1,126.3c-3.2,8.3-6.1,15.4-8.7,22.7c-1.2,3.3-2.6,2.4-4,0.6c-1-1.3-1.7-2.9-2.2-4.4
		c-2.3-6-4.5-12.1-6.8-18.1c3-1.2,4.3-0.1,5.3,2.9c1.6,5.2,3.7,10.3,5.9,16.3c2.3-6.5,5.3-11.8,6.1-17.9
		C291.1,124.8,293.2,127.6,295.1,126.3z"/>
	<path class="st9" d="M347.4,168c3.7,0,7,0.1,10.3,0c1.7-0.1,2.4,0.5,2.2,2.3c-0.3,2.4-1.7,0.6-2.5,0.7c-2.4,0.3-6-1.8-5.7,3.4
		c0.1,2.4,0.4,3.8,3.3,3.5c1.1-0.1,3-0.6,2.8,1.6c-0.1,1.9-1.7,1.2-2.7,1.1c-2.7-0.4-3.6,0.7-3.4,3.3c0.2,2-0.1,4,0.2,6
		c0.4,2.4-1,2.3-2.6,2.3c-2,0.1-1.7-0.9-1.6-2.4C348,182.6,348.4,175.5,347.4,168z"/>
	<path class="st9" d="M291.1,181.9c0-1.8-0.2-3.7,0-5.5c0.5-4.1-0.4-6.9-5.4-5.4c-0.9,0.2-1.7,0.4-1.6-0.8c0-1,0.4-2.1,1.6-2.2
		c5.1-0.1,10.3-0.1,15.4-0.1c1.3,0,1.2,0.8,1,1.7s-0.1,2-1.8,1.5c-5.8-2-5.6,1.8-5.4,5.7c0.2,4.5,0,9,0.5,13.4
		c0.2,1.9-0.4,2.1-1.6,1.9c-1.1-0.2-3.2,1.2-3-1.7c0.2-2.8,0-5.6,0-8.4C291,181.9,291,181.9,291.1,181.9z"/>
	<path class="st10" d="M414,126.8c-4.1,8-12.3,13.8-7.5,23.6c-4.3,1.5-6.2,0.7-5-4.4c1.4-5.7-2.5-9.7-5.2-14c-0.9-1.6-2-3-3-4.6
		c3.7-0.6,3.7-0.6,10.2,9C408.8,135.3,406.3,126,414,126.8z"/>
	<path class="st10" d="M383.8,150.5c-3.9,1.3-5.5,0.5-4.8-4.1c0.6-4.4,0-9,0.2-13.5c0.2-3.3-1.1-4.1-4.1-3.6
		c-0.9,0.2-2.8,1.7-2.9-0.8c0-1.7,1.5-1.8,3-1.8c4.3,0,8.7,0,13,0c0.9,0,2.2-0.3,2,1.4c-0.1,1.4-0.6,2.2-2.2,1.6
		c-4.7-1.7-5.3,0.8-5,4.7C383.4,139.7,382.3,145.2,383.8,150.5z"/>
	<path class="st8" d="M380.9,188.3c0,2.8-1.1,3.8-3.6,3.9c-11,0.7-11,0.8-11-10.2c0-3.3,0.5-6.8-0.2-9.9c-0.9-4.3,0.7-4.8,4.5-3.9
		c-0.8,5.2-0.4,10.6-0.5,16c0,5,1,5.9,6.1,5.3C377.7,189.3,379.1,188.7,380.9,188.3z"/>
	<path class="st8" d="M267.6,150.5c-3.3,0.9-5.2,1-4.6-3.8c0.7-5.7,0.4-11.6,0-17.3c-0.2-2.4,0.5-2.7,2.5-2.7c2.3,0,1.8,1,1.8,2.7
		C267,136.4,266.6,143.4,267.6,150.5z"/>
	<path class="st9" d="M363,139.2c0-3.3,0.3-6.7-0.1-10c-0.2-2,0.1-2.7,2.2-2.5c1.6,0.1,2.3-0.1,2.2,2.4c-0.4,6.6-0.3,13.3,0.2,19.9
		c0.2,2.7-1.3,1.8-2.2,1.7c-0.9,0-2.7,1-2.4-1.6c0.3-3.3,0.1-6.6,0.1-10C362.9,139.2,363,139.2,363,139.2z"/>
	<path class="st11" d="M429,149c-1.7,2.3-3.9,1.3-6,0.8c-2.2-5.5-1.1-8.7,4.1-13l-0.1,0.1c2-1,3.8-0.7,5.5,0.8
		C434.1,142.3,432.5,146,429,149z"/>
	<path class="st12" d="M441.8,168.3c-0.9,7.2-0.8,14.4-0.2,21.4c0.2,2.3-0.4,2.5-2.2,2.5c-1.9,0-2.4-0.4-2.2-2.6
		c0.3-5.9,0.8-12,0.1-17.8C436.8,167.4,438.5,167.5,441.8,168.3z"/>
	<path class="st13" d="M446.2,129.1c-0.8,7.2-5.7,21.7-8.8,26c-1.8-0.2-0.9-1.1-0.6-2c1.3-4.3,2.6-8.6,3.8-12.9
		c0.3-1.1,1.4-2.7-0.9-3.2c-0.3-0.1-1.2-0.6-0.7-0.7C443.3,135.7,443,130.7,446.2,129.1z"/>
	<path class="st14" d="M323.9,149c-1.7-5.9-0.3-11.8-0.7-17.7c-0.1-1.7,0.8-2.4,2.4-2.4c2,0,3.6,0.6,4.4,2.6c0.7,1.9,0.1,3.4-1.3,5
		c-1.2,1.3-4.4,0.3-3.9,3.4C323,142.8,324.5,146,323.9,149z"/>
	<path class="st14" d="M419,191c-2-6.1-0.4-12.5-0.9-18.7c-0.1-1.4,0.8-1.7,1.9-1.8c1.7-0.2,3.4,0.1,4.5,1.6c1,1.3,1,2.9,0.3,4.3
		c-0.7,1.4-1.9,2.3-3.5,2.6c-2,0.4-1.8,1.6-1.2,2.9C417.9,184.7,419.5,188,419,191z"/>
	<path class="st15" d="M269,180.9c-0.1-2.2-0.3-4.3-0.3-6.5c0-1.5-0.8-3.6,1.8-3.9c1.9-0.3,3.6,0.2,4.7,2c1.2,1.9,0.4,3.4-0.7,5
		c-1.2,1.6-4.1,0.8-4.5,3.4C269.6,180.9,269.3,180.9,269,180.9z"/>
	<path class="st16" d="M427,136.8c-3.1,3.8-4.7,8.1-4.1,13c-3.3-0.4-3.2-3.1-2.8-5.2C420.9,140.9,422.5,137.4,427,136.8z"/>
	<path class="st12" d="M429,149c1.3-3.6,3.8-6.8,2.9-11c-0.3-1,0-1.4,1.1-1.2C436.3,142,434.6,147.3,429,149z"/>
	<path class="st17" d="M448.4,127.2c2-0.6,4.4-0.1,3.9,1.7c-0.8,3.1-1.9,1.2-2.6-0.5C449.5,127.9,448.9,127.6,448.4,127.2z"/>
	<path class="st18" d="M78.9,23c-1.1,0.8-0.7,2-1,3.1c-1.4-2-1-4.1-0.5-7.7C78.1,20.7,78.5,21.8,78.9,23z"/>
	<path class="st19" d="M75.9,33.9c-0.4,0.4-0.7,0.8-1.1,1.1c-1.1-1.1-1.4-2.4-1.6-3.9C75.3,31.4,75.4,32.8,75.9,33.9z"/>
	<path class="st20" d="M18,4.9c-0.4,0.3-0.7,0.7-1.1,1c-1.2-1.2-0.8-2.7-0.8-4.4C17.6,2.4,17.8,3.6,18,4.9z"/>
	<path class="st21" d="M433,136.9c-0.4,0.4-0.7,0.8-1.1,1.2c-1.4-1.5-3.2-1.1-4.9-1.2C428.9,135,430.9,135.3,433,136.9z"/>
	<path class="st22" d="M43,50.8c0.8,0.5,1.6,1,2.7,1.7c-2.1,0.5-3.5,0.6-4.8-0.6C41.7,51.8,42.6,51.8,43,50.8z"/>
	<path class="st23" d="M405.2,180.7c-0.1,5.6-3.6,9.3-8.9,9.3c-5.5,0-9.6-4.5-9.5-10.6c0.1-5.6,4.2-9.6,9.5-9.4
		C401.6,170.3,405.3,174.8,405.2,180.7z"/>
	<path class="st23" d="M246.7,190c-5.3,0.1-9.5-4.2-9.7-10c-0.2-5.5,3.7-9.8,8.9-10c5.3-0.2,9.7,4.6,9.6,10.6
		C255.6,186.1,251.9,189.9,246.7,190z"/>
	<path class="st23" d="M466,180.1c0,5.8-4.7,10-10.5,9.5c-1.9-0.2-2.6-0.9-2.5-2.8c0.1-3.3-0.1-6.7,0.1-10c0.1-2-1.4-4.8,1.2-5.7
		c2.5-0.9,5.3-0.5,7.7,1C465,173.9,466,176.8,466,180.1z"/>
	<path class="st24" d="M482.6,171.6c1.2,2.9,2.2,5.5,3.4,8.6c-2.4,0-4.5,0-6.8,0C479.8,177.2,480.8,174.5,482.6,171.6z"/>
</g>
</svg>
