<?xml version="1.0" encoding="utf-8"?>
<!-- Generator: Adobe Illustrator 22.1.0, SVG Export Plug-In . SVG Version: 6.00 Build 0)  -->
<svg version="1.1" id="Layer_1" xmlns="http://www.w3.org/2000/svg" xmlns:xlink="http://www.w3.org/1999/xlink" x="0px" y="0px"
	 viewBox="0 0 500 216" style="enable-background:new 0 0 500 216;" xml:space="preserve">
<style type="text/css">
	.st0{fill:#FEFEFE;}
	.st1{fill:#585858;}
	.st2{fill:#777777;}
	.st3{fill:#9B9B9B;}
	.st4{fill:#818181;}
	.st5{fill:#595959;}
	.st6{fill:#5A5A5A;}
	.st7{fill:#A1A1A1;}
	.st8{fill:#FBFBFB;}
	.st9{fill:#FDFDFD;}
	.st10{fill:#FAFAFA;}
</style>
<g>
	<g>
		<path class="st0" d="M3,110.5c0-26.4,0-52.9,0-79.1c0-2.1,0.4-2.7,2.7-2.7c24.3,0,48.7,0,73,0c-0.2,1.9-1.9,1.5-2.9,1.7
			c-1.5,0.4-2.1,1.3-1.7,2.9c2.9,8.2,5.7,16.4,8.8,24.5c0-9.6,1.9-19.3,0.6-29.2c136.5,0,272.9,0,409.4,0c2.5,0,3.4,0.6,3.1,3.1
			c-0.2,4,0,8.2,0,12.2c-0.4,0.2-0.8,0.2-1.3,0c-4.8-2.1-8.2-1.5-11.7,2.3c-2.5,2.5-3.8,5.7-4.8,8.8c-0.8,2.9-2.3,4.8-5.9,5
			c4,0.8,3.4,3.4,2.7,6.1c-1.9,6.3-3.4,12.8-5,19.3c-0.6,1.9-1,3.8-1.9,5.7c-1.3,2.9-2.7,3.1-5,1c-0.8-0.8-1.5-2.3-3.1-1.7
			c-0.6,0.2-1,1-0.6,1.7c0.6,1.7,1.9,2.3,3.6,2.3c3.6,0.2,7.8-2.9,9.6-7.1c2.3-5.2,3.4-10.9,5-16.4c0.4-1.5,0.8-2.9,1-4.4
			c0.8-4,2.3-7.1,7.8-6.1c-0.4-1.3-1.3-1-1.7-1c-2.5-0.2-3.1-1.7-2.5-4c0.8-3.4,1.9-6.7,3.8-9.6c2.1-3.4,4.8-3.6,6.5-0.2
			c1,2.1,2.5,1.5,4,1.7c0,45.7,0,91.4,0,137c0,2.3-0.4,2.9-2.9,2.9c-138,0-276,0-413.8,0c0.6-2.3,2.7-1.7,4.2-2.1
			c11.7-2.5,21.8-8,30.2-16.6c17.6-18.2,17.2-47.4-1.3-64.2C98,90.8,73.5,93.7,63.2,110.9c-6.1,10.1-4.6,22,3.6,29.4
			c5.7,4.8,14.9,5.5,20.3,1.3c4.8-3.8,5-11.3,0.6-15.3c-2.5-2.3-6.3-2.3-8.6-0.2c-2.1,1.9-1.9,3.6,0.6,4.8c0.8,0.4,2.1,0.8,1.7,2.1
			c-0.4,1.3-1.7,1.7-2.7,1.7c-4,0-6.7-4.4-5.5-8.6c2.3-6.9,10.7-9.6,17-5.9c10.3,6.3,10.9,20.6,1.3,28.1c-7.8,5.9-15.9,5.7-24.3,2.3
			c-3.1-1.3-6.1-3.1-8.8-4.8c-3.4-2.3-5.5-2.1-8.6,0.2c-7.6,5.9-15.1,11.5-22.9,17.4c-2.1,1.5-1.7,2.5,0,4.2
			c9.4,9,20.8,14.7,33.6,17.6c1.7,0.4,4.2-0.4,5,2.3c-19.7,0-39.4,0-59.4,0c-1.9,0-2.3-0.4-2.3-2.3c0-20.6,0-40.9,0-61.5
			c2.7,2.5,6.3,1.5,9.9,0.8c10.5-1.7,20.8-3.6,31.3-5.5c1.3-0.2,2.5,0,3.8-1c-3.1-1-6.5-1.5-9.6-2.1c-9.4-1.9-18.9-3.6-28.3-5.5
			c-2.3-0.4-4.4-0.6-6.5,0.2C3.8,110.9,3.4,110.7,3,110.5z"/>
		<path class="st1" d="M64.7,187.5c-1.5-1.3-3.4-1-5.2-1.5c-13.4-2.7-25-9-35-18.5c-1.7-1.5-1.9-2.5,0.2-4
			c8.2-6.1,16.1-12.2,24.1-18.5c3.6-2.7,5.7-2.7,9.4,0c7.3,5.2,15.3,8.6,24.5,6.5c13.2-2.9,18.7-18.2,10.1-27.7
			c-4.2-4.6-10.1-5.9-14.9-3.1c-4.6,2.5-6.3,8.4-3.1,11.7c2.1,2.3,4.4,2.3,6.1-0.4c-2.3,0-4.6-0.2-4.8-3.1c-0.2-2.3,2.7-5.2,5.5-5.5
			c3.6-0.4,6.1,1,8,4c2.5,3.8,2.7,7.6,0.6,11.5c-2.7,5-9.9,7.6-16.6,5.9C61.3,142,55,129.2,59.4,116.2c6.5-19.3,30.4-27.1,48.7-15.9
			c20.3,12.6,26,41.5,11.7,62.5c-9.2,13.6-22.7,21.2-38.6,23.9c-0.6,0.2-1.5-0.2-1.7,0.6c-0.8,0-1.9,0-2.7,0c-2.9-0.6-6.1-0.6-9,0
			C66.5,187.5,65.5,187.5,64.7,187.5z"/>
		<path class="st2" d="M3.8,110.5c1-2.1,2.9-1.7,4.6-1.3c13.6,2.5,27.1,5,40.7,7.6C50,117,51,117,51,118.1c0,1.3-1.3,1.3-2.1,1.5
			c-13.6,2.3-27.5,4.6-41.1,7.1c-2.5,0.4-3.4-1.5-4.6-2.7c0-0.8,0-1.9,0-2.7C4,117.7,2.8,114.1,3.8,110.5z"/>
		<path class="st1" d="M495.9,47.6c-2.5,1.9-4.2,2.1-4.8-1.7c-0.2-1-0.8-1.9-2.1-2.1c-1.3-0.2-1.9,0.8-2.5,1.7
			c-2.3,3.6-3.4,7.6-4.6,11.5c-0.4,1.3,0,1.9,1.5,1.9c1,0,2.1,0,3.1,0c0.6,0,1.5,0.2,1.5,1.3c0,0.8-0.6,1.3-1.3,1.3
			c-0.2,0-0.4,0-0.6,0c-5.5-1.3-6.3,2.3-7.1,6.3c-1.7,6.7-3.4,13.2-5.9,19.7c-1.7,4.2-4.6,7.1-9.4,8c-1.9,0.2-3.8,0-5-1.5
			c-1.3-1.5-1.3-2.9,0.2-4.2c1.5-1.3,2.7-0.8,3.8,0.8c0.8,1,1.5,2.7,3.1,2.3c1.3-0.2,1.5-1.9,1.9-3.1c2.5-9.2,5-18.2,7.6-27.5
			c-1-0.8-2.1-0.4-3.1-0.4c-0.8,0-1.7,0-1.7-1.3c0-1,0.8-1.5,1.7-1.3c3.8,0.8,4.6-1.7,5.5-4.6c1.3-4,3.1-7.6,6.3-10.3
			c4.2-3.6,8.6-3.8,12.4-0.2C495.9,45.3,495.9,46.6,495.9,47.6z"/>
		<path class="st2" d="M83.5,28.7c0.8,0.8,1.5,1.7,1.3,2.9c-0.2,9.4-0.4,18.7-0.6,27.9c0,0.4-0.2,0.8-0.2,1.3
			c-1.7,0-1.7-1.3-1.9-2.1c-2.9-8.2-5.9-16.4-8.6-24.5c-1.3-3.8-1.3-4,2.7-4.6c0.8-0.2,1.9,0.4,2.5-0.8
			C80.2,28.7,81.9,28.7,83.5,28.7z"/>
		<path class="st3" d="M3.8,110.5c-0.4,3.6,0.8,7.1-0.6,10.5c0-3.6,0-6.9,0-10.5C3.2,110.7,3.6,110.7,3.8,110.5z"/>
		<path class="st4" d="M67.4,187.5c2.9-1,6.1-1,9,0C73.5,187.5,70.3,187.5,67.4,187.5z"/>
		<path class="st1" d="M169.3,139c1.3-8.4,2.7-16.8,3.8-25.2c0.4-2.5,1.9-2.3,3.8-2.3s2.9,0.2,3.1,2.5c1.3,8.8,2.7,17.6,4.6,26.4
			c1.3-8.8,2.5-17.4,3.6-26.2c0.4-4.2,3.1-2.5,5-2.5c2.9-0.2,1.5,2.1,1.3,3.1c-1.9,13-4.2,26.2-6.1,39.2c-0.4,3.1-2.1,2.7-4.2,2.9
			c-2.7,0.2-3.4-1-3.8-3.4c-1.3-8.2-2.5-16.4-4-25.4c-1.5,4.4-1.7,8.2-2.3,12c-0.8,4.6-1.7,9.4-2.1,14.1c-0.2,2.5-1.7,2.7-3.6,2.5
			c-1.9,0-3.8,0.4-4.2-2.7c-1.9-13.2-4.2-26.4-6.1-39.6c-0.2-1-1.3-3.1,1-3.1c1.9,0,5-1.7,5.5,2.1c1,8.2,2.1,16.4,3.1,24.5
			C168.5,138.8,168.3,139.9,169.3,139z"/>
		<path class="st2" d="M216.7,176.4c-18.5,0-36.7,0-55.2,0c-2.5,0-3.6-0.4-3.6-3.4c0-2.7,0.4-3.8,3.6-3.8c37.1,0.2,74,0.2,111.2,0
			c2.9,0,3.4,1,3.4,3.6s-0.2,3.6-3.4,3.6C254,176.2,235.4,176.4,216.7,176.4z"/>
		<path class="st1" d="M197.6,64.6c0,8-0.2,15.9,0,23.7c0,2.7-1.3,2.5-3.1,2.5c-1.9,0-3.4,0.2-3.1-2.5c0.2-13.2,0-26.6,0-39.8
			c0-1-0.6-2.9,1.5-2.9c1.9,0.2,4.4-1.5,5.5,1.9c2.5,7.3,5.2,14.7,7.8,22c0.2,0.6,0.4,1.3,1.3,1.7c0-7.6,0.2-15.1,0-22.4
			c0-2.7,0.6-3.4,3.4-3.4c2.3,0,3.1,0.6,3.1,3.1c-0.2,13.2,0,26.4,0,39.4c0,1,0.8,2.9-1.5,2.7c-1.9-0.2-4.2,1.3-5.2-1.9
			c-2.3-7.1-5-14.1-7.3-21c-0.4-1.3-0.8-2.3-1.5-3.6C197.8,64.6,197.6,64.6,197.6,64.6z"/>
		<path class="st1" d="M302.5,68.6c0-6.7,0-13.4,0-20.3c0-2.1,0.6-2.9,2.7-2.7c1.5,0.2,2.9,0,4.6,0c9.2,0,14.7,5.9,14.1,15.3
			c-0.2,4-1.3,8-4.8,10.5c-1.5,1-0.8,2.1-0.4,3.4c1.7,4.6,3.1,9.2,5,13.6c1,2.3,0.2,2.5-1.9,2.7c-3.1,0.2-4.8-0.6-5.7-4
			c-0.8-3.6-2.3-6.7-3.8-10.1c-0.4-1-0.2-2.5-1.9-2.3c-1.9,0.2-1.3,1.9-1.3,3.1c0,3.6-0.2,7.1,0,10.9c0.2,2.9-1.7,2.3-3.4,2.3
			c-1.7,0-3.4,0.4-3.4-2.5C302.5,82,302.5,75.3,302.5,68.6z"/>
		<path class="st1" d="M407.8,156.7c-6.9,0.6-6.9,0.6-9-5.5c-0.8-2.5-1.7-5-2.7-7.6c-0.4-1.3-0.2-3.6-2.5-3.1
			c-2.1,0.4-0.8,2.3-1,3.6c-0.2,3.6-0.2,6.9,0,10.5c0.2,2.7-1.7,2.3-3.1,2.1c-1.5,0-3.4,0.8-3.4-2.1c0-13.6,0-27.3,0-40.9
			c0-1.7,0.4-2.3,2.1-2.3c2.9,0.2,6.1,0,9,0.6c4.4,0.8,7.8,3.4,9,7.8c1.9,6.3,1.7,12.6-3.8,17.4c-1.3,1-1,2.1-0.4,3.4
			C404,146,405.9,151.2,407.8,156.7z"/>
		<path class="st1" d="M442,156.9c-5.5,0-5.5,0-5.5-5.5c0-12.2,0-24.1,0-36.3c0-2.9,0.8-3.6,3.8-3.6c13-0.4,17,6.9,18.2,16.6
			c0.6,5.7,0.6,11.1-0.8,16.6C455.4,153.3,450.8,156.9,442,156.9z"/>
		<path class="st1" d="M158.2,64.4c0-5.5,0.2-10.9,0-16.4c0-2.9,1.9-2.3,3.6-2.3c1.7-0.2,3.1-0.2,2.9,2.3c-0.2,9.9,0,19.7,0,29.8
			c0,1.7,0,3.4,0.6,4.8c0.6,1.7,1.7,2.7,3.6,2.7c2.1,0,3.4-1.3,3.8-2.9c0.4-1.9,0.6-4,0.6-5.9c0-9.2,0.2-18.7,0-27.9
			c0-2.7,1.3-2.9,3.4-2.9s3.4,0.2,3.4,2.9c-0.2,10.1,0,20.1,0,30c0,6.7-2.7,11.1-7.6,12.6c-7.3,2.3-13.6-2.5-14.1-10.5
			c0-0.2,0-0.4,0-0.6C158.2,74.7,158.2,69.6,158.2,64.4z"/>
		<path class="st1" d="M375.1,134.4c0.2,5.2-0.2,10.5-2.1,15.5c-1.7,4.2-4.2,7.6-9.2,7.8c-4.2,0.2-7.8-2.3-9.4-7.3
			c-3.6-10.5-3.4-21,0-31.5c1.7-5,5.2-7.6,9.4-7.3c4.2,0,7.3,2.7,9.2,7.8C374.9,123.9,375.3,129.2,375.1,134.4z"/>
		<path class="st1" d="M487.7,156.9c-2.7,0.6-3.8-0.6-3.8-3.4c0-0.8-0.6-1.9-0.4-2.7c0-3.1-1.5-3.8-4.4-4c-4.2-0.4-5,1.5-5.5,4.8
			c-0.2,1.7,0.8,4.6-2.1,5c-4.4,0.8-5,0.2-4.2-4.2c2.5-12.6,5.2-25.4,7.3-38c0.6-3.4,2.5-2.9,4.6-2.9c2.3-0.2,3.1,0.4,3.6,2.9
			c2.3,13,5,26,7.8,39C491,156.2,490.8,157.5,487.7,156.9z"/>
		<path class="st1" d="M253.8,75.9c1.5-9,2.9-18,4.4-27.3c0.4-2.5,4-4.2,6.3-2.9c0.8,0.4,0.4,1.3,0.4,1.9
			c-2.5,13.8-5.2,27.7-7.8,41.5c-0.6,2.9-2.7,1.9-4.4,2.1c-1.7,0.2-2.9,0.2-3.4-2.3c-2.3-13.4-5-27.1-7.3-40.5
			c-0.2-0.8-1.5-2.7,0.8-2.5c1.9,0.2,5-1.9,5.7,1.9c1.3,6.7,2.3,13.4,3.4,20.3c0.4,2.5,0.8,5.2,1.5,7.8
			C253.4,75.9,253.6,75.9,253.8,75.9z"/>
		<path class="st2" d="M33.4,51.2c0.4,0,1.3,0.8,2.1,1.9c8.6,11.1,17.4,22.2,26,33.3c0.4,0.6,1.5,1.3,0.6,2.1
			c-0.8,0.8-1.5-0.2-2.1-0.4c-12.2-6.9-24.3-13.8-36.3-21c-3.4-1.9-3.6-4.2-1-7.1c2.3-2.5,4.8-5,7.3-7.6
			C30.7,51.8,31.3,51.2,33.4,51.2z"/>
		<path class="st2" d="M52.9,104.2c-13-2.5-25.8-4.8-38.4-7.1c-0.2,0-0.4-0.2-0.6-0.2c-10.5-1-7.8-3.8-5.7-10.3
			c0.6-1.7,1.3-3.6,2.1-5.2c1.5-3.4,2.7-3.8,5.9-1.9c9.6,5.9,19.3,11.7,28.9,17.6c2.7,1.7,5.5,3.4,8,4.8c0.6,0.4,1.7,0.6,1.3,1.7
			C54,104.6,53.1,104.2,52.9,104.2z"/>
		<path class="st1" d="M205,134c0-6.5,0-13,0-19.5c0-2.1,0.4-2.9,2.7-2.9c4,0.2,8,0.2,12,0c2.7,0,2.3,1.5,2.3,3.1
			c0,1.5,0.4,3.6-2.3,3.1c-0.4,0-0.6,0-1,0c-7.1,0-7.1,0-7.1,7.3c0,5.7,0,5.9,5.7,5.7c2.9-0.2,3.8,0.8,3.8,3.6c0,2.5-1,2.7-3.1,2.7
			c-6.3,0-6.3,0-6.3,6.1c0,7.1,0,7.3,7.6,7.3c2.5,0,3.1,0.6,3.1,3.1s-0.6,3.1-3.1,3.1c-3.6-0.2-7.1-0.2-10.9,0
			c-2.3,0.2-3.1-0.6-3.1-3.1C205.2,147.2,205,140.5,205,134z"/>
		<path class="st1" d="M274.8,68.2c0-6.5,0-13,0-19.5c0-2.1,0.4-3.1,2.9-2.9c3.8,0.2,7.8,0.2,11.5,0c2.9-0.2,2.3,1.7,2.5,3.4
			c0.2,1.9-0.2,2.9-2.5,2.9c-2.5,0-5.9-1.3-7.3,0.4c-1.3,1.7-0.4,4.8-0.4,7.3c0,5.2,0,5.5,5.7,5.2c2.3,0,3.8,0,3.8,3.1
			c0,2.9-1.3,3.1-3.6,3.1c-5.7,0-5.7,0-5.7,5.5c0,7.8,0,8,7.6,7.8c2.7,0,2.9,1,2.9,3.1c0,2.3-0.2,3.4-2.9,3.1
			c-3.8-0.2-7.8-0.2-11.5,0c-2.1,0-2.5-0.6-2.5-2.5C275,81.8,274.8,75.1,274.8,68.2z"/>
		<path class="st2" d="M72.4,76.3c-3.4-4.2-6.3-7.8-9.2-11.3C57.7,58.1,52.3,51.4,47,44.5c-2.7-3.8-2.5-5,1.9-6.9
			c3.1-1.3,6.3-2.5,9.4-3.6c1.9-0.6,3.6-0.4,4.2,2.1c3.4,12.6,6.9,25.4,10.3,38.2C73.1,74.4,72.8,74.9,72.4,76.3z"/>
		<path class="st1" d="M333.1,82.6c1.5,0.6,2.3,1.3,3.4,1.5c2.7,1,5.5,2.1,7.8-0.6c2.1-2.5,1.5-5.5-0.2-7.8c-2.3-3.4-5-6.7-7.6-9.9
			c-2.7-3.6-4-7.3-3.1-11.7c1.3-7.1,9.4-11.3,15.9-7.8c1,0.6,2.1,5.9,1,6.7c-0.4,0.4-0.8,0.2-1.3,0c-0.6-0.4-1.3-0.6-1.9-0.8
			c-2.3-0.6-4.6-1-6.5,1c-1.7,2.1-1.5,4.4,0,6.5c1.9,2.9,4.2,5.7,6.3,8.4c2.9,3.6,5.2,7.3,5,12.4c-0.2,4.2-1.7,7.8-5.5,9.9
			c-4,2.1-8.2,1.5-12.2-0.2c-1-0.4-1-1.3-1-2.3C333.1,86,333.1,84.5,333.1,82.6z"/>
		<path class="st1" d="M248.4,119.5c-1.3-0.6-2.1-1-2.9-1.3c-2.3-1-4.8-1.3-6.7,0.8c-1.9,2.1-1.3,4.6,0,6.9c1.9,2.7,4,5.2,5.9,7.8
			c2.9,3.8,5.5,7.8,5.2,13c-0.2,4.2-1.7,7.6-5.5,9.4c-4,2.1-8,1.7-11.7-0.2c-2.7-1.5-0.8-4.4-1.3-6.9c1.7,0.6,3.1,1.3,4.4,1.9
			c2.3,0.8,4.4,0.8,6.1-1c1.9-1.9,1.7-4.2,0.6-6.5c-1.3-2.9-3.6-5.5-5.7-8c-2.5-3.1-5.2-6.1-5.9-10.1c-0.8-4.4,0-8.4,3.6-11.3
			s7.8-2.9,12-1.7c1.3,0.4,1.9,1,1.9,2.5C248.4,116.2,248.4,117.7,248.4,119.5z"/>
		<path class="st5" d="M302.5,134.2c0-6.7,0-13.2,0-19.9c0-2.1,0.6-2.9,2.7-2.7c3.8,0.2,7.6,0.2,11.1,0c2.7-0.2,2.3,1.7,2.3,3.1
			c0,1.7,0.4,3.6-2.3,3.1c-0.2,0-0.2,0-0.4,0c-6.9,0.2-6.9,0.2-6.9,7.1c0,0.4,0,0.6,0,1c0,5.2,0,5.2,5,5.2c2.3,0,3.6,0,3.6,2.9
			c0,2.7-1,3.6-3.4,3.1c-0.4,0-0.8,0-1.5,0c-2.9-0.4-4.2,0.6-4,3.8c0.2,4.4,0,8.8,0.2,13.2c0.2,2.7-1.5,2.3-3.1,2.3
			c-1.7,0-3.6,0.8-3.6-2.3C302.7,147.9,302.5,141.1,302.5,134.2z"/>
		<path class="st1" d="M416,63.5c1.7-5.5,2.9-10.3,4.4-15.1c0.8-2.5,4.2-4,6.5-2.7c1.3,0.8,0.4,1.9,0.2,2.7
			c-2.1,6.7-4.2,13.6-6.5,20.1c-2.1,6.1-1.3,12.4-1,18.7c0,3.8-1.5,3.8-4.4,3.8c-1.9,0-2.5-0.4-2.3-2.3c1.7-13.6-3.1-26-7.3-38.6
			c-0.4-1.3-2.5-3.1,0-4.4c2.9-1.3,5.2,0,6.1,2.7C412.8,53.3,414.3,58.1,416,63.5z"/>
		<path class="st2" d="M48.5,133.6c0,1.3-0.8,1.5-1.7,2.1c-9.4,6.3-19.1,12.4-28.5,18.7c-1.9,1.3-2.9,0.8-4-1
			c-1.9-3.4-3.8-6.9-5.2-10.5c-1-2.3-0.4-3.6,2.1-4c11.7-2.1,23.3-4,35-6.1C47.3,132.5,48.3,132.5,48.5,133.6z"/>
		<path class="st5" d="M263.3,137.4c0-5.5,0-10.9,0-16.4c0-2.3-0.6-3.4-2.9-2.9c-2.7,0.4-3.4-0.6-3.4-3.4c0-2.9,1-3.4,3.6-3.1
			c4.2,0.2,8.6,0.2,13,0c2.5-0.2,2.5,1.5,2.3,3.1c0,1.7,0.4,3.8-2.5,3.4c-3.4-0.6-3.6,1.3-3.6,4c0.2,10.5,0,21.2,0.2,31.7
			c0,2.7-0.8,3.1-3.4,3.1s-3.4-0.6-3.4-3.4C263.5,148.3,263.3,142.8,263.3,137.4z"/>
		<path class="st5" d="M335.6,131.1c0,5.2,0.2,10.7,0,15.9c-0.2,2.9,1,4,3.8,3.6c0.6,0,1.5,0,2.1,0c2.9-0.4,3.8,0.8,3.6,3.8
			c-0.2,1.7-0.4,2.5-2.3,2.5c-3.8-0.2-7.8-0.2-11.5,0c-2.1,0-2.3-0.8-2.3-2.5c0-13.4,0-27.1,0-40.5c0-2.9,1.9-2.3,3.4-2.3
			c1.7,0,3.4-0.2,3.4,2.5C335.4,119.7,335.6,125.4,335.6,131.1z"/>
		<path class="st1" d="M387.9,45.7c1.9,0,3.8,0,5.7,0c3.8,0,4.4,0.8,3.8,4.8c-0.2,1.9-1.7,1.5-2.5,1.3c-3.4-0.6-3.8,0.8-3.8,3.8
			c0.2,10.9,0,21.6,0.2,32.5c0,2.5-0.8,3.1-3.1,2.9c-2.3,0-3.6-0.2-3.4-3.1c0.2-10.9,0-21.8,0.2-32.7c0-2.3-0.2-4-3.1-3.4
			c-2.7,0.6-3.1-0.8-3.1-3.1c0-2.5,0.8-3.1,3.1-2.9C383.7,45.9,385.8,45.7,387.9,45.7z"/>
		<path class="st6" d="M361.9,68.4c0-6.5,0-13,0-19.5c0-2.3,0.6-3.4,3.1-3.1c2.1,0.2,3.8-0.2,3.6,2.9c-0.2,13.2-0.2,26.4,0,39.6
			c0,2.9-1.5,2.7-3.4,2.7c-2.1,0-3.4-0.2-3.4-2.9C361.9,81.6,361.9,74.9,361.9,68.4z"/>
		<path class="st6" d="M424.6,134.4c0,6.7-0.2,13.2,0,19.9c0.2,3.1-1.7,2.5-3.6,2.7c-1.9,0.2-3.1,0-3.1-2.7
			c0.2-13.2,0.2-26.4,0-39.8c0-2.7,1.3-2.9,3.4-2.9c2.1,0,3.4,0.2,3.4,2.9C424.4,121,424.6,127.7,424.6,134.4z"/>
		<path class="st1" d="M231.8,68.4c0,6.7-0.2,13.2,0,19.9c0.2,2.9-1.5,2.7-3.4,2.7s-3.1,0-3.1-2.7c0.2-13.2,0.2-26.4,0-39.8
			c0-2.5,0.8-3.1,3.1-2.9c2.1,0,3.4,0,3.4,2.9C231.6,55.2,231.8,61.9,231.8,68.4z"/>
		<path class="st1" d="M442,73.6c0.6-5.5,3.4-10.9,9.4-14.1c2.9-1.5,6.3-1.9,9,0.2c2.7,2.1,2.9,5.2,2.3,8.6
			c-1.5,7.1-6.1,12.2-12.2,13.2C445.3,82.4,442,79.7,442,73.6z"/>
		<path class="st7" d="M169.3,139c0,0.6,0.4,1.9-0.6,1.7s-0.6-1.5-0.4-2.3C168.5,138.6,168.9,138.8,169.3,139z"/>
		<path class="st8" d="M308.8,60.2c0-2.1,0.2-4.2,0-6.3c-0.2-2.1,0.8-2.5,2.5-2.1c1.7,0.2,3.1,1,4.2,2.3c3.4,4.6,1.5,12.8-3.4,14.1
			c-1.9,0.6-3.4,0.4-3.1-2.3C309,64.2,308.8,62.3,308.8,60.2z"/>
		<path class="st0" d="M400.4,126c0,5.2-1.9,8-5.7,8.6c-1.5,0.2-2.3,0-2.3-1.9c0.2-4.4,0-8.8,0-13.2c0-1.3,0.4-1.7,1.9-1.7
			C398.3,118.3,400.4,120.8,400.4,126z"/>
		<path class="st9" d="M452,134.6c0.2,2.9,0,6.1-0.8,9c-0.6,2.1-1.3,4-2.9,5.5c-1.3,1.3-2.9,2.5-4.6,1.7c-1.5-0.6-0.6-2.5-0.6-3.8
			c0-8.8,0-17.6,0-26.4c0-2.9,1-3.6,3.6-2.1c2.7,1.5,4,4,4.6,6.7C452,128.1,452,131.5,452,134.6z"/>
		<path class="st9" d="M368.6,134.2c0,4.4,0,8.8-1.3,13c-0.6,1.9-1.3,4-3.8,4s-3.4-2.1-3.8-4c-1.9-8.8-1.9-17.4,0-26.2
			c0.4-1.9,1.5-4,3.8-4s3.1,2.1,3.8,4C368.4,125.4,368.8,129.8,368.6,134.2z"/>
		<path class="st10" d="M478.9,125.4c0.8,4.4,1.7,8.6,2.3,13c0.2,0.8,0.8,2.1-0.4,2.5c-1.5,0.4-3.1,0.4-4.4,0
			c-1.3-0.2-0.6-1.5-0.6-2.3c0.8-4.4,1.7-8.8,2.5-13.2C478.5,125.4,478.7,125.4,478.9,125.4z"/>
		<path class="st9" d="M457.7,64.2c-0.8,4.8-2.3,9.6-5.7,13.6c-0.8,1-2.1,2.1-3.6,1.5c-1.3-0.6-1.5-2.1-1-3.4
			c0.8-5,2.7-9.6,6.1-13.4c0.8-1,1.9-1.9,3.4-1.5C457.9,61.2,457.5,62.7,457.7,64.2z"/>
	</g>
</g>
</svg>
