<?xml version="1.0" encoding="utf-8"?>
<!-- Generator: Adobe Illustrator 22.1.0, SVG Export Plug-In . SVG Version: 6.00 Build 0)  -->
<svg version="1.1" id="_x32_" xmlns="http://www.w3.org/2000/svg" xmlns:xlink="http://www.w3.org/1999/xlink" x="0px" y="0px"
	 viewBox="0 0 967 117" style="enable-background:new 0 0 967 117;" xml:space="preserve">
<style type="text/css">
	.st0{fill:#FFE3B6;stroke:#475670;stroke-miterlimit:10;}
	.st1{fill:#475670;}
	.st2{fill:#8593AD;stroke:#475670;stroke-width:1.5;stroke-miterlimit:10;}
	.st3{fill:#8593AD;}
	.st4{fill:#F8B921;stroke:#475670;stroke-miterlimit:10;}
	.st5{fill:#FFE3B6;stroke:#475670;stroke-width:1.5;stroke-miterlimit:10;}
	.st6{fill:#F8B921;}
	.st7{fill:#FFE3B6;}
	.st8{fill:#B8EEFF;}
	.st9{fill-rule:evenodd;clip-rule:evenodd;fill:#F8B921;stroke:#475670;stroke-miterlimit:10;}
	.st10{fill:#FFFFFF;}
	.st11{fill-rule:evenodd;clip-rule:evenodd;fill:#8593AD;}
	.st12{fill-rule:evenodd;clip-rule:evenodd;fill:#FFFFFF;stroke:#475670;stroke-miterlimit:10;}
</style>
<rect x="714.3" y="58.7" class="st0" width="102.9" height="19.6"/>
<path class="st1" d="M817.2,79.1H714.3c-0.4,0-0.8-0.4-0.8-0.8V58.7c0-0.4,0.3-0.8,0.8-0.8h102.9c0.4,0,0.8,0.4,0.8,0.8v19.6
	C817.9,78.7,817.6,79.1,817.2,79.1z M715.1,77.5h101.3v-18H715.1V77.5z"/>
<rect x="791.5" y="59.5" class="st2" width="4.1" height="18.8"/>
<rect x="798.8" y="59.5" class="st3" width="8.1" height="19.6"/>
<path class="st1" d="M806.9,79.1h-8.1c-0.4,0-0.8-0.4-0.8-0.8V58.7c0-0.4,0.3-0.8,0.8-0.8h8.1c0.4,0,0.8,0.4,0.8,0.8v19.6
	C807.7,78.7,807.3,79.1,806.9,79.1z M799.6,77.5h6.6v-18h-6.6V77.5z"/>
<path class="st3" d="M657.9,10.6H514.6v92.3H575c2.8,2.1,6.8,3.4,11.3,3.4c4.5,0,8.5-1.3,11.3-3.4h60.3V10.6z"/>
<path class="st1" d="M586.3,106.8c-4.4,0-8.4-1.2-11.5-3.4h-60.7V10.1h144.3v93.3h-60.7C594.7,105.6,590.6,106.8,586.3,106.8z
	 M515.1,102.4h60l0.1,0.1c2.8,2.1,6.8,3.3,11,3.3c4.1,0,8.2-1.2,11-3.3l0.1-0.1h60V11.1H515.1V102.4z"/>
<rect x="521.1" y="12.7" class="st0" width="65.2" height="84"/>
<path class="st0" d="M586.3,96.8c0,0-34.1-11-59.8-3.4V10.6c0,0,19.2-8.3,59.8,2.2"/>
<rect x="586.3" y="12.7" class="st0" width="65.2" height="84"/>
<path class="st0" d="M586.3,96.8c0,0,34.1-11,59.8-3.4V10.6c0,0-19.2-8.3-59.8,2.2"/>
<path class="st4" d="M586.3,12.7c0,0,3.7-0.6,9-2.1V109l-4.5-1.5l-4.5,6.3V12.7z"/>
<g>
	<rect x="816.2" y="38.3" class="st1" width="7.5" height="1.5"/>
</g>
<g>
	<rect x="674.6" y="37.9" class="st1" width="13" height="1.5"/>
</g>
<g>
	<rect x="683.6" y="42.4" class="st1" width="10.3" height="1.5"/>
</g>
<g>
	<rect x="715.1" y="82.5" class="st5" width="103.4" height="19.8"/>
	<path class="st3" d="M713.4,80.9c-1.1,0-2,0.9-2,1.9c0,1.1,0.9,1.9,2,1.9h100.9v15.9H713.4c-1.1,0-2,0.9-2,1.9c0,1.1,0.9,1.9,2,1.9
		h107.7V80.9H713.4z"/>
	<path class="st1" d="M822,105.8H713.4c-1.5,0-2.8-1.2-2.8-2.7c0-1.5,1.3-2.7,2.8-2.7h100.1V86.1H713.4c-1.5,0-2.8-1.2-2.8-2.7
		c0-1.5,1.3-2.7,2.8-2.7H822V105.8z M713.4,102c-0.7,0-1.2,0.5-1.2,1.1c0,0.6,0.5,1.1,1.2,1.1h106.9v-22H713.4
		c-0.7,0-1.2,0.5-1.2,1.1c0,0.6,0.5,1.1,1.2,1.1h101.7V102H713.4z"/>
	<polygon class="st6" points="789,91.2 789,113.2 783.3,107.2 777.5,108.7 777.5,91.2 	"/>
	<path class="st1" d="M789,113.8c-0.2,0-0.4-0.1-0.6-0.2l-5.5-5.6l-5.3,1.3c-0.2,0.1-0.5,0-0.7-0.1c-0.2-0.2-0.3-0.4-0.3-0.6V91
		c0-0.4,0.4-0.8,0.8-0.8H789c0.4,0,0.8,0.4,0.8,0.8v22c0,0.3-0.2,0.6-0.5,0.7C789.2,113.7,789.1,113.8,789,113.8z M783.3,106.2
		c0.2,0,0.4,0.1,0.6,0.2l4.4,4.5V91.8h-9.9v15.6l4.8-1.2C783.1,106.2,783.2,106.2,783.3,106.2z"/>
</g>
<g>
	<rect x="703.6" y="33" class="st5" width="103.4" height="19.8"/>
	<path class="st3" d="M808.7,31.4c1.1,0,2,0.9,2,1.9c0,1.1-0.9,1.9-2,1.9H707.8v15.9h100.9c1.1,0,2,0.9,2,1.9c0,1.1-0.9,1.9-2,1.9
		H701V31.4H808.7z"/>
	<path class="st1" d="M700.2,31.2h108.5c1.5,0,2.8,1.2,2.8,2.7c0,1.5-1.3,2.7-2.8,2.7H708.6V51h100.1c1.5,0,2.8,1.2,2.8,2.7
		c0,1.5-1.3,2.7-2.8,2.7H700.2V31.2z M707,52.6V35h101.7c0.7,0,1.2-0.5,1.2-1.1c0-0.6-0.5-1.1-1.2-1.1H701.8v22h106.9
		c0.7,0,1.2-0.5,1.2-1.1c0-0.6-0.5-1.1-1.2-1.1H707z"/>
	<polygon class="st6" points="733.1,41.8 733.1,63.7 738.9,57.8 744.6,59.2 744.6,41.8 	"/>
	<path class="st1" d="M732.8,64.2c-0.3-0.1-0.5-0.4-0.5-0.7v-22c0-0.4,0.4-0.8,0.8-0.8h11.5c0.4,0,0.8,0.4,0.8,0.8V59
		c0,0.2-0.1,0.5-0.3,0.6c-0.2,0.2-0.4,0.2-0.7,0.1l-5.3-1.3l-5.5,5.6c-0.2,0.2-0.4,0.2-0.6,0.2C733,64.3,732.9,64.3,732.8,64.2z
		 M739.1,56.8l4.8,1.2V42.3h-9.9v19.2l4.4-4.5c0.2-0.2,0.4-0.2,0.6-0.2C738.9,56.8,739,56.8,739.1,56.8z"/>
</g>
<g>
	<rect x="415.2" y="109.3" class="st1" width="12.9" height="1"/>
</g>
<g>
	<g>
		
			<rect x="353.9" y="31.9" transform="matrix(2.858066e-03 -1 1 2.858066e-03 271.9052 457.8808)" class="st0" width="23.2" height="121.5"/>
		<path class="st0" d="M305.3,103.5l120.5,0.3l0.1-22.2l-120.5-0.3L305.3,103.5z"/>
	</g>
</g>
<g>
	<g>
		<g>
			
				<rect x="310.3" y="84.6" transform="matrix(2.326280e-03 -1 1 2.326280e-03 228.7383 400.19)" class="st1" width="9.2" height="1.7"/>
		</g>
	</g>
	<g>
		<g>
			
				<rect x="315.5" y="83.2" transform="matrix(3.307028e-03 -1 1 3.307028e-03 233.5685 401.938)" class="st1" width="5.9" height="1.1"/>
		</g>
	</g>
	<g>
		<g>
			
				<rect x="317.2" y="84.6" transform="matrix(3.387353e-03 -1 1 3.387353e-03 235.2122 406.9693)" class="st1" width="9.2" height="1.7"/>
		</g>
	</g>
	<g>
		<g>
			
				<rect x="322.3" y="83.3" transform="matrix(3.307028e-03 -1 1 3.307028e-03 240.3807 408.8119)" class="st1" width="5.9" height="1.1"/>
		</g>
	</g>
	<g>
		<g>
			
				<rect x="324" y="84.6" transform="matrix(2.954436e-03 -1 1 2.954436e-03 242.1621 413.8778)" class="st1" width="9.2" height="1.7"/>
		</g>
	</g>
	<g>
		<g>
			<polygon class="st1" points="332.7,80.9 332.7,86.8 331.6,86.8 331.6,80.9 			"/>
		</g>
	</g>
	<g>
		<g>
			
				<rect x="330.9" y="84.6" transform="matrix(2.542676e-03 -1 1 2.542676e-03 249.114 420.7834)" class="st1" width="9.2" height="1.7"/>
		</g>
	</g>
	<g>
		<g>
			
				<rect x="336" y="83.3" transform="matrix(2.965888e-03 -1 1 2.965888e-03 254.1136 422.5813)" class="st1" width="5.9" height="1.1"/>
		</g>
	</g>
	<g>
		<g>
			
				<rect x="337.7" y="84.7" transform="matrix(2.965901e-03 -1 1 2.965901e-03 255.7847 427.6188)" class="st1" width="9.2" height="1.7"/>
		</g>
	</g>
	<g>
		<g>
			
				<rect x="342.9" y="83.3" transform="matrix(2.967849e-03 -1 1 2.967849e-03 260.928 429.4536)" class="st1" width="5.9" height="1.1"/>
		</g>
	</g>
	<g>
		<g>
			
				<rect x="344.6" y="84.7" transform="matrix(2.964649e-03 -1 1 2.964649e-03 262.5988 434.4899)" class="st1" width="9.2" height="1.7"/>
		</g>
	</g>
	<g>
		<g>
			
				<rect x="349.7" y="83.3" transform="matrix(2.644776e-03 -1 1 2.644776e-03 267.8541 436.3516)" class="st1" width="5.9" height="1.1"/>
		</g>
	</g>
	<g>
		<g>
			
				<rect x="351.4" y="84.7" transform="matrix(2.736841e-03 -1 1 2.736841e-03 269.4916 441.3816)" class="st1" width="9.2" height="1.7"/>
		</g>
	</g>
	<g>
		<g>
			
				<rect x="356.6" y="83.4" transform="matrix(2.648737e-03 -1 1 2.648737e-03 274.6685 443.2222)" class="st1" width="5.9" height="1.1"/>
		</g>
	</g>
	<g>
		<g>
			
				<rect x="358.3" y="84.7" transform="matrix(2.748818e-03 -1 1 2.748818e-03 276.301 448.2511)" class="st1" width="9.2" height="1.7"/>
		</g>
	</g>
	<g>
		<g>
			
				<rect x="363.4" y="83.4" transform="matrix(2.981670e-03 -1 1 2.981670e-03 281.3615 450.065)" class="st1" width="5.9" height="1.1"/>
		</g>
	</g>
	<g>
		<g>
			
				<rect x="365.1" y="84.7" transform="matrix(2.748253e-03 -1 1 2.748253e-03 283.1164 455.1222)" class="st1" width="9.2" height="1.7"/>
		</g>
	</g>
	<g>
		<g>
			
				<rect x="370.3" y="83.4" transform="matrix(2.983796e-03 -1 1 2.983796e-03 288.1727 456.9354)" class="st1" width="5.9" height="1.1"/>
		</g>
	</g>
	<g>
		<g>
			
				<rect x="372" y="84.8" transform="matrix(2.748818e-03 -1 1 2.748818e-03 289.9294 461.9921)" class="st1" width="9.2" height="1.7"/>
		</g>
	</g>
	<g>
		<g>
			
				<rect x="377.1" y="83.4" transform="matrix(2.662632e-03 -1 1 2.662632e-03 295.1053 463.8327)" class="st1" width="5.9" height="1.1"/>
		</g>
	</g>
	<g>
		<g>
			
				<rect x="378.8" y="84.8" transform="matrix(2.746797e-03 -1 1 2.746797e-03 296.7429 468.8639)" class="st1" width="9.2" height="1.7"/>
		</g>
	</g>
	<g>
		<g>
			
				<rect x="384" y="83.4" transform="matrix(2.983847e-03 -1 1 2.983847e-03 301.7959 470.6773)" class="st1" width="5.9" height="1.1"/>
		</g>
	</g>
	<g>
		<g>
			
				<rect x="385.7" y="84.8" transform="matrix(2.748848e-03 -1 1 2.748848e-03 303.5587 475.7361)" class="st1" width="9.2" height="1.7"/>
		</g>
	</g>
	<g>
		<g>
			
				<rect x="390.8" y="83.5" transform="matrix(2.306447e-03 -1 1 2.306447e-03 308.8766 477.6064)" class="st1" width="5.9" height="1.1"/>
		</g>
	</g>
	<g>
		<g>
			
				<rect x="392.5" y="84.8" transform="matrix(2.748848e-03 -1 1 2.748848e-03 310.3724 482.6067)" class="st1" width="9.2" height="1.7"/>
		</g>
	</g>
	<g>
		<g>
			
				<rect x="397.7" y="83.5" transform="matrix(2.662587e-03 -1 1 2.662587e-03 315.5511 484.4472)" class="st1" width="5.9" height="1.1"/>
		</g>
	</g>
	<g>
		<g>
			
				<rect x="399.4" y="84.8" transform="matrix(2.967397e-03 -1 1 2.967397e-03 317.0988 489.4582)" class="st1" width="9.2" height="1.7"/>
		</g>
	</g>
	<g>
		<g>
			
				<rect x="404.5" y="83.5" transform="matrix(2.322618e-03 -1 1 2.322618e-03 322.5053 491.3491)" class="st1" width="5.9" height="1.1"/>
		</g>
	</g>
</g>
<g>
	<g>
		<path class="st1" d="M417.8,90.4c1.4,0,2.6,1.1,2.6,2.4c0,1.3-1.2,2.4-2.6,2.4c-1.4,0-2.6-1.1-2.6-2.4
			C415.2,91.4,416.4,90.4,417.8,90.4z"/>
	</g>
</g>
<g>
	<g>
		<rect x="453.8" y="50.3" class="st1" width="21.4" height="1.7"/>
	</g>
	<g>
		<rect x="449.5" y="65.4" class="st1" width="21.4" height="1.7"/>
	</g>
	<g>
		<rect x="441" y="58.6" class="st1" width="16.9" height="1.7"/>
	</g>
	<g>
		<rect x="482.5" y="65.5" class="st1" width="3.7" height="1.7"/>
	</g>
	<g>
		<rect x="492.8" y="65.5" class="st1" width="3.7" height="1.7"/>
	</g>
	<g>
		<g>
			<rect x="469" y="29.8" class="st1" width="1.7" height="4.2"/>
		</g>
		<g>
			<rect x="469" y="37.3" class="st1" width="1.7" height="4.2"/>
		</g>
		<g>
			<rect x="464" y="34.8" class="st1" width="4.2" height="1.7"/>
		</g>
		<g>
			<rect x="471.4" y="34.8" class="st1" width="4.2" height="1.7"/>
		</g>
	</g>
</g>
<g>
	<rect x="160.1" y="13.6" class="st1" width="33.5" height="1.6"/>
</g>
<g>
	<rect x="187.9" y="21.9" class="st1" width="21.1" height="1.6"/>
</g>
<g>
	<rect x="11.5" y="35.6" class="st1" width="8.4" height="1.6"/>
</g>
<g>
	<rect x="12.1" y="81.1" class="st1" width="8.4" height="1.6"/>
</g>
<g>
	<rect x="183.8" y="59" class="st1" width="8.4" height="1.6"/>
</g>
<g>
	<rect x="187" y="94.5" class="st1" width="8.4" height="1.6"/>
</g>
<g>
	<rect x="3.2" y="44.9" class="st1" width="18.8" height="1.6"/>
</g>
<g>
	<rect x="172.6" y="81.1" class="st1" width="3.7" height="1.6"/>
</g>
<g>
	<rect x="182.7" y="81.1" class="st1" width="3.7" height="1.6"/>
</g>
<rect x="37.4" y="14.6" class="st6" width="17.3" height="86.8"/>
<path class="st1" d="M55.6,102.2h-19V13.8h19V102.2z M38.2,100.6h15.7V15.4H38.2V100.6z"/>
<g>
	<rect x="37.4" y="90.4" class="st1" width="17.3" height="5.4"/>
	<path class="st1" d="M55.6,96.7h-19v-7h19V96.7z M38.2,95h15.7v-3.7H38.2V95z"/>
</g>
<g>
	<rect x="37.4" y="81" class="st1" width="17.3" height="5.4"/>
	<path class="st1" d="M55.6,87.2h-19v-7h19V87.2z M38.2,85.6h15.7v-3.7H38.2V85.6z"/>
</g>
<rect x="37.4" y="30.6" class="st1" width="17.3" height="5.8"/>
<path class="st1" d="M55.6,37.2h-19v-7.4h19V37.2z M38.2,35.6h15.7v-4.1H38.2V35.6z"/>
<rect x="37.4" y="20.6" class="st1" width="17.3" height="5.8"/>
<path class="st1" d="M55.6,27.2h-19v-7.4h19V27.2z M38.2,25.6h15.7v-4.1H38.2V25.6z"/>
<rect x="135.9" y="25.8" class="st7" width="17.3" height="75.6"/>
<path class="st1" d="M153.3,102.2h-17.3c-0.5,0-0.8-0.4-0.8-0.8V25.8c0-0.5,0.4-0.8,0.8-0.8h17.3c0.5,0,0.8,0.4,0.8,0.8v75.6
	C154.1,101.9,153.7,102.2,153.3,102.2z M136.7,100.6h15.7v-74h-15.7V100.6z"/>
<rect x="135.9" y="86.3" class="st3" width="17.3" height="9"/>
<path class="st1" d="M154.1,96.1h-19V85.5h19V96.1z M136.7,94.5h15.7v-7.4h-15.7V94.5z"/>
<rect x="135.9" y="37.5" class="st3" width="17.3" height="9.6"/>
<path class="st1" d="M154.1,47.9h-19V36.6h19V47.9z M136.7,46.3h15.7v-8h-15.7V46.3z"/>
<g>
	<rect x="135.9" y="31.8" class="st1" width="17.3" height="3.1"/>
	<path class="st1" d="M154.1,35.8h-19V31h19V35.8z M136.7,34.1h15.7v-1.5h-15.7V34.1z"/>
</g>
<rect x="100.8" y="14.6" transform="matrix(0.913 -0.4079 0.4079 0.913 -14.141 49.7033)" class="st6" width="17.3" height="86.8"/>
<path class="st1" d="M118.8,102.3L82.8,21.5l17.3-7.7l36.1,80.8L118.8,102.3z M84.9,22.3l34.7,77.8l14.3-6.4L99.3,15.9L84.9,22.3z"
	/>
<rect x="115.5" y="88.9" transform="matrix(0.9129 -0.4082 0.4082 0.9129 -26.2528 58.578)" class="st8" width="17.3" height="3.8"/>
<path class="st1" d="M117,96.9c-0.1,0-0.2,0-0.3-0.1c-0.2-0.1-0.4-0.2-0.5-0.4l-1.6-3.5c-0.2-0.4,0-0.9,0.4-1.1l15.8-7.1
	c0.4-0.2,0.9,0,1.1,0.4l1.6,3.5c0.1,0.2,0.1,0.4,0,0.6c-0.1,0.2-0.2,0.4-0.4,0.5l-15.8,7.1C117.2,96.9,117.1,96.9,117,96.9z
	 M116.5,93l0.9,2l14.3-6.4l-0.9-2L116.5,93z"/>
<rect x="90.4" y="31.7" transform="matrix(0.913 -0.4079 0.4079 0.913 -5.5537 43.4345)" class="st7" width="17.3" height="6.1"/>
<path class="st1" d="M92.4,41.9c-0.3,0-0.6-0.2-0.8-0.5l-2.5-5.6c-0.1-0.2-0.1-0.4,0-0.6c0.1-0.2,0.2-0.4,0.4-0.5l15.8-7.1
	c0.4-0.2,0.9,0,1.1,0.4l2.5,5.6c0.1,0.2,0.1,0.4,0,0.6c-0.1,0.2-0.2,0.4-0.4,0.5l-15.8,7.1C92.6,41.9,92.5,41.9,92.4,41.9z M91,35.9
	l1.8,4.1l14.3-6.4l-1.8-4.1L91,35.9z"/>
<rect x="86.8" y="23.6" transform="matrix(0.913 -0.4079 0.4079 0.913 -2.5753 41.265)" class="st7" width="17.3" height="6.1"/>
<path class="st1" d="M88.8,34.1c-0.1,0-0.2,0-0.3-0.1c-0.2-0.1-0.4-0.2-0.5-0.4l-2.5-5.6c-0.2-0.4,0-0.9,0.4-1.1l15.8-7.1
	c0.2-0.1,0.4-0.1,0.6,0c0.2,0.1,0.4,0.2,0.5,0.4l2.5,5.6c0.2,0.4,0,0.9-0.4,1.1l-15.8,7.1C89,34.1,88.9,34.1,88.8,34.1z M87.4,28.1
	l1.8,4.1l14.3-6.4l-1.8-4.1L87.4,28.1z"/>
<g>
	<rect x="73.6" y="18.1" class="st3" width="9.9" height="83.3"/>
	<path class="st1" d="M84.3,102.2H72.7V17.3h11.5V102.2z M74.4,100.6h8.2V19h-8.2V100.6z"/>
</g>
<rect x="54.7" y="22.5" class="st6" width="18.8" height="78.9"/>
<path class="st1" d="M73.6,102.2H54.7c-0.5,0-0.8-0.4-0.8-0.8V22.5c0-0.5,0.4-0.8,0.8-0.8h18.8c0.5,0,0.8,0.4,0.8,0.8v78.9
	C74.4,101.9,74,102.2,73.6,102.2z M55.6,100.6h17.2V23.4H55.6V100.6z"/>
<rect x="54.7" y="45.8" class="st7" width="18.8" height="3.8"/>
<path class="st1" d="M74.4,50.4H53.9v-5.5h20.5V50.4z M55.6,48.8h17.2v-2.2H55.6V48.8z"/>
<rect x="54.7" y="29.3" class="st7" width="18.8" height="13.3"/>
<path class="st1" d="M74.4,43.5H53.9v-15h20.5V43.5z M55.6,41.8h17.2V30.1H55.6V41.8z"/>
<rect x="28.5" y="101.4" class="st3" width="133" height="9.2"/>
<path class="st1" d="M162.3,111.5H27.7v-10.9h134.6V111.5z M29.3,109.8h131.3v-7.6H29.3V109.8z"/>
<g>
	<g>
		<rect x="172.9" y="17.8" class="st1" width="1.6" height="4.2"/>
	</g>
	<g>
		<rect x="172.9" y="25.1" class="st1" width="1.6" height="4.2"/>
	</g>
	<g>
		<rect x="168" y="22.7" class="st1" width="4.2" height="1.6"/>
	</g>
	<g>
		<rect x="175.4" y="22.7" class="st1" width="4.2" height="1.6"/>
	</g>
</g>
<g>
	<rect x="244.9" y="75.7" class="st1" width="37.4" height="2.2"/>
</g>
<g>
	<rect x="223.2" y="75.7" class="st1" width="32.4" height="2.2"/>
</g>
<g>
	<rect x="223.2" y="82.8" class="st1" width="15.3" height="2.2"/>
</g>
<g>
	<rect x="247.4" y="82.8" class="st1" width="35" height="2.2"/>
</g>
<g>
	<rect x="258.7" y="89.8" class="st1" width="23.7" height="2.2"/>
</g>
<g>
	<rect x="222.9" y="89.8" class="st1" width="27.5" height="2.2"/>
</g>
<g>
	<rect x="382.6" y="29.3" class="st1" width="37.4" height="2.2"/>
</g>
<g>
	<rect x="360.9" y="29.3" class="st1" width="32.4" height="2.2"/>
</g>
<g>
	<rect x="360.9" y="36.3" class="st1" width="15.3" height="2.2"/>
</g>
<g>
	<rect x="385" y="36.3" class="st1" width="35" height="2.2"/>
</g>
<g>
	<rect x="382.5" y="14.9" class="st1" width="37.4" height="2.2"/>
</g>
<g>
	<rect x="360.7" y="14.9" class="st1" width="32.4" height="2.2"/>
</g>
<g>
	<rect x="360.7" y="21.9" class="st1" width="15.3" height="2.2"/>
</g>
<g>
	<rect x="384.9" y="21.9" class="st1" width="35" height="2.2"/>
</g>
<g>
	<rect x="396.4" y="43.4" class="st1" width="23.7" height="2.2"/>
</g>
<g>
	<rect x="360.5" y="43.4" class="st1" width="27.5" height="2.2"/>
</g>
<g>
	<rect x="255.6" y="96.8" class="st1" width="26.8" height="2.2"/>
</g>
<g>
	<rect x="222.9" y="96.8" class="st1" width="34.7" height="2.2"/>
</g>
<g>
	<rect x="382.5" y="52.7" class="st1" width="23.6" height="1.2"/>
</g>
<g>
	<rect x="402.1" y="58.5" class="st1" width="14.9" height="1.2"/>
</g>
<g>
	<rect x="208.2" y="107.3" class="st1" width="14.9" height="1.2"/>
</g>
<g>
	<rect x="274" y="107.3" class="st1" width="14.9" height="1.2"/>
</g>
<g>
	<g>
		<rect x="413" y="65.7" class="st1" width="1.2" height="2.9"/>
	</g>
	<g>
		<rect x="413" y="70.9" class="st1" width="1.2" height="2.9"/>
	</g>
	<g>
		<rect x="409.5" y="69.2" class="st1" width="2.9" height="1.2"/>
	</g>
	<g>
		<rect x="414.7" y="69.2" class="st1" width="2.9" height="1.2"/>
	</g>
</g>
<g>
	<g>
		<rect x="208" y="67.6" class="st1" width="1.2" height="2.9"/>
	</g>
	<g>
		<rect x="208" y="72.8" class="st1" width="1.2" height="2.9"/>
	</g>
	<g>
		<rect x="204.6" y="71.1" class="st1" width="2.9" height="1.2"/>
	</g>
	<g>
		<rect x="209.7" y="71.1" class="st1" width="2.9" height="1.2"/>
	</g>
</g>
<g>
	<g>
		<rect x="445.4" y="87.2" class="st1" width="35" height="1.7"/>
	</g>
	<g>
		<rect x="474.4" y="95.9" class="st1" width="22.1" height="1.7"/>
	</g>
	<g>
		<g>
			<rect x="450.1" y="96" class="st1" width="1.7" height="4.3"/>
		</g>
		<g>
			<rect x="450.1" y="103.7" class="st1" width="1.7" height="4.3"/>
		</g>
		<g>
			<rect x="445" y="101.1" class="st1" width="4.3" height="1.7"/>
		</g>
		<g>
			<rect x="452.6" y="101.1" class="st1" width="4.3" height="1.7"/>
		</g>
	</g>
</g>
<g>
	<rect x="228.6" y="33.8" class="st1" width="9.1" height="1.3"/>
</g>
<rect x="234.8" y="8.4" class="st0" width="85.4" height="16.2"/>
<path class="st1" d="M320.2,25.3h-85.4c-0.4,0-0.6-0.3-0.6-0.6V8.4c0-0.4,0.3-0.6,0.6-0.6h85.4c0.4,0,0.6,0.3,0.6,0.6v16.2
	C320.9,25,320.6,25.3,320.2,25.3z M235.4,24h84.2V9.1h-84.2V24z"/>
<rect x="240.3" y="8.4" class="st3" width="6.7" height="16.2"/>
<path class="st1" d="M247,25.3h-6.7c-0.4,0-0.6-0.3-0.6-0.6V8.4c0-0.4,0.3-0.6,0.6-0.6h6.7c0.4,0,0.6,0.3,0.6,0.6v16.2
	C247.7,25,247.4,25.3,247,25.3z M240.9,24h5.4V9.1h-5.4V24z"/>
<rect x="250" y="8.4" class="st3" width="3.4" height="16.2"/>
<path class="st1" d="M253.4,25.3H250c-0.4,0-0.6-0.3-0.6-0.6V8.4c0-0.4,0.3-0.6,0.6-0.6h3.4c0.4,0,0.6,0.3,0.6,0.6v16.2
	C254.1,25,253.8,25.3,253.4,25.3z M250.6,24h2.2V9.1h-2.2V24z"/>
<rect x="239.2" y="46.8" class="st0" width="85.4" height="16.2"/>
<path class="st3" d="M326.6,61.4h-83.4v-13h83.4c0.9,0,1.7-0.7,1.7-1.6c0-0.9-0.7-1.6-1.7-1.6h-89v19.3h89c0.9,0,1.7-0.7,1.7-1.6
	C328.2,62.1,327.5,61.4,326.6,61.4z"/>
<path class="st1" d="M326.6,65.2h-89c-0.4,0-0.6-0.3-0.6-0.6V45.2c0-0.4,0.3-0.6,0.6-0.6h89c1.3,0,2.3,1,2.3,2.2
	c0,1.2-1,2.2-2.3,2.2h-82.7v11.7h82.7c1.3,0,2.3,1,2.3,2.2C328.9,64.2,327.8,65.2,326.6,65.2z M238.2,63.9h88.4c0.6,0,1-0.4,1-0.9
	c0-0.5-0.5-0.9-1-0.9h-83.4c-0.4,0-0.6-0.3-0.6-0.6v-13c0-0.4,0.3-0.6,0.6-0.6h83.4c0.6,0,1-0.4,1-0.9c0-0.5-0.5-0.9-1-0.9h-88.4
	V63.9z"/>
<polygon class="st6" points="264.1,53.7 264.1,71.7 268.9,66.8 273.6,68 273.6,53.7 "/>
<path class="st1" d="M263.5,73.2V53h10.8v15.8l-5.2-1.3L263.5,73.2z M264.8,54.3v15.8l3.9-4l4.3,1.1V54.3H264.8z"/>
<g>
	<g>
		<rect x="340.2" y="61.6" class="st1" width="1.3" height="3.3"/>
	</g>
	<g>
		<rect x="340.2" y="67.4" class="st1" width="1.3" height="3.3"/>
	</g>
	<g>
		<rect x="336.3" y="65.5" class="st1" width="3.3" height="1.3"/>
	</g>
	<g>
		<rect x="342.1" y="65.5" class="st1" width="3.3" height="1.3"/>
	</g>
</g>
<g>
	<rect x="403.7" y="-21.5" class="st1" width="20.3" height="1.6"/>
</g>
<g>
	<rect x="457.2" y="17.1" class="st1" width="3.5" height="1.6"/>
</g>
<g>
	<rect x="467" y="17.1" class="st1" width="3.5" height="1.6"/>
</g>
<g>
	<g>
		<rect x="486.9" y="12.4" class="st1" width="1.6" height="4"/>
	</g>
	<g>
		<rect x="486.9" y="19.5" class="st1" width="1.6" height="4"/>
	</g>
	<g>
		<rect x="482.2" y="17.1" class="st1" width="4" height="1.6"/>
	</g>
	<g>
		<rect x="489.2" y="17.1" class="st1" width="4" height="1.6"/>
	</g>
</g>
<g>
	<g>
		<rect x="680.8" y="89.5" class="st1" width="1.6" height="4"/>
	</g>
	<g>
		<rect x="680.8" y="96.5" class="st1" width="1.6" height="4"/>
	</g>
	<g>
		<rect x="676" y="94.2" class="st1" width="4" height="1.6"/>
	</g>
	<g>
		<rect x="683.1" y="94.2" class="st1" width="4" height="1.6"/>
	</g>
</g>
<g>
	<rect x="861.7" y="92.4" class="st1" width="13.2" height="1.9"/>
</g>
<g>
	<rect x="882.6" y="92.4" class="st1" width="30.3" height="1.9"/>
</g>
<g>
	<rect x="892.4" y="98.5" class="st1" width="20.5" height="1.9"/>
</g>
<g>
	<rect x="861.5" y="98.5" class="st1" width="23.8" height="1.9"/>
</g>
<g>
	<rect x="889.7" y="104.6" class="st1" width="23.2" height="1.9"/>
</g>
<g>
	<rect x="861.5" y="104.6" class="st1" width="30" height="1.9"/>
</g>
<g>
	<rect x="856.7" y="82.5" class="st1" width="12.9" height="1"/>
</g>
<g>
	<rect x="918.7" y="37.1" class="st1" width="5.9" height="1"/>
</g>
<g>
	<rect x="851.6" y="78.4" class="st1" width="10.1" height="1"/>
</g>
<g>
	<rect x="923.5" y="43.1" class="st1" width="2.2" height="1"/>
</g>
<g>
	<rect x="929.7" y="43.1" class="st1" width="2.2" height="1"/>
</g>
<path class="st9" d="M913.1,68.3c0,2.8-2.3,5-5.1,5h-41.6c-2.8,0-5.1-2.2-5.1-5v-54c0-2.8,2.3-5,5.1-5H908c2.8,0,5.1,2.2,5.1,5V68.3
	z"/>
<g>
	<g>
		<path class="st10" d="M918.7,64.3c0,9.8-7.9,17.7-17.7,17.7s-17.7-7.9-17.7-17.7c0-9.8,7.9-17.7,17.7-17.7S918.7,54.5,918.7,64.3z
			"/>
	</g>
</g>
<path class="st11" d="M901.4,45c-10.6,0-19.1,8.6-19.1,19.1c0,10.6,8.6,19.1,19.1,19.1c4.6,0,8.7-1.6,12-4.2
	c0.1,0.3,0.3,0.5,0.5,0.8l11.9,11.9c0.6,0.7,1.5,1,2.4,1c0.9,0,1.7-0.3,2.4-1c1.3-1.3,1.3-3.4,0-4.8L918.7,75
	c-0.3-0.3-0.7-0.6-1.1-0.7c1.9-3,2.9-6.4,2.9-10.1C920.5,53.6,912,45,901.4,45z"/>
<path class="st1" d="M928.2,93.2c-1,0-2-0.4-2.7-1.1l-11.9-11.9c-0.1-0.1-0.2-0.2-0.3-0.4c-3.4,2.6-7.5,4-11.9,4
	c-10.8,0-19.6-8.8-19.6-19.6c0-10.8,8.8-19.6,19.6-19.6c10.8,0,19.6,8.8,19.6,19.6c0,3.5-0.9,6.9-2.7,9.9c0.3,0.2,0.5,0.3,0.8,0.6
	l11.9,11.9c0.7,0.7,1.1,1.7,1.1,2.7c0,1-0.4,2-1.1,2.7C930.2,92.8,929.2,93.2,928.2,93.2z M913.4,78.5c0,0,0.1,0,0.1,0
	c0.1,0,0.3,0.1,0.3,0.3c0.1,0.3,0.2,0.5,0.4,0.6l11.9,11.9c1,1.1,2.9,1.1,4,0c0.5-0.5,0.8-1.3,0.8-2c0-0.8-0.3-1.5-0.8-2l-11.9-11.9
	c-0.3-0.3-0.6-0.5-0.9-0.6c-0.1-0.1-0.2-0.2-0.3-0.3c0-0.1,0-0.3,0.1-0.4c1.9-2.9,2.9-6.4,2.9-9.9c0-10.3-8.3-18.6-18.6-18.6
	c-10.3,0-18.6,8.4-18.6,18.6c0,10.3,8.4,18.6,18.6,18.6c4.3,0,8.4-1.4,11.7-4.1C913.2,78.6,913.3,78.5,913.4,78.5z"/>
<path class="st12" d="M901.4,48c8.9,0,16.2,7.3,16.2,16.2c0,3-0.8,6-2.5,8.6l-1.5,2.3l-2.1,1.7c-2.9,2.4-6.4,3.6-10.2,3.6
	c-8.9,0-16.2-7.2-16.2-16.2C885.2,55.2,892.5,48,901.4,48z"/>
<rect x="867.4" y="17.5" class="st10" width="39.5" height="13.7"/>
<path class="st1" d="M906.9,31.6h-39.5c-0.3,0-0.5-0.2-0.5-0.5V17.5c0-0.3,0.2-0.5,0.5-0.5h39.5c0.3,0,0.5,0.2,0.5,0.5v13.7
	C907.4,31.4,907.2,31.6,906.9,31.6z M867.9,30.6h38.5V18h-38.5V30.6z"/>
<g>
	<g>
		<rect x="923.7" y="5.8" class="st1" width="1" height="2.5"/>
	</g>
	<g>
		<rect x="923.7" y="10.3" class="st1" width="1" height="2.5"/>
	</g>
	<g>
		<rect x="920.7" y="8.8" class="st1" width="2.5" height="1"/>
	</g>
	<g>
		<rect x="925.2" y="8.8" class="st1" width="2.5" height="1"/>
	</g>
</g>
<g>
	<g>
		<rect x="921.5" y="105.2" class="st1" width="1" height="2.5"/>
	</g>
	<g>
		<rect x="921.5" y="109.7" class="st1" width="1" height="2.5"/>
	</g>
	<g>
		<rect x="918.5" y="108.2" class="st1" width="2.5" height="1"/>
	</g>
	<g>
		<rect x="922.9" y="108.2" class="st1" width="2.5" height="1"/>
	</g>
</g>
<rect x="447.1" y="-61.2" class="st1" width="34.3" height="30.2"/>
<rect x="496.1" y="-61.2" class="st6" width="34.3" height="30.2"/>
<rect x="548.8" y="-61.2" class="st7" width="34.3" height="30.2"/>
<g>
	<rect x="254.8" y="26.4" class="st0" width="85.4" height="16.2"/>
	<path class="st1" d="M254.8,25.8h85.4c0.4,0,0.6,0.3,0.6,0.6v16.2c0,0.4-0.3,0.6-0.6,0.6h-85.4c-0.4,0-0.6-0.3-0.6-0.6V26.4
		C254.2,26.1,254.4,25.8,254.8,25.8z M339.6,27.1h-84.2V42h84.2V27.1z"/>
	<rect x="328" y="26.4" class="st3" width="6.7" height="16.2"/>
	<path class="st1" d="M328,25.8h6.7c0.4,0,0.6,0.3,0.6,0.6v16.2c0,0.4-0.3,0.6-0.6,0.6H328c-0.4,0-0.6-0.3-0.6-0.6V26.4
		C327.4,26.1,327.7,25.8,328,25.8z M334.1,27.1h-5.4V42h5.4V27.1z"/>
	<rect x="321.6" y="26.4" class="st3" width="3.4" height="16.2"/>
	<path class="st1" d="M321.6,25.8h3.4c0.4,0,0.6,0.3,0.6,0.6v16.2c0,0.4-0.3,0.6-0.6,0.6h-3.4c-0.4,0-0.6-0.3-0.6-0.6V26.4
		C321,26.1,321.2,25.8,321.6,25.8z M324.4,27.1h-2.2V42h2.2V27.1z"/>
</g>
<g>
	<rect x="704" y="9.5" class="st0" width="102.9" height="19.6"/>
	<path class="st1" d="M806.9,29.9H704c-0.4,0-0.8-0.4-0.8-0.8V9.5c0-0.4,0.3-0.8,0.8-0.8h102.9c0.4,0,0.8,0.4,0.8,0.8v19.6
		C807.7,29.5,807.3,29.9,806.9,29.9z M704.8,28.3h101.3v-18H704.8V28.3z"/>
	<rect x="714.3" y="10.3" class="st3" width="8.1" height="19.6"/>
	<path class="st1" d="M722.4,29.9h-8.1c-0.4,0-0.8-0.4-0.8-0.8V9.5c0-0.4,0.3-0.8,0.8-0.8h8.1c0.4,0,0.8,0.4,0.8,0.8v19.6
		C723.2,29.5,722.8,29.9,722.4,29.9z M715.1,28.3h6.6v-18h-6.6V28.3z"/>
	<rect x="725.7" y="10.3" class="st3" width="8.1" height="19.6"/>
	<path class="st1" d="M733.8,29.9h-8.1c-0.4,0-0.8-0.4-0.8-0.8V9.5c0-0.4,0.3-0.8,0.8-0.8h8.1c0.4,0,0.8,0.4,0.8,0.8v19.6
		C734.5,29.5,734.2,29.9,733.8,29.9z M726.4,28.3h6.6v-18h-6.6V28.3z"/>
	<g>
		<rect x="776.8" y="10.3" class="st3" width="8.1" height="19.6"/>
		<path class="st1" d="M784.9,29.9h-8.1c-0.4,0-0.8-0.4-0.8-0.8V9.5c0-0.4,0.3-0.8,0.8-0.8h8.1c0.4,0,0.8,0.4,0.8,0.8v19.6
			C785.7,29.5,785.3,29.9,784.9,29.9z M777.5,28.3h6.6v-18h-6.6V28.3z"/>
		<rect x="788.1" y="10.3" class="st3" width="8.1" height="19.6"/>
		<path class="st1" d="M796.2,29.9h-8.1c-0.4,0-0.8-0.4-0.8-0.8V9.5c0-0.4,0.3-0.8,0.8-0.8h8.1c0.4,0,0.8,0.4,0.8,0.8v19.6
			C797,29.5,796.7,29.9,796.2,29.9z M788.9,28.3h6.6v-18h-6.6V28.3z"/>
	</g>
</g>
</svg>
