<?xml version="1.0" encoding="utf-8"?>
<!-- Generator: Adobe Illustrator 22.1.0, SVG Export Plug-In . SVG Version: 6.00 Build 0)  -->
<svg version="1.1" id="Layer_1" xmlns="http://www.w3.org/2000/svg" xmlns:xlink="http://www.w3.org/1999/xlink" x="0px" y="0px"
	 viewBox="0 0 192 105" style="enable-background:new 0 0 192 105;" xml:space="preserve">
<style type="text/css">
	.st0{fill:#3C3C3C;}
	.st1{fill:#F8B921;}
	.st2{fill:#3B3B3B;}
</style>
<path class="st0" d="M47.8,67.7c1.6,1.8,2.4,5,1.2,6.8c-2.8,4.2-2,9.2-3.7,13.6c-2.1,5.5,0.9,9,6.5,7.8c6.7-1.4,13.4-2.3,20.2-2.5
	c2.4-0.1,4.7-0.3,4.7-3c0.1-2.7-2.4-3.1-4.6-3.6c-5.3-1.2-10.6-0.1-15.9,0c-0.9,0-2.5,0.9-2.8-0.9c-0.1-1.2,0.5-2.4,1.5-2.9
	c1.3-0.7,2.7-1.3,4.1-1.7c3.2-0.9,6.4-1.6,9.6-2.4c1.7-0.4,2.6-1.6,2.6-3.2c-0.1-2.2-2-1.8-3.4-1.9c-3.7-0.1-7.5,0-12.2,0
	c6.2-7.3,16.8-5.1,22.6-11.8c-3.2-2.1-6.1-1.8-9.3-1.4c-7.4,0.7-13.2-0.3-20.2,2.6C47.6,63.6,47,66.8,47.8,67.7z"/>
<path class="st0" d="M42.8,67.7c-0.8,0-6.6,0.6-17.4,1.2c-2.7,0.2-3.6,1.9-3.3,4c0.4,2.5,2.6,1.3,4,1.2c4-0.2,7.8-1.8,11.9-1.1
	c1.3,0.2,3.3-0.1,3.6,1.9c0.3,2-1.3,2.4-2.7,3c-4.8,1.9-9.7,3.5-14.8,3.9c-2.6,0.2-4,0.8-3.8,3.7c0.1,2-0.3,4-0.4,6
	c0,2.1-0.3,4.1-2.4,5.1c-2.6,1.2-3.8-1.1-5.2-2.6c0-4,0-8,0-12c2.1-4.5,3.3-9.1,2.1-14.1c-0.6-2.7-0.2-4.5,3-5
	c7.2-1.1,14.5-1.9,21.8-1.8c0.3,0,0.7-0.1,1,0.1c1.8,1,3.7,0.3,4.5,2C45.4,64.4,42.8,67.7,42.8,67.7z"/>
<path class="st1" d="M121.4,7.9c9.3,1.3,17.8,5.6,25.4,11.5c3,2.4,6,4.8,8.1,8c0.5,0.8,1.3,1.7,0.5,2.7c-0.8,1.1-1.8,0.4-2.7,0
	c-2.9-1.3-5.3-3.4-7.6-5.5c-5.7-5.2-12.2-8.5-20.2-8.2c-3,0.1-6-0.5-8.7-1.8c-3.2-1.5-5.7-5-1.7-6.8C116.5,7,119.1,7.6,121.4,7.9z"
	/>
<path class="st1" d="M137,30.7c-7.9-0.2-10.9,4.4-7.5,11.5c1.2,2.6,2.3,5.2,2.4,8.1c0.2,4.1-2.2,6.1-6.3,5.4
	c-9.9-1.6-18.4-17.3-14.3-26.4c3-6.5,9-7.9,15.3-8.1c5-0.2,9.9,0.8,14.3,3.6c1.4,0.9,3.2,1.9,2.7,3.8c-0.6,2.1-2.7,2.1-4.6,2.2
	C138.4,30.7,137.7,30.7,137,30.7z"/>
<path class="st1" d="M174.7,74.9c-15.3-0.9-34.7-18.7-36.9-33.5c-0.3-2.2-0.3-4.4,1.8-5.8c2-1.3,3.8,0,5.5,1c2.9,1.9,4.8,4.6,6,7.8
	c3.6,9.3,10.1,15,20,16.7c2.8,0.5,5.3,1.9,7.4,3.9c2,1.9,3.7,4.2,2.6,7C180,74.9,177,74.8,174.7,74.9z"/>
<path class="st2" d="M101.7,82.1c-4.8-2.1-8.2-3.6-11.6-5.3c-2.8-1.4-5.8-2.7-8.3-4.5c-3.9-2.9-3.2-7.1,1.4-8.8
	c4.7-1.7,9.6-2.6,14.6-2.5c2.1,0,4,0.5,5.4,2.1c0.7,0.9,1.4,2,0.9,3.2c-0.6,1.3-1.9,1.4-3,1c-3.7-1-7.1,0.4-11.4,0.9
	c2.4,2.7,5.3,2.9,7.7,4.1c2.3,1.2,4.9,2.1,7.1,3.5c5.2,3.4,5.5,9.7,0.4,13.3c-6.2,4.4-13.5,6.1-21,7c-2.4,0.3-4.9-0.3-5.2-3.3
	c-0.3-3,2.2-3.2,4.2-3.8C88.9,87.4,95,85.8,101.7,82.1z"/>
<path class="st0" d="M127.6,88c5.4,0.1,9.6-0.8,13.9-1.4c1-0.1,2.4-0.2,3,1.2c0.6,1.5,0,2.8-1.2,3.4c-7.9,4.2-16.1,7.1-25.1,3.8
	c-6.7-2.5-9.2-7.3-7.4-14.3c2.2-8.5,14.5-19.1,23.2-19.8c1.7-0.1,3.1,0.1,3.2,2.1c0.1,1.7,1,3.7-1.6,4.5c-4,1.1-7.7,3.1-11,5.6
	c-0.3,0.2-0.5,0.4-0.8,0.6c-3.3,3-8,6.4-6.6,10.9C118.6,89.5,124.5,87.6,127.6,88z"/>
<path class="st1" d="M174.2,42c-0.2-1.2-0.7-2.5,0.7-3.1c1.2-0.6,2.3,0.1,3.1,0.9c1.1,1,2.3,2,3,3.3c1.9,3.3,4,7,1.6,10.7
	c-2.6,3.9-6.6,3.1-10.4,2.1c-5.7-1.5-10.9-4.1-15-8.5c-0.9-0.9-2-2-1.1-3.5c0.8-1.4,2.4-1.4,3.6-1c3.2,0.9,6.2,2.3,9.4,3.1
	C172.4,47,174.7,46.1,174.2,42z"/>
<path class="st1" d="M148,15.6c9.5,3.3,16.5,9.4,20.8,18.4c1.1,2.4,1.2,4.9-0.8,6.9c-1.2,1.2-2.8,1.2-4.1,0.4
	c-2.3-1.4-5-3.3-4.2-6.2c1.8-6.7-2.4-10-6.7-13.5C150.9,20,148.7,18.5,148,15.6z"/>
</svg>
