<?xml version="1.0" encoding="utf-8"?>
<!-- Generator: Adobe Illustrator 22.1.0, SVG Export Plug-In . SVG Version: 6.00 Build 0)  -->
<svg version="1.1" id="Layer_1" xmlns="http://www.w3.org/2000/svg" xmlns:xlink="http://www.w3.org/1999/xlink" x="0px" y="0px"
	 viewBox="0 0 775 165" style="enable-background:new 0 0 775 165;" xml:space="preserve">
<style type="text/css">
	.st0{fill:#FFE3B6;}
	.st1{fill:#475670;}
	.st2{fill:none;stroke:#475670;stroke-miterlimit:10;}
	.st3{fill:#F8B921;}
	.st4{fill:#FFFFFF;}
	.st5{fill:#F8B921;stroke:#475670;stroke-miterlimit:10;}
	.st6{fill:#FFE3B6;stroke:#475670;stroke-miterlimit:10;}
	.st7{fill:#FFE3B6;stroke:#475670;stroke-width:5;stroke-miterlimit:10;}
	.st8{fill:#FFFFFF;stroke:#475670;stroke-miterlimit:10;}
</style>
<polygon class="st0" points="768,165 -0.5,165 24.5,145 748,145 "/>
<rect x="63" y="86" class="st1" width="6" height="68"/>
<rect x="37.5" y="103.5" class="st1" width="4" height="51"/>
<rect x="127" y="80" class="st1" width="5" height="74"/>
<rect x="150.5" y="100.5" class="st1" width="4" height="54"/>
<rect x="173.5" y="91.5" class="st1" width="5" height="63"/>
<g>
	<line class="st2" x1="223.2" y1="54.6" x2="227.5" y2="60.1"/>
	<g>
		<circle class="st3" cx="208.4" cy="35.5" r="17.7"/>
		<circle class="st2" cx="208.4" cy="35.5" r="19.8"/>
		<line class="st2" x1="208.5" y1="11.5" x2="208.5" y2="4.5"/>
		<line class="st2" x1="209.5" y1="66.5" x2="209.5" y2="59.5"/>
		<line class="st2" x1="185" y1="37.5" x2="178" y2="37.5"/>
		<line class="st2" x1="240" y1="36.5" x2="233" y2="36.5"/>
		<line class="st2" x1="193.1" y1="53.1" x2="188.1" y2="57.9"/>
		<line class="st2" x1="231.9" y1="14.1" x2="226.9" y2="18.9"/>
		<line class="st2" x1="188.5" y1="11.9" x2="192.8" y2="17.4"/>
	</g>
</g>
<path class="st0" d="M62,21c0,0,0-7,5-9s10,1,11,3s1,5,1,5s8,0,10,4s0,9-1,10s-3,3-5,3s-25,0-27,0s-8-3.8-7-10c1-6,6-7,9-7
	S62,21,62,21z"/>
<path class="st0" d="M86.5,34.9c0,0,0-3.5,2.5-4.6s5.1,0.5,5.6,1.5c0.5,1,0.5,2.5,0.5,2.5s4.1,0,5.1,2s0,4.6-0.5,5.1
	C99.2,42,98.2,43,97.2,43s-12.7,0-13.7,0s-4.1-1.9-3.5-5.1c0.5-3,3-3.5,4.6-3.5C86,34.4,86.5,34.9,86.5,34.9z"/>
<path class="st0" d="M293.1,19.8c0,0,0-4.9,3.5-6.3c3.5-1.4,7,0.7,7.7,2.1c0.7,1.4,0.7,3.5,0.7,3.5s5.6,0,7,2.8s0,6.3-0.7,7
	c-0.7,0.7-2.1,2.1-3.5,2.1s-17.5,0-18.9,0s-5.6-2.6-4.9-7c0.7-4.2,4.2-4.9,6.3-4.9C292.4,19.1,293.1,19.8,293.1,19.8z"/>
<path class="st0" d="M421.1,29.8c0,0,0-4.9,3.5-6.3c3.5-1.4,7,0.7,7.7,2.1c0.7,1.4,0.7,3.5,0.7,3.5s5.6,0,7,2.8s0,6.3-0.7,7
	c-0.7,0.7-2.1,2.1-3.5,2.1s-17.5,0-18.9,0s-5.6-2.6-4.9-7c0.7-4.2,4.2-4.9,6.3-4.9C420.4,29.1,421.1,29.8,421.1,29.8z"/>
<path class="st0" d="M449.3,18.4c0,0,0-7.7,5.5-9.9s11,1.1,12.1,3.3c1.1,2.2,1.1,5.5,1.1,5.5s8.8,0,11,4.4c2.2,4.4,0,9.9-1.1,11
	c-1.1,1.1-3.3,3.3-5.5,3.3c-2.2,0-27.5,0-29.7,0c-2.2,0-8.9-4.1-7.7-11c1.1-6.6,6.6-7.7,9.9-7.7C448.2,17.3,449.3,18.4,449.3,18.4z"
	/>
<path class="st0" d="M580.3,16.4c0,0,0-7.7,5.5-9.9c5.5-2.2,11,1.1,12.1,3.3s1.1,5.5,1.1,5.5s8.8,0,11,4.4s0,9.9-1.1,11
	c-1.1,1.1-3.3,3.3-5.5,3.3s-27.5,0-29.7,0c-2.2,0-8.9-4.1-7.7-11c1.1-6.6,6.6-7.7,9.9-7.7C579.2,15.3,580.3,16.4,580.3,16.4z"/>
<g>
	<polygon class="st0" points="55.2,99 43,71.2 75.2,66.8 83,80.1 63,93.7 	"/>
	<polygon class="st3" points="55.2,99 59.7,85.7 63,93.4 	"/>
	<polygon class="st3" points="61.9,94.6 66.3,81.2 69.7,89 	"/>
	<polygon class="st3" points="69.7,89 74.6,77.9 77.4,83.7 	"/>
	<polygon class="st3" points="77.4,83.4 79.7,75.7 83,80.2 	"/>
	<polygon class="st3" points="51.9,90.1 55.2,77.9 59.7,87.9 	"/>
	<polygon class="st3" points="59.7,86.8 63,74.6 66.3,82.3 	"/>
	<polygon class="st3" points="66.3,82.3 71.3,72.3 74.1,78.2 	"/>
	<polygon class="st3" points="74.1,77.9 77.3,70.1 79.7,74.6 	"/>
	<polygon class="st3" points="47.4,80.1 51.8,69.6 55.2,77.9 	"/>
	<polygon class="st3" points="55.2,77.9 60.8,69 64.1,74.6 	"/>
	<polygon class="st3" points="64.1,74.6 68.6,67.9 70.8,72.3 	"/>
	<polygon class="st3" points="70.8,72.3 75.2,66.8 77.4,70.2 	"/>
	<line class="st2" x1="62.7" y1="94" x2="52.2" y2="69.8"/>
	<line class="st2" x1="61.1" y1="68.5" x2="69.3" y2="89.4"/>
	<line class="st2" x1="68.8" y1="67.2" x2="77" y2="83.7"/>
	<line class="st2" x1="80.1" y1="74.8" x2="51.6" y2="91"/>
	<line class="st2" x1="77.8" y1="70.4" x2="46.9" y2="80.7"/>
	<polygon class="st2" points="55.2,99 43,71.2 75.2,66.8 83,80.1 63,93.7 	"/>
</g>
<g>
	<polygon class="st0" points="112.7,97.5 95,57.2 141.7,50.8 153,70.1 124,89.8 	"/>
	<polygon class="st3" points="112.7,97.5 119.2,78.1 124,89.4 	"/>
	<polygon class="st3" points="122.4,91 128.8,71.7 133.7,83 	"/>
	<polygon class="st3" points="133.7,83 140.8,66.9 144.9,75.3 	"/>
	<polygon class="st3" points="144.9,74.9 148.2,63.6 153,70.2 	"/>
	<polygon class="st3" points="107.9,84.6 112.7,66.9 119.2,81.4 	"/>
	<polygon class="st3" points="119.2,79.8 124,62 128.8,73.3 	"/>
	<polygon class="st3" points="128.8,73.3 136,58.8 140.1,67.3 	"/>
	<polygon class="st3" points="140.1,66.9 144.7,55.6 148.2,62.2 	"/>
	<polygon class="st3" points="101.4,70.1 107.7,54.9 112.7,66.9 	"/>
	<polygon class="st3" points="112.7,66.9 120.8,54 125.6,62 	"/>
	<polygon class="st3" points="125.6,62 132.1,52.4 135.3,58.8 	"/>
	<polygon class="st3" points="135.3,58.8 141.7,50.8 144.9,55.7 	"/>
	<line class="st2" x1="123.6" y1="90.3" x2="108.3" y2="55.2"/>
	<line class="st2" x1="121.2" y1="53.3" x2="133.1" y2="83.6"/>
	<line class="st2" x1="132.4" y1="51.4" x2="144.2" y2="75.3"/>
	<line class="st2" x1="148.8" y1="62.3" x2="107.4" y2="85.8"/>
	<line class="st2" x1="145.4" y1="55.9" x2="100.6" y2="70.9"/>
	<polygon class="st2" points="112.7,97.5 95,57.2 141.7,50.8 153,70.1 124,89.8 	"/>
</g>
<g>
	<polygon class="st0" points="145.3,108 136.2,87.3 160.2,84 166,93.9 151.1,104.1 	"/>
	<polygon class="st3" points="145.3,108 148.6,98.1 151.1,103.9 	"/>
	<polygon class="st3" points="150.3,104.7 153.6,94.8 156.1,100.6 	"/>
	<polygon class="st3" points="156.1,100.6 159.7,92.3 161.9,96.6 	"/>
	<polygon class="st3" points="161.9,96.4 163.5,90.6 166,94 	"/>
	<polygon class="st3" points="142.8,101.4 145.3,92.3 148.6,99.7 	"/>
	<polygon class="st3" points="148.6,98.9 151.1,89.8 153.6,95.6 	"/>
	<polygon class="st3" points="153.6,95.6 157.3,88.1 159.4,92.5 	"/>
	<polygon class="st3" points="159.4,92.3 161.7,86.5 163.5,89.9 	"/>
	<polygon class="st3" points="139.5,93.9 142.7,86.1 145.3,92.3 	"/>
	<polygon class="st3" points="145.3,92.3 149.4,85.7 151.9,89.8 	"/>
	<polygon class="st3" points="151.9,89.8 155.2,84.8 156.9,88.1 	"/>
	<polygon class="st3" points="156.9,88.1 160.2,84 161.9,86.6 	"/>
	<line class="st2" x1="150.9" y1="104.3" x2="143.1" y2="86.3"/>
	<line class="st2" x1="149.7" y1="85.3" x2="155.8" y2="100.9"/>
	<line class="st2" x1="155.4" y1="84.3" x2="161.5" y2="96.6"/>
	<line class="st2" x1="163.8" y1="89.9" x2="142.6" y2="102"/>
	<line class="st2" x1="162.1" y1="86.7" x2="139.1" y2="94.3"/>
	<polygon class="st2" points="145.3,108 136.2,87.3 160.2,84 166,93.9 151.1,104.1 	"/>
</g>
<g>
	<polygon class="st0" points="29.5,115 20,93.4 45,90 51,100.3 35.5,110.9 	"/>
	<polygon class="st3" points="29.5,115 32.9,104.7 35.5,110.7 	"/>
	<polygon class="st3" points="34.7,111.6 38.1,101.2 40.7,107.2 	"/>
	<polygon class="st3" points="40.7,107.2 44.5,98.6 46.7,103.1 	"/>
	<polygon class="st3" points="46.7,102.9 48.4,96.9 51,100.4 	"/>
	<polygon class="st3" points="26.9,108.1 29.5,98.6 32.9,106.4 	"/>
	<polygon class="st3" points="32.9,105.5 35.5,96 38.1,102.1 	"/>
	<polygon class="st3" points="38.1,102.1 41.9,94.3 44.1,98.8 	"/>
	<polygon class="st3" points="44.1,98.6 46.6,92.6 48.4,96.1 	"/>
	<polygon class="st3" points="23.4,100.3 26.8,92.2 29.5,98.6 	"/>
	<polygon class="st3" points="29.5,98.6 33.8,91.7 36.4,96 	"/>
	<polygon class="st3" points="36.4,96 39.8,90.9 41.6,94.3 	"/>
	<polygon class="st3" points="41.6,94.3 45,90 46.7,92.7 	"/>
	<line class="st2" x1="35.3" y1="111.1" x2="27.1" y2="92.4"/>
	<line class="st2" x1="34" y1="91.3" x2="40.4" y2="107.6"/>
	<line class="st2" x1="40" y1="90.3" x2="46.3" y2="103.1"/>
	<line class="st2" x1="48.8" y1="96.2" x2="26.6" y2="108.8"/>
	<line class="st2" x1="47" y1="92.8" x2="23" y2="100.8"/>
	<polygon class="st2" points="29.5,115 20,93.4 45,90 51,100.3 35.5,110.9 	"/>
</g>
<g>
	<polygon class="st0" points="167.6,101.6 156,75.2 186.6,71 194,83.7 175,96.6 	"/>
	<polygon class="st3" points="167.6,101.6 171.8,88.9 175,96.3 	"/>
	<polygon class="st3" points="173.9,97.4 178.2,84.7 181.3,92.1 	"/>
	<polygon class="st3" points="181.3,92.1 186,81.6 188.7,87.1 	"/>
	<polygon class="st3" points="188.7,86.8 190.8,79.4 194,83.8 	"/>
	<polygon class="st3" points="164.4,93.2 167.6,81.6 171.8,91.1 	"/>
	<polygon class="st3" points="171.8,90 175,78.4 178.2,85.8 	"/>
	<polygon class="st3" points="178.2,85.8 182.8,76.3 185.6,81.8 	"/>
	<polygon class="st3" points="185.6,81.6 188.6,74.2 190.8,78.5 	"/>
	<polygon class="st3" points="160.2,83.7 164.3,73.7 167.6,81.6 	"/>
	<polygon class="st3" points="167.6,81.6 172.9,73.1 176.1,78.4 	"/>
	<polygon class="st3" points="176.1,78.4 180.3,72.1 182.4,76.3 	"/>
	<polygon class="st3" points="182.4,76.3 186.6,71 188.7,74.3 	"/>
	<line class="st2" x1="174.8" y1="96.9" x2="164.7" y2="73.9"/>
	<line class="st2" x1="173.2" y1="72.6" x2="181" y2="92.5"/>
	<line class="st2" x1="180.5" y1="71.4" x2="188.3" y2="87.1"/>
	<line class="st2" x1="191.2" y1="78.6" x2="164.1" y2="94"/>
	<line class="st2" x1="189" y1="74.4" x2="159.7" y2="84.2"/>
	<polygon class="st2" points="167.6,101.6 156,75.2 186.6,71 194,83.7 175,96.6 	"/>
</g>
<g>
	<path class="st0" d="M651.5,32.8c0,0,0-4.9-3.5-6.3c-3.5-1.4-7,0.7-7.7,2.1c-0.7,1.4-0.7,3.5-0.7,3.5s-5.6,0-7,2.8
		c-1.4,2.8,0,6.3,0.7,7c0.7,0.7,2.1,2.1,3.5,2.1c1.4,0,17.5,0,18.9,0c1.4,0,5.6-2.6,4.9-7c-0.7-4.2-4.2-4.9-6.3-4.9
		C652.2,32.1,651.5,32.8,651.5,32.8z"/>
	<polygon class="st0" points="728.6,147 728.6,44 694.6,58.3 694.6,70.5 671.6,79.7 670.6,88.9 648.6,95 648.6,147 	"/>
	<rect x="711.6" y="78" transform="matrix(-1 -4.490642e-11 4.490642e-11 -1 1431.2488 175)" class="st4" width="8" height="19"/>
	<rect x="700.6" y="106" transform="matrix(-1 -4.490642e-11 4.490642e-11 -1 1409.2488 237)" class="st4" width="8" height="25"/>
	<rect x="681.1" y="87" transform="matrix(-1 -4.490642e-11 4.490642e-11 -1 1370.2488 186)" class="st4" width="8" height="12"/>
	<rect x="681.1" y="117" transform="matrix(-1 -4.490642e-11 4.490642e-11 -1 1370.2488 246)" class="st4" width="8" height="12"/>
	<rect x="659.6" y="106" transform="matrix(-1 -4.492907e-11 4.492907e-11 -1 1329.2488 227)" class="st4" width="10" height="15"/>
</g>
<g>
	<polygon class="st0" points="320.8,94.7 250,94.7 262.9,81.2 333.3,81.2 	"/>
	<rect x="296.3" y="67.1" class="st1" width="3.1" height="19.8"/>
	<polygon class="st0" points="251,153 251,92.6 317.6,92.6 333.3,81.2 333.3,153 	"/>
	<rect x="259.4" y="102" class="st4" width="6.2" height="16.7"/>
	<rect x="277.1" y="113.4" class="st4" width="5.2" height="18.7"/>
	<rect x="314.5" y="128" class="st4" width="5.2" height="18.7"/>
	<rect x="311.4" y="97.8" class="st4" width="5.2" height="18.7"/>
	<rect x="264.6" y="125.9" class="st4" width="5.2" height="18.7"/>
	<rect x="289.6" y="124.9" class="st4" width="7.3" height="12.5"/>
	<rect x="290.6" y="96.8" class="st4" width="8.3" height="16.7"/>
</g>
<line class="st2" x1="748" y1="145" x2="675.5" y2="145"/>
<line class="st2" x1="734" y1="149" x2="661.5" y2="149"/>
<line class="st2" x1="124" y1="145" x2="51.5" y2="145"/>
<line class="st2" x1="96" y1="148" x2="23.5" y2="148"/>
<path class="st5" d="M453.8,63c0,0-20.8,25.5-20.8,44.5c0,20.2,9.5,28.5,20.8,27.9c11.3,0.6,20.8-7.7,20.8-27.9
	C474.5,88.5,453.8,63,453.8,63z"/>
<polygon class="st1" points="451,153 454,87 457,153 "/>
<circle class="st5" cx="500.5" cy="107.4" r="20"/>
<circle class="st5" cx="527" cy="126" r="14.5"/>
<circle class="st5" cx="478.5" cy="127.5" r="11"/>
<polygon class="st1" points="498.5,153 501.5,98.5 506.5,153 "/>
<polygon class="st1" points="524.5,152.5 526.5,118.5 528.5,152.5 "/>
<polygon class="st1" points="477.5,153.9 478.5,120.5 480.5,154 "/>
<g>
	<rect x="366" y="64" class="st4" width="8" height="12"/>
	<path class="st0" d="M402,152h-38c-3.9,0-7-3.1-7-7V63c0-3.8,3.1-7,7-7h38c3.9,0,7,3.2,7,7v82C409,148.9,405.9,152,402,152z"/>
	<rect x="371" y="91" class="st4" width="6" height="16"/>
	<rect x="380" y="62" class="st4" width="6" height="16"/>
	<rect x="370" y="119" class="st4" width="6" height="16"/>
	<rect x="392" y="87" class="st4" width="6" height="16"/>
	<rect x="391" y="121" class="st4" width="6" height="16"/>
</g>
<g>
	<polygon class="st6" points="211.1,145 220.4,145 222.5,131.6 209,131.6 	"/>
	<path class="st5" d="M223.8,132.1h-16.1c-0.1,0-0.2-0.1-0.2-0.2v-0.6c0-0.1,0.1-0.2,0.2-0.2h16.1c0.1,0,0.2,0.1,0.2,0.2v0.6
		C224,132,223.9,132.1,223.8,132.1z"/>
</g>
<g>
	<circle class="st7" cx="569" cy="144.2" r="4.6"/>
	<polygon class="st6" points="579.4,115 625.1,115 625.1,139.3 622.8,139.3 606.8,139.3 579.4,139.3 	"/>
	<path class="st6" d="M560,144.7V144h-1v-2.4h1c0,0,0-9.4,0.3-10.8c0.3-1.4,4.9-10.1,5.2-10.1s12.5,0,12.5,0s-0.3,16,0,17
		s1.3,1.4,1.7,1.6c0.4,0.2,47.2-0.2,47.2-0.2v2.4h0.7v2.1H627v1h-52c0,0,0-6.2-5.6-6.2c-3.1,0-5.2,1.4-5.9,3.5
		c-0.4,1.3-0.3,2.8-0.3,2.8H560z"/>
	<circle class="st7" cx="612.1" cy="144.4" r="4.6"/>
	<path class="st8" d="M563.1,131.8c0,0-1.2-0.3-0.7-1.7c0.7-2.1,3.8-7.6,3.8-7.6h5.9v9.4H563.1z"/>
</g>
<rect x="270.3" y="65.1" class="st1" width="3.1" height="19.8"/>
<g>
	<polygon class="st0" points="276.8,70.8 284.3,53.7 264.6,51 259.8,59.2 272.1,67.5 	"/>
	<polygon class="st3" points="276.8,70.8 274.1,62.6 272.1,67.4 	"/>
	<polygon class="st3" points="272.8,68 270,59.9 268,64.6 	"/>
	<polygon class="st3" points="268,64.6 265,57.8 263.2,61.4 	"/>
	<polygon class="st3" points="263.2,61.2 261.8,56.5 259.8,59.2 	"/>
	<polygon class="st3" points="278.9,65.3 276.8,57.8 274.1,64 	"/>
	<polygon class="st3" points="274.1,63.3 272.1,55.8 270,60.5 	"/>
	<polygon class="st3" points="270,60.5 267,54.4 265.3,58 	"/>
	<polygon class="st3" points="265.3,57.8 263.3,53 261.8,55.8 	"/>
	<polygon class="st3" points="281.6,59.2 279,52.8 276.8,57.8 	"/>
	<polygon class="st3" points="276.8,57.8 273.4,52.4 271.4,55.8 	"/>
	<polygon class="st3" points="271.4,55.8 268.7,51.7 267.3,54.4 	"/>
	<polygon class="st3" points="267.3,54.4 264.6,51 263.2,53.1 	"/>
	<line class="st2" x1="272.2" y1="67.7" x2="278.7" y2="52.9"/>
	<line class="st2" x1="273.3" y1="52.1" x2="268.2" y2="64.9"/>
	<line class="st2" x1="268.5" y1="51.3" x2="263.5" y2="61.4"/>
	<line class="st2" x1="261.6" y1="55.9" x2="279.1" y2="65.8"/>
	<line class="st2" x1="263" y1="53.2" x2="282" y2="59.5"/>
	<polygon class="st2" points="276.8,70.8 284.3,53.7 264.6,51 259.8,59.2 272.1,67.5 	"/>
</g>
<rect x="322.3" y="67.1" class="st1" width="2.1" height="17.7"/>
<g>
	<polygon class="st0" points="328.9,72.9 336.4,55.8 316.6,53.1 311.8,61.3 324.1,69.6 	"/>
	<polygon class="st3" points="328.9,72.9 326.2,64.7 324.1,69.4 	"/>
	<polygon class="st3" points="324.8,70.1 322.1,61.9 320,66.7 	"/>
	<polygon class="st3" points="320,66.7 317,59.9 315.2,63.5 	"/>
	<polygon class="st3" points="315.2,63.3 313.9,58.5 311.8,61.3 	"/>
	<polygon class="st3" points="330.9,67.4 328.9,59.9 326.2,66 	"/>
	<polygon class="st3" points="326.2,65.4 324.1,57.9 322.1,62.6 	"/>
	<polygon class="st3" points="322.1,62.6 319,56.5 317.3,60.1 	"/>
	<polygon class="st3" points="317.3,59.9 315.3,55.1 313.9,57.9 	"/>
	<polygon class="st3" points="333.7,61.3 331,54.8 328.9,59.9 	"/>
	<polygon class="st3" points="328.9,59.9 325.5,54.4 323.4,57.9 	"/>
	<polygon class="st3" points="323.4,57.9 320.7,53.8 319.3,56.5 	"/>
	<polygon class="st3" points="319.3,56.5 316.6,53.1 315.2,55.2 	"/>
	<line class="st2" x1="324.3" y1="69.8" x2="330.7" y2="54.9"/>
	<line class="st2" x1="325.3" y1="54.1" x2="320.2" y2="67"/>
	<line class="st2" x1="320.5" y1="53.4" x2="315.5" y2="63.5"/>
	<line class="st2" x1="313.6" y1="58" x2="331.1" y2="67.9"/>
	<line class="st2" x1="315" y1="55.3" x2="334" y2="61.6"/>
	<polygon class="st2" points="328.9,72.9 336.4,55.8 316.6,53.1 311.8,61.3 324.1,69.6 	"/>
</g>
<g>
	<polygon class="st0" points="303.9,72.9 311.4,55.8 291.6,53.1 286.9,61.3 299.1,69.6 	"/>
	<polygon class="st3" points="303.9,72.9 301.2,64.7 299.1,69.4 	"/>
	<polygon class="st3" points="299.8,70.1 297.1,61.9 295,66.7 	"/>
	<polygon class="st3" points="295,66.7 292,59.9 290.3,63.5 	"/>
	<polygon class="st3" points="290.3,63.3 288.9,58.5 286.9,61.3 	"/>
	<polygon class="st3" points="306,67.4 303.9,59.9 301.2,66 	"/>
	<polygon class="st3" points="301.2,65.4 299.1,57.9 297.1,62.6 	"/>
	<polygon class="st3" points="297.1,62.6 294.1,56.5 292.3,60.1 	"/>
	<polygon class="st3" points="292.3,59.9 290.4,55.1 288.9,57.9 	"/>
	<polygon class="st3" points="308.7,61.3 306,54.8 303.9,59.9 	"/>
	<polygon class="st3" points="303.9,59.9 300.5,54.4 298.5,57.9 	"/>
	<polygon class="st3" points="298.5,57.9 295.7,53.8 294.4,56.5 	"/>
	<polygon class="st3" points="294.4,56.5 291.6,53.1 290.3,55.2 	"/>
	<line class="st2" x1="299.3" y1="69.8" x2="305.8" y2="54.9"/>
	<line class="st2" x1="300.3" y1="54.1" x2="295.3" y2="67"/>
	<line class="st2" x1="295.6" y1="53.4" x2="290.6" y2="63.5"/>
	<line class="st2" x1="288.6" y1="58" x2="306.2" y2="67.9"/>
	<line class="st2" x1="290.1" y1="55.3" x2="309" y2="61.6"/>
	<polygon class="st2" points="303.9,72.9 311.4,55.8 291.6,53.1 286.9,61.3 299.1,69.6 	"/>
</g>
</svg>
