<?xml version="1.0" encoding="utf-8"?>
<!-- Generator: Adobe Illustrator 22.1.0, SVG Export Plug-In . SVG Version: 6.00 Build 0)  -->
<svg version="1.1" id="Layer_1" xmlns="http://www.w3.org/2000/svg" xmlns:xlink="http://www.w3.org/1999/xlink" x="0px" y="0px"
	 viewBox="0 0 967.4 118" style="enable-background:new 0 0 967.4 118;" xml:space="preserve">
<style type="text/css">
	.st0{fill:#F1F2F2;}
	.st1{fill:#475670;}
	.st2{fill:#D1D3D4;}
	.st3{fill:#F8B921;}
	.st4{fill:#FFFFFF;}
	.st5{fill:#FFE3B6;}
</style>
<g>
	<path class="st0" d="M740,15.3H635c4,0,7.3,5,7.3,11.1c0,4.9-2.6,8.9-5.8,8.9h13.2c1.1-3.1,1.8-6.6,1.8-10.4h79.9h15.8
		C746.7,19.4,743.7,15.3,740,15.3z"/>
	<path class="st1" d="M649.7,36.7h-13.2c-0.8,0-1.5-0.7-1.5-1.5s0.7-1.5,1.5-1.5c2.4,0,4.4-3.4,4.4-7.4c0-5.2-2.6-9.6-5.8-9.6
		c-0.8,0-1.5-0.7-1.5-1.5s0.7-1.5,1.5-1.5h105c4.4,0,8.1,4.6,8.6,10.9c0,0.4-0.1,0.8-0.4,1.1s-0.7,0.5-1.1,0.5H653
		c-0.1,3.2-0.8,6.4-1.9,9.4C650.9,36.3,650.3,36.7,649.7,36.7z M641.6,33.7h7c0.9-2.9,1.4-5.9,1.4-9c0-0.8,0.7-1.5,1.5-1.5h94
		c-0.8-3.8-3-6.6-5.5-6.6h-99.3c1.9,2.3,3.1,5.7,3.1,9.6C643.8,29.3,642.9,31.9,641.6,33.7z"/>
	<path class="st2" d="M649.7,35.2h-13.2c3.2,0,5.8-4,5.8-8.9c0-6.1-3.3-11.1-7.3-11.1c-5,0-9.1,6.2-9.1,13.9
		c0,9.6,5.1,17.3,11.4,17.3C642.7,46.4,647.3,41.9,649.7,35.2z"/>
	<path class="st1" d="M637.3,47.9c-7.1,0-12.9-8.4-12.9-18.8c0-8.6,4.7-15.3,10.6-15.3c4.9,0,8.8,5.5,8.8,12.6
		c0,2.9-0.8,5.5-2.1,7.4h8.1c0.5,0,0.9,0.2,1.2,0.6c0.3,0.4,0.3,0.9,0.2,1.3C648.3,43.2,643.1,47.9,637.3,47.9z M635,16.7
		c-4.1,0-7.6,5.7-7.6,12.4c0,8.7,4.4,15.8,9.9,15.8c4,0,7.8-3.1,10.2-8.3h-11c-0.8,0-1.5-0.7-1.5-1.5s0.7-1.5,1.5-1.5
		c2.4,0,4.4-3.4,4.4-7.4C640.8,21.1,638.2,16.7,635,16.7z"/>
	<g>
		<path class="st1" d="M742.3,47.9h-105c-0.8,0-1.5-0.7-1.5-1.5s0.7-1.5,1.5-1.5c4.5,0,8.7-3.9,11-10.3c1.2-3.2,1.7-6.5,1.7-9.9
			c0-0.8,0.7-1.5,1.5-1.5h105c0.8,0,1.5,0.7,1.5,1.5C758,37.5,751,47.9,742.3,47.9z M644.9,45h97.4c6.7,0,12.3-8.3,12.7-18.7H653
			c-0.1,3.2-0.8,6.4-1.9,9.4C649.6,39.7,647.5,42.8,644.9,45z"/>
	</g>
	<path class="st3" d="M692.9,11.7c-2.4-2-5.1-3.2-8.1-3.2c-4.3,0-8.2,2.4-11.1,6.2h16.2C690.8,13.6,691.8,12.6,692.9,11.7z"/>
	<path class="st1" d="M689.9,16.2h-16.2c-0.6,0-1.1-0.3-1.3-0.8c-0.2-0.5-0.2-1.1,0.1-1.6c3.3-4.4,7.6-6.8,12.3-6.8
		c3.1,0,6.2,1.2,9,3.5c0.3,0.3,0.5,0.7,0.5,1.2c0,0.5-0.2,0.9-0.5,1.2c-1.1,0.9-2,1.8-2.8,2.8C690.8,16,690.3,16.2,689.9,16.2z
		 M677,13.3h12.2c0.4-0.5,0.9-1,1.4-1.5C686,8.9,681,9.7,677,13.3z"/>
	<path class="st3" d="M701,8.5h-16.2c2.9,0,5.7,1.2,8.1,3.2c1.1,0.9,2.1,1.9,3,3.1c3,4.1,4.9,9.7,4.9,16.1c0,6.2-1.8,11.7-4.7,15.8
		c-1,1.3-2.1,2.4-3.2,3.4c-2.4,2-5.1,3.2-8.1,3.2h16.2c4.4,0,8.4-2.5,11.3-6.5s4.7-9.6,4.7-15.8C716.9,18.5,709.8,8.5,701,8.5z"/>
	<path class="st1" d="M701,54.6h-16.2c-0.8,0-1.5-0.7-1.5-1.5s0.7-1.5,1.5-1.5c2.5,0,4.9-0.9,7.1-2.8c1.3-1,2.2-2,3-3.1
		c2.8-4,4.4-9.3,4.4-14.9c0-5.8-1.7-11.2-4.7-15.2c-0.8-1-1.7-2-2.7-2.8c-2.3-1.9-4.7-2.8-7.1-2.8c-0.8,0-1.5-0.7-1.5-1.5
		c0-0.8,0.7-1.5,1.5-1.5H701c9.6,0,17.5,10.7,17.5,23.8c0,6.3-1.8,12.2-5,16.6C710.2,52.1,705.7,54.6,701,54.6z M693.1,51.7h7.8
		c3.8,0,7.4-2.1,10.1-5.9c2.8-4,4.4-9.3,4.4-14.9C715.5,19.4,709,10,701,10h-7.8c0.2,0.2,0.5,0.3,0.7,0.5c1.3,1,2.3,2.1,3.2,3.3
		c3.4,4.5,5.2,10.5,5.2,16.9c0,6.3-1.8,12.2-5,16.6c-0.9,1.3-2,2.4-3.5,3.6C693.6,51.3,693.4,51.5,693.1,51.7z"/>
	<path class="st3" d="M689.7,46.6h-16.2c2.9,4,6.9,6.5,11.3,6.5c3,0,5.7-1.2,8.1-3.2C691.7,49,690.6,47.9,689.7,46.6z"/>
	<path class="st1" d="M684.8,54.6c-4.8,0-9.2-2.5-12.5-7.1c-0.3-0.5-0.4-1-0.1-1.5c0.2-0.5,0.7-0.8,1.3-0.8h16.2
		c0.5,0,0.9,0.2,1.2,0.6c0.7,1.1,1.7,2.1,3,3.1c0.3,0.3,0.5,0.7,0.5,1.2c0,0.4-0.2,0.9-0.5,1.1C691,53.4,687.9,54.6,684.8,54.6z
		 M676.7,48.1c4,3.9,9.2,4.7,13.9,1.8c-0.6-0.6-1.2-1.2-1.6-1.8H676.7z"/>
	<polygon class="st3" points="700.9,75.3 692.9,68.9 684.8,75.3 684.8,53.1 700.9,53.1 	"/>
	<path class="st1" d="M700.9,76.8c-0.3,0-0.6-0.1-0.9-0.3l-7.1-5.6l-7.1,5.6c-0.5,0.3-1,0.4-1.6,0.2c-0.5-0.2-0.8-0.8-0.8-1.3V53.1
		c0-0.8,0.7-1.5,1.5-1.5h16.1c0.8,0,1.5,0.7,1.5,1.5v22.2c0,0.6-0.3,1.1-0.8,1.3C701.3,76.7,701.1,76.8,700.9,76.8z M686.3,54.6
		v17.7l5.7-4.5c0.5-0.4,1.3-0.4,1.8,0l5.6,4.5V54.6L686.3,54.6L686.3,54.6z"/>
</g>
<g>
	<g>
		<path class="st1" d="M816.2,111.9H698.1c-0.8,0-1.5-0.7-1.5-1.5c0-0.8,0.7-1.5,1.5-1.5h118.2c0.8,0,1.5,0.7,1.5,1.5
			C817.7,111.3,817.1,111.9,816.2,111.9z"/>
	</g>
	<rect x="724.8" y="68.6" class="st3" width="16.2" height="41.9"/>
	<path class="st1" d="M741,111.9h-16.2c-0.8,0-1.5-0.7-1.5-1.5V68.6c0-0.8,0.7-1.5,1.5-1.5H741c0.8,0,1.5,0.7,1.5,1.5v41.9
		C742.5,111.3,741.8,111.9,741,111.9z M726.3,109h13.2V70h-13.2V109z"/>
	<rect x="757.1" y="83" class="st3" width="16.2" height="27.4"/>
	<path class="st1" d="M773.4,111.9h-16.2c-0.8,0-1.5-0.7-1.5-1.5V83c0-0.8,0.7-1.5,1.5-1.5h16.2c0.8,0,1.5,0.7,1.5,1.5v27.4
		C774.8,111.3,774.2,111.9,773.4,111.9z M758.6,109h13.2V84.5h-13.2V109z"/>
	<rect x="789.5" y="50.6" class="st3" width="16.2" height="59.8"/>
	<path class="st1" d="M805.7,111.9h-16.2c-0.8,0-1.5-0.7-1.5-1.5V50.6c0-0.8,0.7-1.5,1.5-1.5h16.2c0.8,0,1.5,0.7,1.5,1.5v59.8
		C807.2,111.3,806.5,111.9,805.7,111.9z M791,109h13.2V52.1H791V109z"/>
</g>
<g>
	<path class="st2" d="M351.1,58.7l-46.1-19.6v29.8c0,0,13.1,14.4,46.1,14.4c33,0,46.1-14.4,46.1-14.4V39.1L351.1,58.7z"/>
	<path class="st1" d="M351.1,84.6c-33.3,0-46.5-14.2-47.1-14.8c-0.2-0.2-0.3-0.5-0.3-0.9V39.1c0-0.4,0.2-0.9,0.6-1.1
		c0.4-0.2,0.8-0.3,1.2-0.1l45.6,19.4l45.6-19.4c0.4-0.2,0.9-0.1,1.2,0.1c0.4,0.2,0.6,0.6,0.6,1.1v29.8c0,0.3-0.1,0.6-0.3,0.9
		C397.6,70.4,384.3,84.6,351.1,84.6z M306.2,68.4c2.2,2.1,15.7,13.6,44.8,13.6c29.2,0,42.6-11.5,44.8-13.6V41l-44.3,18.9
		c-0.3,0.1-0.7,0.1-1,0L306.3,41L306.2,68.4L306.2,68.4z"/>
	<polygon class="st4" points="351.1,9.7 266.7,22.8 304.9,39.1 351.1,58.7 397.2,39.1 435.5,22.8 	"/>
	<path class="st1" d="M351.1,60c-0.2,0-0.4,0-0.5-0.1L266.2,24c-0.5-0.2-0.9-0.8-0.8-1.3c0.1-0.6,0.5-1,1.1-1.1l84.4-13
		c0.1,0,0.3,0,0.4,0l84.4,13c0.6,0.1,1,0.5,1.1,1.1c0.1,0.6-0.2,1.1-0.8,1.3l-84.4,35.9C351.4,59.9,351.2,60,351.1,60z M271.4,23.4
		l79.7,33.9l79.7-33.9l-79.7-12.3L271.4,23.4z"/>
	<path class="st1" d="M317.9,95.5c-0.7,0-1.3-0.6-1.3-1.3V77.1c0-0.7,0.6-1.3,1.3-1.3s1.3,0.6,1.3,1.3v17.1
		C319.2,95,318.6,95.5,317.9,95.5z"/>
	<path class="st5" d="M324.6,101c0,3.7-3,6.7-6.7,6.7c-3.7,0-6.7-3-6.7-6.7c0-3.7,3-6.7,6.7-6.7C321.6,94.2,324.6,97.3,324.6,101z"
		/>
	<path class="st1" d="M317.9,109c-4.4,0-8.1-3.6-8.1-8.1c0-4.4,3.6-8.1,8.1-8.1s8.1,3.6,8.1,8.1C325.9,105.4,322.3,109,317.9,109z
		 M317.9,95.5c-3,0-5.4,2.4-5.4,5.4c0,3,2.4,5.4,5.4,5.4c3,0,5.4-2.4,5.4-5.4C323.3,98,320.9,95.5,317.9,95.5z"/>
</g>
<g>
	<path class="st1" d="M212.3,22.4h-31.1c-0.8,0-1.5-0.7-1.5-1.5s0.7-1.5,1.5-1.5h31.1c0.8,0,1.5,0.7,1.5,1.5S213.1,22.4,212.3,22.4z
		"/>
</g>
<g>
	<path class="st1" d="M261.7,37.8h-80.5c-0.8,0-1.5-0.7-1.5-1.5c0-0.8,0.7-1.5,1.5-1.5h80.5c0.8,0,1.5,0.7,1.5,1.5
		C263.1,37.2,262.5,37.8,261.7,37.8z"/>
</g>
<g>
	<g>
		<path class="st1" d="M220.4,89.3h-17.2c-0.8,0-1.5-0.7-1.5-1.5c0-0.8,0.7-1.5,1.5-1.5h17.2c0.8,0,1.5,0.7,1.5,1.5
			C221.9,88.6,221.2,89.3,220.4,89.3z"/>
	</g>
	<g>
		<path class="st1" d="M215.4,106.6h-12.2c-0.8,0-1.5-0.7-1.5-1.5c0-0.8,0.7-1.5,1.5-1.5h12.2c0.8,0,1.5,0.7,1.5,1.5
			C216.9,105.9,216.2,106.6,215.4,106.6z"/>
	</g>
</g>
<g>
	<rect x="245.8" y="58.5" class="st5" width="35.7" height="35.7"/>
	<path class="st1" d="M281.9,95.2h-35.7c-0.8,0-1.5-0.7-1.5-1.5V58.1c0-0.8,0.7-1.5,1.5-1.5h35.7c0.8,0,1.5,0.7,1.5,1.5v35.7
		C283.4,94.6,282.8,95.2,281.9,95.2z M247.7,92.3h32.8V59.5h-32.8V92.3z"/>
	<path class="st1" d="M275.3,72.1h-23.4c-0.8,0-1.5-0.7-1.5-1.5c0-0.8,0.7-1.5,1.5-1.5h23.4c0.8,0,1.5,0.7,1.5,1.5
		C276.8,71.5,276.1,72.1,275.3,72.1z"/>
	<g>
		<path class="st1" d="M275.3,83.6h-23.4c-0.8,0-1.5-0.7-1.5-1.5c0-0.8,0.7-1.5,1.5-1.5h23.4c0.8,0,1.5,0.7,1.5,1.5
			C276.8,83,276.1,83.6,275.3,83.6z"/>
	</g>
	<g>
		<path class="st1" d="M269.4,89.6c-0.8,0-1.5-0.7-1.5-1.5V64.7c0-0.8,0.7-1.5,1.5-1.5c0.8,0,1.5,0.7,1.5,1.5v23.4
			C270.9,88.9,270.2,89.6,269.4,89.6z"/>
	</g>
	<path class="st1" d="M257.9,89.6c-0.8,0-1.5-0.7-1.5-1.5V64.7c0-0.8,0.7-1.5,1.5-1.5c0.8,0,1.5,0.7,1.5,1.5v23.4
		C259.3,88.9,258.7,89.6,257.9,89.6z"/>
</g>
<g>
	<rect x="830.1" y="8.4" class="st5" width="82" height="103.5"/>
	<path class="st1" d="M912.1,113.4h-82c-0.8,0-1.5-0.7-1.5-1.5V8.4c0-0.8,0.7-1.5,1.5-1.5h82c0.8,0,1.5,0.7,1.5,1.5v103.5
		C913.6,112.7,912.9,113.4,912.1,113.4z M831.6,110.4h79V9.9h-79V110.4z"/>
	<rect x="841.2" y="22.3" class="st4" width="26.5" height="32.8"/>
	<path class="st1" d="M867.7,56.6h-26.5c-0.8,0-1.5-0.7-1.5-1.5V22.3c0-0.8,0.7-1.5,1.5-1.5h26.5c0.8,0,1.5,0.7,1.5,1.5v32.8
		C869.1,55.9,868.5,56.6,867.7,56.6z M842.7,53.6h23.5V23.8h-23.5V53.6z"/>
	<g>
		<line class="st1" x1="876.6" y1="28.7" x2="900.9" y2="28.7"/>
		<path class="st1" d="M900.9,30.2h-24.4c-0.8,0-1.5-0.7-1.5-1.5s0.7-1.5,1.5-1.5h24.4c0.8,0,1.5,0.7,1.5,1.5S901.7,30.2,900.9,30.2
			z"/>
	</g>
	<g>
		<line class="st1" x1="876.6" y1="42.2" x2="900.9" y2="42.2"/>
		<path class="st1" d="M900.9,43.7h-24.4c-0.8,0-1.5-0.7-1.5-1.5s0.7-1.5,1.5-1.5h24.4c0.8,0,1.5,0.7,1.5,1.5
			C902.4,43,901.7,43.7,900.9,43.7z"/>
	</g>
	<g>
		<line class="st1" x1="876.6" y1="55.7" x2="900.9" y2="55.7"/>
		<path class="st1" d="M900.9,57.2h-24.4c-0.8,0-1.5-0.7-1.5-1.5c0-0.8,0.7-1.5,1.5-1.5h24.4c0.8,0,1.5,0.7,1.5,1.5
			C902.4,56.5,901.7,57.2,900.9,57.2z"/>
	</g>
	<g>
		<line class="st1" x1="876.6" y1="69.1" x2="900.9" y2="69.1"/>
		<path class="st1" d="M900.9,70.6h-24.4c-0.8,0-1.5-0.7-1.5-1.5c0-0.8,0.7-1.5,1.5-1.5h24.4c0.8,0,1.5,0.7,1.5,1.5
			C902.4,69.9,901.7,70.6,900.9,70.6z"/>
	</g>
	<path class="st1" d="M917.6,102c-0.6,0-1.2-0.4-1.4-1l-1.7-5.3c-0.8,0-1.6,0-2.5,0c-0.8,0-1.4-0.7-1.4-1.5V19.8
		c0-0.8,0.7-1.5,1.5-1.5h5.5c0.7,0,1.4,0.6,1.5,1.3l0.5,5.6c0.7,0.1,1.5,0.3,2.2,0.5l2.8-4.8c0.4-0.7,1.2-0.9,1.9-0.6l7.8,3.5
		c0.7,0.3,1,1.1,0.8,1.8l-1.8,5.3c0.6,0.4,1.3,0.9,1.8,1.3l4.5-3.3c0.6-0.5,1.5-0.4,2,0.2l5.7,6.3c0.5,0.6,0.5,1.4,0,2l-3.8,4.1
		c0.4,0.6,0.8,1.3,1.2,2l5.5-1.2c0.7-0.2,1.5,0.3,1.7,1l2.6,8.1c0.2,0.7-0.1,1.5-0.8,1.8l-5.1,2.2c0.1,0.7,0.2,1.5,0.2,2.2l5.5,1.1
		c0.7,0.2,1.3,0.9,1.2,1.6l-0.9,8.5c-0.1,0.7-0.7,1.3-1.5,1.3l0,0l-5.6-0.1c-0.2,0.7-0.5,1.4-0.7,2.2l4.5,3.2
		c0.6,0.4,0.8,1.3,0.4,1.9l-4.3,7.4c-0.4,0.7-1.2,0.9-1.9,0.6l-5.1-2.3c-0.5,0.6-1,1.2-1.5,1.7l2.8,4.8c0.4,0.6,0.2,1.5-0.4,1.9
		l-6.9,5c-0.6,0.5-1.5,0.3-2-0.2l-3.7-4.2c-0.7,0.3-1.4,0.6-2.1,0.9l0.6,5.5c0.1,0.7-0.4,1.4-1.2,1.6l-8.3,1.8
		C917.8,102,917.7,102,917.6,102z M915.6,92.6c0.6,0,1.2,0.4,1.4,1l1.6,5.1l5.7-1.2l-0.6-5.3c-0.1-0.7,0.3-1.3,1-1.6
		c1.3-0.5,2.6-1.1,3.9-1.7c0.6-0.3,1.3-0.2,1.8,0.3l3.6,4l4.7-3.4l-2.7-4.6c-0.3-0.6-0.2-1.3,0.2-1.8c1-1,1.9-2,2.8-3.1
		c0.4-0.5,1.2-0.7,1.8-0.4l4.9,2.2l2.9-5.1l-4.4-3.1c-0.6-0.4-0.8-1.1-0.5-1.7c0.5-1.4,1-2.7,1.3-4c0.2-0.6,0.7-1.1,1.4-1.1l0,0
		l5.4,0.1l0.6-5.8l-5.3-1.1c-0.7-0.1-1.2-0.7-1.2-1.4c-0.1-1.4-0.2-2.8-0.4-4.2c-0.1-0.7,0.2-1.3,0.9-1.6l4.9-2.2l-1.8-5.5l-5.2,1.2
		c-0.7,0.2-1.3-0.2-1.6-0.8c-0.6-1.3-1.3-2.5-2.1-3.6c-0.4-0.6-0.3-1.3,0.1-1.8l3.6-4l-3.9-4.3l-4.3,3.2c-0.5,0.4-1.3,0.4-1.8-0.1
		c-1-0.9-2.2-1.7-3.4-2.5c-0.6-0.4-0.8-1.1-0.6-1.7l1.7-5.1l-5.3-2.4l-2.6,4.7c-0.3,0.6-1,0.9-1.7,0.7c-1.3-0.4-2.7-0.7-4.1-0.9
		c-0.7-0.1-1.2-0.6-1.3-1.3l-0.5-5.4h-2.7v71.4C914.3,92.7,914.9,92.7,915.6,92.6C915.5,92.6,915.5,92.6,915.6,92.6z"/>
	<path class="st4" d="M913.4,37.5c-0.4,0-0.9,0-1.3,0.1v45.3c0.4,0,0.8,0,1.3,0c12.5,0,22.7-10.2,22.7-22.7S925.9,37.5,913.4,37.5z"
		/>
	<path class="st1" d="M913.4,84.3c-0.5,0-0.9,0-1.3,0c-0.8-0.1-1.4-0.7-1.4-1.5V37.5c0-0.8,0.6-1.4,1.4-1.5c0.5,0,0.9-0.1,1.3-0.1
		c13.3,0,24.2,10.8,24.2,24.2C937.5,73.5,926.7,84.3,913.4,84.3z M913.6,38.9v42.4c11.6-0.1,21-9.6,21-21.2S925.2,39,913.6,38.9z"/>
	<g>
		<path class="st1" d="M876.6,87h-35.7c-0.8,0-1.5-0.7-1.5-1.5c0-0.8,0.7-1.5,1.5-1.5h35.7c0.8,0,1.5,0.7,1.5,1.5
			C878,86.4,877.4,87,876.6,87z"/>
	</g>
	<g>
		<path class="st1" d="M876.6,99h-35.7c-0.8,0-1.5-0.7-1.5-1.5c0-0.8,0.7-1.5,1.5-1.5h35.7c0.8,0,1.5,0.7,1.5,1.5
			C878,98.3,877.4,99,876.6,99z"/>
	</g>
</g>
<g>
	<g>
		<path class="st1" d="M618.7,103.9c-0.4,0-0.7-0.1-1-0.4l-12.3-12.3c-0.6-0.6-0.6-1.5,0-2.1c0.6-0.6,1.5-0.6,2.1,0l12.3,12.3
			c0.6,0.6,0.6,1.5,0,2.1C619.4,103.8,619.1,103.9,618.7,103.9z"/>
	</g>
	<g>
		<path class="st1" d="M606.3,103.9c-0.4,0-0.7-0.1-1-0.4c-0.6-0.6-0.6-1.5,0-2.1L617.6,89c0.6-0.6,1.5-0.6,2.1,0
			c0.6,0.6,0.6,1.5,0,2.1l-12.3,12.3C607.1,103.8,606.7,103.9,606.3,103.9z"/>
	</g>
</g>
<g>
	<g>
		<g>
			<path class="st1" d="M107.5,20.7c-0.3,0-0.6-0.1-0.8-0.4L97.1,7.9c-0.5-0.6-0.5-1.5,0-2.1c0.5-0.6,1.2-0.6,1.6,0l9.6,12.3
				c0.5,0.6,0.5,1.5,0,2.1C108,20.5,107.8,20.7,107.5,20.7z"/>
		</g>
		<g>
			<path class="st1" d="M97.9,20.7c-0.3,0-0.6-0.1-0.8-0.4c-0.5-0.6-0.5-1.5,0-2.1l9.6-12.3c0.5-0.6,1.2-0.6,1.6,0
				c0.5,0.6,0.5,1.5,0,2.1l-9.6,12.3C98.5,20.5,98.2,20.7,97.9,20.7z"/>
		</g>
	</g>
	<g>
		<path class="st1" d="M126.4,23.4c-2.3,0-4.2-2.4-4.2-5.4s1.9-5.4,4.2-5.4c2.3,0,4.2,2.4,4.2,5.4C130.6,21,128.8,23.4,126.4,23.4z
			 M126.4,15.6c-1.1,0-1.9,1.1-1.9,2.5c0,1.4,0.9,2.5,1.9,2.5c1.1,0,1.9-1.1,1.9-2.5C128.3,16.7,127.5,15.6,126.4,15.6z"/>
	</g>
</g>
<g>
	<g>
		<path class="st1" d="M404.6,92.9c-0.5,0-0.9-0.2-1.2-0.6c-0.5-0.6-0.3-1.6,0.3-2.1l43.8-32.7c0.4-0.3,1-0.4,1.5-0.2l59.6,26.1
			l78.8-65c0.6-0.5,1.6-0.4,2.1,0.2c0.5,0.6,0.4,1.6-0.2,2.1l-79.5,65.5c-0.4,0.3-1,0.4-1.5,0.2l-59.6-26.2l-43.1,32.2
			C405.3,92.8,404.9,92.9,404.6,92.9z"/>
	</g>
	<polygon class="st3" points="579.9,9 606,6 595.5,30.2 	"/>
	<path class="st1" d="M595.5,31.7c-0.5,0-0.9-0.2-1.2-0.6L578.7,9.9c-0.3-0.4-0.4-1-0.2-1.5c0.2-0.5,0.7-0.8,1.2-0.9l26.1-3
		c0.5-0.1,1,0.2,1.4,0.6c0.3,0.4,0.4,1,0.2,1.5l-10.5,24.1c-0.2,0.5-0.7,0.8-1.2,0.9C595.6,31.6,595.6,31.7,595.5,31.7z M582.6,10.2
		l12.6,17l8.5-19.5L582.6,10.2z"/>
	<g>
		<path class="st1" d="M511.1,110.4c-0.2,0-0.4-0.1-0.6-0.1l-30.3-14c-0.7-0.3-1.1-1.2-0.7-2c0.3-0.7,1.2-1.1,2-0.7l29.5,13.6
			l47.8-37.9c0.6-0.5,1.6-0.4,2.1,0.2c0.5,0.6,0.4,1.6-0.2,2.1L512,110.1C511.8,110.3,511.4,110.4,511.1,110.4z"/>
	</g>
	<g>
		<path class="st1" d="M582.4,64.1c-3,0-5.4-2.4-5.4-5.4s2.4-5.4,5.4-5.4c3,0,5.4,2.4,5.4,5.4S585.4,64.1,582.4,64.1z M582.4,56.2
			c-1.4,0-2.5,1.1-2.5,2.5c0,1.4,1.1,2.5,2.5,2.5s2.5-1.1,2.5-2.5C584.9,57.3,583.8,56.2,582.4,56.2z"/>
	</g>
	<g>
		<path class="st1" d="M458.5,93.6c-4.2,0-7.6-3.4-7.6-7.6s3.4-7.6,7.6-7.6s7.6,3.4,7.6,7.6C466.1,90.2,462.7,93.6,458.5,93.6z
			 M458.5,81.3c-2.6,0-4.7,2.1-4.7,4.7c0,2.6,2.1,4.7,4.7,4.7c2.6,0,4.7-2.1,4.7-4.7S461.1,81.3,458.5,81.3z"/>
	</g>
	<g>
		<path class="st1" d="M508.1,60.2h-12.8c-0.8,0-1.5-0.7-1.5-1.5s0.7-1.5,1.5-1.5h12.8c0.8,0,1.5,0.7,1.5,1.5S508.9,60.2,508.1,60.2
			z"/>
	</g>
</g>
<g>
	<polygon class="st5" points="137.3,74.5 154.6,67.9 151.6,86.2 	"/>
	<path class="st1" d="M151.6,87.7c-0.3,0-0.7-0.1-0.9-0.3l-14.3-11.7c-0.4-0.3-0.6-0.9-0.5-1.4c0.1-0.5,0.4-1,0.9-1.2l17.3-6.6
		c0.5-0.2,1-0.1,1.4,0.2c0.4,0.3,0.6,0.9,0.5,1.4l-3,18.3c-0.1,0.5-0.4,1-0.9,1.2C152,87.6,151.8,87.7,151.6,87.7z M140.2,75
		l10.4,8.5l2.2-13.2L140.2,75z"/>
	<g>
		<path class="st1" d="M157.1,113.4H60.5c-0.8,0-1.5-0.7-1.5-1.5c0-0.8,0.7-1.5,1.5-1.5h95.8l9.4-12.2c0.5-0.6,1.4-0.8,2.1-0.3
			s0.8,1.4,0.3,2.1l-9.8,12.8C158,113.2,157.5,113.4,157.1,113.4z"/>
	</g>
	<g>
		<path class="st1" d="M71.4,113.4c-0.3,0-0.6-0.1-0.9-0.3c-0.6-0.5-0.8-1.4-0.3-2.1l32.8-44.5c0.2-0.3,0.6-0.5,1-0.6
			c0.4-0.1,0.8,0.1,1.1,0.3L119.8,77l23.6-31.2c0.5-0.6,1.4-0.8,2.1-0.3s0.8,1.4,0.3,2.1L121.3,80c-0.5,0.6-1.4,0.8-2.1,0.3
			l-14.7-10.8l-31.9,43.3C72.3,113.2,71.9,113.4,71.4,113.4z"/>
	</g>
	<g>
		<path class="st1" d="M121.5,113.4c-0.3,0-0.6-0.1-0.9-0.3c-0.6-0.5-0.8-1.4-0.3-2.1l23.1-31.3c0.5-0.6,1.4-0.8,2.1-0.3
			c0.6,0.5,0.8,1.4,0.3,2.1l-23.1,31.3C122.4,113.2,121.9,113.4,121.5,113.4z"/>
	</g>
	<g>
		<polygon class="st5" points="137.3,40.7 154.6,34.1 151.6,52.4 		"/>
		<path class="st1" d="M151.6,53.9c-0.3,0-0.7-0.1-0.9-0.3l-14.3-11.7c-0.4-0.3-0.6-0.9-0.5-1.4c0.1-0.5,0.4-1,0.9-1.2l17.3-6.6
			c0.5-0.2,1-0.1,1.4,0.2c0.4,0.3,0.6,0.9,0.5,1.4l-3,18.3c-0.1,0.5-0.4,1-0.9,1.2C152,53.8,151.8,53.9,151.6,53.9z M140.2,41.2
			l10.4,8.5l2.2-13.2L140.2,41.2z"/>
		<polygon class="st5" points="159.2,93.6 176.5,87.1 173.5,105.4 		"/>
		<path class="st1" d="M173.5,106.8c-0.3,0-0.7-0.1-0.9-0.3l-14.3-11.7c-0.4-0.3-0.6-0.9-0.5-1.4c0.1-0.5,0.4-1,0.9-1.2l17.3-6.6
			c0.5-0.2,1-0.1,1.4,0.2c0.4,0.3,0.6,0.9,0.5,1.4l-3,18.3c-0.1,0.5-0.4,1-0.9,1.2C173.9,106.8,173.7,106.8,173.5,106.8z
			 M162.1,94.1l10.4,8.5l2.2-13.2L162.1,94.1z"/>
		<path class="st3" d="M74.7,38.6c0-18-14.6-32.5-32.5-32.5S9.6,20.7,9.6,38.6c0,6.6,2,12.7,5.4,17.9l-0.1,0l13.6,30.7H32h6.6h7h6.6
			h3.5l13.6-30.7l-0.1,0C72.7,51.4,74.7,45.3,74.7,38.6z"/>
		<path class="st1" d="M55.7,88.8H28.5c-0.6,0-1.1-0.3-1.3-0.9L13.5,57.2c0-0.1,0-0.1-0.1-0.1C10,51.5,8.1,45.2,8.1,38.6
			c0-18.8,15.3-34,34-34s34,15.3,34,34c0,6.5-1.9,12.9-5.4,18.4c0,0.1,0,0.1-0.1,0.1L57,87.9C56.8,88.4,56.3,88.8,55.7,88.8z
			 M29.5,85.8h25.3l13.1-29.6c0-0.2,0.1-0.4,0.2-0.5c3.3-5.1,5.1-11,5.1-17.1c0-17.1-13.9-31.1-31.1-31.1S11.1,21.5,11.1,38.6
			c0,6.1,1.8,12,5.1,17.1c0.1,0.2,0.2,0.4,0.2,0.6L29.5,85.8z"/>
		<g>
			<line class="st1" x1="54.3" y1="48.3" x2="44.3" y2="48.3"/>
			<path class="st1" d="M54.3,49.8h-10c-0.8,0-1.5-0.7-1.5-1.5s0.7-1.5,1.5-1.5h10c0.8,0,1.5,0.7,1.5,1.5S55.1,49.8,54.3,49.8z"/>
		</g>
		<path class="st1" d="M54.3,54.7H36.4c-0.5,0-1,0.3-1.2,0.7c-0.3,0.4-0.3,0.9-0.1,1.4l5.6,13.5v17c0,0.8,0.7,1.5,1.5,1.5
			c0.8,0,1.5-0.7,1.4-1.5v-3.7l-1.4,3.7V70l-5.8-13.7h17.9l-0.6,1.4h0.6c0.8,0,1.5-0.7,1.5-1.5C55.8,55.4,55.1,54.7,54.3,54.7z"/>
		<path class="st1" d="M36.4,56.2L42.1,70v17.3l1.4-3.7V69.9c0-0.2,0-0.4-0.1-0.6l-4.9-11.7h15.1l0.6-1.4H36.4z"/>
		<rect x="21.6" y="99.1" class="st5" width="38.9" height="12.8"/>
		<path class="st1" d="M60.5,113.4H23c-0.8,0-1.5-0.7-1.5-1.5V99.1c0-0.8,0.7-1.5,1.5-1.5h37.5c0.8,0,1.5,0.7,1.5,1.5v12.8
			C62,112.7,61.3,113.4,60.5,113.4z M24.5,110.4H59v-9.8H24.5V110.4z"/>
		<g>
			<path class="st1" d="M96.4,44.7H83.6c-0.8,0-1.5-0.7-1.5-1.5s0.7-1.5,1.5-1.5h12.8c0.8,0,1.5,0.7,1.5,1.5S97.2,44.7,96.4,44.7z"
				/>
		</g>
	</g>
</g>
<rect x="316.7" y="-48.7" class="st1" width="34.3" height="30.2"/>
<rect x="365.7" y="-48.7" class="st3" width="34.3" height="30.2"/>
<rect x="418.4" y="-48.7" class="st5" width="34.3" height="30.2"/>
</svg>
